<svg width="720" height="436" viewBox="0 0 720 436" fill="none" xmlns="http://www.w3.org/2000/svg">
<rect width="720" height="435" transform="translate(0 0.389648)" fill="white"/>
<rect x="606" y="308.632" width="95" height="95" rx="3.5" fill="white" stroke="#8A99A0"/>
<path d="M642.437 391.733H641.513V389.159C641.513 388.968 641.469 388.821 641.381 388.719C641.293 388.616 641.139 388.565 640.919 388.565H638.521V391.733H637.597V384.033H640.347C640.743 384.033 641.087 384.091 641.381 384.209C641.674 384.319 641.916 384.469 642.107 384.66C642.305 384.85 642.451 385.074 642.547 385.331C642.649 385.58 642.701 385.844 642.701 386.123V386.453C642.701 386.739 642.62 387.025 642.459 387.311C642.305 387.597 642.063 387.817 641.733 387.971V388.103C641.953 388.139 642.125 388.227 642.25 388.367C642.374 388.506 642.437 388.704 642.437 388.961V391.733ZM638.521 387.707H640.237C640.757 387.707 641.142 387.597 641.392 387.377C641.648 387.149 641.777 386.819 641.777 386.387V386.189C641.777 385.8 641.648 385.488 641.392 385.254C641.142 385.012 640.757 384.891 640.237 384.891H638.521V387.707ZM644.981 389.269C645.003 389.811 645.172 390.248 645.487 390.578C645.802 390.908 646.242 391.073 646.807 391.073C647.064 391.073 647.287 391.043 647.478 390.985C647.669 390.926 647.83 390.845 647.962 390.743C648.101 390.64 648.211 390.523 648.292 390.391C648.38 390.251 648.45 390.105 648.501 389.951L649.315 390.171C649.161 390.677 648.875 391.091 648.457 391.414C648.046 391.729 647.489 391.887 646.785 391.887C646.396 391.887 646.037 391.821 645.707 391.689C645.384 391.549 645.106 391.355 644.871 391.106C644.636 390.856 644.453 390.559 644.321 390.215C644.189 389.87 644.123 389.489 644.123 389.071V388.807C644.123 388.425 644.189 388.07 644.321 387.74C644.46 387.41 644.651 387.127 644.893 386.893C645.135 386.651 645.417 386.464 645.74 386.332C646.07 386.192 646.426 386.123 646.807 386.123C647.254 386.123 647.639 386.207 647.962 386.376C648.292 386.537 648.56 386.739 648.765 386.981C648.978 387.223 649.132 387.487 649.227 387.773C649.33 388.059 649.381 388.323 649.381 388.565V389.269H644.981ZM646.807 386.937C646.565 386.937 646.338 386.977 646.125 387.058C645.92 387.131 645.736 387.237 645.575 387.377C645.421 387.516 645.293 387.681 645.19 387.872C645.095 388.055 645.032 388.257 645.003 388.477H648.523C648.508 388.242 648.45 388.029 648.347 387.839C648.252 387.648 648.123 387.487 647.962 387.355C647.808 387.223 647.628 387.12 647.423 387.047C647.225 386.973 647.02 386.937 646.807 386.937ZM655.313 390.897H655.181C655.093 391.065 654.98 391.212 654.84 391.337C654.708 391.461 654.562 391.564 654.4 391.645C654.246 391.725 654.081 391.784 653.905 391.821C653.729 391.865 653.561 391.887 653.399 391.887C653.033 391.887 652.692 391.824 652.376 391.7C652.061 391.575 651.782 391.395 651.54 391.161C651.306 390.926 651.119 390.636 650.979 390.292C650.847 389.94 650.781 389.54 650.781 389.093V388.917C650.781 388.477 650.851 388.084 650.99 387.74C651.13 387.388 651.317 387.094 651.551 386.86C651.786 386.618 652.061 386.434 652.376 386.31C652.692 386.185 653.025 386.123 653.377 386.123C653.751 386.123 654.1 386.207 654.422 386.376C654.752 386.537 655.005 386.79 655.181 387.135H655.313V384.033H656.171V391.733H655.313V390.897ZM653.487 391.073C653.744 391.073 653.982 391.025 654.202 390.93C654.422 390.834 654.613 390.699 654.774 390.523C654.943 390.347 655.075 390.138 655.17 389.896C655.266 389.646 655.313 389.371 655.313 389.071V388.939C655.313 388.645 655.266 388.378 655.17 388.136C655.075 387.886 654.943 387.674 654.774 387.498C654.613 387.322 654.419 387.186 654.191 387.091C653.971 386.988 653.737 386.937 653.487 386.937C653.231 386.937 652.989 386.984 652.761 387.08C652.541 387.175 652.347 387.311 652.178 387.487C652.017 387.663 651.889 387.872 651.793 388.114C651.705 388.356 651.661 388.623 651.661 388.917V389.093C651.661 389.401 651.705 389.676 651.793 389.918C651.889 390.16 652.017 390.369 652.178 390.545C652.347 390.713 652.541 390.845 652.761 390.941C652.981 391.029 653.223 391.073 653.487 391.073ZM659.519 384.649C659.519 384.436 659.592 384.256 659.739 384.11C659.893 383.956 660.076 383.879 660.289 383.879C660.501 383.879 660.681 383.956 660.828 384.11C660.982 384.256 661.059 384.436 661.059 384.649C661.059 384.861 660.982 385.045 660.828 385.199C660.681 385.345 660.501 385.419 660.289 385.419C660.076 385.419 659.893 385.345 659.739 385.199C659.592 385.045 659.519 384.861 659.519 384.649ZM657.957 390.941H659.871V387.069H658.155V386.277H660.729V390.941H662.511V391.733H657.957V390.941ZM665.693 387.685C665.693 387.949 665.803 388.15 666.023 388.29C666.25 388.429 666.661 388.521 667.255 388.565C667.893 388.616 668.377 388.77 668.707 389.027C669.044 389.276 669.213 389.643 669.213 390.127V390.193C669.213 390.457 669.158 390.695 669.048 390.908C668.945 391.113 668.799 391.289 668.608 391.436C668.425 391.582 668.197 391.692 667.926 391.766C667.662 391.846 667.372 391.887 667.057 391.887C666.632 391.887 666.265 391.832 665.957 391.722C665.656 391.604 665.403 391.454 665.198 391.271C665 391.08 664.85 390.867 664.747 390.633C664.644 390.391 664.586 390.149 664.571 389.907L665.385 389.709C665.422 390.127 665.583 390.464 665.869 390.721C666.155 390.97 666.536 391.095 667.013 391.095C667.416 391.095 667.739 391.018 667.981 390.864C668.23 390.702 668.355 390.479 668.355 390.193C668.355 389.885 668.234 389.665 667.992 389.533C667.75 389.401 667.358 389.316 666.815 389.28C666.184 389.236 665.7 389.089 665.363 388.84C665.026 388.59 664.857 388.227 664.857 387.751V387.685C664.857 387.428 664.912 387.204 665.022 387.014C665.132 386.816 665.279 386.651 665.462 386.519C665.653 386.387 665.865 386.288 666.1 386.222C666.335 386.156 666.58 386.123 666.837 386.123C667.196 386.123 667.512 386.174 667.783 386.277C668.054 386.372 668.282 386.5 668.465 386.662C668.648 386.816 668.788 386.995 668.883 387.201C668.986 387.406 669.052 387.611 669.081 387.817L668.267 388.015C668.23 387.663 668.087 387.388 667.838 387.19C667.596 386.992 667.277 386.893 666.881 386.893C666.727 386.893 666.577 386.911 666.43 386.948C666.291 386.977 666.166 387.025 666.056 387.091C665.946 387.157 665.858 387.241 665.792 387.344C665.726 387.439 665.693 387.553 665.693 387.685Z" fill="black"/>
<circle cx="653.5" cy="344.264" r="27" fill="#FF4438"/>
<g clip-path="url(#clip0_12170_472)">
<path d="M667.63 345.766C665.44 348.507 663.074 351.64 658.344 351.64C654.118 351.64 652.544 347.938 652.433 344.93C653.359 346.875 655.169 348.45 657.993 348.377C663.425 348.203 667.148 343.329 667.148 338.891C667.148 333.582 663.162 329.753 656.241 329.753C651.291 329.753 645.159 331.624 641.129 334.583C641.085 337.629 642.794 341.589 643.407 341.154C646.9 338.658 649.671 337.052 652.358 336.246C648.38 340.653 638.837 350.884 637.669 352.685C637.8 354.338 639.859 358.777 640.866 358.777C641.173 358.777 641.436 358.603 641.742 358.298C644.619 355.087 646.965 352.208 649.051 349.433C649.344 353.5 651.357 358.472 656.986 358.472C662.023 358.472 667.017 354.86 669.295 346.723C669.557 345.723 668.331 344.939 667.63 345.766ZM661.892 339.195C661.892 341.763 659.351 343.025 657.03 343.025C655.789 343.025 654.835 342.701 654.082 342.28C655.469 340.194 656.842 338.054 658.317 335.764C660.918 336.201 661.892 337.637 661.892 339.195Z" fill="white"/>
</g>
<path d="M592.354 356.486C592.549 356.291 592.549 355.974 592.354 355.779L589.172 352.597C588.976 352.402 588.66 352.402 588.464 352.597C588.269 352.792 588.269 353.109 588.464 353.304L591.293 356.133L588.464 358.961C588.269 359.156 588.269 359.473 588.464 359.668C588.66 359.863 588.976 359.863 589.172 359.668L592.354 356.486ZM592 355.633H434.632V356.633H592V355.633Z" fill="#8A99A0"/>
<path d="M355.672 149.32H354.748V146.746C354.748 146.556 354.704 146.409 354.616 146.306C354.528 146.204 354.374 146.152 354.154 146.152H351.756V149.32H350.832V141.62H353.582C353.978 141.62 354.323 141.679 354.616 141.796C354.909 141.906 355.151 142.057 355.342 142.247C355.54 142.438 355.687 142.662 355.782 142.918C355.885 143.168 355.936 143.432 355.936 143.71V144.04C355.936 144.326 355.855 144.612 355.694 144.898C355.54 145.184 355.298 145.404 354.968 145.558V145.69C355.188 145.727 355.36 145.815 355.485 145.954C355.61 146.094 355.672 146.292 355.672 146.548V149.32ZM351.756 145.294H353.472C353.993 145.294 354.378 145.184 354.627 144.964C354.884 144.737 355.012 144.407 355.012 143.974V143.776C355.012 143.388 354.884 143.076 354.627 142.841C354.378 142.599 353.993 142.478 353.472 142.478H351.756V145.294ZM357.435 141.62H359.965C360.919 141.62 361.615 141.848 362.055 142.302C362.495 142.757 362.715 143.483 362.715 144.48V146.46C362.715 147.458 362.495 148.184 362.055 148.638C361.615 149.093 360.919 149.32 359.965 149.32H357.435V148.451H358.095V142.478H357.435V141.62ZM359.833 148.462C360.171 148.462 360.46 148.429 360.702 148.363C360.952 148.297 361.157 148.187 361.318 148.033C361.48 147.872 361.597 147.659 361.67 147.395C361.751 147.131 361.791 146.798 361.791 146.394V144.546C361.791 144.143 361.751 143.809 361.67 143.545C361.597 143.281 361.48 143.072 361.318 142.918C361.157 142.757 360.952 142.643 360.702 142.577C360.46 142.511 360.171 142.478 359.833 142.478H359.019V148.462H359.833ZM364.292 141.62H369.176V142.478H367.196V148.462H369.176V149.32H364.292V148.462H366.272V142.478H364.292V141.62Z" fill="black"/>
<rect x="14.5" y="16.6025" width="691" height="39.0773" rx="3.5" fill="white" stroke="#8A99A0"/>
<path d="M327.972 38.2274H324.672L324.111 40.1414H323.121L325.453 32.4414H327.191L329.523 40.1414H328.533L327.972 38.2274ZM326.256 32.8374L324.925 37.3694H327.719L326.388 32.8374H326.256ZM331.308 42.3414H330.45V34.6854H331.308V35.5434H331.44C331.631 35.2134 331.895 34.964 332.232 34.7954C332.569 34.6194 332.936 34.5314 333.332 34.5314C333.669 34.5314 333.988 34.5937 334.289 34.7184C334.59 34.843 334.854 35.0227 335.081 35.2574C335.316 35.492 335.499 35.7817 335.631 36.1264C335.77 36.471 335.84 36.8634 335.84 37.3034V37.5234C335.84 37.9707 335.774 38.3667 335.642 38.7114C335.51 39.056 335.327 39.3457 335.092 39.5804C334.865 39.815 334.597 39.9947 334.289 40.1194C333.981 40.2367 333.655 40.2954 333.31 40.2954C333.134 40.2954 332.954 40.2734 332.771 40.2294C332.588 40.1927 332.412 40.134 332.243 40.0534C332.082 39.9654 331.931 39.8627 331.792 39.7454C331.653 39.6207 331.535 39.474 331.44 39.3054H331.308V42.3414ZM333.134 39.4814C333.398 39.4814 333.64 39.4374 333.86 39.3494C334.08 39.254 334.271 39.122 334.432 38.9534C334.601 38.7847 334.729 38.5794 334.817 38.3374C334.912 38.0954 334.96 37.824 334.96 37.5234V37.3034C334.96 37.01 334.912 36.746 334.817 36.5114C334.729 36.2694 334.601 36.064 334.432 35.8954C334.271 35.7194 334.076 35.5837 333.849 35.4884C333.629 35.393 333.391 35.3454 333.134 35.3454C332.877 35.3454 332.639 35.3967 332.419 35.4994C332.199 35.5947 332.005 35.7304 331.836 35.9064C331.675 36.0824 331.546 36.295 331.451 36.5444C331.356 36.7864 331.308 37.054 331.308 37.3474V37.4794C331.308 37.78 331.356 38.055 331.451 38.3044C331.546 38.5464 331.675 38.7554 331.836 38.9314C332.005 39.1074 332.199 39.243 332.419 39.3384C332.639 39.4337 332.877 39.4814 333.134 39.4814ZM338.043 42.3414H337.185V34.6854H338.043V35.5434H338.175C338.366 35.2134 338.63 34.964 338.967 34.7954C339.305 34.6194 339.671 34.5314 340.067 34.5314C340.405 34.5314 340.724 34.5937 341.024 34.7184C341.325 34.843 341.589 35.0227 341.816 35.2574C342.051 35.492 342.234 35.7817 342.366 36.1264C342.506 36.471 342.575 36.8634 342.575 37.3034V37.5234C342.575 37.9707 342.509 38.3667 342.377 38.7114C342.245 39.056 342.062 39.3457 341.827 39.5804C341.6 39.815 341.332 39.9947 341.024 40.1194C340.716 40.2367 340.39 40.2954 340.045 40.2954C339.869 40.2954 339.69 40.2734 339.506 40.2294C339.323 40.1927 339.147 40.134 338.978 40.0534C338.817 39.9654 338.667 39.8627 338.527 39.7454C338.388 39.6207 338.271 39.474 338.175 39.3054H338.043V42.3414ZM339.869 39.4814C340.133 39.4814 340.375 39.4374 340.595 39.3494C340.815 39.254 341.006 39.122 341.167 38.9534C341.336 38.7847 341.464 38.5794 341.552 38.3374C341.648 38.0954 341.695 37.824 341.695 37.5234V37.3034C341.695 37.01 341.648 36.746 341.552 36.5114C341.464 36.2694 341.336 36.064 341.167 35.8954C341.006 35.7194 340.812 35.5837 340.584 35.4884C340.364 35.393 340.126 35.3454 339.869 35.3454C339.613 35.3454 339.374 35.3967 339.154 35.4994C338.934 35.5947 338.74 35.7304 338.571 35.9064C338.41 36.0824 338.282 36.295 338.186 36.5444C338.091 36.7864 338.043 37.054 338.043 37.3474V37.4794C338.043 37.78 338.091 38.055 338.186 38.3044C338.282 38.5464 338.41 38.7554 338.571 38.9314C338.74 39.1074 338.934 39.243 339.154 39.3384C339.374 39.4337 339.613 39.4814 339.869 39.4814ZM344.119 39.3494H346.099V33.2334H344.185V32.4414H346.957V39.3494H348.937V40.1414H344.119V39.3494ZM352.548 33.0574C352.548 32.8447 352.621 32.665 352.768 32.5184C352.922 32.3644 353.105 32.2874 353.318 32.2874C353.531 32.2874 353.71 32.3644 353.857 32.5184C354.011 32.665 354.088 32.8447 354.088 33.0574C354.088 33.27 354.011 33.4534 353.857 33.6074C353.71 33.754 353.531 33.8274 353.318 33.8274C353.105 33.8274 352.922 33.754 352.768 33.6074C352.621 33.4534 352.548 33.27 352.548 33.0574ZM350.986 39.3494H352.9V35.4774H351.184V34.6854H353.758V39.3494H355.54V40.1414H350.986V39.3494ZM362.693 38.2054C362.635 38.506 362.532 38.7847 362.385 39.0414C362.246 39.298 362.066 39.5217 361.846 39.7124C361.626 39.8957 361.37 40.0387 361.076 40.1414C360.783 40.244 360.457 40.2954 360.097 40.2954C359.716 40.2954 359.353 40.233 359.008 40.1084C358.671 39.9837 358.374 39.804 358.117 39.5694C357.861 39.3274 357.655 39.034 357.501 38.6894C357.355 38.3447 357.281 37.9487 357.281 37.5014V37.3694C357.281 36.9294 357.355 36.5334 357.501 36.1814C357.655 35.8294 357.861 35.5324 358.117 35.2904C358.374 35.0484 358.671 34.8614 359.008 34.7294C359.353 34.5974 359.716 34.5314 360.097 34.5314C360.442 34.5314 360.761 34.5827 361.054 34.6854C361.348 34.788 361.604 34.9347 361.824 35.1254C362.052 35.3087 362.235 35.5287 362.374 35.7854C362.521 36.042 362.62 36.3207 362.671 36.6214L361.813 36.8194C361.791 36.6287 361.736 36.4454 361.648 36.2694C361.568 36.086 361.454 35.9284 361.307 35.7964C361.168 35.657 360.996 35.547 360.79 35.4664C360.585 35.3857 360.347 35.3454 360.075 35.3454C359.811 35.3454 359.562 35.3967 359.327 35.4994C359.1 35.5947 358.898 35.734 358.722 35.9174C358.546 36.0934 358.407 36.306 358.304 36.5554C358.209 36.8047 358.161 37.076 358.161 37.3694V37.5014C358.161 37.8094 358.209 38.088 358.304 38.3374C358.407 38.5794 358.546 38.7847 358.722 38.9534C358.898 39.122 359.104 39.254 359.338 39.3494C359.573 39.4374 359.826 39.4814 360.097 39.4814C360.369 39.4814 360.603 39.441 360.801 39.3604C361.007 39.2724 361.179 39.1624 361.318 39.0304C361.465 38.891 361.579 38.7334 361.659 38.5574C361.747 38.3814 361.806 38.198 361.835 38.0074L362.693 38.2054ZM368.285 39.2174H368.153C367.977 39.584 367.731 39.8554 367.416 40.0314C367.108 40.2074 366.781 40.2954 366.437 40.2954C366.077 40.2954 365.744 40.2367 365.436 40.1194C365.128 39.9947 364.856 39.815 364.622 39.5804C364.394 39.3384 364.215 39.045 364.083 38.7004C363.951 38.3557 363.885 37.956 363.885 37.5014V37.3254C363.885 36.878 363.951 36.482 364.083 36.1374C364.215 35.7927 364.394 35.503 364.622 35.2684C364.856 35.0264 365.128 34.843 365.436 34.7184C365.744 34.5937 366.07 34.5314 366.415 34.5314C366.789 34.5314 367.126 34.6157 367.427 34.7844C367.735 34.9457 367.977 35.1987 368.153 35.5434H368.285V34.6854H369.143V39.0194C369.143 39.2394 369.242 39.3494 369.44 39.3494H369.715V40.1414H369.132C368.882 40.1414 368.677 40.0607 368.516 39.8994C368.362 39.738 368.285 39.5327 368.285 39.2834V39.2174ZM366.525 39.4814C366.781 39.4814 367.016 39.4337 367.229 39.3384C367.449 39.243 367.636 39.1074 367.79 38.9314C367.944 38.7554 368.065 38.5464 368.153 38.3044C368.241 38.055 368.285 37.78 368.285 37.4794V37.3474C368.285 37.054 368.241 36.7864 368.153 36.5444C368.065 36.295 367.94 36.0824 367.779 35.9064C367.625 35.7304 367.438 35.5947 367.218 35.4994C367.005 35.3967 366.774 35.3454 366.525 35.3454C366.268 35.3454 366.033 35.393 365.821 35.4884C365.608 35.5837 365.421 35.7194 365.26 35.8954C365.106 36.064 364.985 36.273 364.897 36.5224C364.809 36.7644 364.765 37.032 364.765 37.3254V37.5014C364.765 38.1247 364.926 38.6124 365.249 38.9644C365.579 39.309 366.004 39.4814 366.525 39.4814ZM370.873 34.6854H372.589V32.4414H373.447V34.6854H375.559V35.4774H373.447V39.0194C373.447 39.2394 373.546 39.3494 373.744 39.3494H375.295V40.1414H373.436C373.187 40.1414 372.981 40.0607 372.82 39.8994C372.666 39.738 372.589 39.5327 372.589 39.2834V35.4774H370.873V34.6854ZM379.489 33.0574C379.489 32.8447 379.563 32.665 379.709 32.5184C379.863 32.3644 380.047 32.2874 380.259 32.2874C380.472 32.2874 380.652 32.3644 380.798 32.5184C380.952 32.665 381.029 32.8447 381.029 33.0574C381.029 33.27 380.952 33.4534 380.798 33.6074C380.652 33.754 380.472 33.8274 380.259 33.8274C380.047 33.8274 379.863 33.754 379.709 33.6074C379.563 33.4534 379.489 33.27 379.489 33.0574ZM377.927 39.3494H379.841V35.4774H378.125V34.6854H380.699V39.3494H382.481V40.1414H377.927V39.3494ZM389.679 37.4794C389.679 37.934 389.602 38.3374 389.448 38.6894C389.301 39.034 389.103 39.3274 388.854 39.5694C388.604 39.804 388.311 39.9837 387.974 40.1084C387.644 40.233 387.299 40.2954 386.94 40.2954C386.573 40.2954 386.225 40.233 385.895 40.1084C385.565 39.9837 385.275 39.804 385.026 39.5694C384.776 39.3274 384.575 39.034 384.421 38.6894C384.274 38.3374 384.201 37.934 384.201 37.4794V37.3474C384.201 36.9 384.274 36.504 384.421 36.1594C384.575 35.8074 384.776 35.5104 385.026 35.2684C385.282 35.0264 385.576 34.843 385.906 34.7184C386.236 34.5937 386.58 34.5314 386.94 34.5314C387.299 34.5314 387.644 34.5937 387.974 34.7184C388.304 34.843 388.593 35.0264 388.843 35.2684C389.099 35.5104 389.301 35.8074 389.448 36.1594C389.602 36.504 389.679 36.9 389.679 37.3474V37.4794ZM386.94 39.4814C387.204 39.4814 387.446 39.4374 387.666 39.3494C387.893 39.254 388.091 39.1184 388.26 38.9424C388.428 38.7664 388.56 38.5574 388.656 38.3154C388.751 38.066 388.799 37.7874 388.799 37.4794V37.3474C388.799 37.054 388.751 36.7864 388.656 36.5444C388.56 36.295 388.428 36.0824 388.26 35.9064C388.091 35.7304 387.893 35.5947 387.666 35.4994C387.438 35.3967 387.196 35.3454 386.94 35.3454C386.683 35.3454 386.441 35.3967 386.214 35.4994C385.986 35.5947 385.788 35.7304 385.62 35.9064C385.451 36.0824 385.319 36.295 385.224 36.5444C385.128 36.7864 385.081 37.054 385.081 37.3474V37.4794C385.081 37.7874 385.128 38.066 385.224 38.3154C385.319 38.5574 385.451 38.7664 385.62 38.9424C385.788 39.1184 385.983 39.254 386.203 39.3494C386.43 39.4374 386.676 39.4814 386.94 39.4814ZM392.124 40.1414H391.266V34.6854H392.124V35.6094H392.256C392.593 34.8907 393.18 34.5314 394.016 34.5314C394.647 34.5314 395.149 34.7294 395.523 35.1254C395.897 35.514 396.084 36.1007 396.084 36.8854V40.1414H395.226V37.0614C395.226 36.4894 395.098 36.0604 394.841 35.7744C394.584 35.4884 394.236 35.3454 393.796 35.3454C393.275 35.3454 392.865 35.525 392.564 35.8844C392.271 36.2364 392.124 36.7094 392.124 37.3034V40.1414Z" fill="black"/>
<path d="M653.854 64.8262C653.658 64.6309 653.342 64.6309 653.146 64.8262L649.964 68.0082C649.769 68.2034 649.769 68.52 649.964 68.7153C650.16 68.9105 650.476 68.9105 650.672 68.7153L653.5 65.8869L656.328 68.7153C656.524 68.9105 656.84 68.9105 657.036 68.7153C657.231 68.52 657.231 68.2034 657.036 68.0082L653.854 64.8262ZM654 299L654 65.1797L653 65.1797L653 299L654 299Z" fill="#8A99A0"/>
<path d="M354.162 119.489C353.836 119.489 353.509 119.4 353.202 119.232L349.659 117.143C348.887 116.678 348.531 115.718 348.818 114.867L349.956 111.531C349.362 110.73 348.877 109.869 348.491 108.938L345.116 108.275C344.225 108.107 343.572 107.305 343.572 106.385V102.218C343.572 101.298 344.225 100.496 345.116 100.328L348.511 99.6546C348.887 98.7539 349.372 97.9027 349.956 97.1208L348.808 93.7359C348.521 92.865 348.877 91.9049 349.639 91.4496L353.182 89.3613C353.984 88.8961 354.974 89.0545 355.588 89.7572L357.884 92.4691C358.824 92.3503 359.754 92.3503 360.685 92.4691L362.971 89.7671C363.595 89.0545 364.584 88.8862 365.386 89.3514L368.919 91.4397C369.691 91.895 370.058 92.8551 369.771 93.7161L368.622 97.1109C369.206 97.8928 369.691 98.744 370.067 99.6447L373.462 100.318C374.353 100.496 375.006 101.288 375.006 102.208V106.375C375.006 107.295 374.353 108.097 373.462 108.265L370.097 108.928C369.721 109.859 369.226 110.72 368.632 111.522L369.761 114.847C370.048 115.728 369.691 116.688 368.909 117.143L365.396 119.222C364.584 119.687 363.604 119.529 362.991 118.816L360.754 116.173C359.774 116.302 358.814 116.302 357.824 116.173L355.597 118.806C355.211 119.251 354.677 119.479 354.143 119.479L354.162 119.489ZM354.143 91.1032L350.669 93.152L352.193 97.5068L351.846 97.9324C351.134 98.8133 350.57 99.7931 350.174 100.862L349.986 101.387L345.512 102.267L345.571 106.385L349.976 107.216L350.164 107.751C350.55 108.839 351.114 109.839 351.836 110.72L352.183 111.145L350.698 115.5L354.143 117.5L357.052 114.055L357.616 114.154C358.745 114.352 359.863 114.352 360.992 114.154L361.556 114.055L364.465 117.5L367.93 115.451L366.425 111.145L366.772 110.72C367.494 109.839 368.058 108.839 368.444 107.751L368.632 107.216L373.096 106.335L373.037 102.218L368.622 101.387L368.434 100.862C368.038 99.7931 367.474 98.8034 366.762 97.9324L366.415 97.5068L367.91 93.1025L364.465 91.1032L361.496 94.6069L360.942 94.5079C359.853 94.3199 358.765 94.3199 357.676 94.5079L357.122 94.6069L354.152 91.1032H354.143Z" fill="#FF4438"/>
<path d="M359.298 109.492C356.427 109.492 354.101 107.157 354.101 104.296C354.101 101.436 356.437 99.1002 359.298 99.1002C362.158 99.1002 364.494 101.436 364.494 104.296C364.494 107.157 362.158 109.492 359.298 109.492ZM359.298 101.07C357.526 101.07 356.081 102.515 356.081 104.286C356.081 106.058 357.526 107.503 359.298 107.503C361.069 107.503 362.514 106.058 362.514 104.286C362.514 102.515 361.069 101.07 359.298 101.07Z" fill="#163341"/>
<path d="M350.182 85.0558L349.331 83.2743C352.458 81.7897 355.814 81.0375 359.298 81.0375C361.901 81.0375 364.395 81.4631 366.731 82.2648C366.76 83.0071 366.839 83.7395 366.968 84.4521C364.583 83.5217 362 83.017 359.298 83.017C356.111 83.017 353.042 83.6999 350.182 85.0558Z" fill="#163341"/>
<path d="M382.557 104.296C382.557 117.114 372.125 127.555 359.298 127.555C346.471 127.555 336.039 117.114 336.039 104.296C336.039 100.248 337.098 96.3093 339.077 92.8254L337.078 91.5585L342.848 88.8862L342.908 95.2602L340.75 93.8844C338.969 97.0516 338.018 100.625 338.018 104.296C338.018 116.025 347.569 125.576 359.298 125.576C371.026 125.576 380.577 116.025 380.577 104.296C380.577 101.496 380.033 98.8232 379.043 96.3687C379.756 96.4973 380.488 96.5666 381.23 96.5765C382.091 98.9915 382.557 101.594 382.557 104.296Z" fill="#163341"/>
<path d="M393.989 81.9619C393.989 88.8619 388.399 94.4619 381.489 94.4619C380.089 94.4619 378.739 94.2319 377.489 93.8019H377.469C376.799 93.5719 376.159 93.2919 375.549 92.9619C375.509 92.9419 375.459 92.9119 375.409 92.8819C373.829 92.0019 372.459 90.7919 371.399 89.3419C370.789 88.5019 370.269 87.5919 369.879 86.6119C369.309 85.1719 368.989 83.6019 368.989 81.9619C368.989 75.0619 374.589 69.4619 381.489 69.4619C388.389 69.4619 393.989 75.0619 393.989 81.9619Z" fill="#FF4438"/>
<path d="M388.19 82.6385C387.15 83.8587 386.032 85.2674 383.784 85.2674C381.784 85.2674 381.039 83.6036 380.982 82.2614C381.423 83.1266 382.281 83.8365 383.614 83.8032C386.19 83.7256 387.953 81.5404 387.953 79.5549C387.953 77.1812 386.066 75.4619 382.79 75.4619C380.44 75.4619 377.537 76.3049 375.627 77.6249C375.605 78.9892 376.418 80.764 376.712 80.5643C378.361 79.4551 379.672 78.7341 380.948 78.3681C379.062 80.3425 374.543 84.9235 373.989 85.7332C374.046 86.4764 375.029 88.4619 375.503 88.4619C375.65 88.4619 375.774 88.3843 375.921 88.2512C377.277 86.8092 378.395 85.5225 379.378 84.2802C379.525 86.0993 380.474 88.3288 383.14 88.3288C385.524 88.3288 387.896 86.7094 388.969 83.06C389.105 82.6164 388.517 82.2614 388.19 82.6385ZM385.467 79.688C385.467 80.8416 384.258 81.4073 383.163 81.4073C382.575 81.4073 382.123 81.2631 381.762 81.0745C382.428 80.1428 383.072 79.1778 383.773 78.1573C385.004 78.3459 385.467 78.9892 385.467 79.688Z" fill="white"/>
<rect x="14.5" y="308.632" width="95" height="95" rx="3.5" fill="white" stroke="#8A99A0"/>
<path d="M46.9749 376.424C46.9749 376.175 46.9236 375.955 46.8209 375.764C46.7256 375.574 46.5936 375.416 46.4249 375.291C46.2563 375.167 46.0619 375.071 45.8419 375.005C45.6219 374.939 45.3909 374.906 45.1489 374.906C44.9363 374.906 44.7346 374.936 44.5439 374.994C44.3533 375.046 44.1809 375.123 44.0269 375.225C43.8803 375.328 43.7629 375.456 43.6749 375.61C43.5869 375.757 43.5429 375.929 43.5429 376.127V376.193C43.5429 376.406 43.5869 376.589 43.6749 376.743C43.7629 376.89 43.8913 377.018 44.0599 377.128C44.2359 377.231 44.4523 377.319 44.7089 377.392C44.9656 377.458 45.2663 377.517 45.6109 377.568C46.4176 377.693 47.0116 377.931 47.3929 378.283C47.7743 378.628 47.9649 379.094 47.9649 379.68V379.812C47.9649 380.142 47.9063 380.447 47.7889 380.725C47.6789 380.997 47.5103 381.231 47.2829 381.429C47.0629 381.627 46.7879 381.781 46.4579 381.891C46.1279 382.001 45.7466 382.056 45.3139 382.056C44.8226 382.056 44.3863 381.987 44.0049 381.847C43.6309 381.701 43.3156 381.503 43.0589 381.253C42.8096 380.997 42.6189 380.7 42.4869 380.362C42.3549 380.018 42.2889 379.644 42.2889 379.24V378.91H43.2129V379.174C43.2129 379.849 43.3963 380.355 43.7629 380.692C44.1369 381.03 44.6539 381.198 45.3139 381.198C45.8859 381.198 46.3149 381.074 46.6009 380.824C46.8943 380.568 47.0409 380.23 47.0409 379.812V379.746C47.0409 379.343 46.8906 379.035 46.5899 378.822C46.2966 378.61 45.8163 378.456 45.1489 378.36C44.7603 378.309 44.4083 378.232 44.0929 378.129C43.7849 378.019 43.5209 377.88 43.3009 377.711C43.0809 377.535 42.9123 377.326 42.7949 377.084C42.6776 376.842 42.6189 376.556 42.6189 376.226V376.094C42.6189 375.794 42.6813 375.519 42.8059 375.269C42.9306 375.02 43.1029 374.804 43.3229 374.62C43.5503 374.437 43.8179 374.298 44.1259 374.202C44.4413 374.1 44.7859 374.048 45.1599 374.048C45.5926 374.048 45.9776 374.111 46.3149 374.235C46.6596 374.36 46.9493 374.529 47.1839 374.741C47.4186 374.947 47.5946 375.192 47.7119 375.478C47.8366 375.757 47.8989 376.05 47.8989 376.358V376.82H46.9749V376.424ZM54.6343 379.24C54.6343 379.695 54.5573 380.098 54.4033 380.45C54.2566 380.795 54.0586 381.088 53.8093 381.33C53.56 381.565 53.2666 381.745 52.9293 381.869C52.5993 381.994 52.2546 382.056 51.8953 382.056C51.5286 382.056 51.1803 381.994 50.8503 381.869C50.5203 381.745 50.2306 381.565 49.9813 381.33C49.732 381.088 49.5303 380.795 49.3763 380.45C49.2296 380.098 49.1563 379.695 49.1563 379.24V379.108C49.1563 378.661 49.2296 378.265 49.3763 377.92C49.5303 377.568 49.732 377.271 49.9813 377.029C50.238 376.787 50.5313 376.604 50.8613 376.479C51.1913 376.355 51.536 376.292 51.8953 376.292C52.2546 376.292 52.5993 376.355 52.9293 376.479C53.2593 376.604 53.549 376.787 53.7983 377.029C54.055 377.271 54.2566 377.568 54.4033 377.92C54.5573 378.265 54.6343 378.661 54.6343 379.108V379.24ZM51.8953 381.242C52.1593 381.242 52.4013 381.198 52.6213 381.11C52.8486 381.015 53.0466 380.879 53.2153 380.703C53.384 380.527 53.516 380.318 53.6113 380.076C53.7066 379.827 53.7543 379.548 53.7543 379.24V379.108C53.7543 378.815 53.7066 378.547 53.6113 378.305C53.516 378.056 53.384 377.843 53.2153 377.667C53.0466 377.491 52.8486 377.356 52.6213 377.26C52.394 377.158 52.152 377.106 51.8953 377.106C51.6386 377.106 51.3966 377.158 51.1693 377.26C50.942 377.356 50.744 377.491 50.5753 377.667C50.4066 377.843 50.2746 378.056 50.1793 378.305C50.084 378.547 50.0363 378.815 50.0363 379.108V379.24C50.0363 379.548 50.084 379.827 50.1793 380.076C50.2746 380.318 50.4066 380.527 50.5753 380.703C50.744 380.879 50.9383 381.015 51.1583 381.11C51.3856 381.198 51.6313 381.242 51.8953 381.242ZM60.1156 376.446H60.9736V381.902H60.1156V380.912H59.9836C59.8076 381.264 59.5766 381.543 59.2906 381.748C59.0046 381.954 58.6416 382.056 58.2016 382.056C57.901 382.056 57.6223 382.005 57.3656 381.902C57.1163 381.807 56.9 381.66 56.7166 381.462C56.5406 381.264 56.4013 381.019 56.2986 380.725C56.2033 380.432 56.1556 380.091 56.1556 379.702V376.446H57.0136V379.592C57.0136 380.164 57.131 380.582 57.3656 380.846C57.6003 381.11 57.9596 381.242 58.4436 381.242C58.9643 381.242 59.3713 381.066 59.6646 380.714C59.9653 380.355 60.1156 379.878 60.1156 379.284V376.446ZM62.649 376.446H64.629V377.172H64.761C64.9003 376.872 65.0983 376.652 65.355 376.512C65.6117 376.366 65.905 376.292 66.235 376.292C66.785 376.292 67.2287 376.472 67.566 376.831C67.9033 377.191 68.083 377.715 68.105 378.404L67.203 378.536C67.203 378.03 67.082 377.667 66.84 377.447C66.598 377.22 66.301 377.106 65.949 377.106C65.7217 377.106 65.5237 377.15 65.355 377.238C65.1937 377.326 65.058 377.447 64.948 377.601C64.838 377.755 64.7573 377.935 64.706 378.14C64.6547 378.346 64.629 378.566 64.629 378.8V381.11H66.015V381.902H62.517V381.11H63.771V377.238H62.649V376.446ZM70.8254 377.854C70.8254 378.118 70.9354 378.32 71.1554 378.459C71.3827 378.599 71.7934 378.69 72.3874 378.734C73.0254 378.786 73.5094 378.94 73.8394 379.196C74.1767 379.446 74.3454 379.812 74.3454 380.296V380.362C74.3454 380.626 74.2904 380.865 74.1804 381.077C74.0777 381.283 73.931 381.459 73.7404 381.605C73.557 381.752 73.3297 381.862 73.0584 381.935C72.7944 382.016 72.5047 382.056 72.1894 382.056C71.764 382.056 71.3974 382.001 71.0894 381.891C70.7887 381.774 70.5357 381.624 70.3304 381.44C70.1324 381.25 69.982 381.037 69.8794 380.802C69.7767 380.56 69.718 380.318 69.7034 380.076L70.5174 379.878C70.554 380.296 70.7154 380.634 71.0014 380.89C71.2874 381.14 71.6687 381.264 72.1454 381.264C72.5487 381.264 72.8714 381.187 73.1134 381.033C73.3627 380.872 73.4874 380.648 73.4874 380.362C73.4874 380.054 73.3664 379.834 73.1244 379.702C72.8824 379.57 72.49 379.486 71.9474 379.449C71.3167 379.405 70.8327 379.259 70.4954 379.009C70.158 378.76 69.9894 378.397 69.9894 377.92V377.854C69.9894 377.598 70.0444 377.374 70.1544 377.183C70.2644 376.985 70.411 376.82 70.5944 376.688C70.785 376.556 70.9977 376.457 71.2324 376.391C71.467 376.325 71.7127 376.292 71.9694 376.292C72.3287 376.292 72.644 376.344 72.9154 376.446C73.1867 376.542 73.414 376.67 73.5974 376.831C73.7807 376.985 73.92 377.165 74.0154 377.37C74.118 377.576 74.184 377.781 74.2134 377.986L73.3994 378.184C73.3627 377.832 73.2197 377.557 72.9704 377.359C72.7284 377.161 72.4094 377.062 72.0134 377.062C71.8594 377.062 71.709 377.081 71.5624 377.117C71.423 377.147 71.2984 377.194 71.1884 377.26C71.0784 377.326 70.9904 377.411 70.9244 377.513C70.8584 377.609 70.8254 377.722 70.8254 377.854ZM77.0547 379.438C77.0767 379.981 77.2454 380.417 77.5607 380.747C77.876 381.077 78.316 381.242 78.8807 381.242C79.1374 381.242 79.361 381.213 79.5517 381.154C79.7424 381.096 79.9037 381.015 80.0357 380.912C80.175 380.81 80.285 380.692 80.3657 380.56C80.4537 380.421 80.5234 380.274 80.5747 380.12L81.3887 380.34C81.2347 380.846 80.9487 381.261 80.5307 381.583C80.12 381.899 79.5627 382.056 78.8587 382.056C78.47 382.056 78.1107 381.99 77.7807 381.858C77.458 381.719 77.1794 381.525 76.9447 381.275C76.71 381.026 76.5267 380.729 76.3947 380.384C76.2627 380.04 76.1967 379.658 76.1967 379.24V378.976C76.1967 378.595 76.2627 378.239 76.3947 377.909C76.534 377.579 76.7247 377.297 76.9667 377.062C77.2087 376.82 77.491 376.633 77.8137 376.501C78.1437 376.362 78.4994 376.292 78.8807 376.292C79.328 376.292 79.713 376.377 80.0357 376.545C80.3657 376.707 80.6334 376.908 80.8387 377.15C81.0514 377.392 81.2054 377.656 81.3007 377.942C81.4034 378.228 81.4547 378.492 81.4547 378.734V379.438H77.0547ZM78.8807 377.106C78.6387 377.106 78.4114 377.147 78.1987 377.227C77.9934 377.301 77.81 377.407 77.6487 377.546C77.4947 377.686 77.3664 377.851 77.2637 378.041C77.1684 378.225 77.106 378.426 77.0767 378.646H80.5967C80.582 378.412 80.5234 378.199 80.4207 378.008C80.3254 377.818 80.197 377.656 80.0357 377.524C79.8817 377.392 79.702 377.29 79.4967 377.216C79.2987 377.143 79.0934 377.106 78.8807 377.106ZM40.2396 394.066H40.1076C40.0196 394.235 39.9059 394.382 39.7666 394.506C39.6346 394.631 39.4879 394.734 39.3266 394.814C39.1726 394.895 39.0076 394.954 38.8316 394.99C38.6556 395.034 38.4869 395.056 38.3256 395.056C37.9589 395.056 37.6179 394.994 37.3026 394.869C36.9873 394.745 36.7086 394.565 36.4666 394.33C36.2319 394.096 36.0449 393.806 35.9056 393.461C35.7736 393.109 35.7076 392.71 35.7076 392.262V392.086C35.7076 391.646 35.7773 391.254 35.9166 390.909C36.0559 390.557 36.2429 390.264 36.4776 390.029C36.7123 389.787 36.9873 389.604 37.3026 389.479C37.6179 389.355 37.9516 389.292 38.3036 389.292C38.6776 389.292 39.0259 389.377 39.3486 389.545C39.6786 389.707 39.9316 389.96 40.1076 390.304H40.2396V387.202H41.0976V394.902H40.2396V394.066ZM38.4136 394.242C38.6703 394.242 38.9086 394.195 39.1286 394.099C39.3486 394.004 39.5393 393.868 39.7006 393.692C39.8693 393.516 40.0013 393.307 40.0966 393.065C40.1919 392.816 40.2396 392.541 40.2396 392.24V392.108C40.2396 391.815 40.1919 391.547 40.0966 391.305C40.0013 391.056 39.8693 390.843 39.7006 390.667C39.5393 390.491 39.3449 390.356 39.1176 390.26C38.8976 390.158 38.6629 390.106 38.4136 390.106C38.1569 390.106 37.9149 390.154 37.6876 390.249C37.4676 390.345 37.2733 390.48 37.1046 390.656C36.9433 390.832 36.8149 391.041 36.7196 391.283C36.6316 391.525 36.5876 391.793 36.5876 392.086V392.262C36.5876 392.57 36.6316 392.845 36.7196 393.087C36.8149 393.329 36.9433 393.538 37.1046 393.714C37.2733 393.883 37.4676 394.015 37.6876 394.11C37.9076 394.198 38.1496 394.242 38.4136 394.242ZM46.7109 393.978H46.5789C46.4029 394.345 46.1573 394.616 45.8419 394.792C45.5339 394.968 45.2076 395.056 44.8629 395.056C44.5036 395.056 44.1699 394.998 43.8619 394.88C43.5539 394.756 43.2826 394.576 43.0479 394.341C42.8206 394.099 42.6409 393.806 42.5089 393.461C42.3769 393.117 42.3109 392.717 42.3109 392.262V392.086C42.3109 391.639 42.3769 391.243 42.5089 390.898C42.6409 390.554 42.8206 390.264 43.0479 390.029C43.2826 389.787 43.5539 389.604 43.8619 389.479C44.1699 389.355 44.4963 389.292 44.8409 389.292C45.2149 389.292 45.5523 389.377 45.8529 389.545C46.1609 389.707 46.4029 389.96 46.5789 390.304H46.7109V389.446H47.5689V393.78C47.5689 394 47.6679 394.11 47.8659 394.11H48.1409V394.902H47.5579C47.3086 394.902 47.1033 394.822 46.9419 394.66C46.7879 394.499 46.7109 394.294 46.7109 394.044V393.978ZM44.9509 394.242C45.2076 394.242 45.4423 394.195 45.6549 394.099C45.8749 394.004 46.0619 393.868 46.2159 393.692C46.3699 393.516 46.4909 393.307 46.5789 393.065C46.6669 392.816 46.7109 392.541 46.7109 392.24V392.108C46.7109 391.815 46.6669 391.547 46.5789 391.305C46.4909 391.056 46.3663 390.843 46.2049 390.667C46.0509 390.491 45.8639 390.356 45.6439 390.26C45.4313 390.158 45.2003 390.106 44.9509 390.106C44.6943 390.106 44.4596 390.154 44.2469 390.249C44.0343 390.345 43.8473 390.48 43.6859 390.656C43.5319 390.825 43.4109 391.034 43.3229 391.283C43.2349 391.525 43.1909 391.793 43.1909 392.086V392.262C43.1909 392.886 43.3523 393.373 43.6749 393.725C44.0049 394.07 44.4303 394.242 44.9509 394.242ZM49.2993 389.446H51.0153V387.202H51.8733V389.446H53.9853V390.238H51.8733V393.78C51.8733 394 51.9723 394.11 52.1703 394.11H53.7213V394.902H51.8623C51.613 394.902 51.4076 394.822 51.2463 394.66C51.0923 394.499 51.0153 394.294 51.0153 394.044V390.238H49.2993V389.446ZM60.1816 393.978H60.0496C59.8736 394.345 59.628 394.616 59.3126 394.792C59.0046 394.968 58.6783 395.056 58.3336 395.056C57.9743 395.056 57.6406 394.998 57.3326 394.88C57.0246 394.756 56.7533 394.576 56.5186 394.341C56.2913 394.099 56.1116 393.806 55.9796 393.461C55.8476 393.117 55.7816 392.717 55.7816 392.262V392.086C55.7816 391.639 55.8476 391.243 55.9796 390.898C56.1116 390.554 56.2913 390.264 56.5186 390.029C56.7533 389.787 57.0246 389.604 57.3326 389.479C57.6406 389.355 57.967 389.292 58.3116 389.292C58.6856 389.292 59.023 389.377 59.3236 389.545C59.6316 389.707 59.8736 389.96 60.0496 390.304H60.1816V389.446H61.0396V393.78C61.0396 394 61.1386 394.11 61.3366 394.11H61.6116V394.902H61.0286C60.7793 394.902 60.574 394.822 60.4126 394.66C60.2586 394.499 60.1816 394.294 60.1816 394.044V393.978ZM58.4216 394.242C58.6783 394.242 58.913 394.195 59.1256 394.099C59.3456 394.004 59.5326 393.868 59.6866 393.692C59.8406 393.516 59.9616 393.307 60.0496 393.065C60.1376 392.816 60.1816 392.541 60.1816 392.24V392.108C60.1816 391.815 60.1376 391.547 60.0496 391.305C59.9616 391.056 59.837 390.843 59.6756 390.667C59.5216 390.491 59.3346 390.356 59.1146 390.26C58.902 390.158 58.671 390.106 58.4216 390.106C58.165 390.106 57.9303 390.154 57.7176 390.249C57.505 390.345 57.318 390.48 57.1566 390.656C57.0026 390.825 56.8816 391.034 56.7936 391.283C56.7056 391.525 56.6616 391.793 56.6616 392.086V392.262C56.6616 392.886 56.823 393.373 57.1456 393.725C57.4756 394.07 57.901 394.242 58.4216 394.242ZM63.617 394.902H62.759V387.202H63.617V390.304H63.749C63.9397 389.974 64.2037 389.725 64.541 389.556C64.8783 389.38 65.245 389.292 65.641 389.292C65.9783 389.292 66.2973 389.355 66.598 389.479C66.8987 389.604 67.1627 389.784 67.39 390.018C67.6247 390.253 67.808 390.543 67.94 390.887C68.0793 391.232 68.149 391.624 68.149 392.064V392.284C68.149 392.732 68.083 393.128 67.951 393.472C67.819 393.817 67.6357 394.107 67.401 394.341C67.1737 394.576 66.906 394.756 66.598 394.88C66.29 394.998 65.9637 395.056 65.619 395.056C65.443 395.056 65.2633 395.034 65.08 394.99C64.8967 394.954 64.7207 394.895 64.552 394.814C64.3907 394.726 64.2403 394.624 64.101 394.506C63.9617 394.382 63.8443 394.235 63.749 394.066H63.617V394.902ZM65.443 394.242C65.707 394.242 65.949 394.198 66.169 394.11C66.389 394.015 66.5797 393.883 66.741 393.714C66.9097 393.546 67.038 393.34 67.126 393.098C67.2213 392.856 67.269 392.585 67.269 392.284V392.064C67.269 391.771 67.2213 391.507 67.126 391.272C67.038 391.03 66.9097 390.825 66.741 390.656C66.5797 390.48 66.3853 390.345 66.158 390.249C65.938 390.154 65.6997 390.106 65.443 390.106C65.1863 390.106 64.948 390.158 64.728 390.26C64.508 390.356 64.3137 390.491 64.145 390.667C63.9837 390.843 63.8553 391.056 63.76 391.305C63.6647 391.547 63.617 391.815 63.617 392.108V392.24C63.617 392.541 63.6647 392.816 63.76 393.065C63.8553 393.307 63.9837 393.516 64.145 393.692C64.3137 393.868 64.508 394.004 64.728 394.099C64.948 394.195 65.1863 394.242 65.443 394.242ZM73.6524 393.978H73.5204C73.3444 394.345 73.0987 394.616 72.7834 394.792C72.4754 394.968 72.149 395.056 71.8044 395.056C71.445 395.056 71.1114 394.998 70.8034 394.88C70.4954 394.756 70.224 394.576 69.9894 394.341C69.762 394.099 69.5824 393.806 69.4504 393.461C69.3184 393.117 69.2524 392.717 69.2524 392.262V392.086C69.2524 391.639 69.3184 391.243 69.4504 390.898C69.5824 390.554 69.762 390.264 69.9894 390.029C70.224 389.787 70.4954 389.604 70.8034 389.479C71.1114 389.355 71.4377 389.292 71.7824 389.292C72.1564 389.292 72.4937 389.377 72.7944 389.545C73.1024 389.707 73.3444 389.96 73.5204 390.304H73.6524V389.446H74.5104V393.78C74.5104 394 74.6094 394.11 74.8074 394.11H75.0824V394.902H74.4994C74.25 394.902 74.0447 394.822 73.8834 394.66C73.7294 394.499 73.6524 394.294 73.6524 394.044V393.978ZM71.8924 394.242C72.149 394.242 72.3837 394.195 72.5964 394.099C72.8164 394.004 73.0034 393.868 73.1574 393.692C73.3114 393.516 73.4324 393.307 73.5204 393.065C73.6084 392.816 73.6524 392.541 73.6524 392.24V392.108C73.6524 391.815 73.6084 391.547 73.5204 391.305C73.4324 391.056 73.3077 390.843 73.1464 390.667C72.9924 390.491 72.8054 390.356 72.5854 390.26C72.3727 390.158 72.1417 390.106 71.8924 390.106C71.6357 390.106 71.401 390.154 71.1884 390.249C70.9757 390.345 70.7887 390.48 70.6274 390.656C70.4734 390.825 70.3524 391.034 70.2644 391.283C70.1764 391.525 70.1324 391.793 70.1324 392.086V392.262C70.1324 392.886 70.2937 393.373 70.6164 393.725C70.9464 394.07 71.3717 394.242 71.8924 394.242ZM77.5607 390.854C77.5607 391.118 77.6707 391.32 77.8907 391.459C78.118 391.599 78.5287 391.69 79.1227 391.734C79.7607 391.786 80.2447 391.94 80.5747 392.196C80.912 392.446 81.0807 392.812 81.0807 393.296V393.362C81.0807 393.626 81.0257 393.865 80.9157 394.077C80.813 394.283 80.6664 394.459 80.4757 394.605C80.2924 394.752 80.065 394.862 79.7937 394.935C79.5297 395.016 79.24 395.056 78.9247 395.056C78.4994 395.056 78.1327 395.001 77.8247 394.891C77.524 394.774 77.271 394.624 77.0657 394.44C76.8677 394.25 76.7174 394.037 76.6147 393.802C76.512 393.56 76.4534 393.318 76.4387 393.076L77.2527 392.878C77.2894 393.296 77.4507 393.634 77.7367 393.89C78.0227 394.14 78.404 394.264 78.8807 394.264C79.284 394.264 79.6067 394.187 79.8487 394.033C80.098 393.872 80.2227 393.648 80.2227 393.362C80.2227 393.054 80.1017 392.834 79.8597 392.702C79.6177 392.57 79.2254 392.486 78.6827 392.449C78.052 392.405 77.568 392.259 77.2307 392.009C76.8934 391.76 76.7247 391.397 76.7247 390.92V390.854C76.7247 390.598 76.7797 390.374 76.8897 390.183C76.9997 389.985 77.1464 389.82 77.3297 389.688C77.5204 389.556 77.733 389.457 77.9677 389.391C78.2024 389.325 78.448 389.292 78.7047 389.292C79.064 389.292 79.3794 389.344 79.6507 389.446C79.922 389.542 80.1494 389.67 80.3327 389.831C80.516 389.985 80.6554 390.165 80.7507 390.37C80.8534 390.576 80.9194 390.781 80.9487 390.986L80.1347 391.184C80.098 390.832 79.955 390.557 79.7057 390.359C79.4637 390.161 79.1447 390.062 78.7487 390.062C78.5947 390.062 78.4444 390.081 78.2977 390.117C78.1584 390.147 78.0337 390.194 77.9237 390.26C77.8137 390.326 77.7257 390.411 77.6597 390.513C77.5937 390.609 77.5607 390.722 77.5607 390.854ZM83.7901 392.438C83.8121 392.981 83.9807 393.417 84.2961 393.747C84.6114 394.077 85.0514 394.242 85.6161 394.242C85.8727 394.242 86.0964 394.213 86.2871 394.154C86.4777 394.096 86.6391 394.015 86.7711 393.912C86.9104 393.81 87.0204 393.692 87.1011 393.56C87.1891 393.421 87.2587 393.274 87.3101 393.12L88.1241 393.34C87.9701 393.846 87.6841 394.261 87.2661 394.583C86.8554 394.899 86.2981 395.056 85.5941 395.056C85.2054 395.056 84.8461 394.99 84.5161 394.858C84.1934 394.719 83.9147 394.525 83.6801 394.275C83.4454 394.026 83.2621 393.729 83.1301 393.384C82.9981 393.04 82.9321 392.658 82.9321 392.24V391.976C82.9321 391.595 82.9981 391.239 83.1301 390.909C83.2694 390.579 83.4601 390.297 83.7021 390.062C83.9441 389.82 84.2264 389.633 84.5491 389.501C84.8791 389.362 85.2347 389.292 85.6161 389.292C86.0634 389.292 86.4484 389.377 86.7711 389.545C87.1011 389.707 87.3687 389.908 87.5741 390.15C87.7867 390.392 87.9407 390.656 88.0361 390.942C88.1387 391.228 88.1901 391.492 88.1901 391.734V392.438H83.7901ZM85.6161 390.106C85.3741 390.106 85.1467 390.147 84.9341 390.227C84.7287 390.301 84.5454 390.407 84.3841 390.546C84.2301 390.686 84.1017 390.851 83.9991 391.041C83.9037 391.225 83.8414 391.426 83.8121 391.646H87.3321C87.3174 391.412 87.2587 391.199 87.1561 391.008C87.0607 390.818 86.9324 390.656 86.7711 390.524C86.6171 390.392 86.4374 390.29 86.2321 390.216C86.0341 390.143 85.8287 390.106 85.6161 390.106Z" fill="black"/>
<path d="M39.7989 325.803V360.954C39.7989 364.223 49.737 366.874 62.0001 366.874C74.2631 366.874 84.2012 364.223 84.2012 360.954V325.803" stroke="#163341" stroke-width="2" stroke-miterlimit="10"/>
<path d="M39.7989 349.815C39.7989 353.084 49.737 355.735 62.0001 355.735C74.2631 355.735 84.2012 353.084 84.2012 349.815" stroke="#163341" stroke-width="2" stroke-miterlimit="10"/>
<path d="M39.7988 338.344C39.7988 341.613 49.7369 344.264 62 344.264C74.263 344.264 84.2011 341.613 84.2011 338.344" stroke="#163341" stroke-width="2" stroke-miterlimit="10"/>
<path d="M62 331.769C74.2613 331.769 84.2011 329.118 84.2011 325.849C84.2011 322.58 74.2613 319.929 62 319.929C49.7386 319.929 39.7988 322.58 39.7988 325.849C39.7988 329.118 49.7386 331.769 62 331.769Z" stroke="#FF4438" stroke-width="2" stroke-miterlimit="10"/>
<path d="M61.6464 299.42C61.8417 299.615 62.1583 299.615 62.3536 299.42L65.5355 296.238C65.7308 296.043 65.7308 295.726 65.5355 295.531C65.3403 295.335 65.0237 295.335 64.8284 295.531L62 298.359L59.1716 295.531C58.9763 295.335 58.6597 295.335 58.4645 295.531C58.2692 295.726 58.2692 296.043 58.4645 296.238L61.6464 299.42ZM62.5 299.066L62.5 65.2461L61.5 65.2461L61.5 299.066L62.5 299.066Z" fill="#8A99A0"/>
<rect x="294" y="164" width="132" height="255.677" rx="4" fill="#F3F3F3"/>
<rect x="312.5" y="180.697" width="95" height="95" rx="3.5" fill="white" stroke="#8A99A0"/>
<path d="M344.975 220.719C344.975 220.47 344.924 220.25 344.821 220.059C344.726 219.869 344.594 219.711 344.425 219.586C344.256 219.462 344.062 219.366 343.842 219.3C343.622 219.234 343.391 219.201 343.149 219.201C342.936 219.201 342.735 219.231 342.544 219.289C342.353 219.341 342.181 219.418 342.027 219.52C341.88 219.623 341.763 219.751 341.675 219.905C341.587 220.052 341.543 220.224 341.543 220.422V220.488C341.543 220.701 341.587 220.884 341.675 221.038C341.763 221.185 341.891 221.313 342.06 221.423C342.236 221.526 342.452 221.614 342.709 221.687C342.966 221.753 343.266 221.812 343.611 221.863C344.418 221.988 345.012 222.226 345.393 222.578C345.774 222.923 345.965 223.389 345.965 223.975V224.107C345.965 224.437 345.906 224.742 345.789 225.02C345.679 225.292 345.51 225.526 345.283 225.724C345.063 225.922 344.788 226.076 344.458 226.186C344.128 226.296 343.747 226.351 343.314 226.351C342.823 226.351 342.386 226.282 342.005 226.142C341.631 225.996 341.316 225.798 341.059 225.548C340.81 225.292 340.619 224.995 340.487 224.657C340.355 224.313 340.289 223.939 340.289 223.535V223.205H341.213V223.469C341.213 224.144 341.396 224.65 341.763 224.987C342.137 225.325 342.654 225.493 343.314 225.493C343.886 225.493 344.315 225.369 344.601 225.119C344.894 224.863 345.041 224.525 345.041 224.107V224.041C345.041 223.638 344.891 223.33 344.59 223.117C344.297 222.905 343.816 222.751 343.149 222.655C342.76 222.604 342.408 222.527 342.093 222.424C341.785 222.314 341.521 222.175 341.301 222.006C341.081 221.83 340.912 221.621 340.795 221.379C340.678 221.137 340.619 220.851 340.619 220.521V220.389C340.619 220.089 340.681 219.814 340.806 219.564C340.931 219.315 341.103 219.099 341.323 218.915C341.55 218.732 341.818 218.593 342.126 218.497C342.441 218.395 342.786 218.343 343.16 218.343C343.593 218.343 343.978 218.406 344.315 218.53C344.66 218.655 344.949 218.824 345.184 219.036C345.419 219.242 345.595 219.487 345.712 219.773C345.837 220.052 345.899 220.345 345.899 220.653V221.115H344.975V220.719ZM347.299 220.741H349.015V218.497H349.873V220.741H351.985V221.533H349.873V225.075C349.873 225.295 349.972 225.405 350.17 225.405H351.721V226.197H349.862C349.613 226.197 349.408 226.117 349.246 225.955C349.092 225.794 349.015 225.589 349.015 225.339V221.533H347.299V220.741ZM353.914 220.741H355.894V221.467H356.026C356.165 221.167 356.363 220.947 356.62 220.807C356.876 220.661 357.17 220.587 357.5 220.587C358.05 220.587 358.493 220.767 358.831 221.126C359.168 221.486 359.348 222.01 359.37 222.699L358.468 222.831C358.468 222.325 358.347 221.962 358.105 221.742C357.863 221.515 357.566 221.401 357.214 221.401C356.986 221.401 356.788 221.445 356.62 221.533C356.458 221.621 356.323 221.742 356.213 221.896C356.103 222.05 356.022 222.23 355.971 222.435C355.919 222.641 355.894 222.861 355.894 223.095V225.405H357.28V226.197H353.782V225.405H355.036V221.533H353.914V220.741ZM361.584 223.733C361.606 224.276 361.775 224.712 362.09 225.042C362.405 225.372 362.845 225.537 363.41 225.537C363.667 225.537 363.89 225.508 364.081 225.449C364.272 225.391 364.433 225.31 364.565 225.207C364.704 225.105 364.814 224.987 364.895 224.855C364.983 224.716 365.053 224.569 365.104 224.415L365.918 224.635C365.764 225.141 365.478 225.556 365.06 225.878C364.649 226.194 364.092 226.351 363.388 226.351C362.999 226.351 362.64 226.285 362.31 226.153C361.987 226.014 361.709 225.82 361.474 225.57C361.239 225.321 361.056 225.024 360.924 224.679C360.792 224.335 360.726 223.953 360.726 223.535V223.271C360.726 222.89 360.792 222.534 360.924 222.204C361.063 221.874 361.254 221.592 361.496 221.357C361.738 221.115 362.02 220.928 362.343 220.796C362.673 220.657 363.029 220.587 363.41 220.587C363.857 220.587 364.242 220.672 364.565 220.84C364.895 221.002 365.163 221.203 365.368 221.445C365.581 221.687 365.735 221.951 365.83 222.237C365.933 222.523 365.984 222.787 365.984 223.029V223.733H361.584ZM363.41 221.401C363.168 221.401 362.941 221.442 362.728 221.522C362.523 221.596 362.339 221.702 362.178 221.841C362.024 221.981 361.896 222.146 361.793 222.336C361.698 222.52 361.635 222.721 361.606 222.941H365.126C365.111 222.707 365.053 222.494 364.95 222.303C364.855 222.113 364.726 221.951 364.565 221.819C364.411 221.687 364.231 221.585 364.026 221.511C363.828 221.438 363.623 221.401 363.41 221.401ZM371.652 225.273H371.52C371.344 225.64 371.099 225.911 370.783 226.087C370.475 226.263 370.149 226.351 369.804 226.351C369.445 226.351 369.111 226.293 368.803 226.175C368.495 226.051 368.224 225.871 367.989 225.636C367.762 225.394 367.582 225.101 367.45 224.756C367.318 224.412 367.252 224.012 367.252 223.557V223.381C367.252 222.934 367.318 222.538 367.45 222.193C367.582 221.849 367.762 221.559 367.989 221.324C368.224 221.082 368.495 220.899 368.803 220.774C369.111 220.65 369.438 220.587 369.782 220.587C370.156 220.587 370.494 220.672 370.794 220.84C371.102 221.002 371.344 221.255 371.52 221.599H371.652V220.741H372.51V225.075C372.51 225.295 372.609 225.405 372.807 225.405H373.082V226.197H372.499C372.25 226.197 372.045 226.117 371.883 225.955C371.729 225.794 371.652 225.589 371.652 225.339V225.273ZM369.892 225.537C370.149 225.537 370.384 225.49 370.596 225.394C370.816 225.299 371.003 225.163 371.157 224.987C371.311 224.811 371.432 224.602 371.52 224.36C371.608 224.111 371.652 223.836 371.652 223.535V223.403C371.652 223.11 371.608 222.842 371.52 222.6C371.432 222.351 371.308 222.138 371.146 221.962C370.992 221.786 370.805 221.651 370.585 221.555C370.373 221.453 370.142 221.401 369.892 221.401C369.636 221.401 369.401 221.449 369.188 221.544C368.976 221.64 368.789 221.775 368.627 221.951C368.473 222.12 368.352 222.329 368.264 222.578C368.176 222.82 368.132 223.088 368.132 223.381V223.557C368.132 224.181 368.294 224.668 368.616 225.02C368.946 225.365 369.372 225.537 369.892 225.537ZM379.675 226.197H378.817V222.281C378.817 222.025 378.758 221.816 378.641 221.654C378.523 221.486 378.336 221.401 378.08 221.401C377.838 221.401 377.64 221.493 377.486 221.676C377.339 221.852 377.266 222.127 377.266 222.501V226.197H376.408V222.237C376.408 221.995 376.342 221.797 376.21 221.643C376.078 221.482 375.902 221.401 375.682 221.401C375.418 221.401 375.212 221.497 375.066 221.687C374.926 221.878 374.857 222.127 374.857 222.435V226.197H373.999V220.741H374.857V221.335H374.989C375.084 221.079 375.223 220.892 375.407 220.774C375.59 220.65 375.806 220.587 376.056 220.587C376.32 220.587 376.536 220.657 376.705 220.796C376.881 220.936 377.002 221.115 377.068 221.335H377.2C377.449 220.837 377.845 220.587 378.388 220.587C378.798 220.587 379.114 220.719 379.334 220.983C379.561 221.24 379.675 221.577 379.675 221.995V226.197ZM331.308 241.397H330.45V233.741H331.308V234.599H331.44C331.631 234.269 331.895 234.02 332.232 233.851C332.569 233.675 332.936 233.587 333.332 233.587C333.669 233.587 333.988 233.65 334.289 233.774C334.59 233.899 334.854 234.079 335.081 234.313C335.316 234.548 335.499 234.838 335.631 235.182C335.77 235.527 335.84 235.919 335.84 236.359V236.579C335.84 237.027 335.774 237.423 335.642 237.767C335.51 238.112 335.327 238.402 335.092 238.636C334.865 238.871 334.597 239.051 334.289 239.175C333.981 239.293 333.655 239.351 333.31 239.351C333.134 239.351 332.954 239.329 332.771 239.285C332.588 239.249 332.412 239.19 332.243 239.109C332.082 239.021 331.931 238.919 331.792 238.801C331.653 238.677 331.535 238.53 331.44 238.361H331.308V241.397ZM333.134 238.537C333.398 238.537 333.64 238.493 333.86 238.405C334.08 238.31 334.271 238.178 334.432 238.009C334.601 237.841 334.729 237.635 334.817 237.393C334.912 237.151 334.96 236.88 334.96 236.579V236.359C334.96 236.066 334.912 235.802 334.817 235.567C334.729 235.325 334.601 235.12 334.432 234.951C334.271 234.775 334.076 234.64 333.849 234.544C333.629 234.449 333.391 234.401 333.134 234.401C332.877 234.401 332.639 234.453 332.419 234.555C332.199 234.651 332.005 234.786 331.836 234.962C331.675 235.138 331.546 235.351 331.451 235.6C331.356 235.842 331.308 236.11 331.308 236.403V236.535C331.308 236.836 331.356 237.111 331.451 237.36C331.546 237.602 331.675 237.811 331.836 237.987C332.005 238.163 332.199 238.299 332.419 238.394C332.639 238.49 332.877 238.537 333.134 238.537ZM337.075 233.741H339.055V234.467H339.187C339.327 234.167 339.525 233.947 339.781 233.807C340.038 233.661 340.331 233.587 340.661 233.587C341.211 233.587 341.655 233.767 341.992 234.126C342.33 234.486 342.509 235.01 342.531 235.699L341.629 235.831C341.629 235.325 341.508 234.962 341.266 234.742C341.024 234.515 340.727 234.401 340.375 234.401C340.148 234.401 339.95 234.445 339.781 234.533C339.62 234.621 339.484 234.742 339.374 234.896C339.264 235.05 339.184 235.23 339.132 235.435C339.081 235.641 339.055 235.861 339.055 236.095V238.405H340.441V239.197H336.943V238.405H338.197V234.533H337.075V233.741ZM349.267 236.535C349.267 236.99 349.19 237.393 349.036 237.745C348.889 238.09 348.691 238.383 348.442 238.625C348.192 238.86 347.899 239.04 347.562 239.164C347.232 239.289 346.887 239.351 346.528 239.351C346.161 239.351 345.813 239.289 345.483 239.164C345.153 239.04 344.863 238.86 344.614 238.625C344.364 238.383 344.163 238.09 344.009 237.745C343.862 237.393 343.789 236.99 343.789 236.535V236.403C343.789 235.956 343.862 235.56 344.009 235.215C344.163 234.863 344.364 234.566 344.614 234.324C344.87 234.082 345.164 233.899 345.494 233.774C345.824 233.65 346.168 233.587 346.528 233.587C346.887 233.587 347.232 233.65 347.562 233.774C347.892 233.899 348.181 234.082 348.431 234.324C348.687 234.566 348.889 234.863 349.036 235.215C349.19 235.56 349.267 235.956 349.267 236.403V236.535ZM346.528 238.537C346.792 238.537 347.034 238.493 347.254 238.405C347.481 238.31 347.679 238.174 347.848 237.998C348.016 237.822 348.148 237.613 348.244 237.371C348.339 237.122 348.387 236.843 348.387 236.535V236.403C348.387 236.11 348.339 235.842 348.244 235.6C348.148 235.351 348.016 235.138 347.848 234.962C347.679 234.786 347.481 234.651 347.254 234.555C347.026 234.453 346.784 234.401 346.528 234.401C346.271 234.401 346.029 234.453 345.802 234.555C345.574 234.651 345.376 234.786 345.208 234.962C345.039 235.138 344.907 235.351 344.812 235.6C344.716 235.842 344.669 236.11 344.669 236.403V236.535C344.669 236.843 344.716 237.122 344.812 237.371C344.907 237.613 345.039 237.822 345.208 237.998C345.376 238.174 345.571 238.31 345.791 238.405C346.018 238.493 346.264 238.537 346.528 238.537ZM355.958 237.261C355.899 237.562 355.797 237.841 355.65 238.097C355.511 238.354 355.331 238.578 355.111 238.768C354.891 238.952 354.634 239.095 354.341 239.197C354.048 239.3 353.721 239.351 353.362 239.351C352.981 239.351 352.618 239.289 352.273 239.164C351.936 239.04 351.639 238.86 351.382 238.625C351.125 238.383 350.92 238.09 350.766 237.745C350.619 237.401 350.546 237.005 350.546 236.557V236.425C350.546 235.985 350.619 235.589 350.766 235.237C350.92 234.885 351.125 234.588 351.382 234.346C351.639 234.104 351.936 233.917 352.273 233.785C352.618 233.653 352.981 233.587 353.362 233.587C353.707 233.587 354.026 233.639 354.319 233.741C354.612 233.844 354.869 233.991 355.089 234.181C355.316 234.365 355.5 234.585 355.639 234.841C355.786 235.098 355.885 235.377 355.936 235.677L355.078 235.875C355.056 235.685 355.001 235.501 354.913 235.325C354.832 235.142 354.719 234.984 354.572 234.852C354.433 234.713 354.26 234.603 354.055 234.522C353.85 234.442 353.611 234.401 353.34 234.401C353.076 234.401 352.827 234.453 352.592 234.555C352.365 234.651 352.163 234.79 351.987 234.973C351.811 235.149 351.672 235.362 351.569 235.611C351.474 235.861 351.426 236.132 351.426 236.425V236.557C351.426 236.865 351.474 237.144 351.569 237.393C351.672 237.635 351.811 237.841 351.987 238.009C352.163 238.178 352.368 238.31 352.603 238.405C352.838 238.493 353.091 238.537 353.362 238.537C353.633 238.537 353.868 238.497 354.066 238.416C354.271 238.328 354.444 238.218 354.583 238.086C354.73 237.947 354.843 237.789 354.924 237.613C355.012 237.437 355.071 237.254 355.1 237.063L355.958 237.261ZM358.216 236.733C358.238 237.276 358.407 237.712 358.722 238.042C359.038 238.372 359.478 238.537 360.042 238.537C360.299 238.537 360.523 238.508 360.713 238.449C360.904 238.391 361.065 238.31 361.197 238.207C361.337 238.105 361.447 237.987 361.527 237.855C361.615 237.716 361.685 237.569 361.736 237.415L362.55 237.635C362.396 238.141 362.11 238.556 361.692 238.878C361.282 239.194 360.724 239.351 360.02 239.351C359.632 239.351 359.272 239.285 358.942 239.153C358.62 239.014 358.341 238.82 358.106 238.57C357.872 238.321 357.688 238.024 357.556 237.679C357.424 237.335 357.358 236.953 357.358 236.535V236.271C357.358 235.89 357.424 235.534 357.556 235.204C357.696 234.874 357.886 234.592 358.128 234.357C358.37 234.115 358.653 233.928 358.975 233.796C359.305 233.657 359.661 233.587 360.042 233.587C360.49 233.587 360.875 233.672 361.197 233.84C361.527 234.002 361.795 234.203 362 234.445C362.213 234.687 362.367 234.951 362.462 235.237C362.565 235.523 362.616 235.787 362.616 236.029V236.733H358.216ZM360.042 234.401C359.8 234.401 359.573 234.442 359.36 234.522C359.155 234.596 358.972 234.702 358.81 234.841C358.656 234.981 358.528 235.146 358.425 235.336C358.33 235.52 358.268 235.721 358.238 235.941H361.758C361.744 235.707 361.685 235.494 361.582 235.303C361.487 235.113 361.359 234.951 361.197 234.819C361.043 234.687 360.864 234.585 360.658 234.511C360.46 234.438 360.255 234.401 360.042 234.401ZM365.458 235.149C365.458 235.413 365.568 235.615 365.788 235.754C366.015 235.894 366.426 235.985 367.02 236.029C367.658 236.081 368.142 236.235 368.472 236.491C368.809 236.741 368.978 237.107 368.978 237.591V237.657C368.978 237.921 368.923 238.16 368.813 238.372C368.71 238.578 368.563 238.754 368.373 238.9C368.189 239.047 367.962 239.157 367.691 239.23C367.427 239.311 367.137 239.351 366.822 239.351C366.396 239.351 366.03 239.296 365.722 239.186C365.421 239.069 365.168 238.919 364.963 238.735C364.765 238.545 364.614 238.332 364.512 238.097C364.409 237.855 364.35 237.613 364.336 237.371L365.15 237.173C365.186 237.591 365.348 237.929 365.634 238.185C365.92 238.435 366.301 238.559 366.778 238.559C367.181 238.559 367.504 238.482 367.746 238.328C367.995 238.167 368.12 237.943 368.12 237.657C368.12 237.349 367.999 237.129 367.757 236.997C367.515 236.865 367.122 236.781 366.58 236.744C365.949 236.7 365.465 236.554 365.128 236.304C364.79 236.055 364.622 235.692 364.622 235.215V235.149C364.622 234.893 364.677 234.669 364.787 234.478C364.897 234.28 365.043 234.115 365.227 233.983C365.417 233.851 365.63 233.752 365.865 233.686C366.099 233.62 366.345 233.587 366.602 233.587C366.961 233.587 367.276 233.639 367.548 233.741C367.819 233.837 368.046 233.965 368.23 234.126C368.413 234.28 368.552 234.46 368.648 234.665C368.75 234.871 368.816 235.076 368.846 235.281L368.032 235.479C367.995 235.127 367.852 234.852 367.603 234.654C367.361 234.456 367.042 234.357 366.646 234.357C366.492 234.357 366.341 234.376 366.195 234.412C366.055 234.442 365.931 234.489 365.821 234.555C365.711 234.621 365.623 234.706 365.557 234.808C365.491 234.904 365.458 235.017 365.458 235.149ZM372.193 235.149C372.193 235.413 372.303 235.615 372.523 235.754C372.75 235.894 373.161 235.985 373.755 236.029C374.393 236.081 374.877 236.235 375.207 236.491C375.544 236.741 375.713 237.107 375.713 237.591V237.657C375.713 237.921 375.658 238.16 375.548 238.372C375.445 238.578 375.299 238.754 375.108 238.9C374.925 239.047 374.697 239.157 374.426 239.23C374.162 239.311 373.872 239.351 373.557 239.351C373.132 239.351 372.765 239.296 372.457 239.186C372.156 239.069 371.903 238.919 371.698 238.735C371.5 238.545 371.35 238.332 371.247 238.097C371.144 237.855 371.086 237.613 371.071 237.371L371.885 237.173C371.922 237.591 372.083 237.929 372.369 238.185C372.655 238.435 373.036 238.559 373.513 238.559C373.916 238.559 374.239 238.482 374.481 238.328C374.73 238.167 374.855 237.943 374.855 237.657C374.855 237.349 374.734 237.129 374.492 236.997C374.25 236.865 373.858 236.781 373.315 236.744C372.684 236.7 372.2 236.554 371.863 236.304C371.526 236.055 371.357 235.692 371.357 235.215V235.149C371.357 234.893 371.412 234.669 371.522 234.478C371.632 234.28 371.779 234.115 371.962 233.983C372.153 233.851 372.365 233.752 372.6 233.686C372.835 233.62 373.08 233.587 373.337 233.587C373.696 233.587 374.012 233.639 374.283 233.741C374.554 233.837 374.782 233.965 374.965 234.126C375.148 234.28 375.288 234.46 375.383 234.665C375.486 234.871 375.552 235.076 375.581 235.281L374.767 235.479C374.73 235.127 374.587 234.852 374.338 234.654C374.096 234.456 373.777 234.357 373.381 234.357C373.227 234.357 373.077 234.376 372.93 234.412C372.791 234.442 372.666 234.489 372.556 234.555C372.446 234.621 372.358 234.706 372.292 234.808C372.226 234.904 372.193 235.017 372.193 235.149ZM382.943 236.535C382.943 236.99 382.866 237.393 382.712 237.745C382.566 238.09 382.368 238.383 382.118 238.625C381.869 238.86 381.576 239.04 381.238 239.164C380.908 239.289 380.564 239.351 380.204 239.351C379.838 239.351 379.489 239.289 379.159 239.164C378.829 239.04 378.54 238.86 378.29 238.625C378.041 238.383 377.839 238.09 377.685 237.745C377.539 237.393 377.465 236.99 377.465 236.535V236.403C377.465 235.956 377.539 235.56 377.685 235.215C377.839 234.863 378.041 234.566 378.29 234.324C378.547 234.082 378.84 233.899 379.17 233.774C379.5 233.65 379.845 233.587 380.204 233.587C380.564 233.587 380.908 233.65 381.238 233.774C381.568 233.899 381.858 234.082 382.107 234.324C382.364 234.566 382.566 234.863 382.712 235.215C382.866 235.56 382.943 235.956 382.943 236.403V236.535ZM380.204 238.537C380.468 238.537 380.71 238.493 380.93 238.405C381.158 238.31 381.356 238.174 381.524 237.998C381.693 237.822 381.825 237.613 381.92 237.371C382.016 237.122 382.063 236.843 382.063 236.535V236.403C382.063 236.11 382.016 235.842 381.92 235.6C381.825 235.351 381.693 235.138 381.524 234.962C381.356 234.786 381.158 234.651 380.93 234.555C380.703 234.453 380.461 234.401 380.204 234.401C379.948 234.401 379.706 234.453 379.478 234.555C379.251 234.651 379.053 234.786 378.884 234.962C378.716 235.138 378.584 235.351 378.488 235.6C378.393 235.842 378.345 236.11 378.345 236.403V236.535C378.345 236.843 378.393 237.122 378.488 237.371C378.584 237.613 378.716 237.822 378.884 237.998C379.053 238.174 379.247 238.31 379.467 238.405C379.695 238.493 379.94 238.537 380.204 238.537ZM384.223 233.741H386.203V234.467H386.335C386.474 234.167 386.672 233.947 386.929 233.807C387.185 233.661 387.479 233.587 387.809 233.587C388.359 233.587 388.802 233.767 389.14 234.126C389.477 234.486 389.657 235.01 389.679 235.699L388.777 235.831C388.777 235.325 388.656 234.962 388.414 234.742C388.172 234.515 387.875 234.401 387.523 234.401C387.295 234.401 387.097 234.445 386.929 234.533C386.767 234.621 386.632 234.742 386.522 234.896C386.412 235.05 386.331 235.23 386.28 235.435C386.228 235.641 386.203 235.861 386.203 236.095V238.405H387.589V239.197H384.091V238.405H385.345V234.533H384.223V233.741Z" fill="black"/>
<rect x="312.5" y="308.632" width="95" height="95" rx="3.5" fill="white" stroke="#8A99A0"/>
<path d="M353.307 353.428C353.622 353.428 353.89 353.377 354.11 353.274C354.337 353.164 354.521 353.021 354.66 352.845C354.807 352.662 354.913 352.457 354.979 352.229C355.052 351.995 355.089 351.749 355.089 351.492V351.36H356.013V351.492C356.013 351.881 355.954 352.248 355.837 352.592C355.72 352.93 355.547 353.227 355.32 353.483C355.093 353.733 354.81 353.931 354.473 354.077C354.136 354.217 353.747 354.286 353.307 354.286C352.456 354.286 351.793 354.019 351.316 353.483C350.839 352.948 350.601 352.167 350.601 351.14V349.424C350.601 348.427 350.839 347.653 351.316 347.103C351.793 346.553 352.456 346.278 353.307 346.278C353.747 346.278 354.136 346.352 354.473 346.498C354.81 346.638 355.093 346.836 355.32 347.092C355.547 347.342 355.72 347.639 355.837 347.983C355.954 348.321 356.013 348.684 356.013 349.072V349.204H355.089V349.072C355.082 348.823 355.041 348.581 354.968 348.346C354.902 348.112 354.796 347.906 354.649 347.73C354.51 347.547 354.33 347.404 354.11 347.301C353.89 347.191 353.622 347.136 353.307 347.136C352.713 347.136 352.266 347.353 351.965 347.785C351.672 348.218 351.525 348.786 351.525 349.49V351.074C351.525 351.83 351.672 352.413 351.965 352.823C352.266 353.227 352.713 353.428 353.307 353.428ZM357.435 346.432H359.965C360.919 346.432 361.615 346.66 362.055 347.114C362.495 347.569 362.715 348.295 362.715 349.292V351.272C362.715 352.27 362.495 352.996 362.055 353.45C361.615 353.905 360.919 354.132 359.965 354.132H357.435V353.263H358.095V347.29H357.435V346.432ZM359.833 353.274C360.171 353.274 360.46 353.241 360.702 353.175C360.952 353.109 361.157 352.999 361.318 352.845C361.48 352.684 361.597 352.471 361.67 352.207C361.751 351.943 361.791 351.61 361.791 351.206V349.358C361.791 348.955 361.751 348.621 361.67 348.357C361.597 348.093 361.48 347.884 361.318 347.73C361.157 347.569 360.952 347.455 360.702 347.389C360.46 347.323 360.171 347.29 359.833 347.29H359.019V353.274H359.833ZM366.778 353.428C367.093 353.428 367.361 353.377 367.581 353.274C367.808 353.164 367.991 353.021 368.131 352.845C368.277 352.662 368.384 352.457 368.45 352.229C368.523 351.995 368.56 351.749 368.56 351.492V351.36H369.484V351.492C369.484 351.881 369.425 352.248 369.308 352.592C369.19 352.93 369.018 353.227 368.791 353.483C368.563 353.733 368.281 353.931 367.944 354.077C367.606 354.217 367.218 354.286 366.778 354.286C365.927 354.286 365.263 354.019 364.787 353.483C364.31 352.948 364.072 352.167 364.072 351.14V349.424C364.072 348.427 364.31 347.653 364.787 347.103C365.263 346.553 365.927 346.278 366.778 346.278C367.218 346.278 367.606 346.352 367.944 346.498C368.281 346.638 368.563 346.836 368.791 347.092C369.018 347.342 369.19 347.639 369.308 347.983C369.425 348.321 369.484 348.684 369.484 349.072V349.204H368.56V349.072C368.552 348.823 368.512 348.581 368.439 348.346C368.373 348.112 368.266 347.906 368.12 347.73C367.98 347.547 367.801 347.404 367.581 347.301C367.361 347.191 367.093 347.136 366.778 347.136C366.184 347.136 365.736 347.353 365.436 347.785C365.142 348.218 364.996 348.786 364.996 349.49V351.074C364.996 351.83 365.142 352.413 365.436 352.823C365.736 353.227 366.184 353.428 366.778 353.428ZM335.752 365.196C335.693 365.497 335.591 365.776 335.444 366.032C335.305 366.289 335.125 366.513 334.905 366.703C334.685 366.887 334.428 367.03 334.135 367.132C333.842 367.235 333.515 367.286 333.156 367.286C332.775 367.286 332.412 367.224 332.067 367.099C331.73 366.975 331.433 366.795 331.176 366.56C330.919 366.318 330.714 366.025 330.56 365.68C330.413 365.336 330.34 364.94 330.34 364.492V364.36C330.34 363.92 330.413 363.524 330.56 363.172C330.714 362.82 330.919 362.523 331.176 362.281C331.433 362.039 331.73 361.852 332.067 361.72C332.412 361.588 332.775 361.522 333.156 361.522C333.501 361.522 333.82 361.574 334.113 361.676C334.406 361.779 334.663 361.926 334.883 362.116C335.11 362.3 335.294 362.52 335.433 362.776C335.58 363.033 335.679 363.312 335.73 363.612L334.872 363.81C334.85 363.62 334.795 363.436 334.707 363.26C334.626 363.077 334.513 362.919 334.366 362.787C334.227 362.648 334.054 362.538 333.849 362.457C333.644 362.377 333.405 362.336 333.134 362.336C332.87 362.336 332.621 362.388 332.386 362.49C332.159 362.586 331.957 362.725 331.781 362.908C331.605 363.084 331.466 363.297 331.363 363.546C331.268 363.796 331.22 364.067 331.22 364.36V364.492C331.22 364.8 331.268 365.079 331.363 365.328C331.466 365.57 331.605 365.776 331.781 365.944C331.957 366.113 332.162 366.245 332.397 366.34C332.632 366.428 332.885 366.472 333.156 366.472C333.427 366.472 333.662 366.432 333.86 366.351C334.065 366.263 334.238 366.153 334.377 366.021C334.524 365.882 334.637 365.724 334.718 365.548C334.806 365.372 334.865 365.189 334.894 364.998L335.752 365.196ZM342.531 364.47C342.531 364.925 342.454 365.328 342.3 365.68C342.154 366.025 341.956 366.318 341.706 366.56C341.457 366.795 341.164 366.975 340.826 367.099C340.496 367.224 340.152 367.286 339.792 367.286C339.426 367.286 339.077 367.224 338.747 367.099C338.417 366.975 338.128 366.795 337.878 366.56C337.629 366.318 337.427 366.025 337.273 365.68C337.127 365.328 337.053 364.925 337.053 364.47V364.338C337.053 363.891 337.127 363.495 337.273 363.15C337.427 362.798 337.629 362.501 337.878 362.259C338.135 362.017 338.428 361.834 338.758 361.709C339.088 361.585 339.433 361.522 339.792 361.522C340.152 361.522 340.496 361.585 340.826 361.709C341.156 361.834 341.446 362.017 341.695 362.259C341.952 362.501 342.154 362.798 342.3 363.15C342.454 363.495 342.531 363.891 342.531 364.338V364.47ZM339.792 366.472C340.056 366.472 340.298 366.428 340.518 366.34C340.746 366.245 340.944 366.109 341.112 365.933C341.281 365.757 341.413 365.548 341.508 365.306C341.604 365.057 341.651 364.778 341.651 364.47V364.338C341.651 364.045 341.604 363.777 341.508 363.535C341.413 363.286 341.281 363.073 341.112 362.897C340.944 362.721 340.746 362.586 340.518 362.49C340.291 362.388 340.049 362.336 339.792 362.336C339.536 362.336 339.294 362.388 339.066 362.49C338.839 362.586 338.641 362.721 338.472 362.897C338.304 363.073 338.172 363.286 338.076 363.535C337.981 363.777 337.933 364.045 337.933 364.338V364.47C337.933 364.778 337.981 365.057 338.076 365.306C338.172 365.548 338.304 365.757 338.472 365.933C338.641 366.109 338.835 366.245 339.055 366.34C339.283 366.428 339.528 366.472 339.792 366.472ZM344.119 366.34H346.099V360.224H344.185V359.432H346.957V366.34H348.937V367.132H344.119V366.34ZM350.854 366.34H352.834V360.224H350.92V359.432H353.692V366.34H355.672V367.132H350.854V366.34ZM358.216 364.668C358.238 365.211 358.407 365.647 358.722 365.977C359.038 366.307 359.478 366.472 360.042 366.472C360.299 366.472 360.523 366.443 360.713 366.384C360.904 366.326 361.065 366.245 361.197 366.142C361.337 366.04 361.447 365.922 361.527 365.79C361.615 365.651 361.685 365.504 361.736 365.35L362.55 365.57C362.396 366.076 362.11 366.491 361.692 366.813C361.282 367.129 360.724 367.286 360.02 367.286C359.632 367.286 359.272 367.22 358.942 367.088C358.62 366.949 358.341 366.755 358.106 366.505C357.872 366.256 357.688 365.959 357.556 365.614C357.424 365.27 357.358 364.888 357.358 364.47V364.206C357.358 363.825 357.424 363.469 357.556 363.139C357.696 362.809 357.886 362.527 358.128 362.292C358.37 362.05 358.653 361.863 358.975 361.731C359.305 361.592 359.661 361.522 360.042 361.522C360.49 361.522 360.875 361.607 361.197 361.775C361.527 361.937 361.795 362.138 362 362.38C362.213 362.622 362.367 362.886 362.462 363.172C362.565 363.458 362.616 363.722 362.616 363.964V364.668H358.216ZM360.042 362.336C359.8 362.336 359.573 362.377 359.36 362.457C359.155 362.531 358.972 362.637 358.81 362.776C358.656 362.916 358.528 363.081 358.425 363.271C358.33 363.455 358.268 363.656 358.238 363.876H361.758C361.744 363.642 361.685 363.429 361.582 363.238C361.487 363.048 361.359 362.886 361.197 362.754C361.043 362.622 360.864 362.52 360.658 362.446C360.46 362.373 360.255 362.336 360.042 362.336ZM369.429 365.196C369.37 365.497 369.267 365.776 369.121 366.032C368.981 366.289 368.802 366.513 368.582 366.703C368.362 366.887 368.105 367.03 367.812 367.132C367.518 367.235 367.192 367.286 366.833 367.286C366.451 367.286 366.088 367.224 365.744 367.099C365.406 366.975 365.109 366.795 364.853 366.56C364.596 366.318 364.391 366.025 364.237 365.68C364.09 365.336 364.017 364.94 364.017 364.492V364.36C364.017 363.92 364.09 363.524 364.237 363.172C364.391 362.82 364.596 362.523 364.853 362.281C365.109 362.039 365.406 361.852 365.744 361.72C366.088 361.588 366.451 361.522 366.833 361.522C367.177 361.522 367.496 361.574 367.79 361.676C368.083 361.779 368.34 361.926 368.56 362.116C368.787 362.3 368.97 362.52 369.11 362.776C369.256 363.033 369.355 363.312 369.407 363.612L368.549 363.81C368.527 363.62 368.472 363.436 368.384 363.26C368.303 363.077 368.189 362.919 368.043 362.787C367.903 362.648 367.731 362.538 367.526 362.457C367.32 362.377 367.082 362.336 366.811 362.336C366.547 362.336 366.297 362.388 366.063 362.49C365.835 362.586 365.634 362.725 365.458 362.908C365.282 363.084 365.142 363.297 365.04 363.546C364.944 363.796 364.897 364.067 364.897 364.36V364.492C364.897 364.8 364.944 365.079 365.04 365.328C365.142 365.57 365.282 365.776 365.458 365.944C365.634 366.113 365.839 366.245 366.074 366.34C366.308 366.428 366.561 366.472 366.833 366.472C367.104 366.472 367.339 366.432 367.537 366.351C367.742 366.263 367.914 366.153 368.054 366.021C368.2 365.882 368.314 365.724 368.395 365.548C368.483 365.372 368.541 365.189 368.571 364.998L369.429 365.196ZM370.873 361.676H372.589V359.432H373.447V361.676H375.559V362.468H373.447V366.01C373.447 366.23 373.546 366.34 373.744 366.34H375.295V367.132H373.436C373.187 367.132 372.981 367.052 372.82 366.89C372.666 366.729 372.589 366.524 372.589 366.274V362.468H370.873V361.676ZM382.943 364.47C382.943 364.925 382.866 365.328 382.712 365.68C382.566 366.025 382.368 366.318 382.118 366.56C381.869 366.795 381.576 366.975 381.238 367.099C380.908 367.224 380.564 367.286 380.204 367.286C379.838 367.286 379.489 367.224 379.159 367.099C378.829 366.975 378.54 366.795 378.29 366.56C378.041 366.318 377.839 366.025 377.685 365.68C377.539 365.328 377.465 364.925 377.465 364.47V364.338C377.465 363.891 377.539 363.495 377.685 363.15C377.839 362.798 378.041 362.501 378.29 362.259C378.547 362.017 378.84 361.834 379.17 361.709C379.5 361.585 379.845 361.522 380.204 361.522C380.564 361.522 380.908 361.585 381.238 361.709C381.568 361.834 381.858 362.017 382.107 362.259C382.364 362.501 382.566 362.798 382.712 363.15C382.866 363.495 382.943 363.891 382.943 364.338V364.47ZM380.204 366.472C380.468 366.472 380.71 366.428 380.93 366.34C381.158 366.245 381.356 366.109 381.524 365.933C381.693 365.757 381.825 365.548 381.92 365.306C382.016 365.057 382.063 364.778 382.063 364.47V364.338C382.063 364.045 382.016 363.777 381.92 363.535C381.825 363.286 381.693 363.073 381.524 362.897C381.356 362.721 381.158 362.586 380.93 362.49C380.703 362.388 380.461 362.336 380.204 362.336C379.948 362.336 379.706 362.388 379.478 362.49C379.251 362.586 379.053 362.721 378.884 362.897C378.716 363.073 378.584 363.286 378.488 363.535C378.393 363.777 378.345 364.045 378.345 364.338V364.47C378.345 364.778 378.393 365.057 378.488 365.306C378.584 365.548 378.716 365.757 378.884 365.933C379.053 366.109 379.247 366.245 379.467 366.34C379.695 366.428 379.94 366.472 380.204 366.472ZM384.223 361.676H386.203V362.402H386.335C386.474 362.102 386.672 361.882 386.929 361.742C387.185 361.596 387.479 361.522 387.809 361.522C388.359 361.522 388.802 361.702 389.14 362.061C389.477 362.421 389.657 362.945 389.679 363.634L388.777 363.766C388.777 363.26 388.656 362.897 388.414 362.677C388.172 362.45 387.875 362.336 387.523 362.336C387.295 362.336 387.097 362.38 386.929 362.468C386.767 362.556 386.632 362.677 386.522 362.831C386.412 362.985 386.331 363.165 386.28 363.37C386.228 363.576 386.203 363.796 386.203 364.03V366.34H387.589V367.132H384.091V366.34H385.345V362.468H384.223V361.676Z" fill="black"/>
<circle cx="403.02" cy="313.265" r="16.02" fill="white" stroke="#8A99A0"/>
<path d="M406.908 319.968C406.908 320.573 407.149 321.153 407.577 321.581C408.005 322.009 408.586 322.25 409.191 322.251C410.748 322.251 412.01 320.989 412.01 319.432C412.009 318.827 411.768 318.246 411.34 317.818C410.912 317.39 410.332 317.15 409.726 317.149H409.19C408.229 317.15 407.307 316.769 406.627 316.09C405.947 315.411 405.565 314.49 405.564 313.53V312.996C405.563 312.392 405.322 311.812 404.896 311.385C404.469 310.957 403.89 310.716 403.286 310.714H402.75C401.791 310.712 400.871 310.33 400.193 309.652C399.515 308.973 399.133 308.053 399.133 307.093V306.558C399.132 305.953 398.891 305.373 398.463 304.945C398.035 304.517 397.455 304.277 396.849 304.276C395.293 304.276 394.031 305.537 394.031 307.093C394.031 307.699 394.272 308.279 394.7 308.707C395.128 309.135 395.709 309.376 396.314 309.377H396.851C397.81 309.378 398.73 309.759 399.409 310.438C400.087 311.116 400.469 312.036 400.47 312.996V313.53C400.472 314.134 400.713 314.714 401.141 315.141C401.569 315.568 402.149 315.808 402.753 315.809H403.289C404.248 315.81 405.168 316.192 405.847 316.87C406.525 317.549 406.907 318.468 406.908 319.428V319.968Z" fill="url(#paint0_linear_12170_472)"/>
<path d="M412.008 312.996C412.007 312.39 411.766 311.81 411.338 311.382C410.91 310.954 410.33 310.713 409.724 310.712H409.188C408.227 310.713 407.306 310.332 406.626 309.653C405.946 308.975 405.564 308.054 405.563 307.093V306.558C405.562 305.954 405.322 305.375 404.895 304.947C404.468 304.519 403.889 304.278 403.285 304.276C401.73 304.276 400.469 305.537 400.469 307.092V307.125C400.478 307.725 400.722 308.297 401.149 308.718C401.576 309.139 402.151 309.376 402.751 309.377H403.288C404.248 309.378 405.167 309.759 405.846 310.438C406.524 311.116 406.906 312.036 406.907 312.996V313.53C406.909 314.133 407.149 314.711 407.575 315.138C408.001 315.565 408.579 315.806 409.182 315.809C410.736 315.809 412.008 314.549 412.008 312.996Z" fill="url(#paint1_linear_12170_472)"/>
<path d="M412.008 306.54C412.003 305.954 411.774 305.392 411.366 304.97C410.959 304.549 410.405 304.3 409.819 304.276H409.705C408.136 304.276 406.863 305.548 406.863 307.118C406.87 307.719 407.114 308.292 407.541 308.715C407.968 309.137 408.544 309.374 409.145 309.375C410.711 309.375 412.008 308.106 412.008 306.54Z" fill="url(#paint2_linear_12170_472)"/>
<path d="M394.031 313.535C394.032 314.141 394.273 314.721 394.701 315.149C395.129 315.576 395.71 315.817 396.315 315.817H396.852C397.811 315.818 398.731 316.2 399.41 316.878C400.088 317.557 400.47 318.477 400.471 319.436V319.97C400.472 320.576 400.713 321.156 401.141 321.584C401.569 322.012 402.149 322.253 402.754 322.254C404.306 322.254 405.563 320.996 405.563 319.444V319.405C405.554 318.806 405.311 318.235 404.886 317.815C404.46 317.394 403.887 317.157 403.288 317.154H402.753C401.793 317.154 400.873 316.772 400.194 316.094C399.515 315.415 399.134 314.495 399.132 313.535V313C399.132 312.396 398.892 311.817 398.466 311.389C398.04 310.961 397.461 310.719 396.857 310.717C395.301 310.717 394.031 311.979 394.031 313.535Z" fill="url(#paint3_linear_12170_472)"/>
<path d="M394.031 319.99C394.035 320.577 394.265 321.141 394.675 321.563C395.084 321.985 395.64 322.233 396.227 322.255H396.333C397.903 322.255 399.176 320.982 399.176 319.412C399.169 318.811 398.926 318.237 398.499 317.815C398.072 317.392 397.495 317.155 396.895 317.154H396.866C395.3 317.154 394.031 318.424 394.031 319.99Z" fill="url(#paint4_linear_12170_472)"/>
<path d="M303.354 356.524C303.549 356.329 303.549 356.013 303.354 355.817L300.172 352.635C299.976 352.44 299.66 352.44 299.464 352.635C299.269 352.831 299.269 353.147 299.464 353.342L302.293 356.171L299.464 358.999C299.269 359.195 299.269 359.511 299.464 359.706C299.66 359.902 299.976 359.902 300.172 359.706L303.354 356.524ZM303 355.671H123.5V356.671H303V355.671Z" fill="#8A99A0"/>
<defs>
<linearGradient id="paint0_linear_12170_472" x1="396.741" y1="306.985" x2="409.687" y2="319.93" gradientUnits="userSpaceOnUse">
<stop stop-color="#91D443"/>
<stop offset="1" stop-color="#48BFE0"/>
</linearGradient>
<linearGradient id="paint1_linear_12170_472" x1="399.96" y1="303.765" x2="412.906" y2="316.711" gradientUnits="userSpaceOnUse">
<stop stop-color="#91D443"/>
<stop offset="1" stop-color="#48BFE0"/>
</linearGradient>
<linearGradient id="paint2_linear_12170_472" x1="403.169" y1="300.557" x2="416.114" y2="313.502" gradientUnits="userSpaceOnUse">
<stop stop-color="#91D443"/>
<stop offset="1" stop-color="#48BFE0"/>
</linearGradient>
<linearGradient id="paint3_linear_12170_472" x1="393.52" y1="310.204" x2="406.465" y2="323.15" gradientUnits="userSpaceOnUse">
<stop stop-color="#91D443"/>
<stop offset="1" stop-color="#48BFE0"/>
</linearGradient>
<linearGradient id="paint4_linear_12170_472" x1="390.311" y1="313.413" x2="403.257" y2="326.359" gradientUnits="userSpaceOnUse">
<stop stop-color="#91D443"/>
<stop offset="1" stop-color="#48BFE0"/>
</linearGradient>
<clipPath id="clip0_12170_472">
<rect width="31.6623" height="29.0238" fill="white" transform="translate(637.669 329.752)"/>
</clipPath>
</defs>
</svg>
