<svg width="720" height="209" viewBox="0 0 720 209" fill="none" xmlns="http://www.w3.org/2000/svg">
<rect width="720" height="208" transform="translate(0 0.389648)" fill="white"/>
<rect x="76.5" y="44.8896" width="119" height="119" rx="3.5" fill="white" stroke="#8A99A0"/>
<path d="M120.975 131.512C120.975 131.262 120.924 131.042 120.821 130.852C120.726 130.661 120.594 130.503 120.425 130.379C120.256 130.254 120.062 130.159 119.842 130.093C119.622 130.027 119.391 129.994 119.149 129.994C118.936 129.994 118.735 130.023 118.544 130.082C118.353 130.133 118.181 130.21 118.027 130.313C117.88 130.415 117.763 130.544 117.675 130.698C117.587 130.844 117.543 131.017 117.543 131.215V131.281C117.543 131.493 117.587 131.677 117.675 131.831C117.763 131.977 117.891 132.106 118.06 132.216C118.236 132.318 118.452 132.406 118.709 132.48C118.966 132.546 119.266 132.604 119.611 132.656C120.418 132.78 121.012 133.019 121.393 133.371C121.774 133.715 121.965 134.181 121.965 134.768V134.9C121.965 135.23 121.906 135.534 121.789 135.813C121.679 136.084 121.51 136.319 121.283 136.517C121.063 136.715 120.788 136.869 120.458 136.979C120.128 137.089 119.747 137.144 119.314 137.144C118.823 137.144 118.386 137.074 118.005 136.935C117.631 136.788 117.316 136.59 117.059 136.341C116.81 136.084 116.619 135.787 116.487 135.45C116.355 135.105 116.289 134.731 116.289 134.328V133.998H117.213V134.262C117.213 134.936 117.396 135.442 117.763 135.78C118.137 136.117 118.654 136.286 119.314 136.286C119.886 136.286 120.315 136.161 120.601 135.912C120.894 135.655 121.041 135.318 121.041 134.9V134.834C121.041 134.43 120.891 134.122 120.59 133.91C120.297 133.697 119.816 133.543 119.149 133.448C118.76 133.396 118.408 133.319 118.093 133.217C117.785 133.107 117.521 132.967 117.301 132.799C117.081 132.623 116.912 132.414 116.795 132.172C116.678 131.93 116.619 131.644 116.619 131.314V131.182C116.619 130.881 116.681 130.606 116.806 130.357C116.931 130.107 117.103 129.891 117.323 129.708C117.55 129.524 117.818 129.385 118.126 129.29C118.441 129.187 118.786 129.136 119.16 129.136C119.593 129.136 119.978 129.198 120.315 129.323C120.66 129.447 120.949 129.616 121.184 129.829C121.419 130.034 121.595 130.28 121.712 130.566C121.837 130.844 121.899 131.138 121.899 131.446V131.908H120.975V131.512ZM128.634 134.328C128.634 134.782 128.557 135.186 128.403 135.538C128.257 135.882 128.059 136.176 127.809 136.418C127.56 136.652 127.267 136.832 126.929 136.957C126.599 137.081 126.255 137.144 125.895 137.144C125.529 137.144 125.18 137.081 124.85 136.957C124.52 136.832 124.231 136.652 123.981 136.418C123.732 136.176 123.53 135.882 123.376 135.538C123.23 135.186 123.156 134.782 123.156 134.328V134.196C123.156 133.748 123.23 133.352 123.376 133.008C123.53 132.656 123.732 132.359 123.981 132.117C124.238 131.875 124.531 131.691 124.861 131.567C125.191 131.442 125.536 131.38 125.895 131.38C126.255 131.38 126.599 131.442 126.929 131.567C127.259 131.691 127.549 131.875 127.798 132.117C128.055 132.359 128.257 132.656 128.403 133.008C128.557 133.352 128.634 133.748 128.634 134.196V134.328ZM125.895 136.33C126.159 136.33 126.401 136.286 126.621 136.198C126.849 136.102 127.047 135.967 127.215 135.791C127.384 135.615 127.516 135.406 127.611 135.164C127.707 134.914 127.754 134.636 127.754 134.328V134.196C127.754 133.902 127.707 133.635 127.611 133.393C127.516 133.143 127.384 132.931 127.215 132.755C127.047 132.579 126.849 132.443 126.621 132.348C126.394 132.245 126.152 132.194 125.895 132.194C125.639 132.194 125.397 132.245 125.169 132.348C124.942 132.443 124.744 132.579 124.575 132.755C124.407 132.931 124.275 133.143 124.179 133.393C124.084 133.635 124.036 133.902 124.036 134.196V134.328C124.036 134.636 124.084 134.914 124.179 135.164C124.275 135.406 124.407 135.615 124.575 135.791C124.744 135.967 124.938 136.102 125.158 136.198C125.386 136.286 125.631 136.33 125.895 136.33ZM134.116 131.534H134.974V136.99H134.116V136H133.984C133.808 136.352 133.577 136.63 133.291 136.836C133.005 137.041 132.642 137.144 132.202 137.144C131.901 137.144 131.622 137.092 131.366 136.99C131.116 136.894 130.9 136.748 130.717 136.55C130.541 136.352 130.401 136.106 130.299 135.813C130.203 135.519 130.156 135.178 130.156 134.79V131.534H131.014V134.68C131.014 135.252 131.131 135.67 131.366 135.934C131.6 136.198 131.96 136.33 132.444 136.33C132.964 136.33 133.371 136.154 133.665 135.802C133.965 135.442 134.116 134.966 134.116 134.372V131.534ZM136.649 131.534H138.629V132.26H138.761C138.9 131.959 139.098 131.739 139.355 131.6C139.612 131.453 139.905 131.38 140.235 131.38C140.785 131.38 141.229 131.559 141.566 131.919C141.903 132.278 142.083 132.802 142.105 133.492L141.203 133.624C141.203 133.118 141.082 132.755 140.84 132.535C140.598 132.307 140.301 132.194 139.949 132.194C139.722 132.194 139.524 132.238 139.355 132.326C139.194 132.414 139.058 132.535 138.948 132.689C138.838 132.843 138.757 133.022 138.706 133.228C138.655 133.433 138.629 133.653 138.629 133.888V136.198H140.015V136.99H136.517V136.198H137.771V132.326H136.649V131.534ZM148.796 135.054C148.738 135.354 148.635 135.633 148.488 135.89C148.349 136.146 148.169 136.37 147.949 136.561C147.729 136.744 147.473 136.887 147.179 136.99C146.886 137.092 146.56 137.144 146.2 137.144C145.819 137.144 145.456 137.081 145.111 136.957C144.774 136.832 144.477 136.652 144.22 136.418C143.964 136.176 143.758 135.882 143.604 135.538C143.458 135.193 143.384 134.797 143.384 134.35V134.218C143.384 133.778 143.458 133.382 143.604 133.03C143.758 132.678 143.964 132.381 144.22 132.139C144.477 131.897 144.774 131.71 145.111 131.578C145.456 131.446 145.819 131.38 146.2 131.38C146.545 131.38 146.864 131.431 147.157 131.534C147.451 131.636 147.707 131.783 147.927 131.974C148.155 132.157 148.338 132.377 148.477 132.634C148.624 132.89 148.723 133.169 148.774 133.47L147.916 133.668C147.894 133.477 147.839 133.294 147.751 133.118C147.671 132.934 147.557 132.777 147.41 132.645C147.271 132.505 147.099 132.395 146.893 132.315C146.688 132.234 146.45 132.194 146.178 132.194C145.914 132.194 145.665 132.245 145.43 132.348C145.203 132.443 145.001 132.582 144.825 132.766C144.649 132.942 144.51 133.154 144.407 133.404C144.312 133.653 144.264 133.924 144.264 134.218V134.35C144.264 134.658 144.312 134.936 144.407 135.186C144.51 135.428 144.649 135.633 144.825 135.802C145.001 135.97 145.207 136.102 145.441 136.198C145.676 136.286 145.929 136.33 146.2 136.33C146.472 136.33 146.706 136.289 146.904 136.209C147.11 136.121 147.282 136.011 147.421 135.879C147.568 135.739 147.682 135.582 147.762 135.406C147.85 135.23 147.909 135.046 147.938 134.856L148.796 135.054ZM151.055 134.526C151.077 135.068 151.245 135.505 151.561 135.835C151.876 136.165 152.316 136.33 152.881 136.33C153.137 136.33 153.361 136.3 153.552 136.242C153.742 136.183 153.904 136.102 154.036 136C154.175 135.897 154.285 135.78 154.366 135.648C154.454 135.508 154.523 135.362 154.575 135.208L155.389 135.428C155.235 135.934 154.949 136.348 154.531 136.671C154.12 136.986 153.563 137.144 152.859 137.144C152.47 137.144 152.111 137.078 151.781 136.946C151.458 136.806 151.179 136.612 150.945 136.363C150.71 136.113 150.527 135.816 150.395 135.472C150.263 135.127 150.197 134.746 150.197 134.328V134.064C150.197 133.682 150.263 133.327 150.395 132.997C150.534 132.667 150.725 132.384 150.967 132.15C151.209 131.908 151.491 131.721 151.814 131.589C152.144 131.449 152.499 131.38 152.881 131.38C153.328 131.38 153.713 131.464 154.036 131.633C154.366 131.794 154.633 131.996 154.839 132.238C155.051 132.48 155.205 132.744 155.301 133.03C155.403 133.316 155.455 133.58 155.455 133.822V134.526H151.055ZM152.881 132.194C152.639 132.194 152.411 132.234 152.199 132.315C151.993 132.388 151.81 132.494 151.649 132.634C151.495 132.773 151.366 132.938 151.264 133.129C151.168 133.312 151.106 133.514 151.077 133.734H154.597C154.582 133.499 154.523 133.286 154.421 133.096C154.325 132.905 154.197 132.744 154.036 132.612C153.882 132.48 153.702 132.377 153.497 132.304C153.299 132.23 153.093 132.194 152.881 132.194ZM114.24 149.154H114.108C114.02 149.322 113.906 149.469 113.767 149.594C113.635 149.718 113.488 149.821 113.327 149.902C113.173 149.982 113.008 150.041 112.832 150.078C112.656 150.122 112.487 150.144 112.326 150.144C111.959 150.144 111.618 150.081 111.303 149.957C110.987 149.832 110.709 149.652 110.467 149.418C110.232 149.183 110.045 148.893 109.906 148.549C109.774 148.197 109.708 147.797 109.708 147.35V147.174C109.708 146.734 109.777 146.341 109.917 145.997C110.056 145.645 110.243 145.351 110.478 145.117C110.712 144.875 110.987 144.691 111.303 144.567C111.618 144.442 111.952 144.38 112.304 144.38C112.678 144.38 113.026 144.464 113.349 144.633C113.679 144.794 113.932 145.047 114.108 145.392H114.24V142.29H115.098V149.99H114.24V149.154ZM112.414 149.33C112.67 149.33 112.909 149.282 113.129 149.187C113.349 149.091 113.539 148.956 113.701 148.78C113.869 148.604 114.001 148.395 114.097 148.153C114.192 147.903 114.24 147.628 114.24 147.328V147.196C114.24 146.902 114.192 146.635 114.097 146.393C114.001 146.143 113.869 145.931 113.701 145.755C113.539 145.579 113.345 145.443 113.118 145.348C112.898 145.245 112.663 145.194 112.414 145.194C112.157 145.194 111.915 145.241 111.688 145.337C111.468 145.432 111.273 145.568 111.105 145.744C110.943 145.92 110.815 146.129 110.72 146.371C110.632 146.613 110.588 146.88 110.588 147.174V147.35C110.588 147.658 110.632 147.933 110.72 148.175C110.815 148.417 110.943 148.626 111.105 148.802C111.273 148.97 111.468 149.102 111.688 149.198C111.908 149.286 112.15 149.33 112.414 149.33ZM120.711 149.066H120.579C120.403 149.432 120.157 149.704 119.842 149.88C119.534 150.056 119.208 150.144 118.863 150.144C118.504 150.144 118.17 150.085 117.862 149.968C117.554 149.843 117.283 149.663 117.048 149.429C116.821 149.187 116.641 148.893 116.509 148.549C116.377 148.204 116.311 147.804 116.311 147.35V147.174C116.311 146.726 116.377 146.33 116.509 145.986C116.641 145.641 116.821 145.351 117.048 145.117C117.283 144.875 117.554 144.691 117.862 144.567C118.17 144.442 118.496 144.38 118.841 144.38C119.215 144.38 119.552 144.464 119.853 144.633C120.161 144.794 120.403 145.047 120.579 145.392H120.711V144.534H121.569V148.868C121.569 149.088 121.668 149.198 121.866 149.198H122.141V149.99H121.558C121.309 149.99 121.103 149.909 120.942 149.748C120.788 149.586 120.711 149.381 120.711 149.132V149.066ZM118.951 149.33C119.208 149.33 119.442 149.282 119.655 149.187C119.875 149.091 120.062 148.956 120.216 148.78C120.37 148.604 120.491 148.395 120.579 148.153C120.667 147.903 120.711 147.628 120.711 147.328V147.196C120.711 146.902 120.667 146.635 120.579 146.393C120.491 146.143 120.366 145.931 120.205 145.755C120.051 145.579 119.864 145.443 119.644 145.348C119.431 145.245 119.2 145.194 118.951 145.194C118.694 145.194 118.46 145.241 118.247 145.337C118.034 145.432 117.847 145.568 117.686 145.744C117.532 145.912 117.411 146.121 117.323 146.371C117.235 146.613 117.191 146.88 117.191 147.174V147.35C117.191 147.973 117.352 148.461 117.675 148.813C118.005 149.157 118.43 149.33 118.951 149.33ZM123.299 144.534H125.015V142.29H125.873V144.534H127.985V145.326H125.873V148.868C125.873 149.088 125.972 149.198 126.17 149.198H127.721V149.99H125.862C125.613 149.99 125.408 149.909 125.246 149.748C125.092 149.586 125.015 149.381 125.015 149.132V145.326H123.299V144.534ZM134.182 149.066H134.05C133.874 149.432 133.628 149.704 133.313 149.88C133.005 150.056 132.678 150.144 132.334 150.144C131.974 150.144 131.641 150.085 131.333 149.968C131.025 149.843 130.753 149.663 130.519 149.429C130.291 149.187 130.112 148.893 129.98 148.549C129.848 148.204 129.782 147.804 129.782 147.35V147.174C129.782 146.726 129.848 146.33 129.98 145.986C130.112 145.641 130.291 145.351 130.519 145.117C130.753 144.875 131.025 144.691 131.333 144.567C131.641 144.442 131.967 144.38 132.312 144.38C132.686 144.38 133.023 144.464 133.324 144.633C133.632 144.794 133.874 145.047 134.05 145.392H134.182V144.534H135.04V148.868C135.04 149.088 135.139 149.198 135.337 149.198H135.612V149.99H135.029C134.779 149.99 134.574 149.909 134.413 149.748C134.259 149.586 134.182 149.381 134.182 149.132V149.066ZM132.422 149.33C132.678 149.33 132.913 149.282 133.126 149.187C133.346 149.091 133.533 148.956 133.687 148.78C133.841 148.604 133.962 148.395 134.05 148.153C134.138 147.903 134.182 147.628 134.182 147.328V147.196C134.182 146.902 134.138 146.635 134.05 146.393C133.962 146.143 133.837 145.931 133.676 145.755C133.522 145.579 133.335 145.443 133.115 145.348C132.902 145.245 132.671 145.194 132.422 145.194C132.165 145.194 131.93 145.241 131.718 145.337C131.505 145.432 131.318 145.568 131.157 145.744C131.003 145.912 130.882 146.121 130.794 146.371C130.706 146.613 130.662 146.88 130.662 147.174V147.35C130.662 147.973 130.823 148.461 131.146 148.813C131.476 149.157 131.901 149.33 132.422 149.33ZM137.617 149.99H136.759V142.29H137.617V145.392H137.749C137.94 145.062 138.204 144.812 138.541 144.644C138.878 144.468 139.245 144.38 139.641 144.38C139.978 144.38 140.297 144.442 140.598 144.567C140.899 144.691 141.163 144.871 141.39 145.106C141.625 145.34 141.808 145.63 141.94 145.975C142.079 146.319 142.149 146.712 142.149 147.152V147.372C142.149 147.819 142.083 148.215 141.951 148.56C141.819 148.904 141.636 149.194 141.401 149.429C141.174 149.663 140.906 149.843 140.598 149.968C140.29 150.085 139.964 150.144 139.619 150.144C139.443 150.144 139.263 150.122 139.08 150.078C138.897 150.041 138.721 149.982 138.552 149.902C138.391 149.814 138.24 149.711 138.101 149.594C137.962 149.469 137.844 149.322 137.749 149.154H137.617V149.99ZM139.443 149.33C139.707 149.33 139.949 149.286 140.169 149.198C140.389 149.102 140.58 148.97 140.741 148.802C140.91 148.633 141.038 148.428 141.126 148.186C141.221 147.944 141.269 147.672 141.269 147.372V147.152C141.269 146.858 141.221 146.594 141.126 146.36C141.038 146.118 140.91 145.912 140.741 145.744C140.58 145.568 140.385 145.432 140.158 145.337C139.938 145.241 139.7 145.194 139.443 145.194C139.186 145.194 138.948 145.245 138.728 145.348C138.508 145.443 138.314 145.579 138.145 145.755C137.984 145.931 137.855 146.143 137.76 146.393C137.665 146.635 137.617 146.902 137.617 147.196V147.328C137.617 147.628 137.665 147.903 137.76 148.153C137.855 148.395 137.984 148.604 138.145 148.78C138.314 148.956 138.508 149.091 138.728 149.187C138.948 149.282 139.186 149.33 139.443 149.33ZM147.652 149.066H147.52C147.344 149.432 147.099 149.704 146.783 149.88C146.475 150.056 146.149 150.144 145.804 150.144C145.445 150.144 145.111 150.085 144.803 149.968C144.495 149.843 144.224 149.663 143.989 149.429C143.762 149.187 143.582 148.893 143.45 148.549C143.318 148.204 143.252 147.804 143.252 147.35V147.174C143.252 146.726 143.318 146.33 143.45 145.986C143.582 145.641 143.762 145.351 143.989 145.117C144.224 144.875 144.495 144.691 144.803 144.567C145.111 144.442 145.438 144.38 145.782 144.38C146.156 144.38 146.494 144.464 146.794 144.633C147.102 144.794 147.344 145.047 147.52 145.392H147.652V144.534H148.51V148.868C148.51 149.088 148.609 149.198 148.807 149.198H149.082V149.99H148.499C148.25 149.99 148.045 149.909 147.883 149.748C147.729 149.586 147.652 149.381 147.652 149.132V149.066ZM145.892 149.33C146.149 149.33 146.384 149.282 146.596 149.187C146.816 149.091 147.003 148.956 147.157 148.78C147.311 148.604 147.432 148.395 147.52 148.153C147.608 147.903 147.652 147.628 147.652 147.328V147.196C147.652 146.902 147.608 146.635 147.52 146.393C147.432 146.143 147.308 145.931 147.146 145.755C146.992 145.579 146.805 145.443 146.585 145.348C146.373 145.245 146.142 145.194 145.892 145.194C145.636 145.194 145.401 145.241 145.188 145.337C144.976 145.432 144.789 145.568 144.627 145.744C144.473 145.912 144.352 146.121 144.264 146.371C144.176 146.613 144.132 146.88 144.132 147.174V147.35C144.132 147.973 144.294 148.461 144.616 148.813C144.946 149.157 145.372 149.33 145.892 149.33ZM151.561 145.942C151.561 146.206 151.671 146.407 151.891 146.547C152.118 146.686 152.529 146.778 153.123 146.822C153.761 146.873 154.245 147.027 154.575 147.284C154.912 147.533 155.081 147.9 155.081 148.384V148.45C155.081 148.714 155.026 148.952 154.916 149.165C154.813 149.37 154.666 149.546 154.476 149.693C154.292 149.839 154.065 149.949 153.794 150.023C153.53 150.103 153.24 150.144 152.925 150.144C152.499 150.144 152.133 150.089 151.825 149.979C151.524 149.861 151.271 149.711 151.066 149.528C150.868 149.337 150.717 149.124 150.615 148.89C150.512 148.648 150.453 148.406 150.439 148.164L151.253 147.966C151.289 148.384 151.451 148.721 151.737 148.978C152.023 149.227 152.404 149.352 152.881 149.352C153.284 149.352 153.607 149.275 153.849 149.121C154.098 148.959 154.223 148.736 154.223 148.45C154.223 148.142 154.102 147.922 153.86 147.79C153.618 147.658 153.225 147.573 152.683 147.537C152.052 147.493 151.568 147.346 151.231 147.097C150.893 146.847 150.725 146.484 150.725 146.008V145.942C150.725 145.685 150.78 145.461 150.89 145.271C151 145.073 151.146 144.908 151.33 144.776C151.52 144.644 151.733 144.545 151.968 144.479C152.202 144.413 152.448 144.38 152.705 144.38C153.064 144.38 153.379 144.431 153.651 144.534C153.922 144.629 154.149 144.757 154.333 144.919C154.516 145.073 154.655 145.252 154.751 145.458C154.853 145.663 154.919 145.868 154.949 146.074L154.135 146.272C154.098 145.92 153.955 145.645 153.706 145.447C153.464 145.249 153.145 145.15 152.749 145.15C152.595 145.15 152.444 145.168 152.298 145.205C152.158 145.234 152.034 145.282 151.924 145.348C151.814 145.414 151.726 145.498 151.66 145.601C151.594 145.696 151.561 145.81 151.561 145.942ZM157.79 147.526C157.812 148.068 157.981 148.505 158.296 148.835C158.611 149.165 159.051 149.33 159.616 149.33C159.873 149.33 160.096 149.3 160.287 149.242C160.478 149.183 160.639 149.102 160.771 149C160.91 148.897 161.02 148.78 161.101 148.648C161.189 148.508 161.259 148.362 161.31 148.208L162.124 148.428C161.97 148.934 161.684 149.348 161.266 149.671C160.855 149.986 160.298 150.144 159.594 150.144C159.205 150.144 158.846 150.078 158.516 149.946C158.193 149.806 157.915 149.612 157.68 149.363C157.445 149.113 157.262 148.816 157.13 148.472C156.998 148.127 156.932 147.746 156.932 147.328V147.064C156.932 146.682 156.998 146.327 157.13 145.997C157.269 145.667 157.46 145.384 157.702 145.15C157.944 144.908 158.226 144.721 158.549 144.589C158.879 144.449 159.235 144.38 159.616 144.38C160.063 144.38 160.448 144.464 160.771 144.633C161.101 144.794 161.369 144.996 161.574 145.238C161.787 145.48 161.941 145.744 162.036 146.03C162.139 146.316 162.19 146.58 162.19 146.822V147.526H157.79ZM159.616 145.194C159.374 145.194 159.147 145.234 158.934 145.315C158.729 145.388 158.545 145.494 158.384 145.634C158.23 145.773 158.102 145.938 157.999 146.129C157.904 146.312 157.841 146.514 157.812 146.734H161.332C161.317 146.499 161.259 146.286 161.156 146.096C161.061 145.905 160.932 145.744 160.771 145.612C160.617 145.48 160.437 145.377 160.232 145.304C160.034 145.23 159.829 145.194 159.616 145.194Z" fill="black"/>
<path d="M158.686 66.1001V79.6557C158.686 81.9513 150.059 85.1542 136.004 85.1542C121.95 85.1542 113.314 81.9513 113.314 79.6557V66.1001H111.531V104.109C111.531 108.908 123.839 111.413 136.004 111.413C148.17 111.413 160.469 108.899 160.469 104.109V66.1001H158.686ZM136.004 109.598C121.95 109.598 113.314 106.395 113.314 104.109V94.9898C117.146 97.8751 126.62 99.3722 136.004 99.3722C145.389 99.3722 154.854 97.8751 158.686 94.9898V104.109C158.686 106.404 150.059 109.598 136.004 109.598ZM136.004 97.5575C121.95 97.5575 113.314 94.3546 113.314 92.0681V82.5864C117.146 85.4718 126.62 86.9689 136.004 86.9689C145.389 86.9689 154.854 85.4718 158.686 82.5864V92.0681C158.686 94.3637 150.059 97.5575 136.004 97.5575Z" fill="#163341"/>
<path d="M136.004 73.3501C123.839 73.3501 111.531 70.8569 111.531 66.1046C111.531 61.3523 123.839 58.8501 136.004 58.8501C148.17 58.8501 160.469 61.3433 160.469 66.1046C160.469 70.8659 148.161 73.3501 136.004 73.3501ZM136.004 60.6502C121.95 60.6502 113.314 63.8274 113.314 66.1046C113.314 68.3818 121.95 71.55 136.004 71.55C150.059 71.55 158.686 68.3728 158.686 66.1046C158.686 63.8364 150.059 60.6502 136.004 60.6502Z" fill="#FF4438"/>
<rect x="524.5" y="44.8896" width="119" height="119" rx="3.5" fill="white" stroke="#8A99A0"/>
<path d="M577.807 136.286C578.122 136.286 578.39 136.234 578.61 136.132C578.837 136.022 579.021 135.879 579.16 135.703C579.307 135.519 579.413 135.314 579.479 135.087C579.552 134.852 579.589 134.606 579.589 134.35V134.218H580.513V134.35C580.513 134.738 580.454 135.105 580.337 135.45C580.22 135.787 580.047 136.084 579.82 136.341C579.593 136.59 579.31 136.788 578.973 136.935C578.636 137.074 578.247 137.144 577.807 137.144C576.956 137.144 576.293 136.876 575.816 136.341C575.339 135.805 575.101 135.024 575.101 133.998V132.282C575.101 131.284 575.339 130.511 575.816 129.961C576.293 129.411 576.956 129.136 577.807 129.136C578.247 129.136 578.636 129.209 578.973 129.356C579.31 129.495 579.593 129.693 579.82 129.95C580.047 130.199 580.22 130.496 580.337 130.841C580.454 131.178 580.513 131.541 580.513 131.93V132.062H579.589V131.93C579.582 131.68 579.541 131.438 579.468 131.204C579.402 130.969 579.296 130.764 579.149 130.588C579.01 130.404 578.83 130.261 578.61 130.159C578.39 130.049 578.122 129.994 577.807 129.994C577.213 129.994 576.766 130.21 576.465 130.643C576.172 131.075 576.025 131.644 576.025 132.348V133.932C576.025 134.687 576.172 135.27 576.465 135.681C576.766 136.084 577.213 136.286 577.807 136.286ZM581.935 129.29H584.465C585.419 129.29 586.115 129.517 586.555 129.972C586.995 130.426 587.215 131.152 587.215 132.15V134.13C587.215 135.127 586.995 135.853 586.555 136.308C586.115 136.762 585.419 136.99 584.465 136.99H581.935V136.121H582.595V130.148H581.935V129.29ZM584.333 136.132C584.671 136.132 584.96 136.099 585.202 136.033C585.452 135.967 585.657 135.857 585.818 135.703C585.98 135.541 586.097 135.329 586.17 135.065C586.251 134.801 586.291 134.467 586.291 134.064V132.216C586.291 131.812 586.251 131.479 586.17 131.215C586.097 130.951 585.98 130.742 585.818 130.588C585.657 130.426 585.452 130.313 585.202 130.247C584.96 130.181 584.671 130.148 584.333 130.148H583.519V136.132H584.333ZM591.278 136.286C591.593 136.286 591.861 136.234 592.081 136.132C592.308 136.022 592.491 135.879 592.631 135.703C592.777 135.519 592.884 135.314 592.95 135.087C593.023 134.852 593.06 134.606 593.06 134.35V134.218H593.984V134.35C593.984 134.738 593.925 135.105 593.808 135.45C593.69 135.787 593.518 136.084 593.291 136.341C593.063 136.59 592.781 136.788 592.444 136.935C592.106 137.074 591.718 137.144 591.278 137.144C590.427 137.144 589.763 136.876 589.287 136.341C588.81 135.805 588.572 135.024 588.572 133.998V132.282C588.572 131.284 588.81 130.511 589.287 129.961C589.763 129.411 590.427 129.136 591.278 129.136C591.718 129.136 592.106 129.209 592.444 129.356C592.781 129.495 593.063 129.693 593.291 129.95C593.518 130.199 593.69 130.496 593.808 130.841C593.925 131.178 593.984 131.541 593.984 131.93V132.062H593.06V131.93C593.052 131.68 593.012 131.438 592.939 131.204C592.873 130.969 592.766 130.764 592.62 130.588C592.48 130.404 592.301 130.261 592.081 130.159C591.861 130.049 591.593 129.994 591.278 129.994C590.684 129.994 590.236 130.21 589.936 130.643C589.642 131.075 589.496 131.644 589.496 132.348V133.932C589.496 134.687 589.642 135.27 589.936 135.681C590.236 136.084 590.684 136.286 591.278 136.286ZM560.252 148.054C560.193 148.354 560.091 148.633 559.944 148.89C559.805 149.146 559.625 149.37 559.405 149.561C559.185 149.744 558.928 149.887 558.635 149.99C558.342 150.092 558.015 150.144 557.656 150.144C557.275 150.144 556.912 150.081 556.567 149.957C556.23 149.832 555.933 149.652 555.676 149.418C555.419 149.176 555.214 148.882 555.06 148.538C554.913 148.193 554.84 147.797 554.84 147.35V147.218C554.84 146.778 554.913 146.382 555.06 146.03C555.214 145.678 555.419 145.381 555.676 145.139C555.933 144.897 556.23 144.71 556.567 144.578C556.912 144.446 557.275 144.38 557.656 144.38C558.001 144.38 558.32 144.431 558.613 144.534C558.906 144.636 559.163 144.783 559.383 144.974C559.61 145.157 559.794 145.377 559.933 145.634C560.08 145.89 560.179 146.169 560.23 146.47L559.372 146.668C559.35 146.477 559.295 146.294 559.207 146.118C559.126 145.934 559.013 145.777 558.866 145.645C558.727 145.505 558.554 145.395 558.349 145.315C558.144 145.234 557.905 145.194 557.634 145.194C557.37 145.194 557.121 145.245 556.886 145.348C556.659 145.443 556.457 145.582 556.281 145.766C556.105 145.942 555.966 146.154 555.863 146.404C555.768 146.653 555.72 146.924 555.72 147.218V147.35C555.72 147.658 555.768 147.936 555.863 148.186C555.966 148.428 556.105 148.633 556.281 148.802C556.457 148.97 556.662 149.102 556.897 149.198C557.132 149.286 557.385 149.33 557.656 149.33C557.927 149.33 558.162 149.289 558.36 149.209C558.565 149.121 558.738 149.011 558.877 148.879C559.024 148.739 559.137 148.582 559.218 148.406C559.306 148.23 559.365 148.046 559.394 147.856L560.252 148.054ZM567.031 147.328C567.031 147.782 566.954 148.186 566.8 148.538C566.654 148.882 566.456 149.176 566.206 149.418C565.957 149.652 565.664 149.832 565.326 149.957C564.996 150.081 564.652 150.144 564.292 150.144C563.926 150.144 563.577 150.081 563.247 149.957C562.917 149.832 562.628 149.652 562.378 149.418C562.129 149.176 561.927 148.882 561.773 148.538C561.627 148.186 561.553 147.782 561.553 147.328V147.196C561.553 146.748 561.627 146.352 561.773 146.008C561.927 145.656 562.129 145.359 562.378 145.117C562.635 144.875 562.928 144.691 563.258 144.567C563.588 144.442 563.933 144.38 564.292 144.38C564.652 144.38 564.996 144.442 565.326 144.567C565.656 144.691 565.946 144.875 566.195 145.117C566.452 145.359 566.654 145.656 566.8 146.008C566.954 146.352 567.031 146.748 567.031 147.196V147.328ZM564.292 149.33C564.556 149.33 564.798 149.286 565.018 149.198C565.246 149.102 565.444 148.967 565.612 148.791C565.781 148.615 565.913 148.406 566.008 148.164C566.104 147.914 566.151 147.636 566.151 147.328V147.196C566.151 146.902 566.104 146.635 566.008 146.393C565.913 146.143 565.781 145.931 565.612 145.755C565.444 145.579 565.246 145.443 565.018 145.348C564.791 145.245 564.549 145.194 564.292 145.194C564.036 145.194 563.794 145.245 563.566 145.348C563.339 145.443 563.141 145.579 562.972 145.755C562.804 145.931 562.672 146.143 562.576 146.393C562.481 146.635 562.433 146.902 562.433 147.196V147.328C562.433 147.636 562.481 147.914 562.576 148.164C562.672 148.406 562.804 148.615 562.972 148.791C563.141 148.967 563.335 149.102 563.555 149.198C563.783 149.286 564.028 149.33 564.292 149.33ZM568.619 149.198H570.599V143.082H568.685V142.29H571.457V149.198H573.437V149.99H568.619V149.198ZM575.354 149.198H577.334V143.082H575.42V142.29H578.192V149.198H580.172V149.99H575.354V149.198ZM582.716 147.526C582.738 148.068 582.907 148.505 583.222 148.835C583.538 149.165 583.978 149.33 584.542 149.33C584.799 149.33 585.023 149.3 585.213 149.242C585.404 149.183 585.565 149.102 585.697 149C585.837 148.897 585.947 148.78 586.027 148.648C586.115 148.508 586.185 148.362 586.236 148.208L587.05 148.428C586.896 148.934 586.61 149.348 586.192 149.671C585.782 149.986 585.224 150.144 584.52 150.144C584.132 150.144 583.772 150.078 583.442 149.946C583.12 149.806 582.841 149.612 582.606 149.363C582.372 149.113 582.188 148.816 582.056 148.472C581.924 148.127 581.858 147.746 581.858 147.328V147.064C581.858 146.682 581.924 146.327 582.056 145.997C582.196 145.667 582.386 145.384 582.628 145.15C582.87 144.908 583.153 144.721 583.475 144.589C583.805 144.449 584.161 144.38 584.542 144.38C584.99 144.38 585.375 144.464 585.697 144.633C586.027 144.794 586.295 144.996 586.5 145.238C586.713 145.48 586.867 145.744 586.962 146.03C587.065 146.316 587.116 146.58 587.116 146.822V147.526H582.716ZM584.542 145.194C584.3 145.194 584.073 145.234 583.86 145.315C583.655 145.388 583.472 145.494 583.31 145.634C583.156 145.773 583.028 145.938 582.925 146.129C582.83 146.312 582.768 146.514 582.738 146.734H586.258C586.244 146.499 586.185 146.286 586.082 146.096C585.987 145.905 585.859 145.744 585.697 145.612C585.543 145.48 585.364 145.377 585.158 145.304C584.96 145.23 584.755 145.194 584.542 145.194ZM593.929 148.054C593.87 148.354 593.767 148.633 593.621 148.89C593.481 149.146 593.302 149.37 593.082 149.561C592.862 149.744 592.605 149.887 592.312 149.99C592.018 150.092 591.692 150.144 591.333 150.144C590.951 150.144 590.588 150.081 590.244 149.957C589.906 149.832 589.609 149.652 589.353 149.418C589.096 149.176 588.891 148.882 588.737 148.538C588.59 148.193 588.517 147.797 588.517 147.35V147.218C588.517 146.778 588.59 146.382 588.737 146.03C588.891 145.678 589.096 145.381 589.353 145.139C589.609 144.897 589.906 144.71 590.244 144.578C590.588 144.446 590.951 144.38 591.333 144.38C591.677 144.38 591.996 144.431 592.29 144.534C592.583 144.636 592.84 144.783 593.06 144.974C593.287 145.157 593.47 145.377 593.61 145.634C593.756 145.89 593.855 146.169 593.907 146.47L593.049 146.668C593.027 146.477 592.972 146.294 592.884 146.118C592.803 145.934 592.689 145.777 592.543 145.645C592.403 145.505 592.231 145.395 592.026 145.315C591.82 145.234 591.582 145.194 591.311 145.194C591.047 145.194 590.797 145.245 590.563 145.348C590.335 145.443 590.134 145.582 589.958 145.766C589.782 145.942 589.642 146.154 589.54 146.404C589.444 146.653 589.397 146.924 589.397 147.218V147.35C589.397 147.658 589.444 147.936 589.54 148.186C589.642 148.428 589.782 148.633 589.958 148.802C590.134 148.97 590.339 149.102 590.574 149.198C590.808 149.286 591.061 149.33 591.333 149.33C591.604 149.33 591.839 149.289 592.037 149.209C592.242 149.121 592.414 149.011 592.554 148.879C592.7 148.739 592.814 148.582 592.895 148.406C592.983 148.23 593.041 148.046 593.071 147.856L593.929 148.054ZM595.373 144.534H597.089V142.29H597.947V144.534H600.059V145.326H597.947V148.868C597.947 149.088 598.046 149.198 598.244 149.198H599.795V149.99H597.936C597.687 149.99 597.481 149.909 597.32 149.748C597.166 149.586 597.089 149.381 597.089 149.132V145.326H595.373V144.534ZM607.443 147.328C607.443 147.782 607.366 148.186 607.212 148.538C607.066 148.882 606.868 149.176 606.618 149.418C606.369 149.652 606.076 149.832 605.738 149.957C605.408 150.081 605.064 150.144 604.704 150.144C604.338 150.144 603.989 150.081 603.659 149.957C603.329 149.832 603.04 149.652 602.79 149.418C602.541 149.176 602.339 148.882 602.185 148.538C602.039 148.186 601.965 147.782 601.965 147.328V147.196C601.965 146.748 602.039 146.352 602.185 146.008C602.339 145.656 602.541 145.359 602.79 145.117C603.047 144.875 603.34 144.691 603.67 144.567C604 144.442 604.345 144.38 604.704 144.38C605.064 144.38 605.408 144.442 605.738 144.567C606.068 144.691 606.358 144.875 606.607 145.117C606.864 145.359 607.066 145.656 607.212 146.008C607.366 146.352 607.443 146.748 607.443 147.196V147.328ZM604.704 149.33C604.968 149.33 605.21 149.286 605.43 149.198C605.658 149.102 605.856 148.967 606.024 148.791C606.193 148.615 606.325 148.406 606.42 148.164C606.516 147.914 606.563 147.636 606.563 147.328V147.196C606.563 146.902 606.516 146.635 606.42 146.393C606.325 146.143 606.193 145.931 606.024 145.755C605.856 145.579 605.658 145.443 605.43 145.348C605.203 145.245 604.961 145.194 604.704 145.194C604.448 145.194 604.206 145.245 603.978 145.348C603.751 145.443 603.553 145.579 603.384 145.755C603.216 145.931 603.084 146.143 602.988 146.393C602.893 146.635 602.845 146.902 602.845 147.196V147.328C602.845 147.636 602.893 147.914 602.988 148.164C603.084 148.406 603.216 148.615 603.384 148.791C603.553 148.967 603.747 149.102 603.967 149.198C604.195 149.286 604.44 149.33 604.704 149.33ZM608.723 144.534H610.703V145.26H610.835C610.974 144.959 611.172 144.739 611.429 144.6C611.685 144.453 611.979 144.38 612.309 144.38C612.859 144.38 613.302 144.559 613.64 144.919C613.977 145.278 614.157 145.802 614.179 146.492L613.277 146.624C613.277 146.118 613.156 145.755 612.914 145.535C612.672 145.307 612.375 145.194 612.023 145.194C611.795 145.194 611.597 145.238 611.429 145.326C611.267 145.414 611.132 145.535 611.022 145.689C610.912 145.843 610.831 146.022 610.78 146.228C610.728 146.433 610.703 146.653 610.703 146.888V149.198H612.089V149.99H608.591V149.198H609.845V145.326H608.723V144.534Z" fill="black"/>
<path d="M593.424 101.378C593.425 102.846 594.009 104.252 595.047 105.29C596.084 106.328 597.491 106.911 598.959 106.913H601.792C604.001 106.913 605.792 105.122 605.792 102.913V100.08C605.79 98.6128 605.206 97.206 604.168 96.1684C603.131 95.1308 601.724 94.5471 600.257 94.5453H598.955C596.626 94.5471 594.392 93.6239 592.744 91.9786C591.095 90.3334 590.168 88.1009 590.165 85.772V84.4773C590.163 83.0128 589.58 81.6089 588.546 80.5724C587.511 79.5359 586.108 78.9511 584.644 78.9458H583.346C581.02 78.9423 578.79 78.0162 577.146 76.3709C575.502 74.7255 574.578 72.4952 574.576 70.1692V68.8712C574.573 67.4043 573.989 65.9984 572.952 64.9615C571.914 63.9246 570.508 63.3414 569.041 63.3396H566.208C563.999 63.3396 562.208 65.1305 562.208 67.3396V70.1692C562.21 71.6366 562.793 73.0434 563.831 74.081C564.869 75.1186 566.275 75.7023 567.743 75.7041H569.044C571.37 75.7067 573.6 76.6319 575.245 78.2766C576.89 79.9214 577.815 82.1513 577.818 84.4773V85.772C577.822 87.2377 578.407 88.6419 579.444 89.6774C580.481 90.7129 581.887 91.2952 583.352 91.2969H584.65C586.976 91.2996 589.206 92.2248 590.851 93.8695C592.496 95.5142 593.421 97.7442 593.424 100.07V101.378Z" fill="url(#paint0_linear_12170_1024)"/>
<path d="M605.786 84.4773C605.784 83.0099 605.201 81.6031 604.163 80.5655C603.125 79.5279 601.719 78.9442 600.251 78.9425H598.95C596.622 78.9433 594.388 78.0197 592.741 76.3746C591.093 74.7295 590.166 72.4975 590.163 70.1692V68.8712C590.161 67.4066 589.578 66.0027 588.544 64.9662C587.509 63.9297 586.106 63.3449 584.642 63.3396H581.815C579.606 63.3396 577.815 65.1305 577.815 67.3396V70.2457C577.836 71.6995 578.428 73.0868 579.463 74.108C580.498 75.1292 581.893 75.7025 583.347 75.7041H584.648C586.974 75.7067 589.204 76.6319 590.849 78.2766C592.494 79.9214 593.419 82.1513 593.422 84.4773V85.772C593.426 87.2343 594.008 88.6355 595.041 89.6704C596.074 90.7053 597.474 91.2899 598.937 91.2969H601.786C603.995 91.2969 605.786 89.5061 605.786 87.2969V84.4773Z" fill="url(#paint1_linear_12170_1024)"/>
<path d="M605.787 68.8279C605.776 67.407 605.219 66.0446 604.232 65.0229C603.244 64.0012 601.901 63.3985 600.482 63.3396H597.316C595.107 63.3396 593.316 65.1305 593.316 67.3396V70.2291C593.333 71.6852 593.924 73.0758 594.959 74.0999C595.994 75.124 597.391 75.6991 598.847 75.7007H601.787C603.996 75.7007 605.787 73.9099 605.787 71.7007V68.8279Z" fill="url(#paint2_linear_12170_1024)"/>
<path d="M562.208 85.7855C562.211 87.2529 562.795 88.6594 563.833 89.6964C564.872 90.7334 566.279 91.3162 567.746 91.3171H569.048C571.374 91.3197 573.604 92.2449 575.248 93.8897C576.893 95.5344 577.818 97.7644 577.821 100.09V101.385C577.823 102.852 578.406 104.259 579.444 105.297C580.482 106.334 581.888 106.918 583.356 106.92H586.165C588.374 106.92 590.165 105.129 590.165 102.92V100.014C590.144 98.5635 589.554 97.1796 588.522 96.1596C587.491 95.1395 586.101 94.5648 584.65 94.5588H583.352C581.026 94.5571 578.795 93.6323 577.15 91.9874C575.504 90.3426 574.578 88.1121 574.576 85.7855V84.4875C574.574 83.0236 573.993 81.6198 572.96 80.5827C571.927 79.5457 570.525 78.9597 569.061 78.9526H566.208C563.999 78.9526 562.208 80.7435 562.208 82.9526V85.7855Z" fill="url(#paint3_linear_12170_1024)"/>
<path d="M562.208 101.432C562.218 102.857 562.777 104.223 563.769 105.245C564.761 106.268 566.109 106.869 567.533 106.923H570.682C572.891 106.923 574.682 105.132 574.682 102.923V100.03C574.665 98.5744 574.075 97.1838 573.039 96.1597C572.004 95.1356 570.607 94.5605 569.151 94.5588H566.208C563.999 94.5588 562.208 96.3497 562.208 98.5588V101.432Z" fill="url(#paint4_linear_12170_1024)"/>
<path d="M515.354 104.036C515.549 104.231 515.549 104.548 515.354 104.743L512.172 107.925C511.976 108.12 511.66 108.12 511.464 107.925C511.269 107.73 511.269 107.413 511.464 107.218L514.293 104.39L511.464 101.561C511.269 101.366 511.269 101.049 511.464 100.854C511.66 100.659 511.976 100.659 512.172 100.854L515.354 104.036ZM515 104.89L205 104.89L205 103.89L515 103.89L515 104.89Z" fill="#8A99A0"/>
<defs>
<linearGradient id="paint0_linear_12170_1024" x1="568.778" y1="69.9062" x2="600.16" y2="101.288" gradientUnits="userSpaceOnUse">
<stop stop-color="#91D443"/>
<stop offset="1" stop-color="#48BFE0"/>
</linearGradient>
<linearGradient id="paint1_linear_12170_1024" x1="576.581" y1="62.1015" x2="607.963" y2="93.4836" gradientUnits="userSpaceOnUse">
<stop stop-color="#91D443"/>
<stop offset="1" stop-color="#48BFE0"/>
</linearGradient>
<linearGradient id="paint2_linear_12170_1024" x1="584.36" y1="54.3234" x2="615.742" y2="85.7055" gradientUnits="userSpaceOnUse">
<stop stop-color="#91D443"/>
<stop offset="1" stop-color="#48BFE0"/>
</linearGradient>
<linearGradient id="paint3_linear_12170_1024" x1="560.97" y1="77.7112" x2="592.352" y2="109.093" gradientUnits="userSpaceOnUse">
<stop stop-color="#91D443"/>
<stop offset="1" stop-color="#48BFE0"/>
</linearGradient>
<linearGradient id="paint4_linear_12170_1024" x1="553.192" y1="85.4893" x2="584.574" y2="116.871" gradientUnits="userSpaceOnUse">
<stop stop-color="#91D443"/>
<stop offset="1" stop-color="#48BFE0"/>
</linearGradient>
</defs>
</svg>
