<svg width="720" height="281" viewBox="0 0 720 281" fill="none" xmlns="http://www.w3.org/2000/svg">
<rect width="720" height="280" transform="translate(0 0.390137)" fill="white"/>
<path d="M143 22.3901C143 20.181 144.791 18.3901 147 18.3901H286C288.209 18.3901 290 20.181 290 22.3901V67.1904H143V22.3901Z" fill="#E9E9E9"/>
<path d="M430 22.3901C430 20.181 431.791 18.3901 434 18.3901H573C575.209 18.3901 577 20.181 577 22.3901V67.1904H430V22.3901Z" fill="#E9E9E9"/>
<path d="M627.873 93.4519H628.005V86.1479H628.929V93.8479H627.081L624.859 86.5439H624.727V93.8479H623.803V86.1479H625.651L627.873 93.4519ZM631.319 91.3839C631.341 91.9266 631.51 92.3629 631.825 92.6929C632.141 93.0229 632.581 93.1879 633.145 93.1879C633.402 93.1879 633.626 93.1586 633.816 93.0999C634.007 93.0412 634.168 92.9606 634.3 92.8579C634.44 92.7552 634.55 92.6379 634.63 92.5059C634.718 92.3666 634.788 92.2199 634.839 92.0659L635.653 92.2859C635.499 92.7919 635.213 93.2062 634.795 93.5289C634.385 93.8442 633.827 94.0019 633.123 94.0019C632.735 94.0019 632.375 93.9359 632.045 93.8039C631.723 93.6646 631.444 93.4702 631.209 93.2209C630.975 92.9716 630.791 92.6746 630.659 92.3299C630.527 91.9852 630.461 91.6039 630.461 91.1859V90.9219C630.461 90.5406 630.527 90.1849 630.659 89.8549C630.799 89.5249 630.989 89.2426 631.231 89.0079C631.473 88.7659 631.756 88.5789 632.078 88.4469C632.408 88.3076 632.764 88.2379 633.145 88.2379C633.593 88.2379 633.978 88.3222 634.3 88.4909C634.63 88.6522 634.898 88.8539 635.103 89.0959C635.316 89.3379 635.47 89.6019 635.565 89.8879C635.668 90.1739 635.719 90.4379 635.719 90.6799V91.3839H631.319ZM633.145 89.0519C632.903 89.0519 632.676 89.0922 632.463 89.1729C632.258 89.2462 632.075 89.3526 631.913 89.4919C631.759 89.6312 631.631 89.7962 631.528 89.9869C631.433 90.1702 631.371 90.3719 631.341 90.5919H634.861C634.847 90.3572 634.788 90.1446 634.685 89.9539C634.59 89.7632 634.462 89.6019 634.3 89.4699C634.146 89.3379 633.967 89.2352 633.761 89.1619C633.563 89.0886 633.358 89.0519 633.145 89.0519ZM638.561 89.7999C638.561 90.0639 638.671 90.2656 638.891 90.4049C639.118 90.5442 639.529 90.6359 640.123 90.6799C640.761 90.7312 641.245 90.8852 641.575 91.1419C641.912 91.3912 642.081 91.7579 642.081 92.2419V92.3079C642.081 92.5719 642.026 92.8102 641.916 93.0229C641.813 93.2282 641.666 93.4042 641.476 93.5509C641.292 93.6976 641.065 93.8076 640.794 93.8809C640.53 93.9616 640.24 94.0019 639.925 94.0019C639.499 94.0019 639.133 93.9469 638.825 93.8369C638.524 93.7196 638.271 93.5692 638.066 93.3859C637.868 93.1952 637.717 92.9826 637.615 92.7479C637.512 92.5059 637.453 92.2639 637.439 92.0219L638.253 91.8239C638.289 92.2419 638.451 92.5792 638.737 92.8359C639.023 93.0852 639.404 93.2099 639.881 93.2099C640.284 93.2099 640.607 93.1329 640.849 92.9789C641.098 92.8176 641.223 92.5939 641.223 92.3079C641.223 91.9999 641.102 91.7799 640.86 91.6479C640.618 91.5159 640.225 91.4316 639.683 91.3949C639.052 91.3509 638.568 91.2042 638.231 90.9549C637.893 90.7056 637.725 90.3426 637.725 89.8659V89.7999C637.725 89.5432 637.78 89.3196 637.89 89.1289C638 88.9309 638.146 88.7659 638.33 88.6339C638.52 88.5019 638.733 88.4029 638.968 88.3369C639.202 88.2709 639.448 88.2379 639.705 88.2379C640.064 88.2379 640.379 88.2892 640.651 88.3919C640.922 88.4872 641.149 88.6156 641.333 88.7769C641.516 88.9309 641.655 89.1106 641.751 89.3159C641.853 89.5212 641.919 89.7266 641.949 89.9319L641.135 90.1299C641.098 89.7779 640.955 89.5029 640.706 89.3049C640.464 89.1069 640.145 89.0079 639.749 89.0079C639.595 89.0079 639.444 89.0262 639.298 89.0629C639.158 89.0922 639.034 89.1399 638.924 89.2059C638.814 89.2719 638.726 89.3562 638.66 89.4589C638.594 89.5542 638.561 89.6679 638.561 89.7999ZM643.976 88.3919H645.692V86.1479H646.55V88.3919H648.662V89.1839H646.55V92.7259C646.55 92.9459 646.649 93.0559 646.847 93.0559H648.398V93.8479H646.539C646.29 93.8479 646.084 93.7672 645.923 93.6059C645.769 93.4446 645.692 93.2392 645.692 92.9899V89.1839H643.976V88.3919ZM652.592 86.7639C652.592 86.5512 652.666 86.3716 652.812 86.2249C652.966 86.0709 653.15 85.9939 653.362 85.9939C653.575 85.9939 653.755 86.0709 653.901 86.2249C654.055 86.3716 654.132 86.5512 654.132 86.7639C654.132 86.9766 654.055 87.1599 653.901 87.3139C653.755 87.4606 653.575 87.5339 653.362 87.5339C653.15 87.5339 652.966 87.4606 652.812 87.3139C652.666 87.1599 652.592 86.9766 652.592 86.7639ZM651.03 93.0559H652.944V89.1839H651.228V88.3919H653.802V93.0559H655.584V93.8479H651.03V93.0559ZM658.492 93.8479H657.634V88.3919H658.492V89.3159H658.624C658.961 88.5972 659.548 88.2379 660.384 88.2379C661.014 88.2379 661.517 88.4359 661.891 88.8319C662.265 89.2206 662.452 89.8072 662.452 90.5919V93.8479H661.594V90.7679C661.594 90.1959 661.465 89.7669 661.209 89.4809C660.952 89.1949 660.604 89.0519 660.164 89.0519C659.643 89.0519 659.232 89.2316 658.932 89.5909C658.638 89.9429 658.492 90.4159 658.492 91.0099V93.8479ZM668.516 93.0119H668.384C668.208 93.3419 667.966 93.5912 667.658 93.7599C667.357 93.9212 667.027 94.0019 666.668 94.0019C666.301 94.0019 665.957 93.9396 665.634 93.8149C665.311 93.6902 665.025 93.5106 664.776 93.2759C664.534 93.0412 664.34 92.7516 664.193 92.4069C664.054 92.0549 663.984 91.6552 663.984 91.2079V91.0319C663.984 90.5919 664.057 90.1996 664.204 89.8549C664.351 89.5029 664.545 89.2096 664.787 88.9749C665.029 88.7329 665.311 88.5496 665.634 88.4249C665.957 88.3002 666.294 88.2379 666.646 88.2379C667.042 88.2379 667.387 88.3259 667.68 88.5019C667.981 88.6706 668.215 88.9199 668.384 89.2499H668.516V88.3919H669.374V95.1899C669.374 95.4392 669.293 95.6446 669.132 95.8059C668.978 95.9672 668.776 96.0479 668.527 96.0479H664.974V95.2559H668.219C668.417 95.2559 668.516 95.1459 668.516 94.9259V93.0119ZM666.69 93.1879C666.947 93.1879 667.185 93.1402 667.405 93.0449C667.625 92.9496 667.816 92.8139 667.977 92.6379C668.146 92.4619 668.278 92.2529 668.373 92.0109C668.468 91.7616 668.516 91.4866 668.516 91.1859V91.0539C668.516 90.7606 668.468 90.4929 668.373 90.2509C668.278 90.0016 668.146 89.7889 667.977 89.6129C667.816 89.4369 667.621 89.3012 667.394 89.2059C667.174 89.1032 666.939 89.0519 666.69 89.0519C666.433 89.0519 666.191 89.0996 665.964 89.1949C665.744 89.2902 665.55 89.4259 665.381 89.6019C665.22 89.7779 665.091 89.9869 664.996 90.2289C664.908 90.4709 664.864 90.7386 664.864 91.0319V91.2079C664.864 91.5159 664.908 91.7909 664.996 92.0329C665.091 92.2749 665.22 92.4839 665.381 92.6599C665.55 92.8286 665.744 92.9606 665.964 93.0559C666.184 93.1439 666.426 93.1879 666.69 93.1879ZM679.248 90.6579H679.435L681.514 88.3919H682.57V88.4579L680.304 90.9549V91.1529L682.834 93.7819V93.8479H681.778L679.457 91.4499H679.248V93.8479H678.39V86.1479H679.248V90.6579ZM685.202 91.3839C685.224 91.9266 685.393 92.3629 685.708 92.6929C686.023 93.0229 686.463 93.1879 687.028 93.1879C687.285 93.1879 687.508 93.1586 687.699 93.0999C687.89 93.0412 688.051 92.9606 688.183 92.8579C688.322 92.7552 688.432 92.6379 688.513 92.5059C688.601 92.3666 688.671 92.2199 688.722 92.0659L689.536 92.2859C689.382 92.7919 689.096 93.2062 688.678 93.5289C688.267 93.8442 687.71 94.0019 687.006 94.0019C686.617 94.0019 686.258 93.9359 685.928 93.8039C685.605 93.6646 685.327 93.4702 685.092 93.2209C684.857 92.9716 684.674 92.6746 684.542 92.3299C684.41 91.9852 684.344 91.6039 684.344 91.1859V90.9219C684.344 90.5406 684.41 90.1849 684.542 89.8549C684.681 89.5249 684.872 89.2426 685.114 89.0079C685.356 88.7659 685.638 88.5789 685.961 88.4469C686.291 88.3076 686.647 88.2379 687.028 88.2379C687.475 88.2379 687.86 88.3222 688.183 88.4909C688.513 88.6522 688.781 88.8539 688.986 89.0959C689.199 89.3379 689.353 89.6019 689.448 89.8879C689.551 90.1739 689.602 90.4379 689.602 90.6799V91.3839H685.202ZM687.028 89.0519C686.786 89.0519 686.559 89.0922 686.346 89.1729C686.141 89.2462 685.957 89.3526 685.796 89.4919C685.642 89.6312 685.514 89.7962 685.411 89.9869C685.316 90.1702 685.253 90.3719 685.224 90.5919H688.744C688.729 90.3572 688.671 90.1446 688.568 89.9539C688.473 89.7632 688.344 89.6019 688.183 89.4699C688.029 89.3379 687.849 89.2352 687.644 89.1619C687.446 89.0886 687.241 89.0519 687.028 89.0519ZM695.271 92.8579H695.139C694.963 93.2099 694.732 93.4886 694.446 93.6939C694.16 93.8992 693.797 94.0019 693.357 94.0019C693.056 94.0019 692.777 93.9506 692.521 93.8479C692.271 93.7526 692.055 93.6059 691.872 93.4079C691.696 93.2099 691.556 92.9642 691.454 92.6709C691.358 92.3776 691.311 92.0366 691.311 91.6479V88.3919H692.169V91.5379C692.169 92.1099 692.286 92.5279 692.521 92.7919C692.755 93.0559 693.115 93.1879 693.599 93.1879C694.119 93.1879 694.526 93.0119 694.82 92.6599C695.12 92.3006 695.271 91.8239 695.271 91.2299V88.3919H696.129V95.1899C696.129 95.4392 696.048 95.6446 695.887 95.8059C695.733 95.9672 695.531 96.0479 695.282 96.0479H692.169V95.2559H694.974C695.172 95.2559 695.271 95.1459 695.271 94.9259V92.8579Z" fill="black"/>
<path d="M633.41 241.411C633.725 241.411 633.993 241.359 634.213 241.257C634.44 241.147 634.624 241.004 634.763 240.828C634.91 240.644 635.016 240.439 635.082 240.212C635.155 239.977 635.192 239.731 635.192 239.475V239.343H636.116V239.475C636.116 239.863 636.057 240.23 635.94 240.575C635.823 240.912 635.65 241.209 635.423 241.466C635.196 241.715 634.913 241.913 634.576 242.06C634.239 242.199 633.85 242.269 633.41 242.269C632.559 242.269 631.896 242.001 631.419 241.466C630.942 240.93 630.704 240.149 630.704 239.123V237.407C630.704 236.409 630.942 235.636 631.419 235.086C631.896 234.536 632.559 234.261 633.41 234.261C633.85 234.261 634.239 234.334 634.576 234.481C634.913 234.62 635.196 234.818 635.423 235.075C635.65 235.324 635.823 235.621 635.94 235.966C636.057 236.303 636.116 236.666 636.116 237.055V237.187H635.192V237.055C635.185 236.805 635.144 236.563 635.071 236.329C635.005 236.094 634.899 235.889 634.752 235.713C634.613 235.529 634.433 235.386 634.213 235.284C633.993 235.174 633.725 235.119 633.41 235.119C632.816 235.119 632.369 235.335 632.068 235.768C631.775 236.2 631.628 236.769 631.628 237.473V239.057C631.628 239.812 631.775 240.395 632.068 240.806C632.369 241.209 632.816 241.411 633.41 241.411ZM638.55 242.115H637.692V234.415H638.55V237.649H638.682C638.851 237.297 639.086 237.018 639.386 236.813C639.694 236.607 640.068 236.505 640.508 236.505C641.102 236.505 641.583 236.703 641.949 237.099C642.323 237.487 642.51 238.074 642.51 238.859V242.115H641.652V239.035C641.652 238.463 641.524 238.034 641.267 237.748C641.011 237.462 640.662 237.319 640.222 237.319C639.702 237.319 639.291 237.498 638.99 237.858C638.697 238.21 638.55 238.683 638.55 239.277V242.115ZM646.122 235.031C646.122 234.818 646.195 234.638 646.342 234.492C646.496 234.338 646.679 234.261 646.892 234.261C647.104 234.261 647.284 234.338 647.431 234.492C647.585 234.638 647.662 234.818 647.662 235.031C647.662 235.243 647.585 235.427 647.431 235.581C647.284 235.727 647.104 235.801 646.892 235.801C646.679 235.801 646.496 235.727 646.342 235.581C646.195 235.427 646.122 235.243 646.122 235.031ZM644.56 241.323H646.474V237.451H644.758V236.659H647.332V241.323H649.114V242.115H644.56V241.323ZM651.163 241.323H653.143V235.207H651.229V234.415H654.001V241.323H655.981V242.115H651.163V241.323ZM662.122 241.279H661.99C661.902 241.447 661.789 241.594 661.649 241.719C661.517 241.843 661.371 241.946 661.209 242.027C661.055 242.107 660.89 242.166 660.714 242.203C660.538 242.247 660.37 242.269 660.208 242.269C659.842 242.269 659.501 242.206 659.185 242.082C658.87 241.957 658.591 241.777 658.349 241.543C658.115 241.308 657.928 241.018 657.788 240.674C657.656 240.322 657.59 239.922 657.59 239.475V239.299C657.59 238.859 657.66 238.466 657.799 238.122C657.939 237.77 658.126 237.476 658.36 237.242C658.595 237 658.87 236.816 659.185 236.692C659.501 236.567 659.834 236.505 660.186 236.505C660.56 236.505 660.909 236.589 661.231 236.758C661.561 236.919 661.814 237.172 661.99 237.517H662.122V234.415H662.98V242.115H662.122V241.279ZM660.296 241.455C660.553 241.455 660.791 241.407 661.011 241.312C661.231 241.216 661.422 241.081 661.583 240.905C661.752 240.729 661.884 240.52 661.979 240.278C662.075 240.028 662.122 239.753 662.122 239.453V239.321C662.122 239.027 662.075 238.76 661.979 238.518C661.884 238.268 661.752 238.056 661.583 237.88C661.422 237.704 661.228 237.568 661 237.473C660.78 237.37 660.546 237.319 660.296 237.319C660.04 237.319 659.798 237.366 659.57 237.462C659.35 237.557 659.156 237.693 658.987 237.869C658.826 238.045 658.698 238.254 658.602 238.496C658.514 238.738 658.47 239.005 658.47 239.299V239.475C658.47 239.783 658.514 240.058 658.602 240.3C658.698 240.542 658.826 240.751 658.987 240.927C659.156 241.095 659.35 241.227 659.57 241.323C659.79 241.411 660.032 241.455 660.296 241.455ZM672.777 238.925H672.964L675.043 236.659H676.099V236.725L673.833 239.222V239.42L676.363 242.049V242.115H675.307L672.986 239.717H672.777V242.115H671.919V234.415H672.777V238.925ZM678.731 239.651C678.753 240.193 678.922 240.63 679.237 240.96C679.553 241.29 679.993 241.455 680.557 241.455C680.814 241.455 681.038 241.425 681.228 241.367C681.419 241.308 681.58 241.227 681.712 241.125C681.852 241.022 681.962 240.905 682.042 240.773C682.13 240.633 682.2 240.487 682.251 240.333L683.065 240.553C682.911 241.059 682.625 241.473 682.207 241.796C681.797 242.111 681.239 242.269 680.535 242.269C680.147 242.269 679.787 242.203 679.457 242.071C679.135 241.931 678.856 241.737 678.621 241.488C678.387 241.238 678.203 240.941 678.071 240.597C677.939 240.252 677.873 239.871 677.873 239.453V239.189C677.873 238.807 677.939 238.452 678.071 238.122C678.211 237.792 678.401 237.509 678.643 237.275C678.885 237.033 679.168 236.846 679.49 236.714C679.82 236.574 680.176 236.505 680.557 236.505C681.005 236.505 681.39 236.589 681.712 236.758C682.042 236.919 682.31 237.121 682.515 237.363C682.728 237.605 682.882 237.869 682.977 238.155C683.08 238.441 683.131 238.705 683.131 238.947V239.651H678.731ZM680.557 237.319C680.315 237.319 680.088 237.359 679.875 237.44C679.67 237.513 679.487 237.619 679.325 237.759C679.171 237.898 679.043 238.063 678.94 238.254C678.845 238.437 678.783 238.639 678.753 238.859H682.273C682.259 238.624 682.2 238.411 682.097 238.221C682.002 238.03 681.874 237.869 681.712 237.737C681.558 237.605 681.379 237.502 681.173 237.429C680.975 237.355 680.77 237.319 680.557 237.319ZM688.8 241.125H688.668C688.492 241.477 688.261 241.755 687.975 241.961C687.689 242.166 687.326 242.269 686.886 242.269C686.585 242.269 686.306 242.217 686.05 242.115C685.8 242.019 685.584 241.873 685.401 241.675C685.225 241.477 685.085 241.231 684.983 240.938C684.887 240.644 684.84 240.303 684.84 239.915V236.659H685.698V239.805C685.698 240.377 685.815 240.795 686.05 241.059C686.284 241.323 686.644 241.455 687.128 241.455C687.648 241.455 688.055 241.279 688.349 240.927C688.649 240.567 688.8 240.091 688.8 239.497V236.659H689.658V243.457C689.658 243.706 689.577 243.911 689.416 244.073C689.262 244.234 689.06 244.315 688.811 244.315H685.698V243.523H688.503C688.701 243.523 688.8 243.413 688.8 243.193V241.125Z" fill="black"/>
<path d="M31.1822 90.6799V93.8479H30.2582V86.1479H33.0082C33.4042 86.1479 33.7489 86.2066 34.0422 86.3239C34.3356 86.4339 34.5776 86.5842 34.7682 86.7749C34.9662 86.9656 35.1129 87.1892 35.2082 87.4459C35.3109 87.6952 35.3622 87.9592 35.3622 88.2379V88.5679C35.3622 88.8466 35.3109 89.1142 35.2082 89.3709C35.1129 89.6276 34.9662 89.8549 34.7682 90.0529C34.5702 90.2436 34.3246 90.3976 34.0312 90.5149C33.7379 90.6249 33.3969 90.6799 33.0082 90.6799H31.1822ZM31.1822 89.8219H32.8982C33.9249 89.8219 34.4382 89.3819 34.4382 88.5019V88.3039C34.4382 87.9152 34.3099 87.6036 34.0532 87.3689C33.8039 87.1269 33.4189 87.0059 32.8982 87.0059H31.1822V89.8219ZM40.9756 92.9239H40.8436C40.6676 93.2906 40.4219 93.5619 40.1066 93.7379C39.7986 93.9139 39.4723 94.0019 39.1276 94.0019C38.7683 94.0019 38.4346 93.9432 38.1266 93.8259C37.8186 93.7012 37.5473 93.5216 37.3126 93.2869C37.0853 93.0449 36.9056 92.7516 36.7736 92.4069C36.6416 92.0622 36.5756 91.6626 36.5756 91.2079V91.0319C36.5756 90.5846 36.6416 90.1886 36.7736 89.8439C36.9056 89.4992 37.0853 89.2096 37.3126 88.9749C37.5473 88.7329 37.8186 88.5496 38.1266 88.4249C38.4346 88.3002 38.7609 88.2379 39.1056 88.2379C39.4796 88.2379 39.8169 88.3222 40.1176 88.4909C40.4256 88.6522 40.6676 88.9052 40.8436 89.2499H40.9756V88.3919H41.8336V92.7259C41.8336 92.9459 41.9326 93.0559 42.1306 93.0559H42.4056V93.8479H41.8226C41.5733 93.8479 41.3679 93.7672 41.2066 93.6059C41.0526 93.4446 40.9756 93.2392 40.9756 92.9899V92.9239ZM39.2156 93.1879C39.4723 93.1879 39.7069 93.1402 39.9196 93.0449C40.1396 92.9496 40.3266 92.8139 40.4806 92.6379C40.6346 92.4619 40.7556 92.2529 40.8436 92.0109C40.9316 91.7616 40.9756 91.4866 40.9756 91.1859V91.0539C40.9756 90.7606 40.9316 90.4929 40.8436 90.2509C40.7556 90.0016 40.6309 89.7889 40.4696 89.6129C40.3156 89.4369 40.1286 89.3012 39.9086 89.2059C39.6959 89.1032 39.4649 89.0519 39.2156 89.0519C38.9589 89.0519 38.7243 89.0996 38.5116 89.1949C38.2989 89.2902 38.1119 89.4259 37.9506 89.6019C37.7966 89.7706 37.6756 89.9796 37.5876 90.2289C37.4996 90.4709 37.4556 90.7386 37.4556 91.0319V91.2079C37.4556 91.8312 37.6169 92.3189 37.9396 92.6709C38.2696 93.0156 38.6949 93.1879 39.2156 93.1879ZM43.4429 88.3919H45.4229V89.1179H45.5549C45.6943 88.8172 45.8923 88.5972 46.1489 88.4579C46.4056 88.3112 46.6989 88.2379 47.0289 88.2379C47.5789 88.2379 48.0226 88.4176 48.3599 88.7769C48.6973 89.1362 48.8769 89.6606 48.8989 90.3499L47.9969 90.4819C47.9969 89.9759 47.8759 89.6129 47.6339 89.3929C47.3919 89.1656 47.0949 89.0519 46.7429 89.0519C46.5156 89.0519 46.3176 89.0959 46.1489 89.1839C45.9876 89.2719 45.8519 89.3929 45.7419 89.5469C45.6319 89.7009 45.5513 89.8806 45.4999 90.0859C45.4486 90.2912 45.4229 90.5112 45.4229 90.7459V93.0559H46.8089V93.8479H43.3109V93.0559H44.5649V89.1839H43.4429V88.3919ZM51.1133 91.3839C51.1353 91.9266 51.304 92.3629 51.6193 92.6929C51.9346 93.0229 52.3746 93.1879 52.9393 93.1879C53.196 93.1879 53.4196 93.1586 53.6103 93.0999C53.801 93.0412 53.9623 92.9606 54.0943 92.8579C54.2336 92.7552 54.3436 92.6379 54.4243 92.5059C54.5123 92.3666 54.582 92.2199 54.6333 92.0659L55.4473 92.2859C55.2933 92.7919 55.0073 93.2062 54.5893 93.5289C54.1786 93.8442 53.6213 94.0019 52.9173 94.0019C52.5286 94.0019 52.1693 93.9359 51.8393 93.8039C51.5166 93.6646 51.238 93.4702 51.0033 93.2209C50.7686 92.9716 50.5853 92.6746 50.4533 92.3299C50.3213 91.9852 50.2553 91.6039 50.2553 91.1859V90.9219C50.2553 90.5406 50.3213 90.1849 50.4533 89.8549C50.5926 89.5249 50.7833 89.2426 51.0253 89.0079C51.2673 88.7659 51.5496 88.5789 51.8723 88.4469C52.2023 88.3076 52.558 88.2379 52.9393 88.2379C53.3866 88.2379 53.7716 88.3222 54.0943 88.4909C54.4243 88.6522 54.692 88.8539 54.8973 89.0959C55.11 89.3379 55.264 89.6019 55.3593 89.8879C55.462 90.1739 55.5133 90.4379 55.5133 90.6799V91.3839H51.1133ZM52.9393 89.0519C52.6973 89.0519 52.47 89.0922 52.2573 89.1729C52.052 89.2462 51.8686 89.3526 51.7073 89.4919C51.5533 89.6312 51.425 89.7962 51.3223 89.9869C51.227 90.1702 51.1646 90.3719 51.1353 90.5919H54.6553C54.6406 90.3572 54.582 90.1446 54.4793 89.9539C54.384 89.7632 54.2556 89.6019 54.0943 89.4699C53.9403 89.3379 53.7606 89.2352 53.5553 89.1619C53.3573 89.0886 53.152 89.0519 52.9393 89.0519ZM58.0796 93.8479H57.2216V88.3919H58.0796V89.3159H58.2116C58.549 88.5972 59.1356 88.2379 59.9716 88.2379C60.6023 88.2379 61.1046 88.4359 61.4786 88.8319C61.8526 89.2206 62.0396 89.8072 62.0396 90.5919V93.8479H61.1816V90.7679C61.1816 90.1959 61.0533 89.7669 60.7966 89.4809C60.54 89.1949 60.1916 89.0519 59.7516 89.0519C59.231 89.0519 58.8203 89.2316 58.5196 89.5909C58.2263 89.9429 58.0796 90.4159 58.0796 91.0099V93.8479ZM63.77 88.3919H65.486V86.1479H66.344V88.3919H68.456V89.1839H66.344V92.7259C66.344 92.9459 66.443 93.0559 66.641 93.0559H68.192V93.8479H66.333C66.0837 93.8479 65.8783 93.7672 65.717 93.6059C65.563 93.4446 65.486 93.2392 65.486 92.9899V89.1839H63.77V88.3919ZM78.8357 90.6579H79.0227L81.1017 88.3919H82.1577V88.4579L79.8917 90.9549V91.1529L82.4217 93.7819V93.8479H81.3657L79.0447 91.4499H78.8357V93.8479H77.9777V86.1479H78.8357V90.6579ZM84.7901 91.3839C84.8121 91.9266 84.9807 92.3629 85.2961 92.6929C85.6114 93.0229 86.0514 93.1879 86.6161 93.1879C86.8727 93.1879 87.0964 93.1586 87.2871 93.0999C87.4777 93.0412 87.6391 92.9606 87.7711 92.8579C87.9104 92.7552 88.0204 92.6379 88.1011 92.5059C88.1891 92.3666 88.2587 92.2199 88.3101 92.0659L89.1241 92.2859C88.9701 92.7919 88.6841 93.2062 88.2661 93.5289C87.8554 93.8442 87.2981 94.0019 86.5941 94.0019C86.2054 94.0019 85.8461 93.9359 85.5161 93.8039C85.1934 93.6646 84.9147 93.4702 84.6801 93.2209C84.4454 92.9716 84.2621 92.6746 84.1301 92.3299C83.9981 91.9852 83.9321 91.6039 83.9321 91.1859V90.9219C83.9321 90.5406 83.9981 90.1849 84.1301 89.8549C84.2694 89.5249 84.4601 89.2426 84.7021 89.0079C84.9441 88.7659 85.2264 88.5789 85.5491 88.4469C85.8791 88.3076 86.2347 88.2379 86.6161 88.2379C87.0634 88.2379 87.4484 88.3222 87.7711 88.4909C88.1011 88.6522 88.3687 88.8539 88.5741 89.0959C88.7867 89.3379 88.9407 89.6019 89.0361 89.8879C89.1387 90.1739 89.1901 90.4379 89.1901 90.6799V91.3839H84.7901ZM86.6161 89.0519C86.3741 89.0519 86.1467 89.0922 85.9341 89.1729C85.7287 89.2462 85.5454 89.3526 85.3841 89.4919C85.2301 89.6312 85.1017 89.7962 84.9991 89.9869C84.9037 90.1702 84.8414 90.3719 84.8121 90.5919H88.3321C88.3174 90.3572 88.2587 90.1446 88.1561 89.9539C88.0607 89.7632 87.9324 89.6019 87.7711 89.4699C87.6171 89.3379 87.4374 89.2352 87.2321 89.1619C87.0341 89.0886 86.8287 89.0519 86.6161 89.0519ZM94.8584 92.8579H94.7264C94.5504 93.2099 94.3194 93.4886 94.0334 93.6939C93.7474 93.8992 93.3844 94.0019 92.9444 94.0019C92.6437 94.0019 92.3651 93.9506 92.1084 93.8479C91.8591 93.7526 91.6427 93.6059 91.4594 93.4079C91.2834 93.2099 91.1441 92.9642 91.0414 92.6709C90.9461 92.3776 90.8984 92.0366 90.8984 91.6479V88.3919H91.7564V91.5379C91.7564 92.1099 91.8737 92.5279 92.1084 92.7919C92.3431 93.0559 92.7024 93.1879 93.1864 93.1879C93.7071 93.1879 94.1141 93.0119 94.4074 92.6599C94.7081 92.3006 94.8584 91.8239 94.8584 91.2299V88.3919H95.7164V95.1899C95.7164 95.4392 95.6357 95.6446 95.4744 95.8059C95.3204 95.9672 95.1187 96.0479 94.8694 96.0479H91.7564V95.2559H94.5614C94.7594 95.2559 94.8584 95.1459 94.8584 94.9259V92.8579Z" fill="black"/>
<rect x="142.5" y="18.8901" width="147" height="243" rx="3.5" stroke="#8A99A0"/>
<rect x="430.5" y="18.8901" width="147" height="243" rx="3.5" stroke="#8A99A0"/>
<path d="M173.144 38.8422H178.028V39.7002H176.048V45.6842H178.028V46.5422H173.144V45.6842H175.124V39.7002H173.144V38.8422ZM180.771 46.5422H179.913V41.0862H180.771V42.0102H180.903C181.24 41.2916 181.827 40.9322 182.663 40.9322C183.293 40.9322 183.796 41.1302 184.17 41.5262C184.544 41.9149 184.731 42.5016 184.731 43.2862V46.5422H183.873V43.4622C183.873 42.8902 183.744 42.4612 183.488 42.1752C183.231 41.8892 182.883 41.7462 182.443 41.7462C181.922 41.7462 181.511 41.9259 181.211 42.2852C180.917 42.6372 180.771 43.1102 180.771 43.7042V46.5422ZM189.893 46.5422H188.199L186.296 41.0862H187.308L188.98 46.1462H189.112L190.784 41.0862H191.796L189.893 46.5422ZM198.531 43.8802C198.531 44.3349 198.454 44.7382 198.3 45.0902C198.154 45.4349 197.956 45.7282 197.706 45.9702C197.457 46.2049 197.164 46.3846 196.826 46.5092C196.496 46.6339 196.152 46.6962 195.792 46.6962C195.426 46.6962 195.077 46.6339 194.747 46.5092C194.417 46.3846 194.128 46.2049 193.878 45.9702C193.629 45.7282 193.427 45.4349 193.273 45.0902C193.127 44.7382 193.053 44.3349 193.053 43.8802V43.7482C193.053 43.3009 193.127 42.9049 193.273 42.5602C193.427 42.2082 193.629 41.9112 193.878 41.6692C194.135 41.4272 194.428 41.2439 194.758 41.1192C195.088 40.9946 195.433 40.9322 195.792 40.9322C196.152 40.9322 196.496 40.9946 196.826 41.1192C197.156 41.2439 197.446 41.4272 197.695 41.6692C197.952 41.9112 198.154 42.2082 198.3 42.5602C198.454 42.9049 198.531 43.3009 198.531 43.7482V43.8802ZM195.792 45.8822C196.056 45.8822 196.298 45.8382 196.518 45.7502C196.746 45.6549 196.944 45.5192 197.112 45.3432C197.281 45.1672 197.413 44.9582 197.508 44.7162C197.604 44.4669 197.651 44.1882 197.651 43.8802V43.7482C197.651 43.4549 197.604 43.1872 197.508 42.9452C197.413 42.6959 197.281 42.4832 197.112 42.3072C196.944 42.1312 196.746 41.9956 196.518 41.9002C196.291 41.7976 196.049 41.7462 195.792 41.7462C195.536 41.7462 195.294 41.7976 195.066 41.9002C194.839 41.9956 194.641 42.1312 194.472 42.3072C194.304 42.4832 194.172 42.6959 194.076 42.9452C193.981 43.1872 193.933 43.4549 193.933 43.7482V43.8802C193.933 44.1882 193.981 44.4669 194.076 44.7162C194.172 44.9582 194.304 45.1672 194.472 45.3432C194.641 45.5192 194.835 45.6549 195.055 45.7502C195.283 45.8382 195.528 45.8822 195.792 45.8822ZM201.813 39.4582C201.813 39.2456 201.886 39.0659 202.033 38.9192C202.187 38.7652 202.37 38.6882 202.583 38.6882C202.795 38.6882 202.975 38.7652 203.122 38.9192C203.276 39.0659 203.353 39.2456 203.353 39.4582C203.353 39.6709 203.276 39.8542 203.122 40.0082C202.975 40.1549 202.795 40.2282 202.583 40.2282C202.37 40.2282 202.187 40.1549 202.033 40.0082C201.886 39.8542 201.813 39.6709 201.813 39.4582ZM200.251 45.7502H202.165V41.8782H200.449V41.0862H203.023V45.7502H204.805V46.5422H200.251V45.7502ZM211.958 44.6062C211.899 44.9069 211.797 45.1856 211.65 45.4422C211.511 45.6989 211.331 45.9226 211.111 46.1132C210.891 46.2966 210.634 46.4396 210.341 46.5422C210.048 46.6449 209.721 46.6962 209.362 46.6962C208.981 46.6962 208.618 46.6339 208.273 46.5092C207.936 46.3846 207.639 46.2049 207.382 45.9702C207.125 45.7282 206.92 45.4349 206.766 45.0902C206.619 44.7456 206.546 44.3496 206.546 43.9022V43.7702C206.546 43.3302 206.619 42.9342 206.766 42.5822C206.92 42.2302 207.125 41.9332 207.382 41.6912C207.639 41.4492 207.936 41.2622 208.273 41.1302C208.618 40.9982 208.981 40.9322 209.362 40.9322C209.707 40.9322 210.026 40.9836 210.319 41.0862C210.612 41.1889 210.869 41.3356 211.089 41.5262C211.316 41.7096 211.5 41.9296 211.639 42.1862C211.786 42.4429 211.885 42.7216 211.936 43.0222L211.078 43.2202C211.056 43.0296 211.001 42.8462 210.913 42.6702C210.832 42.4869 210.719 42.3292 210.572 42.1972C210.433 42.0579 210.26 41.9479 210.055 41.8672C209.85 41.7866 209.611 41.7462 209.34 41.7462C209.076 41.7462 208.827 41.7976 208.592 41.9002C208.365 41.9956 208.163 42.1349 207.987 42.3182C207.811 42.4942 207.672 42.7069 207.569 42.9562C207.474 43.2056 207.426 43.4769 207.426 43.7702V43.9022C207.426 44.2102 207.474 44.4889 207.569 44.7382C207.672 44.9802 207.811 45.1856 207.987 45.3542C208.163 45.5229 208.368 45.6549 208.603 45.7502C208.838 45.8382 209.091 45.8822 209.362 45.8822C209.633 45.8822 209.868 45.8419 210.066 45.7612C210.271 45.6732 210.444 45.5632 210.583 45.4312C210.73 45.2919 210.843 45.1342 210.924 44.9582C211.012 44.7822 211.071 44.5989 211.1 44.4082L211.958 44.6062ZM214.216 44.0782C214.238 44.6209 214.407 45.0572 214.722 45.3872C215.038 45.7172 215.478 45.8822 216.042 45.8822C216.299 45.8822 216.523 45.8529 216.713 45.7942C216.904 45.7356 217.065 45.6549 217.197 45.5522C217.337 45.4496 217.447 45.3322 217.527 45.2002C217.615 45.0609 217.685 44.9142 217.736 44.7602L218.55 44.9802C218.396 45.4862 218.11 45.9006 217.692 46.2232C217.282 46.5386 216.724 46.6962 216.02 46.6962C215.632 46.6962 215.272 46.6302 214.942 46.4982C214.62 46.3589 214.341 46.1646 214.106 45.9152C213.872 45.6659 213.688 45.3689 213.556 45.0242C213.424 44.6796 213.358 44.2982 213.358 43.8802V43.6162C213.358 43.2349 213.424 42.8792 213.556 42.5492C213.696 42.2192 213.886 41.9369 214.128 41.7022C214.37 41.4602 214.653 41.2732 214.975 41.1412C215.305 41.0019 215.661 40.9322 216.042 40.9322C216.49 40.9322 216.875 41.0166 217.197 41.1852C217.527 41.3466 217.795 41.5482 218 41.7902C218.213 42.0322 218.367 42.2962 218.462 42.5822C218.565 42.8682 218.616 43.1322 218.616 43.3742V44.0782H214.216ZM216.042 41.7462C215.8 41.7462 215.573 41.7866 215.36 41.8672C215.155 41.9406 214.972 42.0469 214.81 42.1862C214.656 42.3256 214.528 42.4906 214.425 42.6812C214.33 42.8646 214.268 43.0662 214.238 43.2862H217.758C217.744 43.0516 217.685 42.8389 217.582 42.6482C217.487 42.4576 217.359 42.2962 217.197 42.1642C217.043 42.0322 216.864 41.9296 216.658 41.8562C216.46 41.7829 216.255 41.7462 216.042 41.7462ZM226.873 41.0862H228.589V38.8422H229.447V41.0862H231.559V41.8782H229.447V45.4202C229.447 45.6402 229.546 45.7502 229.744 45.7502H231.295V46.5422H229.436C229.187 46.5422 228.981 46.4616 228.82 46.3002C228.666 46.1389 228.589 45.9336 228.589 45.6842V41.8782H226.873V41.0862ZM237.755 45.6182H237.623C237.447 45.9849 237.202 46.2562 236.886 46.4322C236.578 46.6082 236.252 46.6962 235.907 46.6962C235.548 46.6962 235.214 46.6376 234.906 46.5202C234.598 46.3956 234.327 46.2159 234.092 45.9812C233.865 45.7392 233.685 45.4459 233.553 45.1012C233.421 44.7566 233.355 44.3569 233.355 43.9022V43.7262C233.355 43.2789 233.421 42.8829 233.553 42.5382C233.685 42.1936 233.865 41.9039 234.092 41.6692C234.327 41.4272 234.598 41.2439 234.906 41.1192C235.214 40.9946 235.541 40.9322 235.885 40.9322C236.259 40.9322 236.597 41.0166 236.897 41.1852C237.205 41.3466 237.447 41.5996 237.623 41.9442H237.755V41.0862H238.613V45.4202C238.613 45.6402 238.712 45.7502 238.91 45.7502H239.185V46.5422H238.602C238.353 46.5422 238.148 46.4616 237.986 46.3002C237.832 46.1389 237.755 45.9336 237.755 45.6842V45.6182ZM235.995 45.8822C236.252 45.8822 236.487 45.8346 236.699 45.7392C236.919 45.6439 237.106 45.5082 237.26 45.3322C237.414 45.1562 237.535 44.9472 237.623 44.7052C237.711 44.4559 237.755 44.1809 237.755 43.8802V43.7482C237.755 43.4549 237.711 43.1872 237.623 42.9452C237.535 42.6959 237.411 42.4832 237.249 42.3072C237.095 42.1312 236.908 41.9956 236.688 41.9002C236.476 41.7976 236.245 41.7462 235.995 41.7462C235.739 41.7462 235.504 41.7939 235.291 41.8892C235.079 41.9846 234.892 42.1202 234.73 42.2962C234.576 42.4649 234.455 42.6739 234.367 42.9232C234.279 43.1652 234.235 43.4329 234.235 43.7262V43.9022C234.235 44.5256 234.397 45.0132 234.719 45.3652C235.049 45.7099 235.475 45.8822 235.995 45.8822ZM241.191 46.5422H240.333V38.8422H241.191V41.9442H241.323C241.513 41.6142 241.777 41.3649 242.115 41.1962C242.452 41.0202 242.819 40.9322 243.215 40.9322C243.552 40.9322 243.871 40.9946 244.172 41.1192C244.472 41.2439 244.736 41.4236 244.964 41.6582C245.198 41.8929 245.382 42.1826 245.514 42.5272C245.653 42.8719 245.723 43.2642 245.723 43.7042V43.9242C245.723 44.3716 245.657 44.7676 245.525 45.1122C245.393 45.4569 245.209 45.7466 244.975 45.9812C244.747 46.2159 244.48 46.3956 244.172 46.5202C243.864 46.6376 243.537 46.6962 243.193 46.6962C243.017 46.6962 242.837 46.6742 242.654 46.6302C242.47 46.5936 242.294 46.5349 242.126 46.4542C241.964 46.3662 241.814 46.2636 241.675 46.1462C241.535 46.0216 241.418 45.8749 241.323 45.7062H241.191V46.5422ZM243.017 45.8822C243.281 45.8822 243.523 45.8382 243.743 45.7502C243.963 45.6549 244.153 45.5229 244.315 45.3542C244.483 45.1856 244.612 44.9802 244.7 44.7382C244.795 44.4962 244.843 44.2249 244.843 43.9242V43.7042C244.843 43.4109 244.795 43.1469 244.7 42.9122C244.612 42.6702 244.483 42.4649 244.315 42.2962C244.153 42.1202 243.959 41.9846 243.732 41.8892C243.512 41.7939 243.273 41.7462 243.017 41.7462C242.76 41.7462 242.522 41.7976 242.302 41.9002C242.082 41.9956 241.887 42.1312 241.719 42.3072C241.557 42.4832 241.429 42.6959 241.334 42.9452C241.238 43.1872 241.191 43.4549 241.191 43.7482V43.8802C241.191 44.1809 241.238 44.4559 241.334 44.7052C241.429 44.9472 241.557 45.1562 241.719 45.3322C241.887 45.5082 242.082 45.6439 242.302 45.7392C242.522 45.8346 242.76 45.8822 243.017 45.8822ZM247.266 45.7502H249.246V39.6342H247.332V38.8422H250.104V45.7502H252.084V46.5422H247.266V45.7502ZM254.629 44.0782C254.651 44.6209 254.819 45.0572 255.135 45.3872C255.45 45.7172 255.89 45.8822 256.455 45.8822C256.711 45.8822 256.935 45.8529 257.126 45.7942C257.316 45.7356 257.478 45.6549 257.61 45.5522C257.749 45.4496 257.859 45.3322 257.94 45.2002C258.028 45.0609 258.097 44.9142 258.149 44.7602L258.963 44.9802C258.809 45.4862 258.523 45.9006 258.105 46.2232C257.694 46.5386 257.137 46.6962 256.433 46.6962C256.044 46.6962 255.685 46.6302 255.355 46.4982C255.032 46.3589 254.753 46.1646 254.519 45.9152C254.284 45.6659 254.101 45.3689 253.969 45.0242C253.837 44.6796 253.771 44.2982 253.771 43.8802V43.6162C253.771 43.2349 253.837 42.8792 253.969 42.5492C254.108 42.2192 254.299 41.9369 254.541 41.7022C254.783 41.4602 255.065 41.2732 255.388 41.1412C255.718 41.0019 256.073 40.9322 256.455 40.9322C256.902 40.9322 257.287 41.0166 257.61 41.1852C257.94 41.3466 258.207 41.5482 258.413 41.7902C258.625 42.0322 258.779 42.2962 258.875 42.5822C258.977 42.8682 259.029 43.1322 259.029 43.3742V44.0782H254.629ZM256.455 41.7462C256.213 41.7462 255.985 41.7866 255.773 41.8672C255.567 41.9406 255.384 42.0469 255.223 42.1862C255.069 42.3256 254.94 42.4906 254.838 42.6812C254.742 42.8646 254.68 43.0662 254.651 43.2862H258.171C258.156 43.0516 258.097 42.8389 257.995 42.6482C257.899 42.4576 257.771 42.2962 257.61 42.1642C257.456 42.0322 257.276 41.9296 257.071 41.8562C256.873 41.7829 256.667 41.7462 256.455 41.7462Z" fill="black"/>
<path d="M464.512 33.8422H469.396V34.7002H467.416V40.6842H469.396V41.5422H464.512V40.6842H466.492V34.7002H464.512V33.8422ZM472.138 41.5422H471.28V36.0862H472.138V37.0102H472.27C472.608 36.2916 473.194 35.9322 474.03 35.9322C474.661 35.9322 475.163 36.1302 475.537 36.5262C475.911 36.9149 476.098 37.5016 476.098 38.2862V41.5422H475.24V38.4622C475.24 37.8902 475.112 37.4612 474.855 37.1752C474.599 36.8892 474.25 36.7462 473.81 36.7462C473.29 36.7462 472.879 36.9259 472.578 37.2852C472.285 37.6372 472.138 38.1102 472.138 38.7042V41.5422ZM481.261 41.5422H479.567L477.664 36.0862H478.676L480.348 41.1462H480.48L482.152 36.0862H483.164L481.261 41.5422ZM489.899 38.8802C489.899 39.3349 489.822 39.7382 489.668 40.0902C489.521 40.4349 489.323 40.7282 489.074 40.9702C488.825 41.2049 488.531 41.3846 488.194 41.5092C487.864 41.6339 487.519 41.6962 487.16 41.6962C486.793 41.6962 486.445 41.6339 486.115 41.5092C485.785 41.3846 485.495 41.2049 485.246 40.9702C484.997 40.7282 484.795 40.4349 484.641 40.0902C484.494 39.7382 484.421 39.3349 484.421 38.8802V38.7482C484.421 38.3009 484.494 37.9049 484.641 37.5602C484.795 37.2082 484.997 36.9112 485.246 36.6692C485.503 36.4272 485.796 36.2439 486.126 36.1192C486.456 35.9946 486.801 35.9322 487.16 35.9322C487.519 35.9322 487.864 35.9946 488.194 36.1192C488.524 36.2439 488.814 36.4272 489.063 36.6692C489.32 36.9112 489.521 37.2082 489.668 37.5602C489.822 37.9049 489.899 38.3009 489.899 38.7482V38.8802ZM487.16 40.8822C487.424 40.8822 487.666 40.8382 487.886 40.7502C488.113 40.6549 488.311 40.5192 488.48 40.3432C488.649 40.1672 488.781 39.9582 488.876 39.7162C488.971 39.4669 489.019 39.1882 489.019 38.8802V38.7482C489.019 38.4549 488.971 38.1872 488.876 37.9452C488.781 37.6959 488.649 37.4832 488.48 37.3072C488.311 37.1312 488.113 36.9956 487.886 36.9002C487.659 36.7976 487.417 36.7462 487.16 36.7462C486.903 36.7462 486.661 36.7976 486.434 36.9002C486.207 36.9956 486.009 37.1312 485.84 37.3072C485.671 37.4832 485.539 37.6959 485.444 37.9452C485.349 38.1872 485.301 38.4549 485.301 38.7482V38.8802C485.301 39.1882 485.349 39.4669 485.444 39.7162C485.539 39.9582 485.671 40.1672 485.84 40.3432C486.009 40.5192 486.203 40.6549 486.423 40.7502C486.65 40.8382 486.896 40.8822 487.16 40.8822ZM493.18 34.4582C493.18 34.2456 493.254 34.0659 493.4 33.9192C493.554 33.7652 493.738 33.6882 493.95 33.6882C494.163 33.6882 494.343 33.7652 494.489 33.9192C494.643 34.0659 494.72 34.2456 494.72 34.4582C494.72 34.6709 494.643 34.8542 494.489 35.0082C494.343 35.1549 494.163 35.2282 493.95 35.2282C493.738 35.2282 493.554 35.1549 493.4 35.0082C493.254 34.8542 493.18 34.6709 493.18 34.4582ZM491.618 40.7502H493.532V36.8782H491.816V36.0862H494.39V40.7502H496.172V41.5422H491.618V40.7502ZM503.326 39.6062C503.267 39.9069 503.164 40.1856 503.018 40.4422C502.878 40.6989 502.699 40.9226 502.479 41.1132C502.259 41.2966 502.002 41.4396 501.709 41.5422C501.415 41.6449 501.089 41.6962 500.73 41.6962C500.348 41.6962 499.985 41.6339 499.641 41.5092C499.303 41.3846 499.006 41.2049 498.75 40.9702C498.493 40.7282 498.288 40.4349 498.134 40.0902C497.987 39.7456 497.914 39.3496 497.914 38.9022V38.7702C497.914 38.3302 497.987 37.9342 498.134 37.5822C498.288 37.2302 498.493 36.9332 498.75 36.6912C499.006 36.4492 499.303 36.2622 499.641 36.1302C499.985 35.9982 500.348 35.9322 500.73 35.9322C501.074 35.9322 501.393 35.9836 501.687 36.0862C501.98 36.1889 502.237 36.3356 502.457 36.5262C502.684 36.7096 502.867 36.9296 503.007 37.1862C503.153 37.4429 503.252 37.7216 503.304 38.0222L502.446 38.2202C502.424 38.0296 502.369 37.8462 502.281 37.6702C502.2 37.4869 502.086 37.3292 501.94 37.1972C501.8 37.0579 501.628 36.9479 501.423 36.8672C501.217 36.7866 500.979 36.7462 500.708 36.7462C500.444 36.7462 500.194 36.7976 499.96 36.9002C499.732 36.9956 499.531 37.1349 499.355 37.3182C499.179 37.4942 499.039 37.7069 498.937 37.9562C498.841 38.2056 498.794 38.4769 498.794 38.7702V38.9022C498.794 39.2102 498.841 39.4889 498.937 39.7382C499.039 39.9802 499.179 40.1856 499.355 40.3542C499.531 40.5229 499.736 40.6549 499.971 40.7502C500.205 40.8382 500.458 40.8822 500.73 40.8822C501.001 40.8822 501.236 40.8419 501.434 40.7612C501.639 40.6732 501.811 40.5632 501.951 40.4312C502.097 40.2919 502.211 40.1342 502.292 39.9582C502.38 39.7822 502.438 39.5989 502.468 39.4082L503.326 39.6062ZM505.584 39.0782C505.606 39.6209 505.775 40.0572 506.09 40.3872C506.405 40.7172 506.845 40.8822 507.41 40.8822C507.667 40.8822 507.89 40.8529 508.081 40.7942C508.272 40.7356 508.433 40.6549 508.565 40.5522C508.704 40.4496 508.814 40.3322 508.895 40.2002C508.983 40.0609 509.053 39.9142 509.104 39.7602L509.918 39.9802C509.764 40.4862 509.478 40.9006 509.06 41.2232C508.649 41.5386 508.092 41.6962 507.388 41.6962C506.999 41.6962 506.64 41.6302 506.31 41.4982C505.987 41.3589 505.709 41.1646 505.474 40.9152C505.239 40.6659 505.056 40.3689 504.924 40.0242C504.792 39.6796 504.726 39.2982 504.726 38.8802V38.6162C504.726 38.2349 504.792 37.8792 504.924 37.5492C505.063 37.2192 505.254 36.9369 505.496 36.7022C505.738 36.4602 506.02 36.2732 506.343 36.1412C506.673 36.0019 507.029 35.9322 507.41 35.9322C507.857 35.9322 508.242 36.0166 508.565 36.1852C508.895 36.3466 509.163 36.5482 509.368 36.7902C509.581 37.0322 509.735 37.2962 509.83 37.5822C509.933 37.8682 509.984 38.1322 509.984 38.3742V39.0782H505.584ZM507.41 36.7462C507.168 36.7462 506.941 36.7866 506.728 36.8672C506.523 36.9406 506.339 37.0469 506.178 37.1862C506.024 37.3256 505.896 37.4906 505.793 37.6812C505.698 37.8646 505.635 38.0662 505.606 38.2862H509.126C509.111 38.0516 509.053 37.8389 508.95 37.6482C508.855 37.4576 508.726 37.2962 508.565 37.1642C508.411 37.0322 508.231 36.9296 508.026 36.8562C507.828 36.7829 507.623 36.7462 507.41 36.7462ZM518.428 40.7502H520.408V34.6342H518.494V33.8422H521.266V40.7502H523.246V41.5422H518.428V40.7502ZM526.857 34.4582C526.857 34.2456 526.93 34.0659 527.077 33.9192C527.231 33.7652 527.414 33.6882 527.627 33.6882C527.84 33.6882 528.019 33.7652 528.166 33.9192C528.32 34.0659 528.397 34.2456 528.397 34.4582C528.397 34.6709 528.32 34.8542 528.166 35.0082C528.019 35.1549 527.84 35.2282 527.627 35.2282C527.414 35.2282 527.231 35.1549 527.077 35.0082C526.93 34.8542 526.857 34.6709 526.857 34.4582ZM525.295 40.7502H527.209V36.8782H525.493V36.0862H528.067V40.7502H529.849V41.5422H525.295V40.7502ZM532.756 41.5422H531.898V36.0862H532.756V37.0102H532.888C533.226 36.2916 533.812 35.9322 534.648 35.9322C535.279 35.9322 535.781 36.1302 536.155 36.5262C536.529 36.9149 536.716 37.5016 536.716 38.2862V41.5422H535.858V38.4622C535.858 37.8902 535.73 37.4612 535.473 37.1752C535.217 36.8892 534.868 36.7462 534.428 36.7462C533.908 36.7462 533.497 36.9259 533.196 37.2852C532.903 37.6372 532.756 38.1102 532.756 38.7042V41.5422ZM539.261 39.0782C539.283 39.6209 539.452 40.0572 539.767 40.3872C540.082 40.7172 540.522 40.8822 541.087 40.8822C541.344 40.8822 541.567 40.8529 541.758 40.7942C541.949 40.7356 542.11 40.6549 542.242 40.5522C542.381 40.4496 542.491 40.3322 542.572 40.2002C542.66 40.0609 542.73 39.9142 542.781 39.7602L543.595 39.9802C543.441 40.4862 543.155 40.9006 542.737 41.2232C542.326 41.5386 541.769 41.6962 541.065 41.6962C540.676 41.6962 540.317 41.6302 539.987 41.4982C539.664 41.3589 539.386 41.1646 539.151 40.9152C538.916 40.6659 538.733 40.3689 538.601 40.0242C538.469 39.6796 538.403 39.2982 538.403 38.8802V38.6162C538.403 38.2349 538.469 37.8792 538.601 37.5492C538.74 37.2192 538.931 36.9369 539.173 36.7022C539.415 36.4602 539.697 36.2732 540.02 36.1412C540.35 36.0019 540.706 35.9322 541.087 35.9322C541.534 35.9322 541.919 36.0166 542.242 36.1852C542.572 36.3466 542.84 36.5482 543.045 36.7902C543.258 37.0322 543.412 37.2962 543.507 37.5822C543.61 37.8682 543.661 38.1322 543.661 38.3742V39.0782H539.261ZM541.087 36.7462C540.845 36.7462 540.618 36.7866 540.405 36.8672C540.2 36.9406 540.016 37.0469 539.855 37.1862C539.701 37.3256 539.573 37.4906 539.47 37.6812C539.375 37.8646 539.312 38.0662 539.283 38.2862H542.803C542.788 38.0516 542.73 37.8389 542.627 37.6482C542.532 37.4576 542.403 37.2962 542.242 37.1642C542.088 37.0322 541.908 36.9296 541.703 36.8562C541.505 36.7829 541.3 36.7462 541.087 36.7462ZM469.607 47.4582C469.607 47.2456 469.68 47.0659 469.827 46.9192C469.981 46.7652 470.164 46.6882 470.377 46.6882C470.589 46.6882 470.769 46.7652 470.916 46.9192C471.07 47.0659 471.147 47.2456 471.147 47.4582C471.147 47.6709 471.07 47.8542 470.916 48.0082C470.769 48.1549 470.589 48.2282 470.377 48.2282C470.164 48.2282 469.981 48.1549 469.827 48.0082C469.68 47.8542 469.607 47.6709 469.607 47.4582ZM468.045 53.7502H469.959V49.8782H468.243V49.0862H470.817V53.7502H472.599V54.5422H468.045V53.7502ZM474.461 49.0862H476.177V46.8422H477.035V49.0862H479.147V49.8782H477.035V53.4202C477.035 53.6402 477.134 53.7502 477.332 53.7502H478.883V54.5422H477.024C476.775 54.5422 476.569 54.4616 476.408 54.3002C476.254 54.1389 476.177 53.9336 476.177 53.6842V49.8782H474.461V49.0862ZM482.01 52.0782C482.032 52.6209 482.201 53.0572 482.516 53.3872C482.832 53.7172 483.272 53.8822 483.836 53.8822C484.093 53.8822 484.317 53.8529 484.507 53.7942C484.698 53.7356 484.859 53.6549 484.991 53.5522C485.131 53.4496 485.241 53.3322 485.321 53.2002C485.409 53.0609 485.479 52.9142 485.53 52.7602L486.344 52.9802C486.19 53.4862 485.904 53.9006 485.486 54.2232C485.076 54.5386 484.518 54.6962 483.814 54.6962C483.426 54.6962 483.066 54.6302 482.736 54.4982C482.414 54.3589 482.135 54.1646 481.9 53.9152C481.666 53.6659 481.482 53.3689 481.35 53.0242C481.218 52.6796 481.152 52.2982 481.152 51.8802V51.6162C481.152 51.2349 481.218 50.8792 481.35 50.5492C481.49 50.2192 481.68 49.9369 481.922 49.7022C482.164 49.4602 482.447 49.2732 482.769 49.1412C483.099 49.0019 483.455 48.9322 483.836 48.9322C484.284 48.9322 484.669 49.0166 484.991 49.1852C485.321 49.3466 485.589 49.5482 485.794 49.7902C486.007 50.0322 486.161 50.2962 486.256 50.5822C486.359 50.8682 486.41 51.1322 486.41 51.3742V52.0782H482.01ZM483.836 49.7462C483.594 49.7462 483.367 49.7866 483.154 49.8672C482.949 49.9406 482.766 50.0469 482.604 50.1862C482.45 50.3256 482.322 50.4906 482.219 50.6812C482.124 50.8646 482.062 51.0662 482.032 51.2862H485.552C485.538 51.0516 485.479 50.8389 485.376 50.6482C485.281 50.4576 485.153 50.2962 484.991 50.1642C484.837 50.0322 484.658 49.9296 484.452 49.8562C484.254 49.7829 484.049 49.7462 483.836 49.7462ZM493.366 54.5422H492.508V50.6262C492.508 50.3696 492.449 50.1606 492.332 49.9992C492.214 49.8306 492.027 49.7462 491.771 49.7462C491.529 49.7462 491.331 49.8379 491.177 50.0212C491.03 50.1972 490.957 50.4722 490.957 50.8462V54.5422H490.099V50.5822C490.099 50.3402 490.033 50.1422 489.901 49.9882C489.769 49.8269 489.593 49.7462 489.373 49.7462C489.109 49.7462 488.903 49.8416 488.757 50.0322C488.617 50.2229 488.548 50.4722 488.548 50.7802V54.5422H487.69V49.0862H488.548V49.6802H488.68C488.775 49.4236 488.914 49.2366 489.098 49.1192C489.281 48.9946 489.497 48.9322 489.747 48.9322C490.011 48.9322 490.227 49.0019 490.396 49.1412C490.572 49.2806 490.693 49.4602 490.759 49.6802H490.891C491.14 49.1816 491.536 48.9322 492.079 48.9322C492.489 48.9322 492.805 49.0642 493.025 49.3282C493.252 49.5849 493.366 49.9222 493.366 50.3402V54.5422ZM495.987 50.4942C495.987 50.7582 496.097 50.9599 496.317 51.0992C496.544 51.2386 496.955 51.3302 497.549 51.3742C498.187 51.4256 498.671 51.5796 499.001 51.8362C499.338 52.0856 499.507 52.4522 499.507 52.9362V53.0022C499.507 53.2662 499.452 53.5046 499.342 53.7172C499.239 53.9226 499.093 54.0986 498.902 54.2452C498.719 54.3919 498.491 54.5019 498.22 54.5752C497.956 54.6559 497.666 54.6962 497.351 54.6962C496.926 54.6962 496.559 54.6412 496.251 54.5312C495.95 54.4139 495.697 54.2636 495.492 54.0802C495.294 53.8896 495.144 53.6769 495.041 53.4422C494.938 53.2002 494.88 52.9582 494.865 52.7162L495.679 52.5182C495.716 52.9362 495.877 53.2736 496.163 53.5302C496.449 53.7796 496.83 53.9042 497.307 53.9042C497.71 53.9042 498.033 53.8272 498.275 53.6732C498.524 53.5119 498.649 53.2882 498.649 53.0022C498.649 52.6942 498.528 52.4742 498.286 52.3422C498.044 52.2102 497.652 52.1259 497.109 52.0892C496.478 52.0452 495.994 51.8986 495.657 51.6492C495.32 51.3999 495.151 51.0369 495.151 50.5602V50.4942C495.151 50.2376 495.206 50.0139 495.316 49.8232C495.426 49.6252 495.573 49.4602 495.756 49.3282C495.947 49.1962 496.159 49.0972 496.394 49.0312C496.629 48.9652 496.874 48.9322 497.131 48.9322C497.49 48.9322 497.806 48.9836 498.077 49.0862C498.348 49.1816 498.576 49.3099 498.759 49.4712C498.942 49.6252 499.082 49.8049 499.177 50.0102C499.28 50.2156 499.346 50.4209 499.375 50.6262L498.561 50.8242C498.524 50.4722 498.381 50.1972 498.132 49.9992C497.89 49.8012 497.571 49.7022 497.175 49.7022C497.021 49.7022 496.871 49.7206 496.724 49.7572C496.585 49.7866 496.46 49.8342 496.35 49.9002C496.24 49.9662 496.152 50.0506 496.086 50.1532C496.02 50.2486 495.987 50.3622 495.987 50.4942ZM508.138 49.0862H509.854V46.8422H510.712V49.0862H512.824V49.8782H510.712V53.4202C510.712 53.6402 510.811 53.7502 511.009 53.7502H512.56V54.5422H510.701C510.451 54.5422 510.246 54.4616 510.085 54.3002C509.931 54.1389 509.854 53.9336 509.854 53.6842V49.8782H508.138V49.0862ZM519.02 53.6182H518.888C518.712 53.9849 518.466 54.2562 518.151 54.4322C517.843 54.6082 517.517 54.6962 517.172 54.6962C516.813 54.6962 516.479 54.6376 516.171 54.5202C515.863 54.3956 515.592 54.2159 515.357 53.9812C515.13 53.7392 514.95 53.4459 514.818 53.1012C514.686 52.7566 514.62 52.3569 514.62 51.9022V51.7262C514.62 51.2789 514.686 50.8829 514.818 50.5382C514.95 50.1936 515.13 49.9039 515.357 49.6692C515.592 49.4272 515.863 49.2439 516.171 49.1192C516.479 48.9946 516.805 48.9322 517.15 48.9322C517.524 48.9322 517.861 49.0166 518.162 49.1852C518.47 49.3466 518.712 49.5996 518.888 49.9442H519.02V49.0862H519.878V53.4202C519.878 53.6402 519.977 53.7502 520.175 53.7502H520.45V54.5422H519.867C519.618 54.5422 519.412 54.4616 519.251 54.3002C519.097 54.1389 519.02 53.9336 519.02 53.6842V53.6182ZM517.26 53.8822C517.517 53.8822 517.751 53.8346 517.964 53.7392C518.184 53.6439 518.371 53.5082 518.525 53.3322C518.679 53.1562 518.8 52.9472 518.888 52.7052C518.976 52.4559 519.02 52.1809 519.02 51.8802V51.7482C519.02 51.4549 518.976 51.1872 518.888 50.9452C518.8 50.6959 518.675 50.4832 518.514 50.3072C518.36 50.1312 518.173 49.9956 517.953 49.9002C517.74 49.7976 517.509 49.7462 517.26 49.7462C517.003 49.7462 516.769 49.7939 516.556 49.8892C516.343 49.9846 516.156 50.1202 515.995 50.2962C515.841 50.4649 515.72 50.6739 515.632 50.9232C515.544 51.1652 515.5 51.4329 515.5 51.7262V51.9022C515.5 52.5256 515.661 53.0132 515.984 53.3652C516.314 53.7099 516.739 53.8822 517.26 53.8822ZM522.455 54.5422H521.597V46.8422H522.455V49.9442H522.587C522.778 49.6142 523.042 49.3649 523.379 49.1962C523.717 49.0202 524.083 48.9322 524.479 48.9322C524.817 48.9322 525.136 48.9946 525.436 49.1192C525.737 49.2439 526.001 49.4236 526.228 49.6582C526.463 49.8929 526.646 50.1826 526.778 50.5272C526.918 50.8719 526.987 51.2642 526.987 51.7042V51.9242C526.987 52.3716 526.921 52.7676 526.789 53.1122C526.657 53.4569 526.474 53.7466 526.239 53.9812C526.012 54.2159 525.744 54.3956 525.436 54.5202C525.128 54.6376 524.802 54.6962 524.457 54.6962C524.281 54.6962 524.102 54.6742 523.918 54.6302C523.735 54.5936 523.559 54.5349 523.39 54.4542C523.229 54.3662 523.079 54.2636 522.939 54.1462C522.8 54.0216 522.683 53.8749 522.587 53.7062H522.455V54.5422ZM524.281 53.8822C524.545 53.8822 524.787 53.8382 525.007 53.7502C525.227 53.6549 525.418 53.5229 525.579 53.3542C525.748 53.1856 525.876 52.9802 525.964 52.7382C526.06 52.4962 526.107 52.2249 526.107 51.9242V51.7042C526.107 51.4109 526.06 51.1469 525.964 50.9122C525.876 50.6702 525.748 50.4649 525.579 50.2962C525.418 50.1202 525.224 49.9846 524.996 49.8892C524.776 49.7939 524.538 49.7462 524.281 49.7462C524.025 49.7462 523.786 49.7976 523.566 49.9002C523.346 49.9956 523.152 50.1312 522.983 50.3072C522.822 50.4832 522.694 50.6959 522.598 50.9452C522.503 51.1872 522.455 51.4549 522.455 51.7482V51.8802C522.455 52.1809 522.503 52.4559 522.598 52.7052C522.694 52.9472 522.822 53.1562 522.983 53.3322C523.152 53.5082 523.346 53.6439 523.566 53.7392C523.786 53.8346 524.025 53.8822 524.281 53.8822ZM528.531 53.7502H530.511V47.6342H528.597V46.8422H531.369V53.7502H533.349V54.5422H528.531V53.7502ZM535.893 52.0782C535.915 52.6209 536.084 53.0572 536.399 53.3872C536.714 53.7172 537.154 53.8822 537.719 53.8822C537.976 53.8822 538.199 53.8529 538.39 53.7942C538.581 53.7356 538.742 53.6549 538.874 53.5522C539.013 53.4496 539.123 53.3322 539.204 53.2002C539.292 53.0609 539.362 52.9142 539.413 52.7602L540.227 52.9802C540.073 53.4862 539.787 53.9006 539.369 54.2232C538.958 54.5386 538.401 54.6962 537.697 54.6962C537.308 54.6962 536.949 54.6302 536.619 54.4982C536.296 54.3589 536.018 54.1646 535.783 53.9152C535.548 53.6659 535.365 53.3689 535.233 53.0242C535.101 52.6796 535.035 52.2982 535.035 51.8802V51.6162C535.035 51.2349 535.101 50.8792 535.233 50.5492C535.372 50.2192 535.563 49.9369 535.805 49.7022C536.047 49.4602 536.329 49.2732 536.652 49.1412C536.982 49.0019 537.338 48.9322 537.719 48.9322C538.166 48.9322 538.551 49.0166 538.874 49.1852C539.204 49.3466 539.472 49.5482 539.677 49.7902C539.89 50.0322 540.044 50.2962 540.139 50.5822C540.242 50.8682 540.293 51.1322 540.293 51.3742V52.0782H535.893ZM537.719 49.7462C537.477 49.7462 537.25 49.7866 537.037 49.8672C536.832 49.9406 536.648 50.0469 536.487 50.1862C536.333 50.3256 536.205 50.4906 536.102 50.6812C536.007 50.8646 535.944 51.0662 535.915 51.2862H539.435C539.42 51.0516 539.362 50.8389 539.259 50.6482C539.164 50.4576 539.035 50.2962 538.874 50.1642C538.72 50.0322 538.54 49.9296 538.335 49.8562C538.137 49.7829 537.932 49.7462 537.719 49.7462Z" fill="black"/>
<path d="M169.777 86.1479H174.661V87.0059H172.681V92.9899H174.661V93.8479H169.777V92.9899H171.757V87.0059H169.777V86.1479ZM177.403 93.8479H176.545V88.3919H177.403V89.3159H177.535C177.872 88.5972 178.459 88.2379 179.295 88.2379C179.926 88.2379 180.428 88.4359 180.802 88.8319C181.176 89.2206 181.363 89.8072 181.363 90.5919V93.8479H180.505V90.7679C180.505 90.1959 180.377 89.7669 180.12 89.4809C179.863 89.1949 179.515 89.0519 179.075 89.0519C178.554 89.0519 178.144 89.2316 177.843 89.5909C177.55 89.9429 177.403 90.4159 177.403 91.0099V93.8479ZM186.525 93.8479H184.831L182.928 88.3919H183.94L185.612 93.4519H185.744L187.416 88.3919H188.428L186.525 93.8479ZM195.164 91.1859C195.164 91.6406 195.087 92.0439 194.933 92.3959C194.786 92.7406 194.588 93.0339 194.339 93.2759C194.089 93.5106 193.796 93.6902 193.459 93.8149C193.129 93.9396 192.784 94.0019 192.425 94.0019C192.058 94.0019 191.71 93.9396 191.38 93.8149C191.05 93.6902 190.76 93.5106 190.511 93.2759C190.261 93.0339 190.06 92.7406 189.906 92.3959C189.759 92.0439 189.686 91.6406 189.686 91.1859V91.0539C189.686 90.6066 189.759 90.2106 189.906 89.8659C190.06 89.5139 190.261 89.2169 190.511 88.9749C190.767 88.7329 191.061 88.5496 191.391 88.4249C191.721 88.3002 192.065 88.2379 192.425 88.2379C192.784 88.2379 193.129 88.3002 193.459 88.4249C193.789 88.5496 194.078 88.7329 194.328 88.9749C194.584 89.2169 194.786 89.5139 194.933 89.8659C195.087 90.2106 195.164 90.6066 195.164 91.0539V91.1859ZM192.425 93.1879C192.689 93.1879 192.931 93.1439 193.151 93.0559C193.378 92.9606 193.576 92.8249 193.745 92.6489C193.913 92.4729 194.045 92.2639 194.141 92.0219C194.236 91.7726 194.284 91.4939 194.284 91.1859V91.0539C194.284 90.7606 194.236 90.4929 194.141 90.2509C194.045 90.0016 193.913 89.7889 193.745 89.6129C193.576 89.4369 193.378 89.3012 193.151 89.2059C192.923 89.1032 192.681 89.0519 192.425 89.0519C192.168 89.0519 191.926 89.1032 191.699 89.2059C191.471 89.3012 191.273 89.4369 191.105 89.6129C190.936 89.7889 190.804 90.0016 190.709 90.2509C190.613 90.4929 190.566 90.7606 190.566 91.0539V91.1859C190.566 91.4939 190.613 91.7726 190.709 92.0219C190.804 92.2639 190.936 92.4729 191.105 92.6489C191.273 92.8249 191.468 92.9606 191.688 93.0559C191.915 93.1439 192.161 93.1879 192.425 93.1879ZM198.445 86.7639C198.445 86.5512 198.518 86.3716 198.665 86.2249C198.819 86.0709 199.002 85.9939 199.215 85.9939C199.428 85.9939 199.607 86.0709 199.754 86.2249C199.908 86.3716 199.985 86.5512 199.985 86.7639C199.985 86.9766 199.908 87.1599 199.754 87.3139C199.607 87.4606 199.428 87.5339 199.215 87.5339C199.002 87.5339 198.819 87.4606 198.665 87.3139C198.518 87.1599 198.445 86.9766 198.445 86.7639ZM196.883 93.0559H198.797V89.1839H197.081V88.3919H199.655V93.0559H201.437V93.8479H196.883V93.0559ZM208.59 91.9119C208.532 92.2126 208.429 92.4912 208.282 92.7479C208.143 93.0046 207.963 93.2282 207.743 93.4189C207.523 93.6022 207.267 93.7452 206.973 93.8479C206.68 93.9506 206.354 94.0019 205.994 94.0019C205.613 94.0019 205.25 93.9396 204.905 93.8149C204.568 93.6902 204.271 93.5106 204.014 93.2759C203.758 93.0339 203.552 92.7406 203.398 92.3959C203.252 92.0512 203.178 91.6552 203.178 91.2079V91.0759C203.178 90.6359 203.252 90.2399 203.398 89.8879C203.552 89.5359 203.758 89.2389 204.014 88.9969C204.271 88.7549 204.568 88.5679 204.905 88.4359C205.25 88.3039 205.613 88.2379 205.994 88.2379C206.339 88.2379 206.658 88.2892 206.951 88.3919C207.245 88.4946 207.501 88.6412 207.721 88.8319C207.949 89.0152 208.132 89.2352 208.271 89.4919C208.418 89.7486 208.517 90.0272 208.568 90.3279L207.71 90.5259C207.688 90.3352 207.633 90.1519 207.545 89.9759C207.465 89.7926 207.351 89.6349 207.204 89.5029C207.065 89.3636 206.893 89.2536 206.687 89.1729C206.482 89.0922 206.244 89.0519 205.972 89.0519C205.708 89.0519 205.459 89.1032 205.224 89.2059C204.997 89.3012 204.795 89.4406 204.619 89.6239C204.443 89.7999 204.304 90.0126 204.201 90.2619C204.106 90.5112 204.058 90.7826 204.058 91.0759V91.2079C204.058 91.5159 204.106 91.7946 204.201 92.0439C204.304 92.2859 204.443 92.4912 204.619 92.6599C204.795 92.8286 205.001 92.9606 205.235 93.0559C205.47 93.1439 205.723 93.1879 205.994 93.1879C206.266 93.1879 206.5 93.1476 206.698 93.0669C206.904 92.9789 207.076 92.8689 207.215 92.7369C207.362 92.5976 207.476 92.4399 207.556 92.2639C207.644 92.0879 207.703 91.9046 207.732 91.7139L208.59 91.9119ZM210.849 91.3839C210.871 91.9266 211.039 92.3629 211.355 92.6929C211.67 93.0229 212.11 93.1879 212.675 93.1879C212.931 93.1879 213.155 93.1586 213.346 93.0999C213.536 93.0412 213.698 92.9606 213.83 92.8579C213.969 92.7552 214.079 92.6379 214.16 92.5059C214.248 92.3666 214.317 92.2199 214.369 92.0659L215.183 92.2859C215.029 92.7919 214.743 93.2062 214.325 93.5289C213.914 93.8442 213.357 94.0019 212.653 94.0019C212.264 94.0019 211.905 93.9359 211.575 93.8039C211.252 93.6646 210.973 93.4702 210.739 93.2209C210.504 92.9716 210.321 92.6746 210.189 92.3299C210.057 91.9852 209.991 91.6039 209.991 91.1859V90.9219C209.991 90.5406 210.057 90.1849 210.189 89.8549C210.328 89.5249 210.519 89.2426 210.761 89.0079C211.003 88.7659 211.285 88.5789 211.608 88.4469C211.938 88.3076 212.293 88.2379 212.675 88.2379C213.122 88.2379 213.507 88.3222 213.83 88.4909C214.16 88.6522 214.427 88.8539 214.633 89.0959C214.845 89.3379 214.999 89.6019 215.095 89.8879C215.197 90.1739 215.249 90.4379 215.249 90.6799V91.3839H210.849ZM212.675 89.0519C212.433 89.0519 212.205 89.0922 211.993 89.1729C211.787 89.2462 211.604 89.3526 211.443 89.4919C211.289 89.6312 211.16 89.7962 211.058 89.9869C210.962 90.1702 210.9 90.3719 210.871 90.5919H214.391C214.376 90.3572 214.317 90.1446 214.215 89.9539C214.119 89.7632 213.991 89.6019 213.83 89.4699C213.676 89.3379 213.496 89.2352 213.291 89.1619C213.093 89.0886 212.887 89.0519 212.675 89.0519ZM216.924 86.1479H221.808V87.0059H219.828V92.9899H221.808V93.8479H216.924V92.9899H218.904V87.0059H216.924V86.1479ZM223.538 86.1479H226.068C227.022 86.1479 227.718 86.3752 228.158 86.8299C228.598 87.2846 228.818 88.0106 228.818 89.0079V90.9879C228.818 91.9852 228.598 92.7112 228.158 93.1659C227.718 93.6206 227.022 93.8479 226.068 93.8479H223.538V92.9789H224.198V87.0059H223.538V86.1479ZM225.936 92.9899C226.274 92.9899 226.563 92.9569 226.805 92.8909C227.055 92.8249 227.26 92.7149 227.421 92.5609C227.583 92.3996 227.7 92.1869 227.773 91.9229C227.854 91.6589 227.894 91.3252 227.894 90.9219V89.0739C227.894 88.6706 227.854 88.3369 227.773 88.0729C227.7 87.8089 227.583 87.5999 227.421 87.4459C227.26 87.2846 227.055 87.1709 226.805 87.1049C226.563 87.0389 226.274 87.0059 225.936 87.0059H225.122V92.9899H225.936ZM242.212 94.7499V95.5639H241.816C241.303 95.5639 240.811 95.4686 240.342 95.2779C239.873 95.0872 239.458 94.8086 239.099 94.4419C238.74 94.0826 238.454 93.6462 238.241 93.1329C238.028 92.6196 237.922 92.0366 237.922 91.3839V88.6119C237.922 87.9666 238.028 87.3872 238.241 86.8739C238.454 86.3532 238.74 85.9132 239.099 85.5539C239.458 85.1872 239.873 84.9086 240.342 84.7179C240.811 84.5272 241.303 84.4319 241.816 84.4319H242.212V85.2459H241.816C241.42 85.2459 241.039 85.3266 240.672 85.4879C240.305 85.6419 239.983 85.8656 239.704 86.1589C239.425 86.4522 239.202 86.8116 239.033 87.2369C238.864 87.6549 238.78 88.1279 238.78 88.6559V91.3399C238.78 91.8679 238.864 92.3446 239.033 92.7699C239.202 93.1879 239.425 93.5436 239.704 93.8369C239.983 94.1302 240.305 94.3539 240.672 94.5079C241.039 94.6692 241.42 94.7499 241.816 94.7499H242.212ZM244.8 90.6799V93.8479H243.876V86.1479H246.626C247.022 86.1479 247.367 86.2066 247.66 86.3239C247.954 86.4339 248.196 86.5842 248.386 86.7749C248.584 86.9656 248.731 87.1892 248.826 87.4459C248.929 87.6952 248.98 87.9592 248.98 88.2379V88.5679C248.98 88.8466 248.929 89.1142 248.826 89.3709C248.731 89.6276 248.584 89.8549 248.386 90.0529C248.188 90.2436 247.943 90.3976 247.649 90.5149C247.356 90.6249 247.015 90.6799 246.626 90.6799H244.8ZM244.8 89.8219H246.516C247.543 89.8219 248.056 89.3819 248.056 88.5019V88.3039C248.056 87.9152 247.928 87.6036 247.671 87.3689C247.422 87.1269 247.037 87.0059 246.516 87.0059H244.8V89.8219ZM251.58 93.8479H250.656V86.1479H251.58V89.5579H251.833L254.792 86.1479H255.936V86.2139L252.746 89.9319V90.0639L256.068 93.7819V93.8479H254.902L251.833 90.4159H251.58V93.8479ZM257.534 94.7499C257.93 94.7499 258.312 94.6692 258.678 94.5079C259.045 94.3539 259.368 94.1302 259.646 93.8369C259.925 93.5436 260.149 93.1879 260.317 92.7699C260.486 92.3446 260.57 91.8679 260.57 91.3399V88.6559C260.57 88.1279 260.486 87.6549 260.317 87.2369C260.149 86.8116 259.925 86.4522 259.646 86.1589C259.368 85.8656 259.045 85.6419 258.678 85.4879C258.312 85.3266 257.93 85.2459 257.534 85.2459H257.138V84.4319H257.534C258.048 84.4319 258.539 84.5272 259.008 84.7179C259.478 84.9086 259.892 85.1872 260.251 85.5539C260.611 85.9132 260.897 86.3532 261.109 86.8739C261.322 87.3872 261.428 87.9666 261.428 88.6119V91.3839C261.428 92.0366 261.322 92.6196 261.109 93.1329C260.897 93.6462 260.611 94.0826 260.251 94.4419C259.892 94.8086 259.478 95.0872 259.008 95.2779C258.539 95.4686 258.048 95.5639 257.534 95.5639H257.138V94.7499H257.534Z" fill="black"/>
<path d="M444.306 86.1479H449.19V87.0059H447.21V92.9899H449.19V93.8479H444.306V92.9899H446.286V87.0059H444.306V86.1479ZM451.932 93.8479H451.074V88.3919H451.932V89.3159H452.064C452.402 88.5972 452.988 88.2379 453.824 88.2379C454.455 88.2379 454.957 88.4359 455.331 88.8319C455.705 89.2206 455.892 89.8072 455.892 90.5919V93.8479H455.034V90.7679C455.034 90.1959 454.906 89.7669 454.649 89.4809C454.393 89.1949 454.044 89.0519 453.604 89.0519C453.084 89.0519 452.673 89.2316 452.372 89.5909C452.079 89.9429 451.932 90.4159 451.932 91.0099V93.8479ZM461.055 93.8479H459.361L457.458 88.3919H458.47L460.142 93.4519H460.274L461.946 88.3919H462.958L461.055 93.8479ZM469.693 91.1859C469.693 91.6406 469.616 92.0439 469.462 92.3959C469.315 92.7406 469.117 93.0339 468.868 93.2759C468.619 93.5106 468.325 93.6902 467.988 93.8149C467.658 93.9396 467.313 94.0019 466.954 94.0019C466.587 94.0019 466.239 93.9396 465.909 93.8149C465.579 93.6902 465.289 93.5106 465.04 93.2759C464.791 93.0339 464.589 92.7406 464.435 92.3959C464.288 92.0439 464.215 91.6406 464.215 91.1859V91.0539C464.215 90.6066 464.288 90.2106 464.435 89.8659C464.589 89.5139 464.791 89.2169 465.04 88.9749C465.297 88.7329 465.59 88.5496 465.92 88.4249C466.25 88.3002 466.595 88.2379 466.954 88.2379C467.313 88.2379 467.658 88.3002 467.988 88.4249C468.318 88.5496 468.608 88.7329 468.857 88.9749C469.114 89.2169 469.315 89.5139 469.462 89.8659C469.616 90.2106 469.693 90.6066 469.693 91.0539V91.1859ZM466.954 93.1879C467.218 93.1879 467.46 93.1439 467.68 93.0559C467.907 92.9606 468.105 92.8249 468.274 92.6489C468.443 92.4729 468.575 92.2639 468.67 92.0219C468.765 91.7726 468.813 91.4939 468.813 91.1859V91.0539C468.813 90.7606 468.765 90.4929 468.67 90.2509C468.575 90.0016 468.443 89.7889 468.274 89.6129C468.105 89.4369 467.907 89.3012 467.68 89.2059C467.453 89.1032 467.211 89.0519 466.954 89.0519C466.697 89.0519 466.455 89.1032 466.228 89.2059C466.001 89.3012 465.803 89.4369 465.634 89.6129C465.465 89.7889 465.333 90.0016 465.238 90.2509C465.143 90.4929 465.095 90.7606 465.095 91.0539V91.1859C465.095 91.4939 465.143 91.7726 465.238 92.0219C465.333 92.2639 465.465 92.4729 465.634 92.6489C465.803 92.8249 465.997 92.9606 466.217 93.0559C466.444 93.1439 466.69 93.1879 466.954 93.1879ZM472.974 86.7639C472.974 86.5512 473.048 86.3716 473.194 86.2249C473.348 86.0709 473.532 85.9939 473.744 85.9939C473.957 85.9939 474.137 86.0709 474.283 86.2249C474.437 86.3716 474.514 86.5512 474.514 86.7639C474.514 86.9766 474.437 87.1599 474.283 87.3139C474.137 87.4606 473.957 87.5339 473.744 87.5339C473.532 87.5339 473.348 87.4606 473.194 87.3139C473.048 87.1599 472.974 86.9766 472.974 86.7639ZM471.412 93.0559H473.326V89.1839H471.61V88.3919H474.184V93.0559H475.966V93.8479H471.412V93.0559ZM483.12 91.9119C483.061 92.2126 482.958 92.4912 482.812 92.7479C482.672 93.0046 482.493 93.2282 482.273 93.4189C482.053 93.6022 481.796 93.7452 481.503 93.8479C481.209 93.9506 480.883 94.0019 480.524 94.0019C480.142 94.0019 479.779 93.9396 479.435 93.8149C479.097 93.6902 478.8 93.5106 478.544 93.2759C478.287 93.0339 478.082 92.7406 477.928 92.3959C477.781 92.0512 477.708 91.6552 477.708 91.2079V91.0759C477.708 90.6359 477.781 90.2399 477.928 89.8879C478.082 89.5359 478.287 89.2389 478.544 88.9969C478.8 88.7549 479.097 88.5679 479.435 88.4359C479.779 88.3039 480.142 88.2379 480.524 88.2379C480.868 88.2379 481.187 88.2892 481.481 88.3919C481.774 88.4946 482.031 88.6412 482.251 88.8319C482.478 89.0152 482.661 89.2352 482.801 89.4919C482.947 89.7486 483.046 90.0272 483.098 90.3279L482.24 90.5259C482.218 90.3352 482.163 90.1519 482.075 89.9759C481.994 89.7926 481.88 89.6349 481.734 89.5029C481.594 89.3636 481.422 89.2536 481.217 89.1729C481.011 89.0922 480.773 89.0519 480.502 89.0519C480.238 89.0519 479.988 89.1032 479.754 89.2059C479.526 89.3012 479.325 89.4406 479.149 89.6239C478.973 89.7999 478.833 90.0126 478.731 90.2619C478.635 90.5112 478.588 90.7826 478.588 91.0759V91.2079C478.588 91.5159 478.635 91.7946 478.731 92.0439C478.833 92.2859 478.973 92.4912 479.149 92.6599C479.325 92.8286 479.53 92.9606 479.765 93.0559C479.999 93.1439 480.252 93.1879 480.524 93.1879C480.795 93.1879 481.03 93.1476 481.228 93.0669C481.433 92.9789 481.605 92.8689 481.745 92.7369C481.891 92.5976 482.005 92.4399 482.086 92.2639C482.174 92.0879 482.232 91.9046 482.262 91.7139L483.12 91.9119ZM485.378 91.3839C485.4 91.9266 485.569 92.3629 485.884 92.6929C486.199 93.0229 486.639 93.1879 487.204 93.1879C487.461 93.1879 487.684 93.1586 487.875 93.0999C488.066 93.0412 488.227 92.9606 488.359 92.8579C488.498 92.7552 488.608 92.6379 488.689 92.5059C488.777 92.3666 488.847 92.2199 488.898 92.0659L489.712 92.2859C489.558 92.7919 489.272 93.2062 488.854 93.5289C488.443 93.8442 487.886 94.0019 487.182 94.0019C486.793 94.0019 486.434 93.9359 486.104 93.8039C485.781 93.6646 485.503 93.4702 485.268 93.2209C485.033 92.9716 484.85 92.6746 484.718 92.3299C484.586 91.9852 484.52 91.6039 484.52 91.1859V90.9219C484.52 90.5406 484.586 90.1849 484.718 89.8549C484.857 89.5249 485.048 89.2426 485.29 89.0079C485.532 88.7659 485.814 88.5789 486.137 88.4469C486.467 88.3076 486.823 88.2379 487.204 88.2379C487.651 88.2379 488.036 88.3222 488.359 88.4909C488.689 88.6522 488.957 88.8539 489.162 89.0959C489.375 89.3379 489.529 89.6019 489.624 89.8879C489.727 90.1739 489.778 90.4379 489.778 90.6799V91.3839H485.378ZM487.204 89.0519C486.962 89.0519 486.735 89.0922 486.522 89.1729C486.317 89.2462 486.133 89.3526 485.972 89.4919C485.818 89.6312 485.69 89.7962 485.587 89.9869C485.492 90.1702 485.429 90.3719 485.4 90.5919H488.92C488.905 90.3572 488.847 90.1446 488.744 89.9539C488.649 89.7632 488.52 89.6019 488.359 89.4699C488.205 89.3379 488.025 89.2352 487.82 89.1619C487.622 89.0886 487.417 89.0519 487.204 89.0519ZM491.486 86.1479H492.41V92.9899H496.436V93.8479H491.486V86.1479ZM499.916 86.7639C499.916 86.5512 499.989 86.3716 500.136 86.2249C500.29 86.0709 500.473 85.9939 500.686 85.9939C500.898 85.9939 501.078 86.0709 501.225 86.2249C501.379 86.3716 501.456 86.5512 501.456 86.7639C501.456 86.9766 501.379 87.1599 501.225 87.3139C501.078 87.4606 500.898 87.5339 500.686 87.5339C500.473 87.5339 500.29 87.4606 500.136 87.3139C499.989 87.1599 499.916 86.9766 499.916 86.7639ZM498.354 93.0559H500.268V89.1839H498.552V88.3919H501.126V93.0559H502.908V93.8479H498.354V93.0559ZM505.815 93.8479H504.957V88.3919H505.815V89.3159H505.947C506.284 88.5972 506.871 88.2379 507.707 88.2379C508.338 88.2379 508.84 88.4359 509.214 88.8319C509.588 89.2206 509.775 89.8072 509.775 90.5919V93.8479H508.917V90.7679C508.917 90.1959 508.789 89.7669 508.532 89.4809C508.275 89.1949 507.927 89.0519 507.487 89.0519C506.966 89.0519 506.556 89.2316 506.255 89.5909C505.962 89.9429 505.815 90.4159 505.815 91.0099V93.8479ZM512.32 91.3839C512.342 91.9266 512.51 92.3629 512.826 92.6929C513.141 93.0229 513.581 93.1879 514.146 93.1879C514.402 93.1879 514.626 93.1586 514.817 93.0999C515.007 93.0412 515.169 92.9606 515.301 92.8579C515.44 92.7552 515.55 92.6379 515.631 92.5059C515.719 92.3666 515.788 92.2199 515.84 92.0659L516.654 92.2859C516.5 92.7919 516.214 93.2062 515.796 93.5289C515.385 93.8442 514.828 94.0019 514.124 94.0019C513.735 94.0019 513.376 93.9359 513.046 93.8039C512.723 93.6646 512.444 93.4702 512.21 93.2209C511.975 92.9716 511.792 92.6746 511.66 92.3299C511.528 91.9852 511.462 91.6039 511.462 91.1859V90.9219C511.462 90.5406 511.528 90.1849 511.66 89.8549C511.799 89.5249 511.99 89.2426 512.232 89.0079C512.474 88.7659 512.756 88.5789 513.079 88.4469C513.409 88.3076 513.764 88.2379 514.146 88.2379C514.593 88.2379 514.978 88.3222 515.301 88.4909C515.631 88.6522 515.898 88.8539 516.104 89.0959C516.316 89.3379 516.47 89.6019 516.566 89.8879C516.668 90.1739 516.72 90.4379 516.72 90.6799V91.3839H512.32ZM514.146 89.0519C513.904 89.0519 513.676 89.0922 513.464 89.1729C513.258 89.2462 513.075 89.3526 512.914 89.4919C512.76 89.6312 512.631 89.7962 512.529 89.9869C512.433 90.1702 512.371 90.3719 512.342 90.5919H515.862C515.847 90.3572 515.788 90.1446 515.686 89.9539C515.59 89.7632 515.462 89.6019 515.301 89.4699C515.147 89.3379 514.967 89.2352 514.762 89.1619C514.564 89.0886 514.358 89.0519 514.146 89.0519ZM518.395 86.1479H523.279V87.0059H521.299V92.9899H523.279V93.8479H518.395V92.9899H520.375V87.0059H518.395V86.1479ZM525.009 86.1479H527.539C528.493 86.1479 529.189 86.3752 529.629 86.8299C530.069 87.2846 530.289 88.0106 530.289 89.0079V90.9879C530.289 91.9852 530.069 92.7112 529.629 93.1659C529.189 93.6206 528.493 93.8479 527.539 93.8479H525.009V92.9789H525.669V87.0059H525.009V86.1479ZM527.407 92.9899C527.745 92.9899 528.034 92.9569 528.276 92.8909C528.526 92.8249 528.731 92.7149 528.892 92.5609C529.054 92.3996 529.171 92.1869 529.244 91.9229C529.325 91.6589 529.365 91.3252 529.365 90.9219V89.0739C529.365 88.6706 529.325 88.3369 529.244 88.0729C529.171 87.8089 529.054 87.5999 528.892 87.4459C528.731 87.2846 528.526 87.1709 528.276 87.1049C528.034 87.0389 527.745 87.0059 527.407 87.0059H526.593V92.9899H527.407ZM543.683 94.7499V95.5639H543.287C542.774 95.5639 542.282 95.4686 541.813 95.2779C541.344 95.0872 540.929 94.8086 540.57 94.4419C540.211 94.0826 539.925 93.6462 539.712 93.1329C539.499 92.6196 539.393 92.0366 539.393 91.3839V88.6119C539.393 87.9666 539.499 87.3872 539.712 86.8739C539.925 86.3532 540.211 85.9132 540.57 85.5539C540.929 85.1872 541.344 84.9086 541.813 84.7179C542.282 84.5272 542.774 84.4319 543.287 84.4319H543.683V85.2459H543.287C542.891 85.2459 542.51 85.3266 542.143 85.4879C541.776 85.6419 541.454 85.8656 541.175 86.1589C540.896 86.4522 540.673 86.8116 540.504 87.2369C540.335 87.6549 540.251 88.1279 540.251 88.6559V91.3399C540.251 91.8679 540.335 92.3446 540.504 92.7699C540.673 93.1879 540.896 93.5436 541.175 93.8369C541.454 94.1302 541.776 94.3539 542.143 94.5079C542.51 94.6692 542.891 94.7499 543.287 94.7499H543.683ZM546.271 90.6799V93.8479H545.347V86.1479H548.097C548.493 86.1479 548.838 86.2066 549.131 86.3239C549.425 86.4339 549.667 86.5842 549.857 86.7749C550.055 86.9656 550.202 87.1892 550.297 87.4459C550.4 87.6952 550.451 87.9592 550.451 88.2379V88.5679C550.451 88.8466 550.4 89.1142 550.297 89.3709C550.202 89.6276 550.055 89.8549 549.857 90.0529C549.659 90.2436 549.414 90.3976 549.12 90.5149C548.827 90.6249 548.486 90.6799 548.097 90.6799H546.271ZM546.271 89.8219H547.987C549.014 89.8219 549.527 89.3819 549.527 88.5019V88.3039C549.527 87.9152 549.399 87.6036 549.142 87.3689C548.893 87.1269 548.508 87.0059 547.987 87.0059H546.271V89.8219ZM553.051 93.8479H552.127V86.1479H553.051V89.5579H553.304L556.263 86.1479H557.407V86.2139L554.217 89.9319V90.0639L557.539 93.7819V93.8479H556.373L553.304 90.4159H553.051V93.8479ZM559.005 94.7499C559.401 94.7499 559.782 94.6692 560.149 94.5079C560.516 94.3539 560.838 94.1302 561.117 93.8369C561.396 93.5436 561.619 93.1879 561.788 92.7699C561.957 92.3446 562.041 91.8679 562.041 91.3399V88.6559C562.041 88.1279 561.957 87.6549 561.788 87.2369C561.619 86.8116 561.396 86.4522 561.117 86.1589C560.838 85.8656 560.516 85.6419 560.149 85.4879C559.782 85.3266 559.401 85.2459 559.005 85.2459H558.609V84.4319H559.005C559.518 84.4319 560.01 84.5272 560.479 84.7179C560.948 84.9086 561.363 85.1872 561.722 85.5539C562.081 85.9132 562.367 86.3532 562.58 86.8739C562.793 87.3872 562.899 87.9666 562.899 88.6119V91.3839C562.899 92.0366 562.793 92.6196 562.58 93.1329C562.367 93.6462 562.081 94.0826 561.722 94.4419C561.363 94.8086 560.948 95.0872 560.479 95.2779C560.01 95.4686 559.518 95.5639 559.005 95.5639H558.609V94.7499H559.005Z" fill="black"/>
<path d="M457.777 234.415H462.661V235.273H460.681V241.257H462.661V242.115H457.777V241.257H459.757V235.273H457.777V234.415ZM465.403 242.115H464.545V236.659H465.403V237.583H465.535C465.872 236.864 466.459 236.505 467.295 236.505C467.926 236.505 468.428 236.703 468.802 237.099C469.176 237.487 469.363 238.074 469.363 238.859V242.115H468.505V239.035C468.505 238.463 468.377 238.034 468.12 237.748C467.863 237.462 467.515 237.319 467.075 237.319C466.554 237.319 466.144 237.498 465.843 237.858C465.55 238.21 465.403 238.683 465.403 239.277V242.115ZM474.525 242.115H472.831L470.928 236.659H471.94L473.612 241.719H473.744L475.416 236.659H476.428L474.525 242.115ZM483.164 239.453C483.164 239.907 483.087 240.311 482.933 240.663C482.786 241.007 482.588 241.301 482.339 241.543C482.089 241.777 481.796 241.957 481.459 242.082C481.129 242.206 480.784 242.269 480.425 242.269C480.058 242.269 479.71 242.206 479.38 242.082C479.05 241.957 478.76 241.777 478.511 241.543C478.261 241.301 478.06 241.007 477.906 240.663C477.759 240.311 477.686 239.907 477.686 239.453V239.321C477.686 238.873 477.759 238.477 477.906 238.133C478.06 237.781 478.261 237.484 478.511 237.242C478.767 237 479.061 236.816 479.391 236.692C479.721 236.567 480.065 236.505 480.425 236.505C480.784 236.505 481.129 236.567 481.459 236.692C481.789 236.816 482.078 237 482.328 237.242C482.584 237.484 482.786 237.781 482.933 238.133C483.087 238.477 483.164 238.873 483.164 239.321V239.453ZM480.425 241.455C480.689 241.455 480.931 241.411 481.151 241.323C481.378 241.227 481.576 241.092 481.745 240.916C481.913 240.74 482.045 240.531 482.141 240.289C482.236 240.039 482.284 239.761 482.284 239.453V239.321C482.284 239.027 482.236 238.76 482.141 238.518C482.045 238.268 481.913 238.056 481.745 237.88C481.576 237.704 481.378 237.568 481.151 237.473C480.923 237.37 480.681 237.319 480.425 237.319C480.168 237.319 479.926 237.37 479.699 237.473C479.471 237.568 479.273 237.704 479.105 237.88C478.936 238.056 478.804 238.268 478.709 238.518C478.613 238.76 478.566 239.027 478.566 239.321V239.453C478.566 239.761 478.613 240.039 478.709 240.289C478.804 240.531 478.936 240.74 479.105 240.916C479.273 241.092 479.468 241.227 479.688 241.323C479.915 241.411 480.161 241.455 480.425 241.455ZM486.445 235.031C486.445 234.818 486.518 234.638 486.665 234.492C486.819 234.338 487.002 234.261 487.215 234.261C487.428 234.261 487.607 234.338 487.754 234.492C487.908 234.638 487.985 234.818 487.985 235.031C487.985 235.243 487.908 235.427 487.754 235.581C487.607 235.727 487.428 235.801 487.215 235.801C487.002 235.801 486.819 235.727 486.665 235.581C486.518 235.427 486.445 235.243 486.445 235.031ZM484.883 241.323H486.797V237.451H485.081V236.659H487.655V241.323H489.437V242.115H484.883V241.323ZM496.59 240.179C496.532 240.479 496.429 240.758 496.282 241.015C496.143 241.271 495.963 241.495 495.743 241.686C495.523 241.869 495.267 242.012 494.973 242.115C494.68 242.217 494.354 242.269 493.994 242.269C493.613 242.269 493.25 242.206 492.905 242.082C492.568 241.957 492.271 241.777 492.014 241.543C491.758 241.301 491.552 241.007 491.398 240.663C491.252 240.318 491.178 239.922 491.178 239.475V239.343C491.178 238.903 491.252 238.507 491.398 238.155C491.552 237.803 491.758 237.506 492.014 237.264C492.271 237.022 492.568 236.835 492.905 236.703C493.25 236.571 493.613 236.505 493.994 236.505C494.339 236.505 494.658 236.556 494.951 236.659C495.245 236.761 495.501 236.908 495.721 237.099C495.949 237.282 496.132 237.502 496.271 237.759C496.418 238.015 496.517 238.294 496.568 238.595L495.71 238.793C495.688 238.602 495.633 238.419 495.545 238.243C495.465 238.059 495.351 237.902 495.204 237.77C495.065 237.63 494.893 237.52 494.687 237.44C494.482 237.359 494.244 237.319 493.972 237.319C493.708 237.319 493.459 237.37 493.224 237.473C492.997 237.568 492.795 237.707 492.619 237.891C492.443 238.067 492.304 238.279 492.201 238.529C492.106 238.778 492.058 239.049 492.058 239.343V239.475C492.058 239.783 492.106 240.061 492.201 240.311C492.304 240.553 492.443 240.758 492.619 240.927C492.795 241.095 493.001 241.227 493.235 241.323C493.47 241.411 493.723 241.455 493.994 241.455C494.266 241.455 494.5 241.414 494.698 241.334C494.904 241.246 495.076 241.136 495.215 241.004C495.362 240.864 495.476 240.707 495.556 240.531C495.644 240.355 495.703 240.171 495.732 239.981L496.59 240.179ZM498.849 239.651C498.871 240.193 499.039 240.63 499.355 240.96C499.67 241.29 500.11 241.455 500.675 241.455C500.931 241.455 501.155 241.425 501.346 241.367C501.536 241.308 501.698 241.227 501.83 241.125C501.969 241.022 502.079 240.905 502.16 240.773C502.248 240.633 502.317 240.487 502.369 240.333L503.183 240.553C503.029 241.059 502.743 241.473 502.325 241.796C501.914 242.111 501.357 242.269 500.653 242.269C500.264 242.269 499.905 242.203 499.575 242.071C499.252 241.931 498.973 241.737 498.739 241.488C498.504 241.238 498.321 240.941 498.189 240.597C498.057 240.252 497.991 239.871 497.991 239.453V239.189C497.991 238.807 498.057 238.452 498.189 238.122C498.328 237.792 498.519 237.509 498.761 237.275C499.003 237.033 499.285 236.846 499.608 236.714C499.938 236.574 500.293 236.505 500.675 236.505C501.122 236.505 501.507 236.589 501.83 236.758C502.16 236.919 502.427 237.121 502.633 237.363C502.845 237.605 502.999 237.869 503.095 238.155C503.197 238.441 503.249 238.705 503.249 238.947V239.651H498.849ZM500.675 237.319C500.433 237.319 500.205 237.359 499.993 237.44C499.787 237.513 499.604 237.619 499.443 237.759C499.289 237.898 499.16 238.063 499.058 238.254C498.962 238.437 498.9 238.639 498.871 238.859H502.391C502.376 238.624 502.317 238.411 502.215 238.221C502.119 238.03 501.991 237.869 501.83 237.737C501.676 237.605 501.496 237.502 501.291 237.429C501.093 237.355 500.887 237.319 500.675 237.319ZM504.924 234.415H509.808V235.273H507.828V241.257H509.808V242.115H504.924V241.257H506.904V235.273H504.924V234.415ZM511.539 234.415H514.069C515.022 234.415 515.719 234.642 516.159 235.097C516.599 235.551 516.819 236.277 516.819 237.275V239.255C516.819 240.252 516.599 240.978 516.159 241.433C515.719 241.887 515.022 242.115 514.069 242.115H511.539V241.246H512.199V235.273H511.539V234.415ZM513.937 241.257C514.274 241.257 514.564 241.224 514.806 241.158C515.055 241.092 515.26 240.982 515.422 240.828C515.583 240.666 515.7 240.454 515.774 240.19C515.854 239.926 515.895 239.592 515.895 239.189V237.341C515.895 236.937 515.854 236.604 515.774 236.34C515.7 236.076 515.583 235.867 515.422 235.713C515.26 235.551 515.055 235.438 514.806 235.372C514.564 235.306 514.274 235.273 513.937 235.273H513.123V241.257H513.937ZM530.212 243.017V243.831H529.816C529.303 243.831 528.812 243.735 528.342 243.545C527.873 243.354 527.459 243.075 527.099 242.709C526.74 242.349 526.454 241.913 526.241 241.4C526.029 240.886 525.922 240.303 525.922 239.651V236.879C525.922 236.233 526.029 235.654 526.241 235.141C526.454 234.62 526.74 234.18 527.099 233.821C527.459 233.454 527.873 233.175 528.342 232.985C528.812 232.794 529.303 232.699 529.816 232.699H530.212V233.513H529.816C529.42 233.513 529.039 233.593 528.672 233.755C528.306 233.909 527.983 234.132 527.704 234.426C527.426 234.719 527.202 235.078 527.033 235.504C526.865 235.922 526.78 236.395 526.78 236.923V239.607C526.78 240.135 526.865 240.611 527.033 241.037C527.202 241.455 527.426 241.81 527.704 242.104C527.983 242.397 528.306 242.621 528.672 242.775C529.039 242.936 529.42 243.017 529.816 243.017H530.212ZM531.987 234.415H536.717V235.273H532.911V237.825H536.651V238.683H532.911V242.115H531.987V234.415ZM539.58 242.115H538.656V234.415H539.58V237.825H539.833L542.792 234.415H543.936V234.481L540.746 238.199V238.331L544.068 242.049V242.115H542.902L539.833 238.683H539.58V242.115ZM545.534 243.017C545.93 243.017 546.312 242.936 546.678 242.775C547.045 242.621 547.368 242.397 547.646 242.104C547.925 241.81 548.149 241.455 548.317 241.037C548.486 240.611 548.57 240.135 548.57 239.607V236.923C548.57 236.395 548.486 235.922 548.317 235.504C548.149 235.078 547.925 234.719 547.646 234.426C547.368 234.132 547.045 233.909 546.678 233.755C546.312 233.593 545.93 233.513 545.534 233.513H545.138V232.699H545.534C546.048 232.699 546.539 232.794 547.008 232.985C547.478 233.175 547.892 233.454 548.251 233.821C548.611 234.18 548.897 234.62 549.109 235.141C549.322 235.654 549.428 236.233 549.428 236.879V239.651C549.428 240.303 549.322 240.886 549.109 241.4C548.897 241.913 548.611 242.349 548.251 242.709C547.892 243.075 547.478 243.354 547.008 243.545C546.539 243.735 546.048 243.831 545.534 243.831H545.138V243.017H545.534Z" fill="black"/>
<path d="M496.493 190.077C496.493 189.864 496.566 189.684 496.713 189.538C496.867 189.384 497.05 189.307 497.263 189.307C497.476 189.307 497.655 189.384 497.802 189.538C497.956 189.684 498.033 189.864 498.033 190.077C498.033 190.289 497.956 190.473 497.802 190.627C497.655 190.773 497.476 190.847 497.263 190.847C497.05 190.847 496.867 190.773 496.713 190.627C496.566 190.473 496.493 190.289 496.493 190.077ZM503.228 190.077C503.228 189.864 503.302 189.684 503.448 189.538C503.602 189.384 503.786 189.307 503.998 189.307C504.211 189.307 504.391 189.384 504.537 189.538C504.691 189.684 504.768 189.864 504.768 190.077C504.768 190.289 504.691 190.473 504.537 190.627C504.391 190.773 504.211 190.847 503.998 190.847C503.786 190.847 503.602 190.773 503.448 190.627C503.302 190.473 503.228 190.289 503.228 190.077ZM509.964 190.077C509.964 189.864 510.037 189.684 510.184 189.538C510.338 189.384 510.521 189.307 510.734 189.307C510.947 189.307 511.126 189.384 511.273 189.538C511.427 189.684 511.504 189.864 511.504 190.077C511.504 190.289 511.427 190.473 511.273 190.627C511.126 190.773 510.947 190.847 510.734 190.847C510.521 190.847 510.338 190.773 510.184 190.627C510.037 190.473 509.964 190.289 509.964 190.077Z" fill="black"/>
<path d="M496.493 140.654C496.493 140.442 496.566 140.262 496.713 140.115C496.867 139.961 497.05 139.884 497.263 139.884C497.476 139.884 497.655 139.961 497.802 140.115C497.956 140.262 498.033 140.442 498.033 140.654C498.033 140.867 497.956 141.05 497.802 141.204C497.655 141.351 497.476 141.424 497.263 141.424C497.05 141.424 496.867 141.351 496.713 141.204C496.566 141.05 496.493 140.867 496.493 140.654ZM503.228 140.654C503.228 140.442 503.302 140.262 503.448 140.115C503.602 139.961 503.786 139.884 503.998 139.884C504.211 139.884 504.391 139.961 504.537 140.115C504.691 140.262 504.768 140.442 504.768 140.654C504.768 140.867 504.691 141.05 504.537 141.204C504.391 141.351 504.211 141.424 503.998 141.424C503.786 141.424 503.602 141.351 503.448 141.204C503.302 141.05 503.228 140.867 503.228 140.654ZM509.964 140.654C509.964 140.442 510.037 140.262 510.184 140.115C510.338 139.961 510.521 139.884 510.734 139.884C510.947 139.884 511.126 139.961 511.273 140.115C511.427 140.262 511.504 140.442 511.504 140.654C511.504 140.867 511.427 141.05 511.273 141.204C511.126 141.351 510.947 141.424 510.734 141.424C510.521 141.424 510.338 141.351 510.184 141.204C510.037 141.05 509.964 140.867 509.964 140.654Z" fill="black"/>
<path d="M208.493 190.077C208.493 189.864 208.566 189.684 208.713 189.538C208.867 189.384 209.05 189.307 209.263 189.307C209.476 189.307 209.655 189.384 209.802 189.538C209.956 189.684 210.033 189.864 210.033 190.077C210.033 190.289 209.956 190.473 209.802 190.627C209.655 190.773 209.476 190.847 209.263 190.847C209.05 190.847 208.867 190.773 208.713 190.627C208.566 190.473 208.493 190.289 208.493 190.077ZM215.228 190.077C215.228 189.864 215.302 189.684 215.448 189.538C215.602 189.384 215.786 189.307 215.998 189.307C216.211 189.307 216.391 189.384 216.537 189.538C216.691 189.684 216.768 189.864 216.768 190.077C216.768 190.289 216.691 190.473 216.537 190.627C216.391 190.773 216.211 190.847 215.998 190.847C215.786 190.847 215.602 190.773 215.448 190.627C215.302 190.473 215.228 190.289 215.228 190.077ZM221.964 190.077C221.964 189.864 222.037 189.684 222.184 189.538C222.338 189.384 222.521 189.307 222.734 189.307C222.946 189.307 223.126 189.384 223.273 189.538C223.427 189.684 223.504 189.864 223.504 190.077C223.504 190.289 223.427 190.473 223.273 190.627C223.126 190.773 222.946 190.847 222.734 190.847C222.521 190.847 222.338 190.773 222.184 190.627C222.037 190.473 221.964 190.289 221.964 190.077Z" fill="black"/>
<path d="M208.493 239.254C208.493 239.041 208.566 238.861 208.713 238.715C208.867 238.561 209.05 238.484 209.263 238.484C209.476 238.484 209.655 238.561 209.802 238.715C209.956 238.861 210.033 239.041 210.033 239.254C210.033 239.466 209.956 239.65 209.802 239.804C209.655 239.95 209.476 240.024 209.263 240.024C209.05 240.024 208.867 239.95 208.713 239.804C208.566 239.65 208.493 239.466 208.493 239.254ZM215.228 239.254C215.228 239.041 215.302 238.861 215.448 238.715C215.602 238.561 215.786 238.484 215.998 238.484C216.211 238.484 216.391 238.561 216.537 238.715C216.691 238.861 216.768 239.041 216.768 239.254C216.768 239.466 216.691 239.65 216.537 239.804C216.391 239.95 216.211 240.024 215.998 240.024C215.786 240.024 215.602 239.95 215.448 239.804C215.302 239.65 215.228 239.466 215.228 239.254ZM221.964 239.254C221.964 239.041 222.037 238.861 222.184 238.715C222.338 238.561 222.521 238.484 222.734 238.484C222.946 238.484 223.126 238.561 223.273 238.715C223.427 238.861 223.504 239.041 223.504 239.254C223.504 239.466 223.427 239.65 223.273 239.804C223.126 239.95 222.946 240.024 222.734 240.024C222.521 240.024 222.338 239.95 222.184 239.804C222.037 239.65 221.964 239.466 221.964 239.254Z" fill="black"/>
<path d="M208.493 140.654C208.493 140.442 208.566 140.262 208.713 140.115C208.867 139.961 209.05 139.884 209.263 139.884C209.476 139.884 209.655 139.961 209.802 140.115C209.956 140.262 210.033 140.442 210.033 140.654C210.033 140.867 209.956 141.05 209.802 141.204C209.655 141.351 209.476 141.424 209.263 141.424C209.05 141.424 208.867 141.351 208.713 141.204C208.566 141.05 208.493 140.867 208.493 140.654ZM215.228 140.654C215.228 140.442 215.302 140.262 215.448 140.115C215.602 139.961 215.786 139.884 215.998 139.884C216.211 139.884 216.391 139.961 216.537 140.115C216.691 140.262 216.768 140.442 216.768 140.654C216.768 140.867 216.691 141.05 216.537 141.204C216.391 141.351 216.211 141.424 215.998 141.424C215.786 141.424 215.602 141.351 215.448 141.204C215.302 141.05 215.228 140.867 215.228 140.654ZM221.964 140.654C221.964 140.442 222.037 140.262 222.184 140.115C222.338 139.961 222.521 139.884 222.734 139.884C222.946 139.884 223.126 139.961 223.273 140.115C223.427 140.262 223.504 140.442 223.504 140.654C223.504 140.867 223.427 141.05 223.273 141.204C223.126 141.351 222.946 141.424 222.734 141.424C222.521 141.424 222.338 141.351 222.184 141.204C222.037 141.05 221.964 140.867 221.964 140.654Z" fill="black"/>
<line x1="142" y1="66.6904" x2="290" y2="66.6904" stroke="#8A99A0"/>
<line x1="430" y1="66.6904" x2="578" y2="66.6904" stroke="#8A99A0"/>
<line x1="142" y1="115.49" x2="290" y2="115.49" stroke="#8A99A0"/>
<line x1="430" y1="115.49" x2="578" y2="115.49" stroke="#8A99A0"/>
<line x1="142" y1="164.29" x2="290" y2="164.29" stroke="#8A99A0"/>
<line x1="430" y1="164.29" x2="578" y2="164.29" stroke="#8A99A0"/>
<line x1="142" y1="213.09" x2="290" y2="213.09" stroke="#8A99A0"/>
<line x1="430" y1="213.09" x2="578" y2="213.09" stroke="#8A99A0"/>
<path d="M421.5 140.39L299 140.39" stroke="#8A99A0"/>
<path d="M421.5 121.89H403.5V158.89H421.5" stroke="#8A99A0"/>
<path d="M142 89.5L106 89.5" stroke="#8A99A0"/>
<path d="M614 89.5L578 89.5" stroke="#8A99A0"/>
<path d="M614 238.423L578 238.423" stroke="#8A99A0"/>
</svg>
