<svg width="720" height="260" viewBox="0 0 720 260" fill="none" xmlns="http://www.w3.org/2000/svg">
<rect width="720" height="260" fill="white"/>
<rect x="13.6298" y="22.5842" width="299.71" height="214.832" rx="7.5103" fill="#F3F3F3" stroke="#8A99A0"/>
<path d="M113.967 55.7H114.135V46.404H115.311V56.204H112.959L110.131 46.908H109.963V56.204H108.787V46.404H111.139L113.967 55.7ZM124.107 52.816C124.107 53.3946 124.009 53.908 123.813 54.356C123.627 54.7946 123.375 55.168 123.057 55.476C122.74 55.7746 122.367 56.0033 121.937 56.162C121.517 56.3206 121.079 56.4 120.621 56.4C120.155 56.4 119.711 56.3206 119.291 56.162C118.871 56.0033 118.503 55.7746 118.185 55.476C117.868 55.168 117.611 54.7946 117.415 54.356C117.229 53.908 117.135 53.3946 117.135 52.816V52.648C117.135 52.0786 117.229 51.5746 117.415 51.136C117.611 50.688 117.868 50.31 118.185 50.002C118.512 49.694 118.885 49.4606 119.305 49.302C119.725 49.1433 120.164 49.064 120.621 49.064C121.079 49.064 121.517 49.1433 121.937 49.302C122.357 49.4606 122.726 49.694 123.043 50.002C123.37 50.31 123.627 50.688 123.813 51.136C124.009 51.5746 124.107 52.0786 124.107 52.648V52.816ZM120.621 55.364C120.957 55.364 121.265 55.308 121.545 55.196C121.835 55.0746 122.087 54.902 122.301 54.678C122.516 54.454 122.684 54.188 122.805 53.88C122.927 53.5626 122.987 53.208 122.987 52.816V52.648C122.987 52.2746 122.927 51.934 122.805 51.626C122.684 51.3086 122.516 51.038 122.301 50.814C122.087 50.59 121.835 50.4173 121.545 50.296C121.256 50.1653 120.948 50.1 120.621 50.1C120.295 50.1 119.987 50.1653 119.697 50.296C119.408 50.4173 119.156 50.59 118.941 50.814C118.727 51.038 118.559 51.3086 118.437 51.626C118.316 51.934 118.255 52.2746 118.255 52.648V52.816C118.255 53.208 118.316 53.5626 118.437 53.88C118.559 54.188 118.727 54.454 118.941 54.678C119.156 54.902 119.403 55.0746 119.683 55.196C119.973 55.308 120.285 55.364 120.621 55.364ZM127.22 56.204H126.128V49.26H127.22V50.436H127.388C127.817 49.5213 128.564 49.064 129.628 49.064C130.43 49.064 131.07 49.316 131.546 49.82C132.022 50.3146 132.26 51.0613 132.26 52.06V56.204H131.168V52.284C131.168 51.556 131.004 51.01 130.678 50.646C130.351 50.282 129.908 50.1 129.348 50.1C128.685 50.1 128.162 50.3286 127.78 50.786C127.406 51.234 127.22 51.836 127.22 52.592V56.204ZM142.88 49.26H145.4V50.184H145.568C145.745 49.8013 145.997 49.5213 146.324 49.344C146.651 49.1573 147.024 49.064 147.444 49.064C148.144 49.064 148.709 49.2926 149.138 49.75C149.567 50.2073 149.796 50.8746 149.824 51.752L148.676 51.92C148.676 51.276 148.522 50.814 148.214 50.534C147.906 50.2446 147.528 50.1 147.08 50.1C146.791 50.1 146.539 50.156 146.324 50.268C146.119 50.38 145.946 50.534 145.806 50.73C145.666 50.926 145.563 51.1546 145.498 51.416C145.433 51.6773 145.4 51.9573 145.4 52.256V55.196H147.164V56.204H142.712V55.196H144.308V50.268H142.88V49.26ZM152.642 53.068C152.67 53.7586 152.885 54.314 153.286 54.734C153.688 55.154 154.248 55.364 154.966 55.364C155.293 55.364 155.578 55.3266 155.82 55.252C156.063 55.1773 156.268 55.0746 156.436 54.944C156.614 54.8133 156.754 54.664 156.856 54.496C156.968 54.3186 157.057 54.132 157.122 53.936L158.158 54.216C157.962 54.86 157.598 55.3873 157.066 55.798C156.544 56.1993 155.834 56.4 154.938 56.4C154.444 56.4 153.986 56.316 153.566 56.148C153.156 55.9706 152.801 55.7233 152.502 55.406C152.204 55.0886 151.97 54.7106 151.802 54.272C151.634 53.8333 151.55 53.348 151.55 52.816V52.48C151.55 51.9946 151.634 51.542 151.802 51.122C151.98 50.702 152.222 50.3426 152.53 50.044C152.838 49.736 153.198 49.498 153.608 49.33C154.028 49.1526 154.481 49.064 154.966 49.064C155.536 49.064 156.026 49.1713 156.436 49.386C156.856 49.5913 157.197 49.848 157.458 50.156C157.729 50.464 157.925 50.8 158.046 51.164C158.177 51.528 158.242 51.864 158.242 52.172V53.068H152.642ZM154.966 50.1C154.658 50.1 154.369 50.1513 154.098 50.254C153.837 50.3473 153.604 50.4826 153.398 50.66C153.202 50.8373 153.039 51.0473 152.908 51.29C152.787 51.5233 152.708 51.78 152.67 52.06H157.15C157.132 51.7613 157.057 51.4906 156.926 51.248C156.805 51.0053 156.642 50.8 156.436 50.632C156.24 50.464 156.012 50.3333 155.75 50.24C155.498 50.1466 155.237 50.1 154.966 50.1ZM165.457 55.028H165.289C165.065 55.4946 164.752 55.84 164.351 56.064C163.959 56.288 163.543 56.4 163.105 56.4C162.647 56.4 162.223 56.3253 161.831 56.176C161.439 56.0173 161.093 55.7886 160.795 55.49C160.505 55.182 160.277 54.8086 160.109 54.37C159.941 53.9313 159.857 53.4226 159.857 52.844V52.62C159.857 52.0506 159.941 51.5466 160.109 51.108C160.277 50.6693 160.505 50.3006 160.795 50.002C161.093 49.694 161.439 49.4606 161.831 49.302C162.223 49.1433 162.638 49.064 163.077 49.064C163.553 49.064 163.982 49.1713 164.365 49.386C164.757 49.5913 165.065 49.9133 165.289 50.352H165.457V49.26H166.549V54.776C166.549 55.056 166.675 55.196 166.927 55.196H167.277V56.204H166.535C166.217 56.204 165.956 56.1013 165.751 55.896C165.555 55.6906 165.457 55.4293 165.457 55.112V55.028ZM163.217 55.364C163.543 55.364 163.842 55.3033 164.113 55.182C164.393 55.0606 164.631 54.888 164.827 54.664C165.023 54.44 165.177 54.174 165.289 53.866C165.401 53.5486 165.457 53.1986 165.457 52.816V52.648C165.457 52.2746 165.401 51.934 165.289 51.626C165.177 51.3086 165.018 51.038 164.813 50.814C164.617 50.59 164.379 50.4173 164.099 50.296C163.828 50.1653 163.534 50.1 163.217 50.1C162.89 50.1 162.591 50.1606 162.321 50.282C162.05 50.4033 161.812 50.576 161.607 50.8C161.411 51.0146 161.257 51.2806 161.145 51.598C161.033 51.906 160.977 52.2466 160.977 52.62V52.844C160.977 53.6373 161.182 54.258 161.593 54.706C162.013 55.1446 162.554 55.364 163.217 55.364ZM168.989 55.196H171.509V47.412H169.073V46.404H172.601V55.196H175.121V56.204H168.989V55.196ZM178.527 52.06H182.727V53.068H178.527V52.06ZM185.895 49.26H188.079V46.404H189.171V49.26H191.859V50.268H189.171V54.776C189.171 55.056 189.297 55.196 189.549 55.196H191.523V56.204H189.157C188.84 56.204 188.579 56.1013 188.373 55.896C188.177 55.6906 188.079 55.4293 188.079 55.112V50.268H185.895V49.26ZM196.862 47.188C196.862 46.9173 196.955 46.6886 197.142 46.502C197.338 46.306 197.571 46.208 197.842 46.208C198.112 46.208 198.341 46.306 198.528 46.502C198.724 46.6886 198.822 46.9173 198.822 47.188C198.822 47.4586 198.724 47.692 198.528 47.888C198.341 48.0746 198.112 48.168 197.842 48.168C197.571 48.168 197.338 48.0746 197.142 47.888C196.955 47.692 196.862 47.4586 196.862 47.188ZM194.874 55.196H197.31V50.268H195.126V49.26H198.402V55.196H200.67V56.204H194.874V55.196ZM209.956 56.204H208.864V51.22C208.864 50.8933 208.789 50.6273 208.64 50.422C208.491 50.2073 208.253 50.1 207.926 50.1C207.618 50.1 207.366 50.2166 207.17 50.45C206.983 50.674 206.89 51.024 206.89 51.5V56.204H205.798V51.164C205.798 50.856 205.714 50.604 205.546 50.408C205.378 50.2026 205.154 50.1 204.874 50.1C204.538 50.1 204.277 50.2213 204.09 50.464C203.913 50.7066 203.824 51.024 203.824 51.416V56.204H202.732V49.26H203.824V50.016H203.992C204.113 49.6893 204.291 49.4513 204.524 49.302C204.757 49.1433 205.033 49.064 205.35 49.064C205.686 49.064 205.961 49.1526 206.176 49.33C206.4 49.5073 206.554 49.736 206.638 50.016H206.806C207.123 49.3813 207.627 49.064 208.318 49.064C208.841 49.064 209.242 49.232 209.522 49.568C209.811 49.8946 209.956 50.324 209.956 50.856V56.204ZM212.648 53.068C212.676 53.7586 212.891 54.314 213.292 54.734C213.694 55.154 214.254 55.364 214.972 55.364C215.299 55.364 215.584 55.3266 215.826 55.252C216.069 55.1773 216.274 55.0746 216.442 54.944C216.62 54.8133 216.76 54.664 216.862 54.496C216.974 54.3186 217.063 54.132 217.128 53.936L218.164 54.216C217.968 54.86 217.604 55.3873 217.072 55.798C216.55 56.1993 215.84 56.4 214.944 56.4C214.45 56.4 213.992 56.316 213.572 56.148C213.162 55.9706 212.807 55.7233 212.508 55.406C212.21 55.0886 211.976 54.7106 211.808 54.272C211.64 53.8333 211.556 53.348 211.556 52.816V52.48C211.556 51.9946 211.64 51.542 211.808 51.122C211.986 50.702 212.228 50.3426 212.536 50.044C212.844 49.736 213.204 49.498 213.614 49.33C214.034 49.1526 214.487 49.064 214.972 49.064C215.542 49.064 216.032 49.1713 216.442 49.386C216.862 49.5913 217.203 49.848 217.464 50.156C217.735 50.464 217.931 50.8 218.052 51.164C218.183 51.528 218.248 51.864 218.248 52.172V53.068H212.648ZM214.972 50.1C214.664 50.1 214.375 50.1513 214.104 50.254C213.843 50.3473 213.61 50.4826 213.404 50.66C213.208 50.8373 213.045 51.0473 212.914 51.29C212.793 51.5233 212.714 51.78 212.676 52.06H217.156C217.138 51.7613 217.063 51.4906 216.932 51.248C216.811 51.0053 216.648 50.8 216.442 50.632C216.246 50.464 216.018 50.3333 215.756 50.24C215.504 50.1466 215.243 50.1 214.972 50.1Z" fill="black"/>
<path d="M146.165 142.736C145.97 142.931 145.97 143.247 146.165 143.443L149.347 146.625C149.542 146.82 149.859 146.82 150.054 146.625C150.25 146.429 150.25 146.113 150.054 145.918L147.226 143.089L150.054 140.261C150.25 140.065 150.25 139.749 150.054 139.554C149.859 139.358 149.542 139.358 149.347 139.554L146.165 142.736ZM180.804 143.443C181 143.247 181 142.931 180.804 142.736L177.623 139.554C177.427 139.358 177.111 139.358 176.915 139.554C176.72 139.749 176.72 140.065 176.915 140.261L179.744 143.089L176.915 145.918C176.72 146.113 176.72 146.429 176.915 146.625C177.111 146.82 177.427 146.82 177.623 146.625L180.804 143.443ZM146.519 143.589H180.451V142.589H146.519V143.589Z" fill="#8A99A0"/>
<rect x="188.417" y="85.5892" width="115" height="115" rx="3.5" fill="white" stroke="#8A99A0"/>
<path d="M230.392 166.946C230.392 166.697 230.341 166.477 230.238 166.286C230.143 166.096 230.011 165.938 229.842 165.813C229.673 165.689 229.479 165.593 229.259 165.527C229.039 165.461 228.808 165.428 228.566 165.428C228.353 165.428 228.152 165.458 227.961 165.516C227.77 165.568 227.598 165.645 227.444 165.747C227.297 165.85 227.18 165.978 227.092 166.132C227.004 166.279 226.96 166.451 226.96 166.649V166.715C226.96 166.928 227.004 167.111 227.092 167.265C227.18 167.412 227.308 167.54 227.477 167.65C227.653 167.753 227.869 167.841 228.126 167.914C228.383 167.98 228.683 168.039 229.028 168.09C229.835 168.215 230.429 168.453 230.81 168.805C231.191 169.15 231.382 169.616 231.382 170.202V170.334C231.382 170.664 231.323 170.969 231.206 171.247C231.096 171.519 230.927 171.753 230.7 171.951C230.48 172.149 230.205 172.303 229.875 172.413C229.545 172.523 229.164 172.578 228.731 172.578C228.24 172.578 227.803 172.509 227.422 172.369C227.048 172.223 226.733 172.025 226.476 171.775C226.227 171.519 226.036 171.222 225.904 170.884C225.772 170.54 225.706 170.166 225.706 169.762V169.432H226.63V169.696C226.63 170.371 226.813 170.877 227.18 171.214C227.554 171.552 228.071 171.72 228.731 171.72C229.303 171.72 229.732 171.596 230.018 171.346C230.311 171.09 230.458 170.752 230.458 170.334V170.268C230.458 169.865 230.308 169.557 230.007 169.344C229.714 169.132 229.233 168.978 228.566 168.882C228.177 168.831 227.825 168.754 227.51 168.651C227.202 168.541 226.938 168.402 226.718 168.233C226.498 168.057 226.329 167.848 226.212 167.606C226.095 167.364 226.036 167.078 226.036 166.748V166.616C226.036 166.316 226.098 166.041 226.223 165.791C226.348 165.542 226.52 165.326 226.74 165.142C226.967 164.959 227.235 164.82 227.543 164.724C227.858 164.622 228.203 164.57 228.577 164.57C229.01 164.57 229.395 164.633 229.732 164.757C230.077 164.882 230.366 165.051 230.601 165.263C230.836 165.469 231.012 165.714 231.129 166C231.254 166.279 231.316 166.572 231.316 166.88V167.342H230.392V166.946ZM238.051 169.762C238.051 170.217 237.974 170.62 237.82 170.972C237.674 171.317 237.476 171.61 237.226 171.852C236.977 172.087 236.684 172.267 236.346 172.391C236.016 172.516 235.672 172.578 235.312 172.578C234.946 172.578 234.597 172.516 234.267 172.391C233.937 172.267 233.648 172.087 233.398 171.852C233.149 171.61 232.947 171.317 232.793 170.972C232.647 170.62 232.573 170.217 232.573 169.762V169.63C232.573 169.183 232.647 168.787 232.793 168.442C232.947 168.09 233.149 167.793 233.398 167.551C233.655 167.309 233.948 167.126 234.278 167.001C234.608 166.877 234.953 166.814 235.312 166.814C235.672 166.814 236.016 166.877 236.346 167.001C236.676 167.126 236.966 167.309 237.215 167.551C237.472 167.793 237.674 168.09 237.82 168.442C237.974 168.787 238.051 169.183 238.051 169.63V169.762ZM235.312 171.764C235.576 171.764 235.818 171.72 236.038 171.632C236.266 171.537 236.464 171.401 236.632 171.225C236.801 171.049 236.933 170.84 237.028 170.598C237.124 170.349 237.171 170.07 237.171 169.762V169.63C237.171 169.337 237.124 169.069 237.028 168.827C236.933 168.578 236.801 168.365 236.632 168.189C236.464 168.013 236.266 167.878 236.038 167.782C235.811 167.68 235.569 167.628 235.312 167.628C235.056 167.628 234.814 167.68 234.586 167.782C234.359 167.878 234.161 168.013 233.992 168.189C233.824 168.365 233.692 168.578 233.596 168.827C233.501 169.069 233.453 169.337 233.453 169.63V169.762C233.453 170.07 233.501 170.349 233.596 170.598C233.692 170.84 233.824 171.049 233.992 171.225C234.161 171.401 234.355 171.537 234.575 171.632C234.803 171.72 235.048 171.764 235.312 171.764ZM243.533 166.968H244.391V172.424H243.533V171.434H243.401C243.225 171.786 242.994 172.065 242.708 172.27C242.422 172.476 242.059 172.578 241.619 172.578C241.318 172.578 241.039 172.527 240.783 172.424C240.533 172.329 240.317 172.182 240.134 171.984C239.958 171.786 239.818 171.541 239.716 171.247C239.62 170.954 239.573 170.613 239.573 170.224V166.968H240.431V170.114C240.431 170.686 240.548 171.104 240.783 171.368C241.017 171.632 241.377 171.764 241.861 171.764C242.381 171.764 242.788 171.588 243.082 171.236C243.382 170.877 243.533 170.4 243.533 169.806V166.968ZM246.066 166.968H248.046V167.694H248.178C248.317 167.394 248.515 167.174 248.772 167.034C249.029 166.888 249.322 166.814 249.652 166.814C250.202 166.814 250.646 166.994 250.983 167.353C251.32 167.713 251.5 168.237 251.522 168.926L250.62 169.058C250.62 168.552 250.499 168.189 250.257 167.969C250.015 167.742 249.718 167.628 249.366 167.628C249.139 167.628 248.941 167.672 248.772 167.76C248.611 167.848 248.475 167.969 248.365 168.123C248.255 168.277 248.174 168.457 248.123 168.662C248.072 168.868 248.046 169.088 248.046 169.322V171.632H249.432V172.424H245.934V171.632H247.188V167.76H246.066V166.968ZM258.213 170.488C258.155 170.789 258.052 171.068 257.905 171.324C257.766 171.581 257.586 171.805 257.366 171.995C257.146 172.179 256.89 172.322 256.596 172.424C256.303 172.527 255.977 172.578 255.617 172.578C255.236 172.578 254.873 172.516 254.528 172.391C254.191 172.267 253.894 172.087 253.637 171.852C253.381 171.61 253.175 171.317 253.021 170.972C252.875 170.628 252.801 170.232 252.801 169.784V169.652C252.801 169.212 252.875 168.816 253.021 168.464C253.175 168.112 253.381 167.815 253.637 167.573C253.894 167.331 254.191 167.144 254.528 167.012C254.873 166.88 255.236 166.814 255.617 166.814C255.962 166.814 256.281 166.866 256.574 166.968C256.868 167.071 257.124 167.218 257.344 167.408C257.572 167.592 257.755 167.812 257.894 168.068C258.041 168.325 258.14 168.604 258.191 168.904L257.333 169.102C257.311 168.912 257.256 168.728 257.168 168.552C257.088 168.369 256.974 168.211 256.827 168.079C256.688 167.94 256.516 167.83 256.31 167.749C256.105 167.669 255.867 167.628 255.595 167.628C255.331 167.628 255.082 167.68 254.847 167.782C254.62 167.878 254.418 168.017 254.242 168.2C254.066 168.376 253.927 168.589 253.824 168.838C253.729 169.088 253.681 169.359 253.681 169.652V169.784C253.681 170.092 253.729 170.371 253.824 170.62C253.927 170.862 254.066 171.068 254.242 171.236C254.418 171.405 254.624 171.537 254.858 171.632C255.093 171.72 255.346 171.764 255.617 171.764C255.889 171.764 256.123 171.724 256.321 171.643C256.527 171.555 256.699 171.445 256.838 171.313C256.985 171.174 257.099 171.016 257.179 170.84C257.267 170.664 257.326 170.481 257.355 170.29L258.213 170.488ZM260.472 169.96C260.494 170.503 260.662 170.939 260.978 171.269C261.293 171.599 261.733 171.764 262.298 171.764C262.554 171.764 262.778 171.735 262.969 171.676C263.159 171.618 263.321 171.537 263.453 171.434C263.592 171.332 263.702 171.214 263.783 171.082C263.871 170.943 263.94 170.796 263.992 170.642L264.806 170.862C264.652 171.368 264.366 171.783 263.948 172.105C263.537 172.421 262.98 172.578 262.276 172.578C261.887 172.578 261.528 172.512 261.198 172.38C260.875 172.241 260.596 172.047 260.362 171.797C260.127 171.548 259.944 171.251 259.812 170.906C259.68 170.562 259.614 170.18 259.614 169.762V169.498C259.614 169.117 259.68 168.761 259.812 168.431C259.951 168.101 260.142 167.819 260.384 167.584C260.626 167.342 260.908 167.155 261.231 167.023C261.561 166.884 261.916 166.814 262.298 166.814C262.745 166.814 263.13 166.899 263.453 167.067C263.783 167.229 264.05 167.43 264.256 167.672C264.468 167.914 264.622 168.178 264.718 168.464C264.82 168.75 264.872 169.014 264.872 169.256V169.96H260.472ZM262.298 167.628C262.056 167.628 261.828 167.669 261.616 167.749C261.41 167.823 261.227 167.929 261.066 168.068C260.912 168.208 260.783 168.373 260.681 168.563C260.585 168.747 260.523 168.948 260.494 169.168H264.014C263.999 168.934 263.94 168.721 263.838 168.53C263.742 168.34 263.614 168.178 263.453 168.046C263.299 167.914 263.119 167.812 262.914 167.738C262.716 167.665 262.51 167.628 262.298 167.628ZM223.657 184.588H223.525C223.437 184.757 223.323 184.904 223.184 185.028C223.052 185.153 222.905 185.256 222.744 185.336C222.59 185.417 222.425 185.476 222.249 185.512C222.073 185.556 221.904 185.578 221.743 185.578C221.376 185.578 221.035 185.516 220.72 185.391C220.404 185.267 220.126 185.087 219.884 184.852C219.649 184.618 219.462 184.328 219.323 183.983C219.191 183.631 219.125 183.232 219.125 182.784V182.608C219.125 182.168 219.194 181.776 219.334 181.431C219.473 181.079 219.66 180.786 219.895 180.551C220.129 180.309 220.404 180.126 220.72 180.001C221.035 179.877 221.369 179.814 221.721 179.814C222.095 179.814 222.443 179.899 222.766 180.067C223.096 180.229 223.349 180.482 223.525 180.826H223.657V177.724H224.515V185.424H223.657V184.588ZM221.831 184.764C222.087 184.764 222.326 184.717 222.546 184.621C222.766 184.526 222.956 184.39 223.118 184.214C223.286 184.038 223.418 183.829 223.514 183.587C223.609 183.338 223.657 183.063 223.657 182.762V182.63C223.657 182.337 223.609 182.069 223.514 181.827C223.418 181.578 223.286 181.365 223.118 181.189C222.956 181.013 222.762 180.878 222.535 180.782C222.315 180.68 222.08 180.628 221.831 180.628C221.574 180.628 221.332 180.676 221.105 180.771C220.885 180.867 220.69 181.002 220.522 181.178C220.36 181.354 220.232 181.563 220.137 181.805C220.049 182.047 220.005 182.315 220.005 182.608V182.784C220.005 183.092 220.049 183.367 220.137 183.609C220.232 183.851 220.36 184.06 220.522 184.236C220.69 184.405 220.885 184.537 221.105 184.632C221.325 184.72 221.567 184.764 221.831 184.764ZM230.128 184.5H229.996C229.82 184.867 229.574 185.138 229.259 185.314C228.951 185.49 228.625 185.578 228.28 185.578C227.921 185.578 227.587 185.52 227.279 185.402C226.971 185.278 226.7 185.098 226.465 184.863C226.238 184.621 226.058 184.328 225.926 183.983C225.794 183.639 225.728 183.239 225.728 182.784V182.608C225.728 182.161 225.794 181.765 225.926 181.42C226.058 181.076 226.238 180.786 226.465 180.551C226.7 180.309 226.971 180.126 227.279 180.001C227.587 179.877 227.913 179.814 228.258 179.814C228.632 179.814 228.969 179.899 229.27 180.067C229.578 180.229 229.82 180.482 229.996 180.826H230.128V179.968H230.986V184.302C230.986 184.522 231.085 184.632 231.283 184.632H231.558V185.424H230.975C230.726 185.424 230.52 185.344 230.359 185.182C230.205 185.021 230.128 184.816 230.128 184.566V184.5ZM228.368 184.764C228.625 184.764 228.859 184.717 229.072 184.621C229.292 184.526 229.479 184.39 229.633 184.214C229.787 184.038 229.908 183.829 229.996 183.587C230.084 183.338 230.128 183.063 230.128 182.762V182.63C230.128 182.337 230.084 182.069 229.996 181.827C229.908 181.578 229.783 181.365 229.622 181.189C229.468 181.013 229.281 180.878 229.061 180.782C228.848 180.68 228.617 180.628 228.368 180.628C228.111 180.628 227.877 180.676 227.664 180.771C227.451 180.867 227.264 181.002 227.103 181.178C226.949 181.347 226.828 181.556 226.74 181.805C226.652 182.047 226.608 182.315 226.608 182.608V182.784C226.608 183.408 226.769 183.895 227.092 184.247C227.422 184.592 227.847 184.764 228.368 184.764ZM232.716 179.968H234.432V177.724H235.29V179.968H237.402V180.76H235.29V184.302C235.29 184.522 235.389 184.632 235.587 184.632H237.138V185.424H235.279C235.03 185.424 234.825 185.344 234.663 185.182C234.509 185.021 234.432 184.816 234.432 184.566V180.76H232.716V179.968ZM243.599 184.5H243.467C243.291 184.867 243.045 185.138 242.73 185.314C242.422 185.49 242.095 185.578 241.751 185.578C241.391 185.578 241.058 185.52 240.75 185.402C240.442 185.278 240.17 185.098 239.936 184.863C239.708 184.621 239.529 184.328 239.397 183.983C239.265 183.639 239.199 183.239 239.199 182.784V182.608C239.199 182.161 239.265 181.765 239.397 181.42C239.529 181.076 239.708 180.786 239.936 180.551C240.17 180.309 240.442 180.126 240.75 180.001C241.058 179.877 241.384 179.814 241.729 179.814C242.103 179.814 242.44 179.899 242.741 180.067C243.049 180.229 243.291 180.482 243.467 180.826H243.599V179.968H244.457V184.302C244.457 184.522 244.556 184.632 244.754 184.632H245.029V185.424H244.446C244.196 185.424 243.991 185.344 243.83 185.182C243.676 185.021 243.599 184.816 243.599 184.566V184.5ZM241.839 184.764C242.095 184.764 242.33 184.717 242.543 184.621C242.763 184.526 242.95 184.39 243.104 184.214C243.258 184.038 243.379 183.829 243.467 183.587C243.555 183.338 243.599 183.063 243.599 182.762V182.63C243.599 182.337 243.555 182.069 243.467 181.827C243.379 181.578 243.254 181.365 243.093 181.189C242.939 181.013 242.752 180.878 242.532 180.782C242.319 180.68 242.088 180.628 241.839 180.628C241.582 180.628 241.347 180.676 241.135 180.771C240.922 180.867 240.735 181.002 240.574 181.178C240.42 181.347 240.299 181.556 240.211 181.805C240.123 182.047 240.079 182.315 240.079 182.608V182.784C240.079 183.408 240.24 183.895 240.563 184.247C240.893 184.592 241.318 184.764 241.839 184.764ZM247.034 185.424H246.176V177.724H247.034V180.826H247.166C247.357 180.496 247.621 180.247 247.958 180.078C248.295 179.902 248.662 179.814 249.058 179.814C249.395 179.814 249.714 179.877 250.015 180.001C250.316 180.126 250.58 180.306 250.807 180.54C251.042 180.775 251.225 181.065 251.357 181.409C251.496 181.754 251.566 182.146 251.566 182.586V182.806C251.566 183.254 251.5 183.65 251.368 183.994C251.236 184.339 251.053 184.629 250.818 184.863C250.591 185.098 250.323 185.278 250.015 185.402C249.707 185.52 249.381 185.578 249.036 185.578C248.86 185.578 248.68 185.556 248.497 185.512C248.314 185.476 248.138 185.417 247.969 185.336C247.808 185.248 247.657 185.146 247.518 185.028C247.379 184.904 247.261 184.757 247.166 184.588H247.034V185.424ZM248.86 184.764C249.124 184.764 249.366 184.72 249.586 184.632C249.806 184.537 249.997 184.405 250.158 184.236C250.327 184.068 250.455 183.862 250.543 183.62C250.638 183.378 250.686 183.107 250.686 182.806V182.586C250.686 182.293 250.638 182.029 250.543 181.794C250.455 181.552 250.327 181.347 250.158 181.178C249.997 181.002 249.802 180.867 249.575 180.771C249.355 180.676 249.117 180.628 248.86 180.628C248.603 180.628 248.365 180.68 248.145 180.782C247.925 180.878 247.731 181.013 247.562 181.189C247.401 181.365 247.272 181.578 247.177 181.827C247.082 182.069 247.034 182.337 247.034 182.63V182.762C247.034 183.063 247.082 183.338 247.177 183.587C247.272 183.829 247.401 184.038 247.562 184.214C247.731 184.39 247.925 184.526 248.145 184.621C248.365 184.717 248.603 184.764 248.86 184.764ZM257.069 184.5H256.937C256.761 184.867 256.516 185.138 256.2 185.314C255.892 185.49 255.566 185.578 255.221 185.578C254.862 185.578 254.528 185.52 254.22 185.402C253.912 185.278 253.641 185.098 253.406 184.863C253.179 184.621 252.999 184.328 252.867 183.983C252.735 183.639 252.669 183.239 252.669 182.784V182.608C252.669 182.161 252.735 181.765 252.867 181.42C252.999 181.076 253.179 180.786 253.406 180.551C253.641 180.309 253.912 180.126 254.22 180.001C254.528 179.877 254.855 179.814 255.199 179.814C255.573 179.814 255.911 179.899 256.211 180.067C256.519 180.229 256.761 180.482 256.937 180.826H257.069V179.968H257.927V184.302C257.927 184.522 258.026 184.632 258.224 184.632H258.499V185.424H257.916C257.667 185.424 257.462 185.344 257.3 185.182C257.146 185.021 257.069 184.816 257.069 184.566V184.5ZM255.309 184.764C255.566 184.764 255.801 184.717 256.013 184.621C256.233 184.526 256.42 184.39 256.574 184.214C256.728 184.038 256.849 183.829 256.937 183.587C257.025 183.338 257.069 183.063 257.069 182.762V182.63C257.069 182.337 257.025 182.069 256.937 181.827C256.849 181.578 256.725 181.365 256.563 181.189C256.409 181.013 256.222 180.878 256.002 180.782C255.79 180.68 255.559 180.628 255.309 180.628C255.053 180.628 254.818 180.676 254.605 180.771C254.393 180.867 254.206 181.002 254.044 181.178C253.89 181.347 253.769 181.556 253.681 181.805C253.593 182.047 253.549 182.315 253.549 182.608V182.784C253.549 183.408 253.711 183.895 254.033 184.247C254.363 184.592 254.789 184.764 255.309 184.764ZM260.978 181.376C260.978 181.64 261.088 181.842 261.308 181.981C261.535 182.121 261.946 182.212 262.54 182.256C263.178 182.308 263.662 182.462 263.992 182.718C264.329 182.968 264.498 183.334 264.498 183.818V183.884C264.498 184.148 264.443 184.387 264.333 184.599C264.23 184.805 264.083 184.981 263.893 185.127C263.709 185.274 263.482 185.384 263.211 185.457C262.947 185.538 262.657 185.578 262.342 185.578C261.916 185.578 261.55 185.523 261.242 185.413C260.941 185.296 260.688 185.146 260.483 184.962C260.285 184.772 260.134 184.559 260.032 184.324C259.929 184.082 259.87 183.84 259.856 183.598L260.67 183.4C260.706 183.818 260.868 184.156 261.154 184.412C261.44 184.662 261.821 184.786 262.298 184.786C262.701 184.786 263.024 184.709 263.266 184.555C263.515 184.394 263.64 184.17 263.64 183.884C263.64 183.576 263.519 183.356 263.277 183.224C263.035 183.092 262.642 183.008 262.1 182.971C261.469 182.927 260.985 182.781 260.648 182.531C260.31 182.282 260.142 181.919 260.142 181.442V181.376C260.142 181.12 260.197 180.896 260.307 180.705C260.417 180.507 260.563 180.342 260.747 180.21C260.937 180.078 261.15 179.979 261.385 179.913C261.619 179.847 261.865 179.814 262.122 179.814C262.481 179.814 262.796 179.866 263.068 179.968C263.339 180.064 263.566 180.192 263.75 180.353C263.933 180.507 264.072 180.687 264.168 180.892C264.27 181.098 264.336 181.303 264.366 181.508L263.552 181.706C263.515 181.354 263.372 181.079 263.123 180.881C262.881 180.683 262.562 180.584 262.166 180.584C262.012 180.584 261.861 180.603 261.715 180.639C261.575 180.669 261.451 180.716 261.341 180.782C261.231 180.848 261.143 180.933 261.077 181.035C261.011 181.131 260.978 181.244 260.978 181.376ZM267.207 182.96C267.229 183.503 267.398 183.939 267.713 184.269C268.028 184.599 268.468 184.764 269.033 184.764C269.29 184.764 269.513 184.735 269.704 184.676C269.895 184.618 270.056 184.537 270.188 184.434C270.327 184.332 270.437 184.214 270.518 184.082C270.606 183.943 270.676 183.796 270.727 183.642L271.541 183.862C271.387 184.368 271.101 184.783 270.683 185.105C270.272 185.421 269.715 185.578 269.011 185.578C268.622 185.578 268.263 185.512 267.933 185.38C267.61 185.241 267.332 185.047 267.097 184.797C266.862 184.548 266.679 184.251 266.547 183.906C266.415 183.562 266.349 183.18 266.349 182.762V182.498C266.349 182.117 266.415 181.761 266.547 181.431C266.686 181.101 266.877 180.819 267.119 180.584C267.361 180.342 267.643 180.155 267.966 180.023C268.296 179.884 268.652 179.814 269.033 179.814C269.48 179.814 269.865 179.899 270.188 180.067C270.518 180.229 270.786 180.43 270.991 180.672C271.204 180.914 271.358 181.178 271.453 181.464C271.556 181.75 271.607 182.014 271.607 182.256V182.96H267.207ZM269.033 180.628C268.791 180.628 268.564 180.669 268.351 180.749C268.146 180.823 267.962 180.929 267.801 181.068C267.647 181.208 267.519 181.373 267.416 181.563C267.321 181.747 267.258 181.948 267.229 182.168H270.749C270.734 181.934 270.676 181.721 270.573 181.53C270.478 181.34 270.349 181.178 270.188 181.046C270.034 180.914 269.854 180.812 269.649 180.738C269.451 180.665 269.246 180.628 269.033 180.628Z" fill="black"/>
<path d="M268.603 105.495V119.05C268.603 121.346 259.976 124.549 245.922 124.549C231.867 124.549 223.231 121.346 223.231 119.05V105.495H221.448V143.503C221.448 148.303 233.756 150.807 245.922 150.807C258.087 150.807 270.386 148.294 270.386 143.503V105.495H268.603ZM245.922 148.993C231.867 148.993 223.231 145.79 223.231 143.503V134.384C227.063 137.27 236.537 138.767 245.922 138.767C255.306 138.767 264.771 137.27 268.603 134.384V143.503C268.603 145.799 259.976 148.993 245.922 148.993ZM245.922 136.952C231.867 136.952 223.231 133.749 223.231 131.463V121.981C227.063 124.866 236.537 126.363 245.922 126.363C255.306 126.363 264.771 124.866 268.603 121.981V131.463C268.603 133.758 259.976 136.952 245.922 136.952Z" fill="#163341"/>
<path d="M245.922 112.745C233.756 112.745 221.448 110.252 221.448 105.499C221.448 100.747 233.756 98.2447 245.922 98.2447C258.087 98.2447 270.386 100.738 270.386 105.499C270.386 110.261 258.078 112.745 245.922 112.745ZM245.922 100.045C231.867 100.045 223.231 103.222 223.231 105.499C223.231 107.776 231.867 110.945 245.922 110.945C259.976 110.945 268.603 107.767 268.603 105.499C268.603 103.231 259.976 100.045 245.922 100.045Z" fill="#FF4438"/>
<rect x="23.5526" y="85.5892" width="115" height="115" rx="3.5" fill="white" stroke="#8A99A0"/>
<path d="M49.0241 170.51H45.7241L45.1631 172.424H44.1731L46.5051 164.724H48.2431L50.5751 172.424H49.5851L49.0241 170.51ZM47.3081 165.12L45.9771 169.652H48.7711L47.4401 165.12H47.3081ZM52.3605 174.624H51.5025V166.968H52.3605V167.826H52.4925C52.6832 167.496 52.9472 167.247 53.2845 167.078C53.6218 166.902 53.9885 166.814 54.3845 166.814C54.7218 166.814 55.0408 166.877 55.3415 167.001C55.6422 167.126 55.9062 167.306 56.1335 167.54C56.3682 167.775 56.5515 168.065 56.6835 168.409C56.8228 168.754 56.8925 169.146 56.8925 169.586V169.806C56.8925 170.254 56.8265 170.65 56.6945 170.994C56.5625 171.339 56.3792 171.629 56.1445 171.863C55.9172 172.098 55.6495 172.278 55.3415 172.402C55.0335 172.52 54.7072 172.578 54.3625 172.578C54.1865 172.578 54.0068 172.556 53.8235 172.512C53.6402 172.476 53.4642 172.417 53.2955 172.336C53.1342 172.248 52.9838 172.146 52.8445 172.028C52.7052 171.904 52.5878 171.757 52.4925 171.588H52.3605V174.624ZM54.1865 171.764C54.4505 171.764 54.6925 171.72 54.9125 171.632C55.1325 171.537 55.3232 171.405 55.4845 171.236C55.6532 171.068 55.7815 170.862 55.8695 170.62C55.9648 170.378 56.0125 170.107 56.0125 169.806V169.586C56.0125 169.293 55.9648 169.029 55.8695 168.794C55.7815 168.552 55.6532 168.347 55.4845 168.178C55.3232 168.002 55.1288 167.867 54.9015 167.771C54.6815 167.676 54.4432 167.628 54.1865 167.628C53.9298 167.628 53.6915 167.68 53.4715 167.782C53.2515 167.878 53.0572 168.013 52.8885 168.189C52.7272 168.365 52.5988 168.578 52.5035 168.827C52.4082 169.069 52.3605 169.337 52.3605 169.63V169.762C52.3605 170.063 52.4082 170.338 52.5035 170.587C52.5988 170.829 52.7272 171.038 52.8885 171.214C53.0572 171.39 53.2515 171.526 53.4715 171.621C53.6915 171.717 53.9298 171.764 54.1865 171.764ZM59.0959 174.624H58.2379V166.968H59.0959V167.826H59.2279C59.4185 167.496 59.6825 167.247 60.0199 167.078C60.3572 166.902 60.7239 166.814 61.1199 166.814C61.4572 166.814 61.7762 166.877 62.0769 167.001C62.3775 167.126 62.6415 167.306 62.8689 167.54C63.1035 167.775 63.2869 168.065 63.4189 168.409C63.5582 168.754 63.6279 169.146 63.6279 169.586V169.806C63.6279 170.254 63.5619 170.65 63.4299 170.994C63.2979 171.339 63.1145 171.629 62.8799 171.863C62.6525 172.098 62.3849 172.278 62.0769 172.402C61.7689 172.52 61.4425 172.578 61.0979 172.578C60.9219 172.578 60.7422 172.556 60.5589 172.512C60.3755 172.476 60.1995 172.417 60.0309 172.336C59.8695 172.248 59.7192 172.146 59.5799 172.028C59.4405 171.904 59.3232 171.757 59.2279 171.588H59.0959V174.624ZM60.9219 171.764C61.1859 171.764 61.4279 171.72 61.6479 171.632C61.8679 171.537 62.0585 171.405 62.2199 171.236C62.3885 171.068 62.5169 170.862 62.6049 170.62C62.7002 170.378 62.7479 170.107 62.7479 169.806V169.586C62.7479 169.293 62.7002 169.029 62.6049 168.794C62.5169 168.552 62.3885 168.347 62.2199 168.178C62.0585 168.002 61.8642 167.867 61.6369 167.771C61.4169 167.676 61.1785 167.628 60.9219 167.628C60.6652 167.628 60.4269 167.68 60.2069 167.782C59.9869 167.878 59.7925 168.013 59.6239 168.189C59.4625 168.365 59.3342 168.578 59.2389 168.827C59.1435 169.069 59.0959 169.337 59.0959 169.63V169.762C59.0959 170.063 59.1435 170.338 59.2389 170.587C59.3342 170.829 59.4625 171.038 59.6239 171.214C59.7925 171.39 59.9869 171.526 60.2069 171.621C60.4269 171.717 60.6652 171.764 60.9219 171.764ZM65.1712 171.632H67.1512V165.516H65.2372V164.724H68.0092V171.632H69.9892V172.424H65.1712V171.632ZM73.6006 165.34C73.6006 165.128 73.6739 164.948 73.8206 164.801C73.9746 164.647 74.1579 164.57 74.3706 164.57C74.5832 164.57 74.7629 164.647 74.9096 164.801C75.0636 164.948 75.1406 165.128 75.1406 165.34C75.1406 165.553 75.0636 165.736 74.9096 165.89C74.7629 166.037 74.5832 166.11 74.3706 166.11C74.1579 166.11 73.9746 166.037 73.8206 165.89C73.6739 165.736 73.6006 165.553 73.6006 165.34ZM72.0386 171.632H73.9526V167.76H72.2366V166.968H74.8106V171.632H76.5926V172.424H72.0386V171.632ZM83.7459 170.488C83.6872 170.789 83.5846 171.068 83.4379 171.324C83.2986 171.581 83.1189 171.805 82.8989 171.995C82.6789 172.179 82.4222 172.322 82.1289 172.424C81.8356 172.527 81.5092 172.578 81.1499 172.578C80.7686 172.578 80.4056 172.516 80.0609 172.391C79.7236 172.267 79.4266 172.087 79.1699 171.852C78.9132 171.61 78.7079 171.317 78.5539 170.972C78.4072 170.628 78.3339 170.232 78.3339 169.784V169.652C78.3339 169.212 78.4072 168.816 78.5539 168.464C78.7079 168.112 78.9132 167.815 79.1699 167.573C79.4266 167.331 79.7236 167.144 80.0609 167.012C80.4056 166.88 80.7686 166.814 81.1499 166.814C81.4946 166.814 81.8136 166.866 82.1069 166.968C82.4002 167.071 82.6569 167.218 82.8769 167.408C83.1042 167.592 83.2876 167.812 83.4269 168.068C83.5736 168.325 83.6726 168.604 83.7239 168.904L82.8659 169.102C82.8439 168.912 82.7889 168.728 82.7009 168.552C82.6202 168.369 82.5066 168.211 82.3599 168.079C82.2206 167.94 82.0482 167.83 81.8429 167.749C81.6376 167.669 81.3992 167.628 81.1279 167.628C80.8639 167.628 80.6146 167.68 80.3799 167.782C80.1526 167.878 79.9509 168.017 79.7749 168.2C79.5989 168.376 79.4596 168.589 79.3569 168.838C79.2616 169.088 79.2139 169.359 79.2139 169.652V169.784C79.2139 170.092 79.2616 170.371 79.3569 170.62C79.4596 170.862 79.5989 171.068 79.7749 171.236C79.9509 171.405 80.1562 171.537 80.3909 171.632C80.6256 171.72 80.8786 171.764 81.1499 171.764C81.4212 171.764 81.6559 171.724 81.8539 171.643C82.0592 171.555 82.2316 171.445 82.3709 171.313C82.5176 171.174 82.6312 171.016 82.7119 170.84C82.7999 170.664 82.8586 170.481 82.8879 170.29L83.7459 170.488ZM89.3373 171.5H89.2053C89.0293 171.867 88.7836 172.138 88.4683 172.314C88.1603 172.49 87.8339 172.578 87.4893 172.578C87.1299 172.578 86.7963 172.52 86.4883 172.402C86.1803 172.278 85.9089 172.098 85.6743 171.863C85.4469 171.621 85.2673 171.328 85.1353 170.983C85.0033 170.639 84.9373 170.239 84.9373 169.784V169.608C84.9373 169.161 85.0033 168.765 85.1353 168.42C85.2673 168.076 85.4469 167.786 85.6743 167.551C85.9089 167.309 86.1803 167.126 86.4883 167.001C86.7963 166.877 87.1226 166.814 87.4673 166.814C87.8413 166.814 88.1786 166.899 88.4793 167.067C88.7873 167.229 89.0293 167.482 89.2053 167.826H89.3373V166.968H90.1953V171.302C90.1953 171.522 90.2943 171.632 90.4923 171.632H90.7673V172.424H90.1843C89.9349 172.424 89.7296 172.344 89.5683 172.182C89.4143 172.021 89.3373 171.816 89.3373 171.566V171.5ZM87.5773 171.764C87.8339 171.764 88.0686 171.717 88.2813 171.621C88.5013 171.526 88.6883 171.39 88.8423 171.214C88.9963 171.038 89.1173 170.829 89.2053 170.587C89.2933 170.338 89.3373 170.063 89.3373 169.762V169.63C89.3373 169.337 89.2933 169.069 89.2053 168.827C89.1173 168.578 88.9926 168.365 88.8313 168.189C88.6773 168.013 88.4903 167.878 88.2703 167.782C88.0576 167.68 87.8266 167.628 87.5773 167.628C87.3206 167.628 87.0859 167.676 86.8733 167.771C86.6606 167.867 86.4736 168.002 86.3123 168.178C86.1583 168.347 86.0373 168.556 85.9493 168.805C85.8613 169.047 85.8173 169.315 85.8173 169.608V169.784C85.8173 170.408 85.9786 170.895 86.3013 171.247C86.6313 171.592 87.0566 171.764 87.5773 171.764ZM91.9256 166.968H93.6416V164.724H94.4996V166.968H96.6116V167.76H94.4996V171.302C94.4996 171.522 94.5986 171.632 94.7966 171.632H96.3476V172.424H94.4886C94.2393 172.424 94.0339 172.344 93.8726 172.182C93.7186 172.021 93.6416 171.816 93.6416 171.566V167.76H91.9256V166.968ZM100.542 165.34C100.542 165.128 100.615 164.948 100.762 164.801C100.916 164.647 101.099 164.57 101.312 164.57C101.525 164.57 101.704 164.647 101.851 164.801C102.005 164.948 102.082 165.128 102.082 165.34C102.082 165.553 102.005 165.736 101.851 165.89C101.704 166.037 101.525 166.11 101.312 166.11C101.099 166.11 100.916 166.037 100.762 165.89C100.615 165.736 100.542 165.553 100.542 165.34ZM98.98 171.632H100.894V167.76H99.178V166.968H101.752V171.632H103.534V172.424H98.98V171.632ZM110.731 169.762C110.731 170.217 110.654 170.62 110.5 170.972C110.354 171.317 110.156 171.61 109.906 171.852C109.657 172.087 109.364 172.267 109.026 172.391C108.696 172.516 108.352 172.578 107.992 172.578C107.626 172.578 107.277 172.516 106.947 172.391C106.617 172.267 106.328 172.087 106.078 171.852C105.829 171.61 105.627 171.317 105.473 170.972C105.327 170.62 105.253 170.217 105.253 169.762V169.63C105.253 169.183 105.327 168.787 105.473 168.442C105.627 168.09 105.829 167.793 106.078 167.551C106.335 167.309 106.628 167.126 106.958 167.001C107.288 166.877 107.633 166.814 107.992 166.814C108.352 166.814 108.696 166.877 109.026 167.001C109.356 167.126 109.646 167.309 109.895 167.551C110.152 167.793 110.354 168.09 110.5 168.442C110.654 168.787 110.731 169.183 110.731 169.63V169.762ZM107.992 171.764C108.256 171.764 108.498 171.72 108.718 171.632C108.946 171.537 109.144 171.401 109.312 171.225C109.481 171.049 109.613 170.84 109.708 170.598C109.804 170.349 109.851 170.07 109.851 169.762V169.63C109.851 169.337 109.804 169.069 109.708 168.827C109.613 168.578 109.481 168.365 109.312 168.189C109.144 168.013 108.946 167.878 108.718 167.782C108.491 167.68 108.249 167.628 107.992 167.628C107.736 167.628 107.494 167.68 107.266 167.782C107.039 167.878 106.841 168.013 106.672 168.189C106.504 168.365 106.372 168.578 106.276 168.827C106.181 169.069 106.133 169.337 106.133 169.63V169.762C106.133 170.07 106.181 170.349 106.276 170.598C106.372 170.84 106.504 171.049 106.672 171.225C106.841 171.401 107.035 171.537 107.255 171.632C107.483 171.72 107.728 171.764 107.992 171.764ZM113.177 172.424H112.319V166.968H113.177V167.892H113.309C113.646 167.174 114.233 166.814 115.069 166.814C115.699 166.814 116.202 167.012 116.576 167.408C116.95 167.797 117.137 168.384 117.137 169.168V172.424H116.279V169.344C116.279 168.772 116.15 168.343 115.894 168.057C115.637 167.771 115.289 167.628 114.849 167.628C114.328 167.628 113.917 167.808 113.617 168.167C113.323 168.519 113.177 168.992 113.177 169.586V172.424ZM59.5689 181.376C59.5689 181.64 59.6789 181.842 59.8989 181.981C60.1262 182.121 60.5369 182.212 61.1309 182.256C61.7689 182.308 62.2529 182.462 62.5829 182.718C62.9202 182.968 63.0889 183.334 63.0889 183.818V183.884C63.0889 184.148 63.0339 184.387 62.9239 184.599C62.8212 184.805 62.6745 184.981 62.4839 185.127C62.3005 185.274 62.0732 185.384 61.8019 185.457C61.5379 185.538 61.2482 185.578 60.9329 185.578C60.5075 185.578 60.1409 185.523 59.8329 185.413C59.5322 185.296 59.2792 185.146 59.0739 184.962C58.8759 184.772 58.7255 184.559 58.6229 184.324C58.5202 184.082 58.4615 183.84 58.4469 183.598L59.2609 183.4C59.2975 183.818 59.4589 184.156 59.7449 184.412C60.0309 184.662 60.4122 184.786 60.8889 184.786C61.2922 184.786 61.6149 184.709 61.8569 184.555C62.1062 184.394 62.2309 184.17 62.2309 183.884C62.2309 183.576 62.1099 183.356 61.8679 183.224C61.6259 183.092 61.2335 183.008 60.6909 182.971C60.0602 182.927 59.5762 182.781 59.2389 182.531C58.9015 182.282 58.7329 181.919 58.7329 181.442V181.376C58.7329 181.12 58.7879 180.896 58.8979 180.705C59.0079 180.507 59.1545 180.342 59.3379 180.21C59.5285 180.078 59.7412 179.979 59.9759 179.913C60.2105 179.847 60.4562 179.814 60.7129 179.814C61.0722 179.814 61.3875 179.866 61.6589 179.968C61.9302 180.064 62.1575 180.192 62.3409 180.353C62.5242 180.507 62.6635 180.687 62.7589 180.892C62.8615 181.098 62.9275 181.303 62.9569 181.508L62.1429 181.706C62.1062 181.354 61.9632 181.079 61.7139 180.881C61.4719 180.683 61.1529 180.584 60.7569 180.584C60.6029 180.584 60.4525 180.603 60.3059 180.639C60.1665 180.669 60.0419 180.716 59.9319 180.782C59.8219 180.848 59.7339 180.933 59.6679 181.035C59.6019 181.131 59.5689 181.244 59.5689 181.376ZM65.7982 182.96C65.8202 183.503 65.9889 183.939 66.3042 184.269C66.6195 184.599 67.0595 184.764 67.6242 184.764C67.8809 184.764 68.1045 184.735 68.2952 184.676C68.4859 184.618 68.6472 184.537 68.7792 184.434C68.9185 184.332 69.0285 184.214 69.1092 184.082C69.1972 183.943 69.2669 183.796 69.3182 183.642L70.1322 183.862C69.9782 184.368 69.6922 184.783 69.2742 185.105C68.8635 185.421 68.3062 185.578 67.6022 185.578C67.2135 185.578 66.8542 185.512 66.5242 185.38C66.2015 185.241 65.9229 185.047 65.6882 184.797C65.4535 184.548 65.2702 184.251 65.1382 183.906C65.0062 183.562 64.9402 183.18 64.9402 182.762V182.498C64.9402 182.117 65.0062 181.761 65.1382 181.431C65.2775 181.101 65.4682 180.819 65.7102 180.584C65.9522 180.342 66.2345 180.155 66.5572 180.023C66.8872 179.884 67.2429 179.814 67.6242 179.814C68.0715 179.814 68.4565 179.899 68.7792 180.067C69.1092 180.229 69.3769 180.43 69.5822 180.672C69.7949 180.914 69.9489 181.178 70.0442 181.464C70.1469 181.75 70.1982 182.014 70.1982 182.256V182.96H65.7982ZM67.6242 180.628C67.3822 180.628 67.1549 180.669 66.9422 180.749C66.7369 180.823 66.5535 180.929 66.3922 181.068C66.2382 181.208 66.1099 181.373 66.0072 181.563C65.9119 181.747 65.8495 181.948 65.8202 182.168H69.3402C69.3255 181.934 69.2669 181.721 69.1642 181.53C69.0689 181.34 68.9405 181.178 68.7792 181.046C68.6252 180.914 68.4455 180.812 68.2402 180.738C68.0422 180.665 67.8369 180.628 67.6242 180.628ZM71.5986 179.968H73.5786V180.694H73.7106C73.8499 180.394 74.0479 180.174 74.3046 180.034C74.5612 179.888 74.8546 179.814 75.1846 179.814C75.7346 179.814 76.1782 179.994 76.5156 180.353C76.8529 180.713 77.0326 181.237 77.0546 181.926L76.1526 182.058C76.1526 181.552 76.0316 181.189 75.7896 180.969C75.5476 180.742 75.2506 180.628 74.8986 180.628C74.6712 180.628 74.4732 180.672 74.3046 180.76C74.1432 180.848 74.0076 180.969 73.8976 181.123C73.7876 181.277 73.7069 181.457 73.6556 181.662C73.6042 181.868 73.5786 182.088 73.5786 182.322V184.632H74.9646V185.424H71.4666V184.632H72.7206V180.76H71.5986V179.968ZM81.8869 185.424H80.1929L78.2899 179.968H79.3019L80.9739 185.028H81.1059L82.7779 179.968H83.7899L81.8869 185.424ZM86.0043 182.96C86.0263 183.503 86.1949 183.939 86.5103 184.269C86.8256 184.599 87.2656 184.764 87.8303 184.764C88.0869 184.764 88.3106 184.735 88.5013 184.676C88.6919 184.618 88.8533 184.537 88.9853 184.434C89.1246 184.332 89.2346 184.214 89.3153 184.082C89.4033 183.943 89.4729 183.796 89.5243 183.642L90.3383 183.862C90.1843 184.368 89.8983 184.783 89.4803 185.105C89.0696 185.421 88.5123 185.578 87.8083 185.578C87.4196 185.578 87.0603 185.512 86.7303 185.38C86.4076 185.241 86.1289 185.047 85.8943 184.797C85.6596 184.548 85.4763 184.251 85.3443 183.906C85.2123 183.562 85.1463 183.18 85.1463 182.762V182.498C85.1463 182.117 85.2123 181.761 85.3443 181.431C85.4836 181.101 85.6743 180.819 85.9163 180.584C86.1583 180.342 86.4406 180.155 86.7633 180.023C87.0933 179.884 87.4489 179.814 87.8303 179.814C88.2776 179.814 88.6626 179.899 88.9853 180.067C89.3153 180.229 89.5829 180.43 89.7883 180.672C90.0009 180.914 90.1549 181.178 90.2503 181.464C90.3529 181.75 90.4043 182.014 90.4043 182.256V182.96H86.0043ZM87.8303 180.628C87.5883 180.628 87.3609 180.669 87.1483 180.749C86.9429 180.823 86.7596 180.929 86.5983 181.068C86.4443 181.208 86.3159 181.373 86.2133 181.563C86.1179 181.747 86.0556 181.948 86.0263 182.168H89.5463C89.5316 181.934 89.4729 181.721 89.3703 181.53C89.2749 181.34 89.1466 181.178 88.9853 181.046C88.8313 180.914 88.6516 180.812 88.4463 180.738C88.2483 180.665 88.0429 180.628 87.8303 180.628ZM91.8046 179.968H93.7846V180.694H93.9166C94.0559 180.394 94.2539 180.174 94.5106 180.034C94.7673 179.888 95.0606 179.814 95.3906 179.814C95.9406 179.814 96.3843 179.994 96.7216 180.353C97.0589 180.713 97.2386 181.237 97.2606 181.926L96.3586 182.058C96.3586 181.552 96.2376 181.189 95.9956 180.969C95.7536 180.742 95.4566 180.628 95.1046 180.628C94.8773 180.628 94.6793 180.672 94.5106 180.76C94.3493 180.848 94.2136 180.969 94.1036 181.123C93.9936 181.277 93.9129 181.457 93.8616 181.662C93.8103 181.868 93.7846 182.088 93.7846 182.322V184.632H95.1706V185.424H91.6726V184.632H92.9266V180.76H91.8046V179.968ZM99.981 181.376C99.981 181.64 100.091 181.842 100.311 181.981C100.538 182.121 100.949 182.212 101.543 182.256C102.181 182.308 102.665 182.462 102.995 182.718C103.332 182.968 103.501 183.334 103.501 183.818V183.884C103.501 184.148 103.446 184.387 103.336 184.599C103.233 184.805 103.087 184.981 102.896 185.127C102.713 185.274 102.485 185.384 102.214 185.457C101.95 185.538 101.66 185.578 101.345 185.578C100.92 185.578 100.553 185.523 100.245 185.413C99.9443 185.296 99.6913 185.146 99.486 184.962C99.288 184.772 99.1376 184.559 99.035 184.324C98.9323 184.082 98.8736 183.84 98.859 183.598L99.673 183.4C99.7096 183.818 99.871 184.156 100.157 184.412C100.443 184.662 100.824 184.786 101.301 184.786C101.704 184.786 102.027 184.709 102.269 184.555C102.518 184.394 102.643 184.17 102.643 183.884C102.643 183.576 102.522 183.356 102.28 183.224C102.038 183.092 101.646 183.008 101.103 182.971C100.472 182.927 99.9883 182.781 99.651 182.531C99.3136 182.282 99.145 181.919 99.145 181.442V181.376C99.145 181.12 99.2 180.896 99.31 180.705C99.42 180.507 99.5666 180.342 99.75 180.21C99.9406 180.078 100.153 179.979 100.388 179.913C100.623 179.847 100.868 179.814 101.125 179.814C101.484 179.814 101.8 179.866 102.071 179.968C102.342 180.064 102.57 180.192 102.753 180.353C102.936 180.507 103.076 180.687 103.171 180.892C103.274 181.098 103.34 181.303 103.369 181.508L102.555 181.706C102.518 181.354 102.375 181.079 102.126 180.881C101.884 180.683 101.565 180.584 101.169 180.584C101.015 180.584 100.865 180.603 100.718 180.639C100.579 180.669 100.454 180.716 100.344 180.782C100.234 180.848 100.146 180.933 100.08 181.035C100.014 181.131 99.981 181.244 99.981 181.376Z" fill="black"/>
<path d="M76.0526 104.526V111.743C75.6526 112.512 71.6826 113.872 65.0526 113.872C58.4226 113.872 54.4526 112.512 54.0526 111.743V104.526H52.0526V126.988C52.0526 130.103 58.7926 131.526 65.0526 131.526V129.449C57.7326 129.449 54.1726 127.663 54.0526 126.988V121.951C56.4826 123.467 60.7726 124.257 65.0526 124.257V122.18C57.9326 122.18 54.0526 120.124 54.0526 119.064V114.184C56.7826 115.534 61.7126 115.949 65.0526 115.949C68.3926 115.949 73.3226 115.534 76.0526 114.184V116.084C76.6826 116.042 77.3526 116.001 78.0526 115.98V104.526H76.0526Z" fill="#163341"/>
<path d="M65.0526 100.526C60.2226 100.526 52.0526 101.366 52.0526 104.526C52.0526 105.506 52.8326 106.256 54.0526 106.836C56.7826 108.126 61.7126 108.526 65.0526 108.526C68.3926 108.526 73.3226 108.126 76.0526 106.836C77.2726 106.256 78.0526 105.506 78.0526 104.526C78.0526 101.366 69.8826 100.526 65.0526 100.526ZM65.0526 106.526C58.5826 106.526 54.6426 105.276 54.0826 104.526C54.6426 103.776 58.5826 102.526 65.0526 102.526C71.5226 102.526 75.4626 103.776 76.0226 104.526C75.4626 105.276 71.5226 106.526 65.0526 106.526Z" fill="#FF4438"/>
<path d="M108.053 104.526V111.743C107.653 112.512 103.683 113.872 97.0526 113.872C90.4226 113.872 86.4526 112.512 86.0526 111.743V104.526H84.0526V116.032C84.7626 116.063 85.4226 116.115 86.0526 116.177V114.184C88.7826 115.534 93.7126 115.949 97.0526 115.949C100.393 115.949 105.323 115.534 108.053 114.184V119.064C108.053 120.124 104.173 122.18 97.0526 122.18C96.7126 122.18 96.3826 122.18 96.0526 122.159V124.236C96.3826 124.257 96.7226 124.257 97.0526 124.257C101.333 124.257 105.623 123.467 108.053 121.951V126.988C107.933 127.663 104.373 129.449 97.0526 129.449C96.7126 129.449 96.3826 129.449 96.0526 129.439V131.505C96.3926 131.526 96.7226 131.526 97.0526 131.526C103.313 131.526 110.053 130.103 110.053 126.988V104.526H108.053Z" fill="#163341"/>
<path d="M97.0526 100.526C92.2226 100.526 84.0526 101.366 84.0526 104.526C84.0526 105.506 84.8326 106.256 86.0526 106.836C88.7826 108.126 93.7126 108.526 97.0526 108.526C100.393 108.526 105.323 108.126 108.053 106.836C109.273 106.256 110.053 105.506 110.053 104.526C110.053 101.366 101.883 100.526 97.0526 100.526ZM97.0526 106.526C90.5826 106.526 86.6426 105.276 86.0826 104.526C86.6426 103.776 90.5826 102.526 97.0526 102.526C103.523 102.526 107.463 103.776 108.023 104.526C107.463 105.276 103.523 106.526 97.0526 106.526Z" fill="#FF4438"/>
<path d="M91.9653 122.526V129.743C91.768 130.107 90.7399 130.605 88.9641 131.031C87.0118 131.498 84.156 131.872 80.5526 131.872C77.2399 131.872 74.5814 131.561 72.6499 131.145C70.5626 130.699 69.3476 130.138 69.1295 129.743V122.526H67.0526V144.988C67.0526 148.103 74.0518 149.526 80.5526 149.526C87.0534 149.526 94.0526 148.103 94.0526 144.988V122.526H91.9757H91.9653ZM91.9653 144.988C91.8614 145.549 89.2445 146.899 83.9276 147.324C83.7614 147.335 83.5953 147.345 83.4291 147.366C83.2214 147.376 83.0241 147.387 82.806 147.397C82.5153 147.407 82.2245 147.418 81.9234 147.428C81.6949 147.439 81.4768 147.439 81.2484 147.439C81.0095 147.449 80.781 147.449 80.5422 147.449C80.3034 147.449 80.0749 147.449 79.836 147.439C79.6076 147.439 79.3895 147.439 79.161 147.428C78.8599 147.418 78.5691 147.407 78.2784 147.397C78.0603 147.387 77.863 147.376 77.6553 147.366C77.4891 147.345 77.323 147.335 77.1568 147.324C71.8399 146.899 69.223 145.549 69.1191 144.988V139.951C71.6426 141.467 76.0976 142.257 80.5422 142.257C84.9868 142.257 89.4418 141.467 91.9653 139.951V144.988ZM91.9653 137.064C91.9653 138.124 87.936 140.18 80.5422 140.18C73.1484 140.18 69.1191 138.124 69.1191 137.064V132.184C71.9541 133.534 77.0737 133.949 80.5422 133.949C84.0107 133.949 89.1303 133.534 91.9653 132.184V137.064Z" fill="#163341"/>
<path d="M94.0422 122.406C93.8968 120.286 89.8676 119.246 85.7449 118.796C85.0491 118.726 84.3534 118.666 83.668 118.626C82.5672 118.556 81.4976 118.526 80.5526 118.526C79.9087 118.526 79.213 118.536 78.4757 118.566C77.811 118.596 77.1049 118.646 76.3987 118.696C71.9126 119.076 67.1357 120.126 67.0526 122.466V122.526C67.0526 123.266 67.5199 123.876 68.2987 124.386C68.548 124.546 68.8284 124.696 69.1295 124.836C70.9572 125.666 73.7299 126.126 76.3987 126.356C77.1049 126.406 77.811 126.456 78.4757 126.486C79.213 126.516 79.9087 126.526 80.5526 126.526C81.4976 126.526 82.5672 126.496 83.668 126.426C84.3534 126.386 85.0491 126.326 85.7449 126.256C88.0814 126.006 90.3868 125.556 91.9757 124.836C92.3391 124.666 92.6714 124.486 92.9518 124.296C93.6476 123.806 94.0526 123.216 94.0526 122.526C94.0526 122.486 94.0526 122.446 94.0422 122.406ZM89.286 123.646C88.341 123.876 87.1468 124.086 85.7449 124.246C85.101 124.326 84.4053 124.386 83.668 124.426C82.7022 124.496 81.6637 124.526 80.5526 124.526C79.8257 124.526 79.1403 124.516 78.4757 124.486C77.7487 124.456 77.053 124.416 76.3987 124.346C74.8099 124.216 73.4495 124.006 72.3591 123.766C70.5418 123.376 69.441 122.896 69.1607 122.526C69.2334 122.436 69.3476 122.336 69.5137 122.246C70.2095 121.816 71.7672 121.326 74.0726 120.966C74.2907 120.936 74.5191 120.906 74.758 120.876C74.7995 120.876 74.8307 120.876 74.8722 120.856C75.2357 120.816 75.6199 120.776 76.0145 120.736C76.2949 120.706 76.5753 120.686 76.866 120.666L77.2399 120.636C77.5722 120.606 77.9253 120.586 78.2887 120.576C78.351 120.576 78.4134 120.566 78.4757 120.566C79.1403 120.536 79.8257 120.526 80.5526 120.526C81.3418 120.526 82.0999 120.546 82.8164 120.576C83.1072 120.586 83.3876 120.606 83.668 120.626C83.8549 120.636 84.0522 120.646 84.2391 120.666C84.5299 120.686 84.8103 120.706 85.0907 120.736C85.7864 120.796 86.4303 120.886 87.0326 120.966C87.178 120.986 87.3234 121.016 87.4584 121.036C87.5934 121.066 87.718 121.086 87.853 121.106C89.3484 121.376 90.4699 121.716 91.1657 122.016C91.5603 122.196 91.8303 122.376 91.9445 122.526C91.6953 122.856 90.7814 123.276 89.286 123.646Z" fill="#FF4438"/>
<rect x="406.658" y="22.5842" width="299.712" height="214.832" rx="7.5103" fill="#F3F3F3" stroke="#8A99A0"/>
<path d="M525.289 56.204H524.113V52.928C524.113 52.6853 524.057 52.4986 523.945 52.368C523.833 52.2373 523.637 52.172 523.357 52.172H520.305V56.204H519.129V46.404H522.629C523.133 46.404 523.572 46.4786 523.945 46.628C524.318 46.768 524.626 46.9593 524.869 47.202C525.121 47.4446 525.308 47.7293 525.429 48.056C525.56 48.3733 525.625 48.7093 525.625 49.064V49.484C525.625 49.848 525.522 50.212 525.317 50.576C525.121 50.94 524.813 51.22 524.393 51.416V51.584C524.673 51.6306 524.892 51.7426 525.051 51.92C525.21 52.0973 525.289 52.3493 525.289 52.676V56.204ZM520.305 51.08H522.489C523.152 51.08 523.642 50.94 523.959 50.66C524.286 50.3706 524.449 49.9506 524.449 49.4V49.148C524.449 48.6533 524.286 48.2566 523.959 47.958C523.642 47.65 523.152 47.496 522.489 47.496H520.305V51.08ZM528.527 53.068C528.555 53.7586 528.77 54.314 529.171 54.734C529.572 55.154 530.132 55.364 530.851 55.364C531.178 55.364 531.462 55.3266 531.705 55.252C531.948 55.1773 532.153 55.0746 532.321 54.944C532.498 54.8133 532.638 54.664 532.741 54.496C532.853 54.3186 532.942 54.132 533.007 53.936L534.043 54.216C533.847 54.86 533.483 55.3873 532.951 55.798C532.428 56.1993 531.719 56.4 530.823 56.4C530.328 56.4 529.871 56.316 529.451 56.148C529.04 55.9706 528.686 55.7233 528.387 55.406C528.088 55.0886 527.855 54.7106 527.687 54.272C527.519 53.8333 527.435 53.348 527.435 52.816V52.48C527.435 51.9946 527.519 51.542 527.687 51.122C527.864 50.702 528.107 50.3426 528.415 50.044C528.723 49.736 529.082 49.498 529.493 49.33C529.913 49.1526 530.366 49.064 530.851 49.064C531.42 49.064 531.91 49.1713 532.321 49.386C532.741 49.5913 533.082 49.848 533.343 50.156C533.614 50.464 533.81 50.8 533.931 51.164C534.062 51.528 534.127 51.864 534.127 52.172V53.068H528.527ZM530.851 50.1C530.543 50.1 530.254 50.1513 529.983 50.254C529.722 50.3473 529.488 50.4826 529.283 50.66C529.087 50.8373 528.924 51.0473 528.793 51.29C528.672 51.5233 528.592 51.78 528.555 52.06H533.035C533.016 51.7613 532.942 51.4906 532.811 51.248C532.69 51.0053 532.526 50.8 532.321 50.632C532.125 50.464 531.896 50.3333 531.635 50.24C531.383 50.1466 531.122 50.1 530.851 50.1ZM541.341 55.028H541.173C540.949 55.4946 540.637 55.84 540.235 56.064C539.843 56.288 539.428 56.4 538.989 56.4C538.532 56.4 538.107 56.3253 537.715 56.176C537.323 56.0173 536.978 55.7886 536.679 55.49C536.39 55.182 536.161 54.8086 535.993 54.37C535.825 53.9313 535.741 53.4226 535.741 52.844V52.62C535.741 52.0506 535.825 51.5466 535.993 51.108C536.161 50.6693 536.39 50.3006 536.679 50.002C536.978 49.694 537.323 49.4606 537.715 49.302C538.107 49.1433 538.523 49.064 538.961 49.064C539.437 49.064 539.867 49.1713 540.249 49.386C540.641 49.5913 540.949 49.9133 541.173 50.352H541.341V49.26H542.433V54.776C542.433 55.056 542.559 55.196 542.811 55.196H543.161V56.204H542.419C542.102 56.204 541.841 56.1013 541.635 55.896C541.439 55.6906 541.341 55.4293 541.341 55.112V55.028ZM539.101 55.364C539.428 55.364 539.727 55.3033 539.997 55.182C540.277 55.0606 540.515 54.888 540.711 54.664C540.907 54.44 541.061 54.174 541.173 53.866C541.285 53.5486 541.341 53.1986 541.341 52.816V52.648C541.341 52.2746 541.285 51.934 541.173 51.626C541.061 51.3086 540.903 51.038 540.697 50.814C540.501 50.59 540.263 50.4173 539.983 50.296C539.713 50.1653 539.419 50.1 539.101 50.1C538.775 50.1 538.476 50.1606 538.205 50.282C537.935 50.4033 537.697 50.576 537.491 50.8C537.295 51.0146 537.141 51.2806 537.029 51.598C536.917 51.906 536.861 52.2466 536.861 52.62V52.844C536.861 53.6373 537.067 54.258 537.477 54.706C537.897 55.1446 538.439 55.364 539.101 55.364ZM544.874 55.196H547.394V47.412H544.958V46.404H548.486V55.196H551.006V56.204H544.874V55.196ZM554.412 52.06H558.612V53.068H554.412V52.06ZM561.78 49.26H563.964V46.404H565.056V49.26H567.744V50.268H565.056V54.776C565.056 55.056 565.182 55.196 565.434 55.196H567.408V56.204H565.042C564.725 56.204 564.464 56.1013 564.258 55.896C564.062 55.6906 563.964 55.4293 563.964 55.112V50.268H561.78V49.26ZM572.746 47.188C572.746 46.9173 572.84 46.6886 573.026 46.502C573.222 46.306 573.456 46.208 573.726 46.208C573.997 46.208 574.226 46.306 574.412 46.502C574.608 46.6886 574.706 46.9173 574.706 47.188C574.706 47.4586 574.608 47.692 574.412 47.888C574.226 48.0746 573.997 48.168 573.726 48.168C573.456 48.168 573.222 48.0746 573.026 47.888C572.84 47.692 572.746 47.4586 572.746 47.188ZM570.758 55.196H573.194V50.268H571.01V49.26H574.286V55.196H576.554V56.204H570.758V55.196ZM585.841 56.204H584.749V51.22C584.749 50.8933 584.674 50.6273 584.525 50.422C584.375 50.2073 584.137 50.1 583.811 50.1C583.503 50.1 583.251 50.2166 583.055 50.45C582.868 50.674 582.775 51.024 582.775 51.5V56.204H581.683V51.164C581.683 50.856 581.599 50.604 581.431 50.408C581.263 50.2026 581.039 50.1 580.759 50.1C580.423 50.1 580.161 50.2213 579.975 50.464C579.797 50.7066 579.709 51.024 579.709 51.416V56.204H578.617V49.26H579.709V50.016H579.877C579.998 49.6893 580.175 49.4513 580.409 49.302C580.642 49.1433 580.917 49.064 581.235 49.064C581.571 49.064 581.846 49.1526 582.061 49.33C582.285 49.5073 582.439 49.736 582.523 50.016H582.691C583.008 49.3813 583.512 49.064 584.203 49.064C584.725 49.064 585.127 49.232 585.407 49.568C585.696 49.8946 585.841 50.324 585.841 50.856V56.204ZM588.533 53.068C588.561 53.7586 588.776 54.314 589.177 54.734C589.578 55.154 590.138 55.364 590.857 55.364C591.184 55.364 591.468 55.3266 591.711 55.252C591.954 55.1773 592.159 55.0746 592.327 54.944C592.504 54.8133 592.644 54.664 592.747 54.496C592.859 54.3186 592.948 54.132 593.013 53.936L594.049 54.216C593.853 54.86 593.489 55.3873 592.957 55.798C592.434 56.1993 591.725 56.4 590.829 56.4C590.334 56.4 589.877 56.316 589.457 56.148C589.046 55.9706 588.692 55.7233 588.393 55.406C588.094 55.0886 587.861 54.7106 587.693 54.272C587.525 53.8333 587.441 53.348 587.441 52.816V52.48C587.441 51.9946 587.525 51.542 587.693 51.122C587.87 50.702 588.113 50.3426 588.421 50.044C588.729 49.736 589.088 49.498 589.499 49.33C589.919 49.1526 590.372 49.064 590.857 49.064C591.426 49.064 591.916 49.1713 592.327 49.386C592.747 49.5913 593.088 49.848 593.349 50.156C593.62 50.464 593.816 50.8 593.937 51.164C594.068 51.528 594.133 51.864 594.133 52.172V53.068H588.533ZM590.857 50.1C590.549 50.1 590.26 50.1513 589.989 50.254C589.728 50.3473 589.494 50.4826 589.289 50.66C589.093 50.8373 588.93 51.0473 588.799 51.29C588.678 51.5233 588.598 51.78 588.561 52.06H593.041C593.022 51.7613 592.948 51.4906 592.817 51.248C592.696 51.0053 592.532 50.8 592.327 50.632C592.131 50.464 591.902 50.3333 591.641 50.24C591.389 50.1466 591.128 50.1 590.857 50.1Z" fill="black"/>
<path d="M539.194 141.274C538.999 141.469 538.999 141.786 539.194 141.981L542.376 145.163C542.572 145.358 542.888 145.358 543.084 145.163C543.279 144.968 543.279 144.651 543.084 144.456L540.255 141.628L543.084 138.799C543.279 138.604 543.279 138.287 543.084 138.092C542.888 137.897 542.572 137.897 542.376 138.092L539.194 141.274ZM573.834 141.981C574.029 141.786 574.029 141.469 573.834 141.274L570.652 138.092C570.457 137.897 570.14 137.897 569.945 138.092C569.749 138.287 569.749 138.604 569.945 138.799L572.773 141.628L569.945 144.456C569.749 144.651 569.749 144.968 569.945 145.163C570.14 145.358 570.457 145.358 570.652 145.163L573.834 141.981ZM539.548 142.128H573.48V141.128H539.548V142.128Z" fill="#8A99A0"/>
<rect x="581.446" y="85.5892" width="115" height="115" rx="3.5" fill="white" stroke="#8A99A0"/>
<path d="M606.918 170.51H603.618L603.057 172.424H602.067L604.399 164.724H606.137L608.469 172.424H607.479L606.918 170.51ZM605.202 165.12L603.871 169.652H606.665L605.334 165.12H605.202ZM610.254 174.624H609.396V166.968H610.254V167.826H610.386C610.577 167.496 610.841 167.247 611.178 167.078C611.516 166.902 611.882 166.814 612.278 166.814C612.616 166.814 612.935 166.877 613.235 167.001C613.536 167.126 613.8 167.306 614.027 167.54C614.262 167.775 614.445 168.065 614.577 168.409C614.717 168.754 614.786 169.146 614.786 169.586V169.806C614.786 170.254 614.72 170.65 614.588 170.994C614.456 171.339 614.273 171.629 614.038 171.863C613.811 172.098 613.543 172.278 613.235 172.402C612.927 172.52 612.601 172.578 612.256 172.578C612.08 172.578 611.901 172.556 611.717 172.512C611.534 172.476 611.358 172.417 611.189 172.336C611.028 172.248 610.878 172.146 610.738 172.028C610.599 171.904 610.482 171.757 610.386 171.588H610.254V174.624ZM612.08 171.764C612.344 171.764 612.586 171.72 612.806 171.632C613.026 171.537 613.217 171.405 613.378 171.236C613.547 171.068 613.675 170.862 613.763 170.62C613.859 170.378 613.906 170.107 613.906 169.806V169.586C613.906 169.293 613.859 169.029 613.763 168.794C613.675 168.552 613.547 168.347 613.378 168.178C613.217 168.002 613.023 167.867 612.795 167.771C612.575 167.676 612.337 167.628 612.08 167.628C611.824 167.628 611.585 167.68 611.365 167.782C611.145 167.878 610.951 168.013 610.782 168.189C610.621 168.365 610.493 168.578 610.397 168.827C610.302 169.069 610.254 169.337 610.254 169.63V169.762C610.254 170.063 610.302 170.338 610.397 170.587C610.493 170.829 610.621 171.038 610.782 171.214C610.951 171.39 611.145 171.526 611.365 171.621C611.585 171.717 611.824 171.764 612.08 171.764ZM616.99 174.624H616.132V166.968H616.99V167.826H617.122C617.312 167.496 617.576 167.247 617.914 167.078C618.251 166.902 618.618 166.814 619.014 166.814C619.351 166.814 619.67 166.877 619.971 167.001C620.271 167.126 620.535 167.306 620.763 167.54C620.997 167.775 621.181 168.065 621.313 168.409C621.452 168.754 621.522 169.146 621.522 169.586V169.806C621.522 170.254 621.456 170.65 621.324 170.994C621.192 171.339 621.008 171.629 620.774 171.863C620.546 172.098 620.279 172.278 619.971 172.402C619.663 172.52 619.336 172.578 618.992 172.578C618.816 172.578 618.636 172.556 618.453 172.512C618.269 172.476 618.093 172.417 617.925 172.336C617.763 172.248 617.613 172.146 617.474 172.028C617.334 171.904 617.217 171.757 617.122 171.588H616.99V174.624ZM618.816 171.764C619.08 171.764 619.322 171.72 619.542 171.632C619.762 171.537 619.952 171.405 620.114 171.236C620.282 171.068 620.411 170.862 620.499 170.62C620.594 170.378 620.642 170.107 620.642 169.806V169.586C620.642 169.293 620.594 169.029 620.499 168.794C620.411 168.552 620.282 168.347 620.114 168.178C619.952 168.002 619.758 167.867 619.531 167.771C619.311 167.676 619.072 167.628 618.816 167.628C618.559 167.628 618.321 167.68 618.101 167.782C617.881 167.878 617.686 168.013 617.518 168.189C617.356 168.365 617.228 168.578 617.133 168.827C617.037 169.069 616.99 169.337 616.99 169.63V169.762C616.99 170.063 617.037 170.338 617.133 170.587C617.228 170.829 617.356 171.038 617.518 171.214C617.686 171.39 617.881 171.526 618.101 171.621C618.321 171.717 618.559 171.764 618.816 171.764ZM623.065 171.632H625.045V165.516H623.131V164.724H625.903V171.632H627.883V172.424H623.065V171.632ZM631.494 165.34C631.494 165.128 631.568 164.948 631.714 164.801C631.868 164.647 632.052 164.57 632.264 164.57C632.477 164.57 632.657 164.647 632.803 164.801C632.957 164.948 633.034 165.128 633.034 165.34C633.034 165.553 632.957 165.736 632.803 165.89C632.657 166.037 632.477 166.11 632.264 166.11C632.052 166.11 631.868 166.037 631.714 165.89C631.568 165.736 631.494 165.553 631.494 165.34ZM629.932 171.632H631.846V167.76H630.13V166.968H632.704V171.632H634.486V172.424H629.932V171.632ZM641.64 170.488C641.581 170.789 641.478 171.068 641.332 171.324C641.192 171.581 641.013 171.805 640.793 171.995C640.573 172.179 640.316 172.322 640.023 172.424C639.729 172.527 639.403 172.578 639.044 172.578C638.662 172.578 638.299 172.516 637.955 172.391C637.617 172.267 637.32 172.087 637.064 171.852C636.807 171.61 636.602 171.317 636.448 170.972C636.301 170.628 636.228 170.232 636.228 169.784V169.652C636.228 169.212 636.301 168.816 636.448 168.464C636.602 168.112 636.807 167.815 637.064 167.573C637.32 167.331 637.617 167.144 637.955 167.012C638.299 166.88 638.662 166.814 639.044 166.814C639.388 166.814 639.707 166.866 640.001 166.968C640.294 167.071 640.551 167.218 640.771 167.408C640.998 167.592 641.181 167.812 641.321 168.068C641.467 168.325 641.566 168.604 641.618 168.904L640.76 169.102C640.738 168.912 640.683 168.728 640.595 168.552C640.514 168.369 640.4 168.211 640.254 168.079C640.114 167.94 639.942 167.83 639.737 167.749C639.531 167.669 639.293 167.628 639.022 167.628C638.758 167.628 638.508 167.68 638.274 167.782C638.046 167.878 637.845 168.017 637.669 168.2C637.493 168.376 637.353 168.589 637.251 168.838C637.155 169.088 637.108 169.359 637.108 169.652V169.784C637.108 170.092 637.155 170.371 637.251 170.62C637.353 170.862 637.493 171.068 637.669 171.236C637.845 171.405 638.05 171.537 638.285 171.632C638.519 171.72 638.772 171.764 639.044 171.764C639.315 171.764 639.55 171.724 639.748 171.643C639.953 171.555 640.125 171.445 640.265 171.313C640.411 171.174 640.525 171.016 640.606 170.84C640.694 170.664 640.752 170.481 640.782 170.29L641.64 170.488ZM647.231 171.5H647.099C646.923 171.867 646.677 172.138 646.362 172.314C646.054 172.49 645.728 172.578 645.383 172.578C645.024 172.578 644.69 172.52 644.382 172.402C644.074 172.278 643.803 172.098 643.568 171.863C643.341 171.621 643.161 171.328 643.029 170.983C642.897 170.639 642.831 170.239 642.831 169.784V169.608C642.831 169.161 642.897 168.765 643.029 168.42C643.161 168.076 643.341 167.786 643.568 167.551C643.803 167.309 644.074 167.126 644.382 167.001C644.69 166.877 645.016 166.814 645.361 166.814C645.735 166.814 646.072 166.899 646.373 167.067C646.681 167.229 646.923 167.482 647.099 167.826H647.231V166.968H648.089V171.302C648.089 171.522 648.188 171.632 648.386 171.632H648.661V172.424H648.078C647.829 172.424 647.623 172.344 647.462 172.182C647.308 172.021 647.231 171.816 647.231 171.566V171.5ZM645.471 171.764C645.728 171.764 645.962 171.717 646.175 171.621C646.395 171.526 646.582 171.39 646.736 171.214C646.89 171.038 647.011 170.829 647.099 170.587C647.187 170.338 647.231 170.063 647.231 169.762V169.63C647.231 169.337 647.187 169.069 647.099 168.827C647.011 168.578 646.886 168.365 646.725 168.189C646.571 168.013 646.384 167.878 646.164 167.782C645.951 167.68 645.72 167.628 645.471 167.628C645.214 167.628 644.98 167.676 644.767 167.771C644.554 167.867 644.367 168.002 644.206 168.178C644.052 168.347 643.931 168.556 643.843 168.805C643.755 169.047 643.711 169.315 643.711 169.608V169.784C643.711 170.408 643.872 170.895 644.195 171.247C644.525 171.592 644.95 171.764 645.471 171.764ZM649.819 166.968H651.535V164.724H652.393V166.968H654.505V167.76H652.393V171.302C652.393 171.522 652.492 171.632 652.69 171.632H654.241V172.424H652.382C652.133 172.424 651.928 172.344 651.766 172.182C651.612 172.021 651.535 171.816 651.535 171.566V167.76H649.819V166.968ZM658.436 165.34C658.436 165.128 658.509 164.948 658.656 164.801C658.81 164.647 658.993 164.57 659.206 164.57C659.418 164.57 659.598 164.647 659.745 164.801C659.899 164.948 659.976 165.128 659.976 165.34C659.976 165.553 659.899 165.736 659.745 165.89C659.598 166.037 659.418 166.11 659.206 166.11C658.993 166.11 658.81 166.037 658.656 165.89C658.509 165.736 658.436 165.553 658.436 165.34ZM656.874 171.632H658.788V167.76H657.072V166.968H659.646V171.632H661.428V172.424H656.874V171.632ZM668.625 169.762C668.625 170.217 668.548 170.62 668.394 170.972C668.247 171.317 668.049 171.61 667.8 171.852C667.551 172.087 667.257 172.267 666.92 172.391C666.59 172.516 666.245 172.578 665.886 172.578C665.519 172.578 665.171 172.516 664.841 172.391C664.511 172.267 664.221 172.087 663.972 171.852C663.723 171.61 663.521 171.317 663.367 170.972C663.22 170.62 663.147 170.217 663.147 169.762V169.63C663.147 169.183 663.22 168.787 663.367 168.442C663.521 168.09 663.723 167.793 663.972 167.551C664.229 167.309 664.522 167.126 664.852 167.001C665.182 166.877 665.527 166.814 665.886 166.814C666.245 166.814 666.59 166.877 666.92 167.001C667.25 167.126 667.54 167.309 667.789 167.551C668.046 167.793 668.247 168.09 668.394 168.442C668.548 168.787 668.625 169.183 668.625 169.63V169.762ZM665.886 171.764C666.15 171.764 666.392 171.72 666.612 171.632C666.839 171.537 667.037 171.401 667.206 171.225C667.375 171.049 667.507 170.84 667.602 170.598C667.697 170.349 667.745 170.07 667.745 169.762V169.63C667.745 169.337 667.697 169.069 667.602 168.827C667.507 168.578 667.375 168.365 667.206 168.189C667.037 168.013 666.839 167.878 666.612 167.782C666.385 167.68 666.143 167.628 665.886 167.628C665.629 167.628 665.387 167.68 665.16 167.782C664.933 167.878 664.735 168.013 664.566 168.189C664.397 168.365 664.265 168.578 664.17 168.827C664.075 169.069 664.027 169.337 664.027 169.63V169.762C664.027 170.07 664.075 170.349 664.17 170.598C664.265 170.84 664.397 171.049 664.566 171.225C664.735 171.401 664.929 171.537 665.149 171.632C665.376 171.72 665.622 171.764 665.886 171.764ZM671.07 172.424H670.212V166.968H671.07V167.892H671.202C671.54 167.174 672.126 166.814 672.962 166.814C673.593 166.814 674.095 167.012 674.469 167.408C674.843 167.797 675.03 168.384 675.03 169.168V172.424H674.172V169.344C674.172 168.772 674.044 168.343 673.787 168.057C673.531 167.771 673.182 167.628 672.742 167.628C672.222 167.628 671.811 167.808 671.51 168.167C671.217 168.519 671.07 168.992 671.07 169.586V172.424ZM617.463 181.376C617.463 181.64 617.573 181.842 617.793 181.981C618.02 182.121 618.431 182.212 619.025 182.256C619.663 182.308 620.147 182.462 620.477 182.718C620.814 182.968 620.983 183.334 620.983 183.818V183.884C620.983 184.148 620.928 184.387 620.818 184.599C620.715 184.805 620.568 184.981 620.378 185.127C620.194 185.274 619.967 185.384 619.696 185.457C619.432 185.538 619.142 185.578 618.827 185.578C618.401 185.578 618.035 185.523 617.727 185.413C617.426 185.296 617.173 185.146 616.968 184.962C616.77 184.772 616.619 184.559 616.517 184.324C616.414 184.082 616.355 183.84 616.341 183.598L617.155 183.4C617.191 183.818 617.353 184.156 617.639 184.412C617.925 184.662 618.306 184.786 618.783 184.786C619.186 184.786 619.509 184.709 619.751 184.555C620 184.394 620.125 184.17 620.125 183.884C620.125 183.576 620.004 183.356 619.762 183.224C619.52 183.092 619.127 183.008 618.585 182.971C617.954 182.927 617.47 182.781 617.133 182.531C616.795 182.282 616.627 181.919 616.627 181.442V181.376C616.627 181.12 616.682 180.896 616.792 180.705C616.902 180.507 617.048 180.342 617.232 180.21C617.422 180.078 617.635 179.979 617.87 179.913C618.104 179.847 618.35 179.814 618.607 179.814C618.966 179.814 619.281 179.866 619.553 179.968C619.824 180.064 620.051 180.192 620.235 180.353C620.418 180.507 620.557 180.687 620.653 180.892C620.755 181.098 620.821 181.303 620.851 181.508L620.037 181.706C620 181.354 619.857 181.079 619.608 180.881C619.366 180.683 619.047 180.584 618.651 180.584C618.497 180.584 618.346 180.603 618.2 180.639C618.06 180.669 617.936 180.716 617.826 180.782C617.716 180.848 617.628 180.933 617.562 181.035C617.496 181.131 617.463 181.244 617.463 181.376ZM623.692 182.96C623.714 183.503 623.883 183.939 624.198 184.269C624.513 184.599 624.953 184.764 625.518 184.764C625.775 184.764 625.998 184.735 626.189 184.676C626.38 184.618 626.541 184.537 626.673 184.434C626.812 184.332 626.922 184.214 627.003 184.082C627.091 183.943 627.161 183.796 627.212 183.642L628.026 183.862C627.872 184.368 627.586 184.783 627.168 185.105C626.757 185.421 626.2 185.578 625.496 185.578C625.107 185.578 624.748 185.512 624.418 185.38C624.095 185.241 623.817 185.047 623.582 184.797C623.347 184.548 623.164 184.251 623.032 183.906C622.9 183.562 622.834 183.18 622.834 182.762V182.498C622.834 182.117 622.9 181.761 623.032 181.431C623.171 181.101 623.362 180.819 623.604 180.584C623.846 180.342 624.128 180.155 624.451 180.023C624.781 179.884 625.137 179.814 625.518 179.814C625.965 179.814 626.35 179.899 626.673 180.067C627.003 180.229 627.271 180.43 627.476 180.672C627.689 180.914 627.843 181.178 627.938 181.464C628.041 181.75 628.092 182.014 628.092 182.256V182.96H623.692ZM625.518 180.628C625.276 180.628 625.049 180.669 624.836 180.749C624.631 180.823 624.447 180.929 624.286 181.068C624.132 181.208 624.004 181.373 623.901 181.563C623.806 181.747 623.743 181.948 623.714 182.168H627.234C627.219 181.934 627.161 181.721 627.058 181.53C626.963 181.34 626.834 181.178 626.673 181.046C626.519 180.914 626.339 180.812 626.134 180.738C625.936 180.665 625.731 180.628 625.518 180.628ZM629.492 179.968H631.472V180.694H631.604C631.744 180.394 631.942 180.174 632.198 180.034C632.455 179.888 632.748 179.814 633.078 179.814C633.628 179.814 634.072 179.994 634.409 180.353C634.747 180.713 634.926 181.237 634.948 181.926L634.046 182.058C634.046 181.552 633.925 181.189 633.683 180.969C633.441 180.742 633.144 180.628 632.792 180.628C632.565 180.628 632.367 180.672 632.198 180.76C632.037 180.848 631.901 180.969 631.791 181.123C631.681 181.277 631.601 181.457 631.549 181.662C631.498 181.868 631.472 182.088 631.472 182.322V184.632H632.858V185.424H629.36V184.632H630.614V180.76H629.492V179.968ZM639.781 185.424H638.087L636.184 179.968H637.196L638.868 185.028H639L640.672 179.968H641.684L639.781 185.424ZM643.898 182.96C643.92 183.503 644.089 183.939 644.404 184.269C644.719 184.599 645.159 184.764 645.724 184.764C645.981 184.764 646.204 184.735 646.395 184.676C646.586 184.618 646.747 184.537 646.879 184.434C647.018 184.332 647.128 184.214 647.209 184.082C647.297 183.943 647.367 183.796 647.418 183.642L648.232 183.862C648.078 184.368 647.792 184.783 647.374 185.105C646.963 185.421 646.406 185.578 645.702 185.578C645.313 185.578 644.954 185.512 644.624 185.38C644.301 185.241 644.023 185.047 643.788 184.797C643.553 184.548 643.37 184.251 643.238 183.906C643.106 183.562 643.04 183.18 643.04 182.762V182.498C643.04 182.117 643.106 181.761 643.238 181.431C643.377 181.101 643.568 180.819 643.81 180.584C644.052 180.342 644.334 180.155 644.657 180.023C644.987 179.884 645.343 179.814 645.724 179.814C646.171 179.814 646.556 179.899 646.879 180.067C647.209 180.229 647.477 180.43 647.682 180.672C647.895 180.914 648.049 181.178 648.144 181.464C648.247 181.75 648.298 182.014 648.298 182.256V182.96H643.898ZM645.724 180.628C645.482 180.628 645.255 180.669 645.042 180.749C644.837 180.823 644.653 180.929 644.492 181.068C644.338 181.208 644.21 181.373 644.107 181.563C644.012 181.747 643.949 181.948 643.92 182.168H647.44C647.425 181.934 647.367 181.721 647.264 181.53C647.169 181.34 647.04 181.178 646.879 181.046C646.725 180.914 646.545 180.812 646.34 180.738C646.142 180.665 645.937 180.628 645.724 180.628ZM649.698 179.968H651.678V180.694H651.81C651.95 180.394 652.148 180.174 652.404 180.034C652.661 179.888 652.954 179.814 653.284 179.814C653.834 179.814 654.278 179.994 654.615 180.353C654.953 180.713 655.132 181.237 655.154 181.926L654.252 182.058C654.252 181.552 654.131 181.189 653.889 180.969C653.647 180.742 653.35 180.628 652.998 180.628C652.771 180.628 652.573 180.672 652.404 180.76C652.243 180.848 652.107 180.969 651.997 181.123C651.887 181.277 651.807 181.457 651.755 181.662C651.704 181.868 651.678 182.088 651.678 182.322V184.632H653.064V185.424H649.566V184.632H650.82V180.76H649.698V179.968ZM657.875 181.376C657.875 181.64 657.985 181.842 658.205 181.981C658.432 182.121 658.843 182.212 659.437 182.256C660.075 182.308 660.559 182.462 660.889 182.718C661.226 182.968 661.395 183.334 661.395 183.818V183.884C661.395 184.148 661.34 184.387 661.23 184.599C661.127 184.805 660.98 184.981 660.79 185.127C660.606 185.274 660.379 185.384 660.108 185.457C659.844 185.538 659.554 185.578 659.239 185.578C658.813 185.578 658.447 185.523 658.139 185.413C657.838 185.296 657.585 185.146 657.38 184.962C657.182 184.772 657.031 184.559 656.929 184.324C656.826 184.082 656.767 183.84 656.753 183.598L657.567 183.4C657.603 183.818 657.765 184.156 658.051 184.412C658.337 184.662 658.718 184.786 659.195 184.786C659.598 184.786 659.921 184.709 660.163 184.555C660.412 184.394 660.537 184.17 660.537 183.884C660.537 183.576 660.416 183.356 660.174 183.224C659.932 183.092 659.539 183.008 658.997 182.971C658.366 182.927 657.882 182.781 657.545 182.531C657.207 182.282 657.039 181.919 657.039 181.442V181.376C657.039 181.12 657.094 180.896 657.204 180.705C657.314 180.507 657.46 180.342 657.644 180.21C657.834 180.078 658.047 179.979 658.282 179.913C658.516 179.847 658.762 179.814 659.019 179.814C659.378 179.814 659.693 179.866 659.965 179.968C660.236 180.064 660.463 180.192 660.647 180.353C660.83 180.507 660.969 180.687 661.065 180.892C661.167 181.098 661.233 181.303 661.263 181.508L660.449 181.706C660.412 181.354 660.269 181.079 660.02 180.881C659.778 180.683 659.459 180.584 659.063 180.584C658.909 180.584 658.758 180.603 658.612 180.639C658.472 180.669 658.348 180.716 658.238 180.782C658.128 180.848 658.04 180.933 657.974 181.035C657.908 181.131 657.875 181.244 657.875 181.376Z" fill="black"/>
<path d="M633.946 104.526V111.743C633.546 112.512 629.576 113.872 622.946 113.872C616.316 113.872 612.346 112.512 611.946 111.743V104.526H609.946V126.988C609.946 130.103 616.686 131.526 622.946 131.526V129.449C615.626 129.449 612.066 127.663 611.946 126.988V121.951C614.376 123.467 618.666 124.257 622.946 124.257V122.18C615.826 122.18 611.946 120.124 611.946 119.064V114.184C614.676 115.534 619.606 115.949 622.946 115.949C626.286 115.949 631.216 115.534 633.946 114.184V116.084C634.576 116.042 635.246 116.001 635.946 115.98V104.526H633.946Z" fill="#163341"/>
<path d="M622.946 100.526C618.116 100.526 609.946 101.366 609.946 104.526C609.946 105.506 610.726 106.256 611.946 106.836C614.676 108.126 619.606 108.526 622.946 108.526C626.286 108.526 631.216 108.126 633.946 106.836C635.166 106.256 635.946 105.506 635.946 104.526C635.946 101.366 627.776 100.526 622.946 100.526ZM622.946 106.526C616.476 106.526 612.536 105.276 611.976 104.526C612.536 103.776 616.476 102.526 622.946 102.526C629.416 102.526 633.356 103.776 633.916 104.526C633.356 105.276 629.416 106.526 622.946 106.526Z" fill="#FF4438"/>
<path d="M665.946 104.526V111.743C665.546 112.512 661.576 113.872 654.946 113.872C648.316 113.872 644.346 112.512 643.946 111.743V104.526H641.946V116.032C642.656 116.063 643.316 116.115 643.946 116.177V114.184C646.676 115.534 651.606 115.949 654.946 115.949C658.286 115.949 663.216 115.534 665.946 114.184V119.064C665.946 120.124 662.066 122.18 654.946 122.18C654.606 122.18 654.276 122.18 653.946 122.159V124.236C654.276 124.257 654.616 124.257 654.946 124.257C659.226 124.257 663.516 123.467 665.946 121.951V126.988C665.826 127.663 662.266 129.449 654.946 129.449C654.606 129.449 654.276 129.449 653.946 129.439V131.505C654.286 131.526 654.616 131.526 654.946 131.526C661.206 131.526 667.946 130.103 667.946 126.988V104.526H665.946Z" fill="#163341"/>
<path d="M654.946 100.526C650.116 100.526 641.946 101.366 641.946 104.526C641.946 105.506 642.726 106.256 643.946 106.836C646.676 108.126 651.606 108.526 654.946 108.526C658.286 108.526 663.216 108.126 665.946 106.836C667.166 106.256 667.946 105.506 667.946 104.526C667.946 101.366 659.776 100.526 654.946 100.526ZM654.946 106.526C648.476 106.526 644.536 105.276 643.976 104.526C644.536 103.776 648.476 102.526 654.946 102.526C661.416 102.526 665.356 103.776 665.916 104.526C665.356 105.276 661.416 106.526 654.946 106.526Z" fill="#FF4438"/>
<path d="M649.859 122.526V129.743C649.662 130.107 648.634 130.605 646.858 131.031C644.906 131.498 642.05 131.872 638.446 131.872C635.134 131.872 632.475 131.561 630.544 131.145C628.456 130.699 627.241 130.138 627.023 129.743V122.526H624.946V144.988C624.946 148.103 631.946 149.526 638.446 149.526C644.947 149.526 651.946 148.103 651.946 144.988V122.526H649.869H649.859ZM649.859 144.988C649.755 145.549 647.138 146.899 641.821 147.324C641.655 147.335 641.489 147.345 641.323 147.366C641.115 147.376 640.918 147.387 640.7 147.397C640.409 147.407 640.118 147.418 639.817 147.428C639.589 147.439 639.371 147.439 639.142 147.439C638.903 147.449 638.675 147.449 638.436 147.449C638.197 147.449 637.969 147.449 637.73 147.439C637.501 147.439 637.283 147.439 637.055 147.428C636.754 147.418 636.463 147.407 636.172 147.397C635.954 147.387 635.757 147.376 635.549 147.366C635.383 147.345 635.217 147.335 635.051 147.324C629.734 146.899 627.117 145.549 627.013 144.988V139.951C629.536 141.467 633.991 142.257 638.436 142.257C642.881 142.257 647.336 141.467 649.859 139.951V144.988ZM649.859 137.064C649.859 138.124 645.83 140.18 638.436 140.18C631.042 140.18 627.013 138.124 627.013 137.064V132.184C629.848 133.534 634.967 133.949 638.436 133.949C641.904 133.949 647.024 133.534 649.859 132.184V137.064Z" fill="#163341"/>
<path d="M651.936 122.406C651.791 120.286 647.761 119.246 643.639 118.796C642.943 118.726 642.247 118.666 641.562 118.626C640.461 118.556 639.391 118.526 638.446 118.526C637.802 118.526 637.107 118.536 636.369 118.566C635.705 118.596 634.999 118.646 634.292 118.696C629.806 119.076 625.029 120.126 624.946 122.466V122.526C624.946 123.266 625.414 123.876 626.192 124.386C626.442 124.546 626.722 124.696 627.023 124.836C628.851 125.666 631.624 126.126 634.292 126.356C634.999 126.406 635.705 126.456 636.369 126.486C637.107 126.516 637.802 126.526 638.446 126.526C639.391 126.526 640.461 126.496 641.562 126.426C642.247 126.386 642.943 126.326 643.639 126.256C645.975 126.006 648.281 125.556 649.869 124.836C650.233 124.666 650.565 124.486 650.846 124.296C651.541 123.806 651.946 123.216 651.946 122.526C651.946 122.486 651.946 122.446 651.936 122.406ZM647.18 123.646C646.235 123.876 645.041 124.086 643.639 124.246C642.995 124.326 642.299 124.386 641.562 124.426C640.596 124.496 639.557 124.526 638.446 124.526C637.719 124.526 637.034 124.516 636.369 124.486C635.642 124.456 634.947 124.416 634.292 124.346C632.704 124.216 631.343 124.006 630.253 123.766C628.436 123.376 627.335 122.896 627.054 122.526C627.127 122.436 627.241 122.336 627.407 122.246C628.103 121.816 629.661 121.326 631.966 120.966C632.184 120.936 632.413 120.906 632.652 120.876C632.693 120.876 632.724 120.876 632.766 120.856C633.129 120.816 633.514 120.776 633.908 120.736C634.189 120.706 634.469 120.686 634.76 120.666L635.134 120.636C635.466 120.606 635.819 120.586 636.182 120.576C636.245 120.576 636.307 120.566 636.369 120.566C637.034 120.536 637.719 120.526 638.446 120.526C639.236 120.526 639.994 120.546 640.71 120.576C641.001 120.586 641.281 120.606 641.562 120.626C641.749 120.636 641.946 120.646 642.133 120.666C642.424 120.686 642.704 120.706 642.984 120.736C643.68 120.796 644.324 120.886 644.926 120.966C645.072 120.986 645.217 121.016 645.352 121.036C645.487 121.066 645.612 121.086 645.747 121.106C647.242 121.376 648.364 121.716 649.059 122.016C649.454 122.196 649.724 122.376 649.838 122.526C649.589 122.856 648.675 123.276 647.18 123.646Z" fill="#FF4438"/>
<rect x="416.582" y="85.5892" width="115" height="115" rx="3.5" fill="white" stroke="#8A99A0"/>
<path d="M462.788 178.924H461.864V176.35C461.864 176.16 461.82 176.013 461.732 175.91C461.644 175.808 461.49 175.756 461.27 175.756H458.872V178.924H457.948V171.224H460.698C461.094 171.224 461.439 171.283 461.732 171.4C462.025 171.51 462.267 171.661 462.458 171.851C462.656 172.042 462.803 172.266 462.898 172.522C463.001 172.772 463.052 173.036 463.052 173.314V173.644C463.052 173.93 462.971 174.216 462.81 174.502C462.656 174.788 462.414 175.008 462.084 175.162V175.294C462.304 175.331 462.476 175.419 462.601 175.558C462.726 175.698 462.788 175.896 462.788 176.152V178.924ZM458.872 174.898H460.588C461.109 174.898 461.494 174.788 461.743 174.568C462 174.341 462.128 174.011 462.128 173.578V173.38C462.128 172.992 462 172.68 461.743 172.445C461.494 172.203 461.109 172.082 460.588 172.082H458.872V174.898ZM465.332 176.46C465.354 177.003 465.523 177.439 465.838 177.769C466.154 178.099 466.594 178.264 467.158 178.264C467.415 178.264 467.639 178.235 467.829 178.176C468.02 178.118 468.181 178.037 468.313 177.934C468.453 177.832 468.563 177.714 468.643 177.582C468.731 177.443 468.801 177.296 468.852 177.142L469.666 177.362C469.512 177.868 469.226 178.283 468.808 178.605C468.398 178.921 467.84 179.078 467.136 179.078C466.748 179.078 466.388 179.012 466.058 178.88C465.736 178.741 465.457 178.547 465.222 178.297C464.988 178.048 464.804 177.751 464.672 177.406C464.54 177.062 464.474 176.68 464.474 176.262V175.998C464.474 175.617 464.54 175.261 464.672 174.931C464.812 174.601 465.002 174.319 465.244 174.084C465.486 173.842 465.769 173.655 466.091 173.523C466.421 173.384 466.777 173.314 467.158 173.314C467.606 173.314 467.991 173.399 468.313 173.567C468.643 173.729 468.911 173.93 469.116 174.172C469.329 174.414 469.483 174.678 469.578 174.964C469.681 175.25 469.732 175.514 469.732 175.756V176.46H465.332ZM467.158 174.128C466.916 174.128 466.689 174.169 466.476 174.249C466.271 174.323 466.088 174.429 465.926 174.568C465.772 174.708 465.644 174.873 465.541 175.063C465.446 175.247 465.384 175.448 465.354 175.668H468.874C468.86 175.434 468.801 175.221 468.698 175.03C468.603 174.84 468.475 174.678 468.313 174.546C468.159 174.414 467.98 174.312 467.774 174.238C467.576 174.165 467.371 174.128 467.158 174.128ZM475.665 178.088H475.533C475.445 178.257 475.331 178.404 475.192 178.528C475.06 178.653 474.913 178.756 474.752 178.836C474.598 178.917 474.433 178.976 474.257 179.012C474.081 179.056 473.912 179.078 473.751 179.078C473.384 179.078 473.043 179.016 472.728 178.891C472.412 178.767 472.134 178.587 471.892 178.352C471.657 178.118 471.47 177.828 471.331 177.483C471.199 177.131 471.133 176.732 471.133 176.284V176.108C471.133 175.668 471.202 175.276 471.342 174.931C471.481 174.579 471.668 174.286 471.903 174.051C472.137 173.809 472.412 173.626 472.728 173.501C473.043 173.377 473.377 173.314 473.729 173.314C474.103 173.314 474.451 173.399 474.774 173.567C475.104 173.729 475.357 173.982 475.533 174.326H475.665V171.224H476.523V178.924H475.665V178.088ZM473.839 178.264C474.095 178.264 474.334 178.217 474.554 178.121C474.774 178.026 474.964 177.89 475.126 177.714C475.294 177.538 475.426 177.329 475.522 177.087C475.617 176.838 475.665 176.563 475.665 176.262V176.13C475.665 175.837 475.617 175.569 475.522 175.327C475.426 175.078 475.294 174.865 475.126 174.689C474.964 174.513 474.77 174.378 474.543 174.282C474.323 174.18 474.088 174.128 473.839 174.128C473.582 174.128 473.34 174.176 473.113 174.271C472.893 174.367 472.698 174.502 472.53 174.678C472.368 174.854 472.24 175.063 472.145 175.305C472.057 175.547 472.013 175.815 472.013 176.108V176.284C472.013 176.592 472.057 176.867 472.145 177.109C472.24 177.351 472.368 177.56 472.53 177.736C472.698 177.905 472.893 178.037 473.113 178.132C473.333 178.22 473.575 178.264 473.839 178.264ZM479.87 171.84C479.87 171.628 479.943 171.448 480.09 171.301C480.244 171.147 480.427 171.07 480.64 171.07C480.853 171.07 481.032 171.147 481.179 171.301C481.333 171.448 481.41 171.628 481.41 171.84C481.41 172.053 481.333 172.236 481.179 172.39C481.032 172.537 480.853 172.61 480.64 172.61C480.427 172.61 480.244 172.537 480.09 172.39C479.943 172.236 479.87 172.053 479.87 171.84ZM478.308 178.132H480.222V174.26H478.506V173.468H481.08V178.132H482.862V178.924H478.308V178.132ZM486.044 174.876C486.044 175.14 486.154 175.342 486.374 175.481C486.602 175.621 487.012 175.712 487.606 175.756C488.244 175.808 488.728 175.962 489.058 176.218C489.396 176.468 489.564 176.834 489.564 177.318V177.384C489.564 177.648 489.509 177.887 489.399 178.099C489.297 178.305 489.15 178.481 488.959 178.627C488.776 178.774 488.549 178.884 488.277 178.957C488.013 179.038 487.724 179.078 487.408 179.078C486.983 179.078 486.616 179.023 486.308 178.913C486.008 178.796 485.755 178.646 485.549 178.462C485.351 178.272 485.201 178.059 485.098 177.824C484.996 177.582 484.937 177.34 484.922 177.098L485.736 176.9C485.773 177.318 485.934 177.656 486.22 177.912C486.506 178.162 486.888 178.286 487.364 178.286C487.768 178.286 488.09 178.209 488.332 178.055C488.582 177.894 488.706 177.67 488.706 177.384C488.706 177.076 488.585 176.856 488.343 176.724C488.101 176.592 487.709 176.508 487.166 176.471C486.536 176.427 486.052 176.281 485.714 176.031C485.377 175.782 485.208 175.419 485.208 174.942V174.876C485.208 174.62 485.263 174.396 485.373 174.205C485.483 174.007 485.63 173.842 485.813 173.71C486.004 173.578 486.217 173.479 486.451 173.413C486.686 173.347 486.932 173.314 487.188 173.314C487.548 173.314 487.863 173.366 488.134 173.468C488.406 173.564 488.633 173.692 488.816 173.853C489 174.007 489.139 174.187 489.234 174.392C489.337 174.598 489.403 174.803 489.432 175.008L488.618 175.206C488.582 174.854 488.439 174.579 488.189 174.381C487.947 174.183 487.628 174.084 487.232 174.084C487.078 174.084 486.928 174.103 486.781 174.139C486.642 174.169 486.517 174.216 486.407 174.282C486.297 174.348 486.209 174.433 486.143 174.535C486.077 174.631 486.044 174.744 486.044 174.876Z" fill="black"/>
<circle cx="474.082" cy="124.526" r="27" fill="#FF4438"/>
<g clip-path="url(#clip0_12170_147)">
<path d="M488.212 126.028C486.022 128.77 483.656 131.903 478.926 131.903C474.7 131.903 473.126 128.2 473.015 125.192C473.941 127.137 475.751 128.712 478.575 128.639C484.007 128.465 487.73 123.591 487.73 119.153C487.73 113.844 483.744 110.015 476.823 110.015C471.873 110.015 465.741 111.886 461.711 114.845C461.667 117.891 463.375 121.851 463.989 121.416C467.482 118.92 470.253 117.314 472.94 116.509C468.962 120.915 459.419 131.146 458.25 132.947C458.382 134.6 460.441 139.039 461.448 139.039C461.755 139.039 462.018 138.865 462.324 138.56C465.201 135.349 467.547 132.47 469.633 129.695C469.926 133.762 471.939 138.734 477.568 138.734C482.605 138.734 487.599 135.123 489.876 126.985C490.139 125.985 488.913 125.201 488.212 126.028ZM482.474 119.458C482.474 122.025 479.933 123.287 477.611 123.287C476.371 123.287 475.417 122.963 474.663 122.542C476.051 120.456 477.424 118.316 478.899 116.026C481.5 116.463 482.474 117.9 482.474 119.458Z" fill="white"/>
</g>
<path d="M395.512 143.443C395.707 143.247 395.707 142.931 395.512 142.736L392.33 139.554C392.134 139.358 391.818 139.358 391.622 139.554C391.427 139.749 391.427 140.065 391.622 140.261L394.451 143.089L391.622 145.918C391.427 146.113 391.427 146.429 391.622 146.625C391.818 146.82 392.134 146.82 392.33 146.625L395.512 143.443ZM395.158 142.589L320.84 142.589L320.84 143.589L395.158 143.589L395.158 142.589Z" fill="#8A99A0"/>
<path d="M355.672 132.424H354.748V129.85C354.748 129.66 354.704 129.513 354.616 129.41C354.528 129.308 354.374 129.256 354.154 129.256H351.756V132.424H350.832V124.724H353.582C353.978 124.724 354.323 124.783 354.616 124.9C354.909 125.01 355.151 125.161 355.342 125.351C355.54 125.542 355.687 125.766 355.782 126.022C355.885 126.272 355.936 126.536 355.936 126.814V127.144C355.936 127.43 355.855 127.716 355.694 128.002C355.54 128.288 355.298 128.508 354.968 128.662V128.794C355.188 128.831 355.36 128.919 355.485 129.058C355.61 129.198 355.672 129.396 355.672 129.652V132.424ZM351.756 128.398H353.472C353.993 128.398 354.378 128.288 354.627 128.068C354.884 127.841 355.012 127.511 355.012 127.078V126.88C355.012 126.492 354.884 126.18 354.627 125.945C354.378 125.703 353.993 125.582 353.472 125.582H351.756V128.398ZM357.435 124.724H359.965C360.919 124.724 361.615 124.952 362.055 125.406C362.495 125.861 362.715 126.587 362.715 127.584V129.564C362.715 130.562 362.495 131.288 362.055 131.742C361.615 132.197 360.919 132.424 359.965 132.424H357.435V131.555H358.095V125.582H357.435V124.724ZM359.833 131.566C360.171 131.566 360.46 131.533 360.702 131.467C360.952 131.401 361.157 131.291 361.318 131.137C361.48 130.976 361.597 130.763 361.67 130.499C361.751 130.235 361.791 129.902 361.791 129.498V127.65C361.791 127.247 361.751 126.913 361.67 126.649C361.597 126.385 361.48 126.176 361.318 126.022C361.157 125.861 360.952 125.747 360.702 125.681C360.46 125.615 360.171 125.582 359.833 125.582H359.019V131.566H359.833ZM364.292 124.724H369.176V125.582H367.196V131.566H369.176V132.424H364.292V131.566H366.272V125.582H364.292V124.724Z" fill="black"/>
<path d="M355.173 99.5529C354.846 99.5529 354.52 99.4639 354.213 99.2956L350.67 97.2073C349.898 96.7421 349.541 95.782 349.828 94.9309L350.967 91.5954C350.373 90.7937 349.888 89.9327 349.502 89.0023L346.127 88.3392C345.236 88.1709 344.583 87.3692 344.583 86.4488V82.282C344.583 81.3615 345.236 80.5598 346.127 80.3916L349.522 79.7186C349.898 78.8179 350.383 77.9667 350.967 77.1848L349.819 73.7999C349.532 72.9289 349.888 71.9689 350.65 71.5136L354.193 69.4253C354.995 68.9601 355.985 69.1184 356.598 69.8212L358.894 72.533C359.835 72.4143 360.765 72.4143 361.695 72.533L363.982 69.831C364.605 69.1184 365.595 68.9502 366.397 69.4154L369.93 71.5037C370.702 71.959 371.068 72.919 370.781 73.7801L369.633 77.1749C370.217 77.9568 370.702 78.808 371.078 79.7087L374.473 80.3817C375.364 80.5598 376.017 81.3516 376.017 82.2721V86.4389C376.017 87.3593 375.364 88.161 374.473 88.3293L371.108 88.9924C370.732 89.9228 370.237 90.7838 369.643 91.5855L370.771 94.9111C371.058 95.7919 370.702 96.752 369.92 97.2073L366.407 99.2857C365.595 99.7509 364.615 99.5925 364.002 98.8799L361.765 96.2373C360.785 96.366 359.825 96.366 358.835 96.2373L356.608 98.87C356.222 99.3154 355.688 99.5431 355.153 99.5431L355.173 99.5529ZM355.153 71.1672L351.679 73.216L353.203 77.5708L352.857 77.9964C352.144 78.8773 351.58 79.8571 351.184 80.926L350.996 81.4506L346.523 82.3315L346.582 86.4488L350.986 87.2802L351.174 87.8146C351.56 88.9033 352.125 89.903 352.847 90.7838L353.194 91.2094L351.709 95.5643L355.153 97.5636L358.063 94.1193L358.627 94.2182C359.756 94.4162 360.874 94.4162 362.002 94.2182L362.566 94.1193L365.476 97.5636L368.94 95.5148L367.436 91.2094L367.782 90.7838C368.505 89.903 369.069 88.9033 369.455 87.8146L369.643 87.2802L374.107 86.3993L374.047 82.282L369.633 81.4506L369.445 80.926C369.049 79.8571 368.485 78.8674 367.772 77.9964L367.426 77.5708L368.921 73.1665L365.476 71.1672L362.507 74.6709L361.953 74.5719C360.864 74.3839 359.775 74.3839 358.687 74.5719L358.132 74.6709L355.163 71.1672H355.153Z" fill="#FF4438"/>
<path d="M360.308 89.5566C357.438 89.5566 355.112 87.2208 355.112 84.3604C355.112 81.5001 357.448 79.1643 360.308 79.1643C363.169 79.1643 365.504 81.5001 365.504 84.3604C365.504 87.2208 363.169 89.5566 360.308 89.5566ZM360.308 81.1339C358.537 81.1339 357.092 82.5789 357.092 84.3505C357.092 86.1222 358.537 87.5672 360.308 87.5672C362.08 87.5672 363.525 86.1222 363.525 84.3505C363.525 82.5789 362.08 81.1339 360.308 81.1339Z" fill="#163341"/>
<path d="M351.193 65.1199L350.342 63.3384C353.469 61.8537 356.824 61.1015 360.308 61.1015C362.911 61.1015 365.405 61.5271 367.741 62.3288C367.771 63.0711 367.85 63.8035 367.979 64.5162C365.594 63.5858 363.01 63.081 360.308 63.081C357.121 63.081 354.053 63.7639 351.193 65.1199Z" fill="#163341"/>
<path d="M383.567 84.3605C383.567 97.1776 373.136 107.619 360.309 107.619C347.481 107.619 337.05 97.1776 337.05 84.3605C337.05 80.3124 338.109 76.3733 340.088 72.8894L338.089 71.6225L343.859 68.9502L343.918 75.3241L341.761 73.9484C339.979 77.1156 339.029 80.6885 339.029 84.3605C339.029 96.0889 348.58 105.64 360.309 105.64C372.037 105.64 381.588 96.0889 381.588 84.3605C381.588 81.5595 381.044 78.8872 380.054 76.4326C380.766 76.5613 381.499 76.6306 382.241 76.6405C383.102 79.0555 383.567 81.6585 383.567 84.3605Z" fill="#163341"/>
<path d="M395 62.0259C395 68.9259 389.41 74.5259 382.5 74.5259C381.1 74.5259 379.75 74.2959 378.5 73.8659H378.48C377.81 73.6359 377.17 73.3559 376.56 73.0259C376.52 73.0059 376.47 72.9759 376.42 72.9459C374.84 72.0659 373.47 70.8559 372.41 69.4059C371.8 68.5659 371.28 67.6559 370.89 66.6759C370.32 65.2359 370 63.6659 370 62.0259C370 55.1259 375.6 49.5259 382.5 49.5259C389.4 49.5259 395 55.1259 395 62.0259Z" fill="#FF4438"/>
<path d="M389.201 62.7026C388.161 63.9227 387.043 65.3314 384.795 65.3314C382.795 65.3314 382.049 63.6676 381.993 62.3254C382.434 63.1906 383.292 63.9005 384.625 63.8672C387.201 63.7896 388.963 61.6044 388.963 59.6189C388.963 57.2452 387.077 55.5259 383.8 55.5259C381.451 55.5259 378.547 56.3689 376.638 57.6889C376.615 59.0532 377.429 60.828 377.723 60.6283C379.372 59.5191 380.682 58.7981 381.959 58.4321C380.072 60.4065 375.554 64.9875 375 65.7973C375.056 66.5404 376.039 68.5259 376.514 68.5259C376.661 68.5259 376.785 68.4483 376.932 68.3152C378.287 66.8732 379.406 65.5865 380.389 64.3442C380.536 66.1633 381.485 68.3928 384.151 68.3928C386.534 68.3928 388.907 66.7734 389.98 63.1241C390.116 62.6804 389.528 62.3254 389.201 62.7026ZM386.478 59.752C386.478 60.9056 385.269 61.4713 384.173 61.4713C383.586 61.4713 383.134 61.3271 382.772 61.1386C383.439 60.2068 384.083 59.2418 384.783 58.2213C386.015 58.4099 386.478 59.0532 386.478 59.752Z" fill="white"/>
<defs>
<clipPath id="clip0_12170_147">
<rect width="31.6623" height="29.0238" fill="white" transform="translate(458.25 110.014)"/>
</clipPath>
</defs>
</svg>
