<svg width="720" height="260" viewBox="0 0 720 260" fill="none" xmlns="http://www.w3.org/2000/svg">
<rect width="720" height="260" fill="white"/>
<rect x="21.2402" y="17.2864" width="677.52" height="38.315" rx="3.43172" fill="white" stroke="#8A99A0" stroke-width="0.980491"/>
<path d="M327.972 38.53H324.672L324.111 40.444H323.121L325.453 32.744H327.191L329.523 40.444H328.533L327.972 38.53ZM326.256 33.14L324.925 37.672H327.719L326.388 33.14H326.256ZM331.308 42.644H330.45V34.988H331.308V35.846H331.44C331.631 35.516 331.895 35.2667 332.232 35.098C332.569 34.922 332.936 34.834 333.332 34.834C333.669 34.834 333.988 34.8964 334.289 35.021C334.59 35.1457 334.854 35.3254 335.081 35.56C335.316 35.7947 335.499 36.0844 335.631 36.429C335.77 36.7737 335.84 37.166 335.84 37.606V37.826C335.84 38.2734 335.774 38.6694 335.642 39.014C335.51 39.3587 335.327 39.6484 335.092 39.883C334.865 40.1177 334.597 40.2974 334.289 40.422C333.981 40.5394 333.655 40.598 333.31 40.598C333.134 40.598 332.954 40.576 332.771 40.532C332.588 40.4954 332.412 40.4367 332.243 40.356C332.082 40.268 331.931 40.1654 331.792 40.048C331.653 39.9234 331.535 39.7767 331.44 39.608H331.308V42.644ZM333.134 39.784C333.398 39.784 333.64 39.74 333.86 39.652C334.08 39.5567 334.271 39.4247 334.432 39.256C334.601 39.0874 334.729 38.882 334.817 38.64C334.912 38.398 334.96 38.1267 334.96 37.826V37.606C334.96 37.3127 334.912 37.0487 334.817 36.814C334.729 36.572 334.601 36.3667 334.432 36.198C334.271 36.022 334.076 35.8864 333.849 35.791C333.629 35.6957 333.391 35.648 333.134 35.648C332.877 35.648 332.639 35.6994 332.419 35.802C332.199 35.8974 332.005 36.033 331.836 36.209C331.675 36.385 331.546 36.5977 331.451 36.847C331.356 37.089 331.308 37.3567 331.308 37.65V37.782C331.308 38.0827 331.356 38.3577 331.451 38.607C331.546 38.849 331.675 39.058 331.836 39.234C332.005 39.41 332.199 39.5457 332.419 39.641C332.639 39.7364 332.877 39.784 333.134 39.784ZM338.043 42.644H337.185V34.988H338.043V35.846H338.175C338.366 35.516 338.63 35.2667 338.967 35.098C339.305 34.922 339.671 34.834 340.067 34.834C340.405 34.834 340.724 34.8964 341.024 35.021C341.325 35.1457 341.589 35.3254 341.816 35.56C342.051 35.7947 342.234 36.0844 342.366 36.429C342.506 36.7737 342.575 37.166 342.575 37.606V37.826C342.575 38.2734 342.509 38.6694 342.377 39.014C342.245 39.3587 342.062 39.6484 341.827 39.883C341.6 40.1177 341.332 40.2974 341.024 40.422C340.716 40.5394 340.39 40.598 340.045 40.598C339.869 40.598 339.69 40.576 339.506 40.532C339.323 40.4954 339.147 40.4367 338.978 40.356C338.817 40.268 338.667 40.1654 338.527 40.048C338.388 39.9234 338.271 39.7767 338.175 39.608H338.043V42.644ZM339.869 39.784C340.133 39.784 340.375 39.74 340.595 39.652C340.815 39.5567 341.006 39.4247 341.167 39.256C341.336 39.0874 341.464 38.882 341.552 38.64C341.648 38.398 341.695 38.1267 341.695 37.826V37.606C341.695 37.3127 341.648 37.0487 341.552 36.814C341.464 36.572 341.336 36.3667 341.167 36.198C341.006 36.022 340.812 35.8864 340.584 35.791C340.364 35.6957 340.126 35.648 339.869 35.648C339.613 35.648 339.374 35.6994 339.154 35.802C338.934 35.8974 338.74 36.033 338.571 36.209C338.41 36.385 338.282 36.5977 338.186 36.847C338.091 37.089 338.043 37.3567 338.043 37.65V37.782C338.043 38.0827 338.091 38.3577 338.186 38.607C338.282 38.849 338.41 39.058 338.571 39.234C338.74 39.41 338.934 39.5457 339.154 39.641C339.374 39.7364 339.613 39.784 339.869 39.784ZM344.119 39.652H346.099V33.536H344.185V32.744H346.957V39.652H348.937V40.444H344.119V39.652ZM352.548 33.36C352.548 33.1474 352.621 32.9677 352.768 32.821C352.922 32.667 353.105 32.59 353.318 32.59C353.531 32.59 353.71 32.667 353.857 32.821C354.011 32.9677 354.088 33.1474 354.088 33.36C354.088 33.5727 354.011 33.756 353.857 33.91C353.71 34.0567 353.531 34.13 353.318 34.13C353.105 34.13 352.922 34.0567 352.768 33.91C352.621 33.756 352.548 33.5727 352.548 33.36ZM350.986 39.652H352.9V35.78H351.184V34.988H353.758V39.652H355.54V40.444H350.986V39.652ZM362.693 38.508C362.635 38.8087 362.532 39.0874 362.385 39.344C362.246 39.6007 362.066 39.8244 361.846 40.015C361.626 40.1984 361.37 40.3414 361.076 40.444C360.783 40.5467 360.457 40.598 360.097 40.598C359.716 40.598 359.353 40.5357 359.008 40.411C358.671 40.2864 358.374 40.1067 358.117 39.872C357.861 39.63 357.655 39.3367 357.501 38.992C357.355 38.6474 357.281 38.2514 357.281 37.804V37.672C357.281 37.232 357.355 36.836 357.501 36.484C357.655 36.132 357.861 35.835 358.117 35.593C358.374 35.351 358.671 35.164 359.008 35.032C359.353 34.9 359.716 34.834 360.097 34.834C360.442 34.834 360.761 34.8854 361.054 34.988C361.348 35.0907 361.604 35.2374 361.824 35.428C362.052 35.6114 362.235 35.8314 362.374 36.088C362.521 36.3447 362.62 36.6234 362.671 36.924L361.813 37.122C361.791 36.9314 361.736 36.748 361.648 36.572C361.568 36.3887 361.454 36.231 361.307 36.099C361.168 35.9597 360.996 35.8497 360.79 35.769C360.585 35.6884 360.347 35.648 360.075 35.648C359.811 35.648 359.562 35.6994 359.327 35.802C359.1 35.8974 358.898 36.0367 358.722 36.22C358.546 36.396 358.407 36.6087 358.304 36.858C358.209 37.1074 358.161 37.3787 358.161 37.672V37.804C358.161 38.112 358.209 38.3907 358.304 38.64C358.407 38.882 358.546 39.0874 358.722 39.256C358.898 39.4247 359.104 39.5567 359.338 39.652C359.573 39.74 359.826 39.784 360.097 39.784C360.369 39.784 360.603 39.7437 360.801 39.663C361.007 39.575 361.179 39.465 361.318 39.333C361.465 39.1937 361.579 39.036 361.659 38.86C361.747 38.684 361.806 38.5007 361.835 38.31L362.693 38.508ZM368.285 39.52H368.153C367.977 39.8867 367.731 40.158 367.416 40.334C367.108 40.51 366.781 40.598 366.437 40.598C366.077 40.598 365.744 40.5394 365.436 40.422C365.128 40.2974 364.856 40.1177 364.622 39.883C364.394 39.641 364.215 39.3477 364.083 39.003C363.951 38.6584 363.885 38.2587 363.885 37.804V37.628C363.885 37.1807 363.951 36.7847 364.083 36.44C364.215 36.0954 364.394 35.8057 364.622 35.571C364.856 35.329 365.128 35.1457 365.436 35.021C365.744 34.8964 366.07 34.834 366.415 34.834C366.789 34.834 367.126 34.9184 367.427 35.087C367.735 35.2484 367.977 35.5014 368.153 35.846H368.285V34.988H369.143V39.322C369.143 39.542 369.242 39.652 369.44 39.652H369.715V40.444H369.132C368.882 40.444 368.677 40.3634 368.516 40.202C368.362 40.0407 368.285 39.8354 368.285 39.586V39.52ZM366.525 39.784C366.781 39.784 367.016 39.7364 367.229 39.641C367.449 39.5457 367.636 39.41 367.79 39.234C367.944 39.058 368.065 38.849 368.153 38.607C368.241 38.3577 368.285 38.0827 368.285 37.782V37.65C368.285 37.3567 368.241 37.089 368.153 36.847C368.065 36.5977 367.94 36.385 367.779 36.209C367.625 36.033 367.438 35.8974 367.218 35.802C367.005 35.6994 366.774 35.648 366.525 35.648C366.268 35.648 366.033 35.6957 365.821 35.791C365.608 35.8864 365.421 36.022 365.26 36.198C365.106 36.3667 364.985 36.5757 364.897 36.825C364.809 37.067 364.765 37.3347 364.765 37.628V37.804C364.765 38.4274 364.926 38.915 365.249 39.267C365.579 39.6117 366.004 39.784 366.525 39.784ZM370.873 34.988H372.589V32.744H373.447V34.988H375.559V35.78H373.447V39.322C373.447 39.542 373.546 39.652 373.744 39.652H375.295V40.444H373.436C373.187 40.444 372.981 40.3634 372.82 40.202C372.666 40.0407 372.589 39.8354 372.589 39.586V35.78H370.873V34.988ZM379.489 33.36C379.489 33.1474 379.563 32.9677 379.709 32.821C379.863 32.667 380.047 32.59 380.259 32.59C380.472 32.59 380.652 32.667 380.798 32.821C380.952 32.9677 381.029 33.1474 381.029 33.36C381.029 33.5727 380.952 33.756 380.798 33.91C380.652 34.0567 380.472 34.13 380.259 34.13C380.047 34.13 379.863 34.0567 379.709 33.91C379.563 33.756 379.489 33.5727 379.489 33.36ZM377.927 39.652H379.841V35.78H378.125V34.988H380.699V39.652H382.481V40.444H377.927V39.652ZM389.679 37.782C389.679 38.2367 389.602 38.64 389.448 38.992C389.301 39.3367 389.103 39.63 388.854 39.872C388.604 40.1067 388.311 40.2864 387.974 40.411C387.644 40.5357 387.299 40.598 386.94 40.598C386.573 40.598 386.225 40.5357 385.895 40.411C385.565 40.2864 385.275 40.1067 385.026 39.872C384.776 39.63 384.575 39.3367 384.421 38.992C384.274 38.64 384.201 38.2367 384.201 37.782V37.65C384.201 37.2027 384.274 36.8067 384.421 36.462C384.575 36.11 384.776 35.813 385.026 35.571C385.282 35.329 385.576 35.1457 385.906 35.021C386.236 34.8964 386.58 34.834 386.94 34.834C387.299 34.834 387.644 34.8964 387.974 35.021C388.304 35.1457 388.593 35.329 388.843 35.571C389.099 35.813 389.301 36.11 389.448 36.462C389.602 36.8067 389.679 37.2027 389.679 37.65V37.782ZM386.94 39.784C387.204 39.784 387.446 39.74 387.666 39.652C387.893 39.5567 388.091 39.421 388.26 39.245C388.428 39.069 388.56 38.86 388.656 38.618C388.751 38.3687 388.799 38.09 388.799 37.782V37.65C388.799 37.3567 388.751 37.089 388.656 36.847C388.56 36.5977 388.428 36.385 388.26 36.209C388.091 36.033 387.893 35.8974 387.666 35.802C387.438 35.6994 387.196 35.648 386.94 35.648C386.683 35.648 386.441 35.6994 386.214 35.802C385.986 35.8974 385.788 36.033 385.62 36.209C385.451 36.385 385.319 36.5977 385.224 36.847C385.128 37.089 385.081 37.3567 385.081 37.65V37.782C385.081 38.09 385.128 38.3687 385.224 38.618C385.319 38.86 385.451 39.069 385.62 39.245C385.788 39.421 385.983 39.5567 386.203 39.652C386.43 39.74 386.676 39.784 386.94 39.784ZM392.124 40.444H391.266V34.988H392.124V35.912H392.256C392.593 35.1934 393.18 34.834 394.016 34.834C394.647 34.834 395.149 35.032 395.523 35.428C395.897 35.8167 396.084 36.4034 396.084 37.188V40.444H395.226V37.364C395.226 36.792 395.098 36.363 394.841 36.077C394.584 35.791 394.236 35.648 393.796 35.648C393.275 35.648 392.865 35.8277 392.564 36.187C392.271 36.539 392.124 37.012 392.124 37.606V40.444Z" fill="black"/>
<path d="M73.6036 129.557C73.4083 129.753 73.0917 129.753 72.8964 129.557L69.7145 126.375C69.5192 126.18 69.5192 125.864 69.7145 125.668C69.9097 125.473 70.2263 125.473 70.4216 125.668L73.25 128.497L76.0784 125.668C76.2737 125.473 76.5903 125.473 76.7855 125.668C76.9808 125.864 76.9808 126.18 76.7855 126.375L73.6036 129.557ZM72.75 129.204L72.75 65.4825L73.75 65.4825L73.75 129.204L72.75 129.204Z" fill="#8A99A0"/>
<path d="M646.396 65.129C646.592 64.9337 646.908 64.9337 647.104 65.129L650.286 68.311C650.481 68.5062 650.481 68.8228 650.286 69.0181C650.09 69.2133 649.774 69.2133 649.578 69.0181L646.75 66.1897L643.922 69.0181C643.726 69.2133 643.41 69.2133 643.214 69.0181C643.019 68.8228 643.019 68.5062 643.214 68.311L646.396 65.129ZM646.25 129.204L646.25 65.4825L647.25 65.4825L647.25 129.204L646.25 129.204Z" fill="#8A99A0"/>
<rect x="21.25" y="138.704" width="104" height="104" rx="3.5" fill="white" stroke="#8A99A0"/>
<rect x="596.875" y="138.704" width="104" height="104" rx="3.5" fill="white" stroke="#8A99A0"/>
<path d="M47.1116 223.104H49.6416C50.5949 223.104 51.2916 223.331 51.7316 223.786C52.1716 224.241 52.3916 224.967 52.3916 225.964V227.944C52.3916 228.941 52.1716 229.667 51.7316 230.122C51.2916 230.577 50.5949 230.804 49.6416 230.804H47.1116V229.935H47.7716V223.962H47.1116V223.104ZM49.5096 229.946C49.8469 229.946 50.1366 229.913 50.3786 229.847C50.6279 229.781 50.8333 229.671 50.9946 229.517C51.1559 229.356 51.2733 229.143 51.3466 228.879C51.4273 228.615 51.4676 228.281 51.4676 227.878V226.03C51.4676 225.627 51.4273 225.293 51.3466 225.029C51.2733 224.765 51.1559 224.556 50.9946 224.402C50.8333 224.241 50.6279 224.127 50.3786 224.061C50.1366 223.995 49.8469 223.962 49.5096 223.962H48.6956V229.946H49.5096ZM57.9609 229.88H57.8289C57.6529 230.247 57.4073 230.518 57.0919 230.694C56.7839 230.87 56.4576 230.958 56.1129 230.958C55.7536 230.958 55.4199 230.899 55.1119 230.782C54.8039 230.657 54.5326 230.478 54.2979 230.243C54.0706 230.001 53.8909 229.708 53.7589 229.363C53.6269 229.018 53.5609 228.619 53.5609 228.164V227.988C53.5609 227.541 53.6269 227.145 53.7589 226.8C53.8909 226.455 54.0706 226.166 54.2979 225.931C54.5326 225.689 54.8039 225.506 55.1119 225.381C55.4199 225.256 55.7463 225.194 56.0909 225.194C56.4649 225.194 56.8023 225.278 57.1029 225.447C57.4109 225.608 57.6529 225.861 57.8289 226.206H57.9609V225.348H58.8189V229.682C58.8189 229.902 58.9179 230.012 59.1159 230.012H59.3909V230.804H58.8079C58.5586 230.804 58.3533 230.723 58.1919 230.562C58.0379 230.401 57.9609 230.195 57.9609 229.946V229.88ZM56.2009 230.144C56.4576 230.144 56.6923 230.096 56.9049 230.001C57.1249 229.906 57.3119 229.77 57.4659 229.594C57.6199 229.418 57.7409 229.209 57.8289 228.967C57.9169 228.718 57.9609 228.443 57.9609 228.142V228.01C57.9609 227.717 57.9169 227.449 57.8289 227.207C57.7409 226.958 57.6163 226.745 57.4549 226.569C57.3009 226.393 57.1139 226.257 56.8939 226.162C56.6813 226.059 56.4503 226.008 56.2009 226.008C55.9443 226.008 55.7096 226.056 55.4969 226.151C55.2843 226.246 55.0973 226.382 54.9359 226.558C54.7819 226.727 54.6609 226.936 54.5729 227.185C54.4849 227.427 54.4409 227.695 54.4409 227.988V228.164C54.4409 228.787 54.6023 229.275 54.9249 229.627C55.2549 229.972 55.6803 230.144 56.2009 230.144ZM60.5493 225.348H62.2653V223.104H63.1233V225.348H65.2353V226.14H63.1233V229.682C63.1233 229.902 63.2223 230.012 63.4203 230.012H64.9713V230.804H63.1123C62.863 230.804 62.6576 230.723 62.4963 230.562C62.3423 230.401 62.2653 230.195 62.2653 229.946V226.14H60.5493V225.348ZM71.4316 229.88H71.2996C71.1236 230.247 70.878 230.518 70.5626 230.694C70.2546 230.87 69.9283 230.958 69.5836 230.958C69.2243 230.958 68.8906 230.899 68.5826 230.782C68.2746 230.657 68.0033 230.478 67.7686 230.243C67.5413 230.001 67.3616 229.708 67.2296 229.363C67.0976 229.018 67.0316 228.619 67.0316 228.164V227.988C67.0316 227.541 67.0976 227.145 67.2296 226.8C67.3616 226.455 67.5413 226.166 67.7686 225.931C68.0033 225.689 68.2746 225.506 68.5826 225.381C68.8906 225.256 69.217 225.194 69.5616 225.194C69.9356 225.194 70.273 225.278 70.5736 225.447C70.8816 225.608 71.1236 225.861 71.2996 226.206H71.4316V225.348H72.2896V229.682C72.2896 229.902 72.3886 230.012 72.5866 230.012H72.8616V230.804H72.2786C72.0293 230.804 71.824 230.723 71.6626 230.562C71.5086 230.401 71.4316 230.195 71.4316 229.946V229.88ZM69.6716 230.144C69.9283 230.144 70.163 230.096 70.3756 230.001C70.5956 229.906 70.7826 229.77 70.9366 229.594C71.0906 229.418 71.2116 229.209 71.2996 228.967C71.3876 228.718 71.4316 228.443 71.4316 228.142V228.01C71.4316 227.717 71.3876 227.449 71.2996 227.207C71.2116 226.958 71.087 226.745 70.9256 226.569C70.7716 226.393 70.5846 226.257 70.3646 226.162C70.152 226.059 69.921 226.008 69.6716 226.008C69.415 226.008 69.1803 226.056 68.9676 226.151C68.755 226.246 68.568 226.382 68.4066 226.558C68.2526 226.727 68.1316 226.936 68.0436 227.185C67.9556 227.427 67.9116 227.695 67.9116 227.988V228.164C67.9116 228.787 68.073 229.275 68.3956 229.627C68.7256 229.972 69.151 230.144 69.6716 230.144ZM74.867 230.804H74.009V223.104H74.867V226.206H74.999C75.1897 225.876 75.4537 225.627 75.791 225.458C76.1283 225.282 76.495 225.194 76.891 225.194C77.2283 225.194 77.5473 225.256 77.848 225.381C78.1487 225.506 78.4127 225.685 78.64 225.92C78.8747 226.155 79.058 226.444 79.19 226.789C79.3293 227.134 79.399 227.526 79.399 227.966V228.186C79.399 228.633 79.333 229.029 79.201 229.374C79.069 229.719 78.8857 230.008 78.651 230.243C78.4237 230.478 78.156 230.657 77.848 230.782C77.54 230.899 77.2137 230.958 76.869 230.958C76.693 230.958 76.5133 230.936 76.33 230.892C76.1467 230.855 75.9707 230.797 75.802 230.716C75.6407 230.628 75.4903 230.525 75.351 230.408C75.2117 230.283 75.0943 230.137 74.999 229.968H74.867V230.804ZM76.693 230.144C76.957 230.144 77.199 230.1 77.419 230.012C77.639 229.917 77.8297 229.785 77.991 229.616C78.1597 229.447 78.288 229.242 78.376 229C78.4713 228.758 78.519 228.487 78.519 228.186V227.966C78.519 227.673 78.4713 227.409 78.376 227.174C78.288 226.932 78.1597 226.727 77.991 226.558C77.8297 226.382 77.6353 226.246 77.408 226.151C77.188 226.056 76.9497 226.008 76.693 226.008C76.4363 226.008 76.198 226.059 75.978 226.162C75.758 226.257 75.5637 226.393 75.395 226.569C75.2337 226.745 75.1053 226.958 75.01 227.207C74.9147 227.449 74.867 227.717 74.867 228.01V228.142C74.867 228.443 74.9147 228.718 75.01 228.967C75.1053 229.209 75.2337 229.418 75.395 229.594C75.5637 229.77 75.758 229.906 75.978 230.001C76.198 230.096 76.4363 230.144 76.693 230.144ZM84.9024 229.88H84.7704C84.5944 230.247 84.3487 230.518 84.0334 230.694C83.7254 230.87 83.399 230.958 83.0544 230.958C82.695 230.958 82.3614 230.899 82.0534 230.782C81.7454 230.657 81.474 230.478 81.2394 230.243C81.012 230.001 80.8324 229.708 80.7004 229.363C80.5684 229.018 80.5024 228.619 80.5024 228.164V227.988C80.5024 227.541 80.5684 227.145 80.7004 226.8C80.8324 226.455 81.012 226.166 81.2394 225.931C81.474 225.689 81.7454 225.506 82.0534 225.381C82.3614 225.256 82.6877 225.194 83.0324 225.194C83.4064 225.194 83.7437 225.278 84.0444 225.447C84.3524 225.608 84.5944 225.861 84.7704 226.206H84.9024V225.348H85.7604V229.682C85.7604 229.902 85.8594 230.012 86.0574 230.012H86.3324V230.804H85.7494C85.5 230.804 85.2947 230.723 85.1334 230.562C84.9794 230.401 84.9024 230.195 84.9024 229.946V229.88ZM83.1424 230.144C83.399 230.144 83.6337 230.096 83.8464 230.001C84.0664 229.906 84.2534 229.77 84.4074 229.594C84.5614 229.418 84.6824 229.209 84.7704 228.967C84.8584 228.718 84.9024 228.443 84.9024 228.142V228.01C84.9024 227.717 84.8584 227.449 84.7704 227.207C84.6824 226.958 84.5577 226.745 84.3964 226.569C84.2424 226.393 84.0554 226.257 83.8354 226.162C83.6227 226.059 83.3917 226.008 83.1424 226.008C82.8857 226.008 82.651 226.056 82.4384 226.151C82.2257 226.246 82.0387 226.382 81.8774 226.558C81.7234 226.727 81.6024 226.936 81.5144 227.185C81.4264 227.427 81.3824 227.695 81.3824 227.988V228.164C81.3824 228.787 81.5437 229.275 81.8664 229.627C82.1964 229.972 82.6217 230.144 83.1424 230.144ZM88.8107 226.756C88.8107 227.02 88.9207 227.222 89.1407 227.361C89.368 227.5 89.7787 227.592 90.3727 227.636C91.0107 227.687 91.4947 227.841 91.8247 228.098C92.162 228.347 92.3307 228.714 92.3307 229.198V229.264C92.3307 229.528 92.2757 229.766 92.1657 229.979C92.063 230.184 91.9164 230.36 91.7257 230.507C91.5424 230.654 91.315 230.764 91.0437 230.837C90.7797 230.918 90.49 230.958 90.1747 230.958C89.7494 230.958 89.3827 230.903 89.0747 230.793C88.774 230.676 88.521 230.525 88.3157 230.342C88.1177 230.151 87.9674 229.939 87.8647 229.704C87.762 229.462 87.7034 229.22 87.6887 228.978L88.5027 228.78C88.5394 229.198 88.7007 229.535 88.9867 229.792C89.2727 230.041 89.654 230.166 90.1307 230.166C90.534 230.166 90.8567 230.089 91.0987 229.935C91.348 229.774 91.4727 229.55 91.4727 229.264C91.4727 228.956 91.3517 228.736 91.1097 228.604C90.8677 228.472 90.4754 228.388 89.9327 228.351C89.302 228.307 88.818 228.16 88.4807 227.911C88.1434 227.662 87.9747 227.299 87.9747 226.822V226.756C87.9747 226.499 88.0297 226.276 88.1397 226.085C88.2497 225.887 88.3964 225.722 88.5797 225.59C88.7704 225.458 88.983 225.359 89.2177 225.293C89.4524 225.227 89.698 225.194 89.9547 225.194C90.314 225.194 90.6294 225.245 90.9007 225.348C91.172 225.443 91.3994 225.572 91.5827 225.733C91.766 225.887 91.9054 226.067 92.0007 226.272C92.1034 226.477 92.1694 226.683 92.1987 226.888L91.3847 227.086C91.348 226.734 91.205 226.459 90.9557 226.261C90.7137 226.063 90.3947 225.964 89.9987 225.964C89.8447 225.964 89.6944 225.982 89.5477 226.019C89.4084 226.048 89.2837 226.096 89.1737 226.162C89.0637 226.228 88.9757 226.312 88.9097 226.415C88.8437 226.51 88.8107 226.624 88.8107 226.756ZM95.0401 228.34C95.0621 228.883 95.2307 229.319 95.5461 229.649C95.8614 229.979 96.3014 230.144 96.8661 230.144C97.1227 230.144 97.3464 230.115 97.5371 230.056C97.7277 229.997 97.8891 229.917 98.0211 229.814C98.1604 229.711 98.2704 229.594 98.3511 229.462C98.4391 229.323 98.5087 229.176 98.5601 229.022L99.3741 229.242C99.2201 229.748 98.9341 230.162 98.5161 230.485C98.1054 230.8 97.5481 230.958 96.8441 230.958C96.4554 230.958 96.0961 230.892 95.7661 230.76C95.4434 230.621 95.1647 230.426 94.9301 230.177C94.6954 229.928 94.5121 229.631 94.3801 229.286C94.2481 228.941 94.1821 228.56 94.1821 228.142V227.878C94.1821 227.497 94.2481 227.141 94.3801 226.811C94.5194 226.481 94.7101 226.199 94.9521 225.964C95.1941 225.722 95.4764 225.535 95.7991 225.403C96.1291 225.264 96.4847 225.194 96.8661 225.194C97.3134 225.194 97.6984 225.278 98.0211 225.447C98.3511 225.608 98.6187 225.81 98.8241 226.052C99.0367 226.294 99.1907 226.558 99.2861 226.844C99.3887 227.13 99.4401 227.394 99.4401 227.636V228.34H95.0401ZM96.8661 226.008C96.6241 226.008 96.3967 226.048 96.1841 226.129C95.9787 226.202 95.7954 226.309 95.6341 226.448C95.4801 226.587 95.3517 226.752 95.2491 226.943C95.1537 227.126 95.0914 227.328 95.0621 227.548H98.5821C98.5674 227.313 98.5087 227.101 98.4061 226.91C98.3107 226.719 98.1824 226.558 98.0211 226.426C97.8671 226.294 97.6874 226.191 97.4821 226.118C97.2841 226.045 97.0787 226.008 96.8661 226.008Z" fill="black"/>
<path d="M635.687 230.804H634.763V228.23C634.763 228.039 634.719 227.893 634.631 227.79C634.543 227.687 634.389 227.636 634.169 227.636H631.771V230.804H630.847V223.104H633.597C633.993 223.104 634.337 223.163 634.631 223.28C634.924 223.39 635.166 223.54 635.357 223.731C635.555 223.922 635.701 224.145 635.797 224.402C635.899 224.651 635.951 224.915 635.951 225.194V225.524C635.951 225.81 635.87 226.096 635.709 226.382C635.555 226.668 635.313 226.888 634.983 227.042V227.174C635.203 227.211 635.375 227.299 635.5 227.438C635.624 227.577 635.687 227.775 635.687 228.032V230.804ZM631.771 226.778H633.487C634.007 226.778 634.392 226.668 634.642 226.448C634.898 226.221 635.027 225.891 635.027 225.458V225.26C635.027 224.871 634.898 224.56 634.642 224.325C634.392 224.083 634.007 223.962 633.487 223.962H631.771V226.778ZM638.231 228.34C638.253 228.883 638.422 229.319 638.737 229.649C639.052 229.979 639.492 230.144 640.057 230.144C640.314 230.144 640.537 230.115 640.728 230.056C640.919 229.997 641.08 229.917 641.212 229.814C641.351 229.711 641.461 229.594 641.542 229.462C641.63 229.323 641.7 229.176 641.751 229.022L642.565 229.242C642.411 229.748 642.125 230.162 641.707 230.485C641.296 230.8 640.739 230.958 640.035 230.958C639.646 230.958 639.287 230.892 638.957 230.76C638.634 230.621 638.356 230.426 638.121 230.177C637.886 229.928 637.703 229.631 637.571 229.286C637.439 228.941 637.373 228.56 637.373 228.142V227.878C637.373 227.497 637.439 227.141 637.571 226.811C637.71 226.481 637.901 226.199 638.143 225.964C638.385 225.722 638.667 225.535 638.99 225.403C639.32 225.264 639.676 225.194 640.057 225.194C640.504 225.194 640.889 225.278 641.212 225.447C641.542 225.608 641.81 225.81 642.015 226.052C642.228 226.294 642.382 226.558 642.477 226.844C642.58 227.13 642.631 227.394 642.631 227.636V228.34H638.231ZM640.057 226.008C639.815 226.008 639.588 226.048 639.375 226.129C639.17 226.202 638.986 226.309 638.825 226.448C638.671 226.587 638.543 226.752 638.44 226.943C638.345 227.126 638.282 227.328 638.253 227.548H641.773C641.758 227.313 641.7 227.101 641.597 226.91C641.502 226.719 641.373 226.558 641.212 226.426C641.058 226.294 640.878 226.191 640.673 226.118C640.475 226.045 640.27 226.008 640.057 226.008ZM648.563 229.968H648.431C648.343 230.137 648.23 230.283 648.09 230.408C647.958 230.533 647.812 230.635 647.65 230.716C647.496 230.797 647.331 230.855 647.155 230.892C646.979 230.936 646.811 230.958 646.649 230.958C646.283 230.958 645.942 230.896 645.626 230.771C645.311 230.646 645.032 230.467 644.79 230.232C644.556 229.997 644.369 229.708 644.229 229.363C644.097 229.011 644.031 228.611 644.031 228.164V227.988C644.031 227.548 644.101 227.156 644.24 226.811C644.38 226.459 644.567 226.166 644.801 225.931C645.036 225.689 645.311 225.506 645.626 225.381C645.942 225.256 646.275 225.194 646.627 225.194C647.001 225.194 647.35 225.278 647.672 225.447C648.002 225.608 648.255 225.861 648.431 226.206H648.563V223.104H649.421V230.804H648.563V229.968ZM646.737 230.144C646.994 230.144 647.232 230.096 647.452 230.001C647.672 229.906 647.863 229.77 648.024 229.594C648.193 229.418 648.325 229.209 648.42 228.967C648.516 228.718 648.563 228.443 648.563 228.142V228.01C648.563 227.717 648.516 227.449 648.42 227.207C648.325 226.958 648.193 226.745 648.024 226.569C647.863 226.393 647.669 226.257 647.441 226.162C647.221 226.059 646.987 226.008 646.737 226.008C646.481 226.008 646.239 226.056 646.011 226.151C645.791 226.246 645.597 226.382 645.428 226.558C645.267 226.734 645.139 226.943 645.043 227.185C644.955 227.427 644.911 227.695 644.911 227.988V228.164C644.911 228.472 644.955 228.747 645.043 228.989C645.139 229.231 645.267 229.44 645.428 229.616C645.597 229.785 645.791 229.917 646.011 230.012C646.231 230.1 646.473 230.144 646.737 230.144ZM652.769 223.72C652.769 223.507 652.842 223.328 652.989 223.181C653.143 223.027 653.326 222.95 653.539 222.95C653.751 222.95 653.931 223.027 654.078 223.181C654.232 223.328 654.309 223.507 654.309 223.72C654.309 223.933 654.232 224.116 654.078 224.27C653.931 224.417 653.751 224.49 653.539 224.49C653.326 224.49 653.143 224.417 652.989 224.27C652.842 224.116 652.769 223.933 652.769 223.72ZM651.207 230.012H653.121V226.14H651.405V225.348H653.979V230.012H655.761V230.804H651.207V230.012ZM658.943 226.756C658.943 227.02 659.053 227.222 659.273 227.361C659.5 227.5 659.911 227.592 660.505 227.636C661.143 227.687 661.627 227.841 661.957 228.098C662.294 228.347 662.463 228.714 662.463 229.198V229.264C662.463 229.528 662.408 229.766 662.298 229.979C662.195 230.184 662.049 230.36 661.858 230.507C661.675 230.654 661.447 230.764 661.176 230.837C660.912 230.918 660.622 230.958 660.307 230.958C659.882 230.958 659.515 230.903 659.207 230.793C658.906 230.676 658.653 230.525 658.448 230.342C658.25 230.151 658.1 229.939 657.997 229.704C657.894 229.462 657.836 229.22 657.821 228.978L658.635 228.78C658.672 229.198 658.833 229.535 659.119 229.792C659.405 230.041 659.786 230.166 660.263 230.166C660.666 230.166 660.989 230.089 661.231 229.935C661.48 229.774 661.605 229.55 661.605 229.264C661.605 228.956 661.484 228.736 661.242 228.604C661 228.472 660.608 228.388 660.065 228.351C659.434 228.307 658.95 228.16 658.613 227.911C658.276 227.662 658.107 227.299 658.107 226.822V226.756C658.107 226.499 658.162 226.276 658.272 226.085C658.382 225.887 658.529 225.722 658.712 225.59C658.903 225.458 659.115 225.359 659.35 225.293C659.585 225.227 659.83 225.194 660.087 225.194C660.446 225.194 660.762 225.245 661.033 225.348C661.304 225.443 661.532 225.572 661.715 225.733C661.898 225.887 662.038 226.067 662.133 226.272C662.236 226.477 662.302 226.683 662.331 226.888L661.517 227.086C661.48 226.734 661.337 226.459 661.088 226.261C660.846 226.063 660.527 225.964 660.131 225.964C659.977 225.964 659.827 225.982 659.68 226.019C659.541 226.048 659.416 226.096 659.306 226.162C659.196 226.228 659.108 226.312 659.042 226.415C658.976 226.51 658.943 226.624 658.943 226.756Z" fill="black"/>
<path d="M95.9363 159.914V173.47C95.9363 175.766 87.3092 178.968 73.2545 178.968C59.1997 178.968 50.5637 175.766 50.5637 173.47V159.914H48.7812V197.923C48.7812 202.723 61.0892 205.227 73.2545 205.227C85.4198 205.227 97.7188 202.713 97.7188 197.923V159.914H95.9363ZM73.2545 203.412C59.1997 203.412 50.5637 200.209 50.5637 197.923V188.804C54.396 191.689 63.8698 193.186 73.2545 193.186C82.6391 193.186 92.104 191.689 95.9363 188.804V197.923C95.9363 200.218 87.3092 203.412 73.2545 203.412ZM73.2545 191.372C59.1997 191.372 50.5637 188.169 50.5637 185.882V176.401C54.396 179.286 63.8698 180.783 73.2545 180.783C82.6391 180.783 92.104 179.286 95.9363 176.401V185.882C95.9363 188.178 87.3092 191.372 73.2545 191.372Z" fill="#163341"/>
<path d="M73.2545 167.164C61.0892 167.164 48.7812 164.671 48.7812 159.919C48.7812 155.166 61.0892 152.664 73.2545 152.664C85.4198 152.664 97.7188 155.157 97.7188 159.919C97.7188 164.68 85.4108 167.164 73.2545 167.164ZM73.2545 154.464C59.1997 154.464 50.5637 157.642 50.5637 159.919C50.5637 162.196 59.1997 165.364 73.2545 165.364C87.3092 165.364 95.9363 162.187 95.9363 159.919C95.9363 157.651 87.3092 154.464 73.2545 154.464Z" fill="#FF4438"/>
<path d="M360.422 232.804H359.498V230.23C359.498 230.039 359.454 229.893 359.366 229.79C359.278 229.687 359.124 229.636 358.904 229.636H356.506V232.804H355.582V225.104H358.332C358.728 225.104 359.073 225.163 359.366 225.28C359.659 225.39 359.901 225.54 360.092 225.731C360.29 225.922 360.437 226.145 360.532 226.402C360.635 226.651 360.686 226.915 360.686 227.194V227.524C360.686 227.81 360.605 228.096 360.444 228.382C360.29 228.668 360.048 228.888 359.718 229.042V229.174C359.938 229.211 360.11 229.299 360.235 229.438C360.36 229.577 360.422 229.775 360.422 230.032V232.804ZM356.506 228.778H358.222C358.743 228.778 359.128 228.668 359.377 228.448C359.634 228.221 359.762 227.891 359.762 227.458V227.26C359.762 226.871 359.634 226.56 359.377 226.325C359.128 226.083 358.743 225.962 358.222 225.962H356.506V228.778ZM362.185 225.104H364.715C365.669 225.104 366.365 225.331 366.805 225.786C367.245 226.241 367.465 226.967 367.465 227.964V229.944C367.465 230.941 367.245 231.667 366.805 232.122C366.365 232.577 365.669 232.804 364.715 232.804H362.185V231.935H362.845V225.962H362.185V225.104ZM364.583 231.946C364.921 231.946 365.21 231.913 365.452 231.847C365.702 231.781 365.907 231.671 366.068 231.517C366.23 231.356 366.347 231.143 366.42 230.879C366.501 230.615 366.541 230.281 366.541 229.878V228.03C366.541 227.627 366.501 227.293 366.42 227.029C366.347 226.765 366.23 226.556 366.068 226.402C365.907 226.241 365.702 226.127 365.452 226.061C365.21 225.995 364.921 225.962 364.583 225.962H363.769V231.946H364.583ZM369.042 225.104H373.926V225.962H371.946V231.946H373.926V232.804H369.042V231.946H371.022V225.962H369.042V225.104Z" fill="black"/>
<path d="M357.173 202.973C356.846 202.973 356.52 202.884 356.213 202.715L352.67 200.627C351.898 200.162 351.541 199.202 351.829 198.35L352.967 195.015C352.373 194.213 351.888 193.352 351.502 192.422L348.127 191.759C347.236 191.591 346.583 190.789 346.583 189.868V185.702C346.583 184.781 347.236 183.979 348.127 183.811L351.522 183.138C351.898 182.238 352.383 181.386 352.967 180.604L351.819 177.22C351.532 176.349 351.888 175.389 352.65 174.933L356.193 172.845C356.995 172.38 357.985 172.538 358.598 173.241L360.895 175.953C361.835 175.834 362.765 175.834 363.695 175.953L365.982 173.251C366.605 172.538 367.595 172.37 368.397 172.835L371.93 174.923C372.702 175.379 373.068 176.339 372.781 177.2L371.633 180.595C372.217 181.376 372.702 182.228 373.078 183.128L376.473 183.801C377.364 183.979 378.017 184.771 378.017 185.692V189.859C378.017 190.779 377.364 191.581 376.473 191.749L373.108 192.412C372.732 193.342 372.237 194.203 371.643 195.005L372.771 198.331C373.058 199.212 372.702 200.172 371.92 200.627L368.407 202.705C367.595 203.171 366.615 203.012 366.002 202.3L363.765 199.657C362.785 199.786 361.825 199.786 360.835 199.657L358.608 202.29C358.222 202.735 357.688 202.963 357.153 202.963L357.173 202.973ZM357.153 174.587L353.679 176.636L355.204 180.99L354.857 181.416C354.145 182.297 353.58 183.277 353.184 184.346L352.996 184.87L348.523 185.751L348.582 189.868L352.987 190.7L353.175 191.234C353.561 192.323 354.125 193.323 354.847 194.203L355.194 194.629L353.709 198.984L357.153 200.983L360.063 197.539L360.627 197.638C361.756 197.836 362.874 197.836 364.002 197.638L364.566 197.539L367.476 200.983L370.94 198.934L369.436 194.629L369.782 194.203C370.505 193.323 371.069 192.323 371.455 191.234L371.643 190.7L376.107 189.819L376.047 185.702L371.633 184.87L371.445 184.346C371.049 183.277 370.485 182.287 369.772 181.416L369.426 180.99L370.921 176.586L367.476 174.587L364.507 178.091L363.953 177.992C362.864 177.803 361.775 177.803 360.687 177.992L360.132 178.091L357.163 174.587H357.153Z" fill="#FF4438"/>
<path d="M362.308 192.976C359.438 192.976 357.112 190.64 357.112 187.78C357.112 184.92 359.448 182.584 362.308 182.584C365.169 182.584 367.504 184.92 367.504 187.78C367.504 190.64 365.169 192.976 362.308 192.976ZM362.308 184.554C360.537 184.554 359.092 185.999 359.092 187.77C359.092 189.542 360.537 190.987 362.308 190.987C364.08 190.987 365.525 189.542 365.525 187.77C365.525 185.999 364.08 184.554 362.308 184.554Z" fill="#163341"/>
<path d="M353.193 168.54L352.342 166.758C355.469 165.273 358.824 164.521 362.308 164.521C364.911 164.521 367.406 164.947 369.741 165.748C369.771 166.491 369.85 167.223 369.979 167.936C367.594 167.005 365.01 166.501 362.308 166.501C359.121 166.501 356.053 167.184 353.193 168.54Z" fill="#163341"/>
<path d="M385.567 187.78C385.567 200.597 375.136 211.039 362.309 211.039C349.482 211.039 339.05 200.597 339.05 187.78C339.05 183.732 340.109 179.793 342.088 176.309L340.089 175.042L345.859 172.37L345.918 178.744L343.761 177.368C341.979 180.535 341.029 184.108 341.029 187.78C341.029 199.509 350.58 209.06 362.309 209.06C374.037 209.06 383.588 199.509 383.588 187.78C383.588 184.979 383.044 182.307 382.054 179.852C382.767 179.981 383.499 180.05 384.241 180.06C385.102 182.475 385.567 185.078 385.567 187.78Z" fill="#163341"/>
<path d="M397 165.446C397 172.346 391.41 177.946 384.5 177.946C383.1 177.946 381.75 177.716 380.5 177.286H380.48C379.81 177.056 379.17 176.776 378.56 176.446C378.52 176.426 378.47 176.396 378.42 176.366C376.84 175.486 375.47 174.276 374.41 172.826C373.8 171.986 373.28 171.076 372.89 170.096C372.32 168.656 372 167.086 372 165.446C372 158.546 377.6 152.946 384.5 152.946C391.4 152.946 397 158.546 397 165.446Z" fill="#FF4438"/>
<path d="M391.201 166.122C390.161 167.342 389.043 168.751 386.795 168.751C384.795 168.751 384.049 167.087 383.993 165.745C384.434 166.61 385.292 167.32 386.625 167.287C389.201 167.209 390.963 165.024 390.963 163.039C390.963 160.665 389.077 158.946 385.8 158.946C383.451 158.946 380.547 159.789 378.638 161.109C378.615 162.473 379.429 164.248 379.723 164.048C381.372 162.939 382.682 162.218 383.959 161.852C382.072 163.826 377.554 168.407 377 169.217C377.056 169.96 378.039 171.946 378.514 171.946C378.661 171.946 378.785 171.868 378.932 171.735C380.287 170.293 381.406 169.006 382.389 167.764C382.536 169.583 383.485 171.812 386.151 171.812C388.534 171.812 390.907 170.193 391.98 166.544C392.116 166.1 391.528 165.745 391.201 166.122ZM388.478 163.172C388.478 164.325 387.269 164.891 386.173 164.891C385.586 164.891 385.134 164.747 384.772 164.558C385.439 163.626 386.083 162.661 386.783 161.641C388.015 161.83 388.478 162.473 388.478 163.172Z" fill="white"/>
<circle cx="646.75" cy="178.946" r="27" fill="#FF4438"/>
<g clip-path="url(#clip0_12170_1112)">
<path d="M660.88 180.448C658.69 183.189 656.324 186.322 651.594 186.322C647.368 186.322 645.794 182.62 645.683 179.612C646.609 181.557 648.419 183.132 651.243 183.059C656.675 182.885 660.398 178.011 660.398 173.573C660.398 168.264 656.412 164.435 649.491 164.435C644.541 164.435 638.409 166.306 634.379 169.265C634.335 172.311 636.044 176.27 636.657 175.835C640.15 173.34 642.921 171.734 645.608 170.928C641.63 175.334 632.087 185.565 630.919 187.367C631.05 189.02 633.109 193.458 634.116 193.458C634.423 193.458 634.686 193.284 634.992 192.98C637.869 189.769 640.215 186.889 642.301 184.114C642.594 188.182 644.607 193.154 650.236 193.154C655.273 193.154 660.267 189.542 662.545 181.405C662.807 180.404 661.581 179.621 660.88 180.448ZM655.142 173.877C655.142 176.445 652.601 177.706 650.28 177.706C649.039 177.706 648.085 177.383 647.332 176.962C648.719 174.876 650.092 172.736 651.567 170.445C654.168 170.883 655.142 172.319 655.142 173.877Z" fill="white"/>
</g>
<path d="M183.835 171.546H189.739V172.482H187.291V179.946H186.283V172.482H183.835V171.546ZM191.171 173.994H193.331V174.786H193.475C193.627 174.458 193.843 174.218 194.123 174.066C194.403 173.906 194.723 173.826 195.083 173.826C195.683 173.826 196.167 174.022 196.535 174.414C196.903 174.806 197.099 175.378 197.123 176.13L196.139 176.274C196.139 175.722 196.007 175.326 195.743 175.086C195.479 174.838 195.155 174.714 194.771 174.714C194.523 174.714 194.307 174.762 194.123 174.858C193.947 174.954 193.799 175.086 193.679 175.254C193.559 175.422 193.471 175.618 193.415 175.842C193.359 176.066 193.331 176.306 193.331 176.562V179.082H194.843V179.946H191.027V179.082H192.395V174.858H191.171V173.994ZM203.175 178.938H203.031C202.839 179.338 202.571 179.634 202.227 179.826C201.891 180.018 201.535 180.114 201.159 180.114C200.767 180.114 200.403 180.05 200.067 179.922C199.731 179.786 199.435 179.59 199.179 179.334C198.931 179.07 198.735 178.75 198.591 178.374C198.447 177.998 198.375 177.562 198.375 177.066V176.874C198.375 176.386 198.447 175.954 198.591 175.578C198.735 175.202 198.931 174.886 199.179 174.63C199.435 174.366 199.731 174.166 200.067 174.03C200.403 173.894 200.759 173.826 201.135 173.826C201.543 173.826 201.911 173.918 202.239 174.102C202.575 174.278 202.839 174.554 203.031 174.93H203.175V173.994H204.111V178.722C204.111 178.962 204.219 179.082 204.435 179.082H204.735V179.946H204.099C203.827 179.946 203.603 179.858 203.427 179.682C203.259 179.506 203.175 179.282 203.175 179.01V178.938ZM201.255 179.226C201.535 179.226 201.791 179.174 202.023 179.07C202.263 178.966 202.467 178.818 202.635 178.626C202.803 178.434 202.935 178.206 203.031 177.942C203.127 177.67 203.175 177.37 203.175 177.042V176.898C203.175 176.578 203.127 176.286 203.031 176.022C202.935 175.75 202.799 175.518 202.623 175.326C202.455 175.134 202.251 174.986 202.011 174.882C201.779 174.77 201.527 174.714 201.255 174.714C200.975 174.714 200.719 174.766 200.487 174.87C200.255 174.974 200.051 175.122 199.875 175.314C199.707 175.498 199.575 175.726 199.479 175.998C199.383 176.262 199.335 176.554 199.335 176.874V177.066C199.335 177.746 199.511 178.278 199.863 178.662C200.223 179.038 200.687 179.226 201.255 179.226ZM211.77 177.834C211.706 178.162 211.594 178.466 211.434 178.746C211.282 179.026 211.086 179.27 210.846 179.478C210.606 179.678 210.326 179.834 210.006 179.946C209.686 180.058 209.33 180.114 208.938 180.114C208.522 180.114 208.126 180.046 207.75 179.91C207.382 179.774 207.058 179.578 206.778 179.322C206.498 179.058 206.274 178.738 206.106 178.362C205.946 177.986 205.866 177.554 205.866 177.066V176.922C205.866 176.442 205.946 176.01 206.106 175.626C206.274 175.242 206.498 174.918 206.778 174.654C207.058 174.39 207.382 174.186 207.75 174.042C208.126 173.898 208.522 173.826 208.938 173.826C209.314 173.826 209.662 173.882 209.982 173.994C210.302 174.106 210.582 174.266 210.822 174.474C211.07 174.674 211.27 174.914 211.422 175.194C211.582 175.474 211.69 175.778 211.746 176.106L210.81 176.322C210.786 176.114 210.726 175.914 210.63 175.722C210.542 175.522 210.418 175.35 210.258 175.206C210.106 175.054 209.918 174.934 209.694 174.846C209.47 174.758 209.21 174.714 208.914 174.714C208.626 174.714 208.354 174.77 208.098 174.882C207.85 174.986 207.63 175.138 207.438 175.338C207.246 175.53 207.094 175.762 206.982 176.034C206.878 176.306 206.826 176.602 206.826 176.922V177.066C206.826 177.402 206.878 177.706 206.982 177.978C207.094 178.242 207.246 178.466 207.438 178.65C207.63 178.834 207.854 178.978 208.11 179.082C208.366 179.178 208.642 179.226 208.938 179.226C209.234 179.226 209.49 179.182 209.706 179.094C209.93 178.998 210.118 178.878 210.27 178.734C210.43 178.582 210.554 178.41 210.642 178.218C210.738 178.026 210.802 177.826 210.834 177.618L211.77 177.834ZM215.086 176.466H215.29L217.558 173.994H218.71V174.066L216.238 176.79V177.006L218.998 179.874V179.946H217.846L215.314 177.33H215.086V179.946H214.15V171.546H215.086V176.466ZM233.813 177.834C233.749 178.162 233.637 178.466 233.477 178.746C233.325 179.026 233.129 179.27 232.889 179.478C232.649 179.678 232.369 179.834 232.049 179.946C231.729 180.058 231.373 180.114 230.981 180.114C230.565 180.114 230.169 180.046 229.793 179.91C229.425 179.774 229.101 179.578 228.821 179.322C228.541 179.058 228.317 178.738 228.149 178.362C227.989 177.986 227.909 177.554 227.909 177.066V176.922C227.909 176.442 227.989 176.01 228.149 175.626C228.317 175.242 228.541 174.918 228.821 174.654C229.101 174.39 229.425 174.186 229.793 174.042C230.169 173.898 230.565 173.826 230.981 173.826C231.357 173.826 231.705 173.882 232.025 173.994C232.345 174.106 232.625 174.266 232.865 174.474C233.113 174.674 233.313 174.914 233.465 175.194C233.625 175.474 233.733 175.778 233.789 176.106L232.853 176.322C232.829 176.114 232.769 175.914 232.673 175.722C232.585 175.522 232.461 175.35 232.301 175.206C232.149 175.054 231.961 174.934 231.737 174.846C231.513 174.758 231.253 174.714 230.957 174.714C230.669 174.714 230.397 174.77 230.141 174.882C229.893 174.986 229.673 175.138 229.481 175.338C229.289 175.53 229.137 175.762 229.025 176.034C228.921 176.306 228.869 176.602 228.869 176.922V177.066C228.869 177.402 228.921 177.706 229.025 177.978C229.137 178.242 229.289 178.466 229.481 178.65C229.673 178.834 229.897 178.978 230.153 179.082C230.409 179.178 230.685 179.226 230.981 179.226C231.277 179.226 231.533 179.182 231.749 179.094C231.973 178.998 232.161 178.878 232.313 178.734C232.473 178.582 232.597 178.41 232.685 178.218C232.781 178.026 232.845 177.826 232.877 177.618L233.813 177.834ZM236.529 179.946H235.593V171.546H236.529V175.074H236.673C236.857 174.69 237.113 174.386 237.441 174.162C237.777 173.938 238.185 173.826 238.665 173.826C239.313 173.826 239.837 174.042 240.237 174.474C240.645 174.898 240.849 175.538 240.849 176.394V179.946H239.913V176.586C239.913 175.962 239.773 175.494 239.493 175.182C239.213 174.87 238.833 174.714 238.353 174.714C237.785 174.714 237.337 174.91 237.009 175.302C236.689 175.686 236.529 176.202 236.529 176.85V179.946ZM247.26 178.938H247.116C246.924 179.338 246.656 179.634 246.312 179.826C245.976 180.018 245.62 180.114 245.244 180.114C244.852 180.114 244.488 180.05 244.152 179.922C243.816 179.786 243.52 179.59 243.264 179.334C243.016 179.07 242.82 178.75 242.676 178.374C242.532 177.998 242.46 177.562 242.46 177.066V176.874C242.46 176.386 242.532 175.954 242.676 175.578C242.82 175.202 243.016 174.886 243.264 174.63C243.52 174.366 243.816 174.166 244.152 174.03C244.488 173.894 244.844 173.826 245.22 173.826C245.628 173.826 245.996 173.918 246.324 174.102C246.66 174.278 246.924 174.554 247.116 174.93H247.26V173.994H248.196V178.722C248.196 178.962 248.304 179.082 248.52 179.082H248.82V179.946H248.184C247.912 179.946 247.688 179.858 247.512 179.682C247.344 179.506 247.26 179.282 247.26 179.01V178.938ZM245.34 179.226C245.62 179.226 245.876 179.174 246.108 179.07C246.348 178.966 246.552 178.818 246.72 178.626C246.888 178.434 247.02 178.206 247.116 177.942C247.212 177.67 247.26 177.37 247.26 177.042V176.898C247.26 176.578 247.212 176.286 247.116 176.022C247.02 175.75 246.884 175.518 246.708 175.326C246.54 175.134 246.336 174.986 246.096 174.882C245.864 174.77 245.612 174.714 245.34 174.714C245.06 174.714 244.804 174.766 244.572 174.87C244.34 174.974 244.136 175.122 243.96 175.314C243.792 175.498 243.66 175.726 243.564 175.998C243.468 176.262 243.42 176.554 243.42 176.874V177.066C243.42 177.746 243.596 178.278 243.948 178.662C244.308 179.038 244.772 179.226 245.34 179.226ZM251.224 179.946H250.288V173.994H251.224V175.002H251.368C251.736 174.218 252.376 173.826 253.288 173.826C253.976 173.826 254.524 174.042 254.932 174.474C255.34 174.898 255.544 175.538 255.544 176.394V179.946H254.608V176.586C254.608 175.962 254.468 175.494 254.188 175.182C253.908 174.87 253.528 174.714 253.048 174.714C252.48 174.714 252.032 174.91 251.704 175.302C251.384 175.686 251.224 176.202 251.224 176.85V179.946ZM262.16 179.034H262.016C261.824 179.394 261.56 179.666 261.224 179.85C260.896 180.026 260.536 180.114 260.144 180.114C259.744 180.114 259.368 180.046 259.016 179.91C258.664 179.774 258.352 179.578 258.08 179.322C257.816 179.066 257.604 178.75 257.444 178.374C257.292 177.99 257.216 177.554 257.216 177.066V176.874C257.216 176.394 257.296 175.966 257.456 175.59C257.616 175.206 257.828 174.886 258.092 174.63C258.356 174.366 258.664 174.166 259.016 174.03C259.368 173.894 259.736 173.826 260.12 173.826C260.552 173.826 260.928 173.922 261.248 174.114C261.576 174.298 261.832 174.57 262.016 174.93H262.16V173.994H263.096V181.41C263.096 181.682 263.008 181.906 262.832 182.082C262.664 182.258 262.444 182.346 262.172 182.346H258.296V181.482H261.836C262.052 181.482 262.16 181.362 262.16 181.122V179.034ZM260.168 179.226C260.448 179.226 260.708 179.174 260.948 179.07C261.188 178.966 261.396 178.818 261.572 178.626C261.756 178.434 261.9 178.206 262.004 177.942C262.108 177.67 262.16 177.37 262.16 177.042V176.898C262.16 176.578 262.108 176.286 262.004 176.022C261.9 175.75 261.756 175.518 261.572 175.326C261.396 175.134 261.184 174.986 260.936 174.882C260.696 174.77 260.44 174.714 260.168 174.714C259.888 174.714 259.624 174.766 259.376 174.87C259.136 174.974 258.924 175.122 258.74 175.314C258.564 175.506 258.424 175.734 258.32 175.998C258.224 176.262 258.176 176.554 258.176 176.874V177.066C258.176 177.402 258.224 177.702 258.32 177.966C258.424 178.23 258.564 178.458 258.74 178.65C258.924 178.834 259.136 178.978 259.376 179.082C259.616 179.178 259.88 179.226 260.168 179.226ZM265.667 177.258C265.691 177.85 265.875 178.326 266.219 178.686C266.563 179.046 267.043 179.226 267.659 179.226C267.939 179.226 268.183 179.194 268.391 179.13C268.599 179.066 268.775 178.978 268.919 178.866C269.071 178.754 269.191 178.626 269.279 178.482C269.375 178.33 269.451 178.17 269.507 178.002L270.395 178.242C270.227 178.794 269.915 179.246 269.459 179.598C269.011 179.942 268.403 180.114 267.635 180.114C267.211 180.114 266.819 180.042 266.459 179.898C266.107 179.746 265.803 179.534 265.547 179.262C265.291 178.99 265.091 178.666 264.947 178.29C264.803 177.914 264.731 177.498 264.731 177.042V176.754C264.731 176.338 264.803 175.95 264.947 175.59C265.099 175.23 265.307 174.922 265.571 174.666C265.835 174.402 266.143 174.198 266.495 174.054C266.855 173.902 267.243 173.826 267.659 173.826C268.147 173.826 268.567 173.918 268.919 174.102C269.279 174.278 269.571 174.498 269.795 174.762C270.027 175.026 270.195 175.314 270.299 175.626C270.411 175.938 270.467 176.226 270.467 176.49V177.258H265.667ZM267.659 174.714C267.395 174.714 267.147 174.758 266.915 174.846C266.691 174.926 266.491 175.042 266.315 175.194C266.147 175.346 266.007 175.526 265.895 175.734C265.791 175.934 265.723 176.154 265.691 176.394H269.531C269.515 176.138 269.451 175.906 269.339 175.698C269.235 175.49 269.095 175.314 268.919 175.17C268.751 175.026 268.555 174.914 268.331 174.834C268.115 174.754 267.891 174.714 267.659 174.714ZM273.567 175.53C273.567 175.818 273.687 176.038 273.927 176.19C274.175 176.342 274.623 176.442 275.271 176.49C275.967 176.546 276.495 176.714 276.855 176.994C277.223 177.266 277.407 177.666 277.407 178.194V178.266C277.407 178.554 277.347 178.814 277.227 179.046C277.115 179.27 276.955 179.462 276.747 179.622C276.547 179.782 276.299 179.902 276.003 179.982C275.715 180.07 275.399 180.114 275.055 180.114C274.591 180.114 274.191 180.054 273.855 179.934C273.527 179.806 273.251 179.642 273.027 179.442C272.811 179.234 272.647 179.002 272.535 178.746C272.423 178.482 272.359 178.218 272.343 177.954L273.231 177.738C273.271 178.194 273.447 178.562 273.759 178.842C274.071 179.114 274.487 179.25 275.007 179.25C275.447 179.25 275.799 179.166 276.063 178.998C276.335 178.822 276.471 178.578 276.471 178.266C276.471 177.93 276.339 177.69 276.075 177.546C275.811 177.402 275.383 177.31 274.791 177.27C274.103 177.222 273.575 177.062 273.207 176.79C272.839 176.518 272.655 176.122 272.655 175.602V175.53C272.655 175.25 272.715 175.006 272.835 174.798C272.955 174.582 273.115 174.402 273.315 174.258C273.523 174.114 273.755 174.006 274.011 173.934C274.267 173.862 274.535 173.826 274.815 173.826C275.207 173.826 275.551 173.882 275.847 173.994C276.143 174.098 276.391 174.238 276.591 174.414C276.791 174.582 276.943 174.778 277.047 175.002C277.159 175.226 277.231 175.45 277.263 175.674L276.375 175.89C276.335 175.506 276.179 175.206 275.907 174.99C275.643 174.774 275.295 174.666 274.863 174.666C274.695 174.666 274.531 174.686 274.371 174.726C274.219 174.758 274.083 174.81 273.963 174.882C273.843 174.954 273.747 175.046 273.675 175.158C273.603 175.262 273.567 175.386 273.567 175.53Z" fill="black"/>
<path d="M450.513 171.546V177.114C450.513 177.794 450.669 178.31 450.981 178.662C451.301 179.006 451.769 179.178 452.385 179.178C453.001 179.178 453.465 179.006 453.777 178.662C454.097 178.31 454.257 177.794 454.257 177.114V171.546H455.265V177.114C455.265 178.09 455.009 178.834 454.497 179.346C453.985 179.858 453.281 180.114 452.385 180.114C451.489 180.114 450.785 179.858 450.273 179.346C449.761 178.834 449.505 178.09 449.505 177.114V171.546H450.513ZM457.825 182.346H456.889V173.994H457.825V174.93H457.969C458.177 174.57 458.465 174.298 458.833 174.114C459.201 173.922 459.601 173.826 460.033 173.826C460.401 173.826 460.749 173.894 461.077 174.03C461.405 174.166 461.693 174.362 461.941 174.618C462.197 174.874 462.397 175.19 462.541 175.566C462.693 175.942 462.769 176.37 462.769 176.85V177.09C462.769 177.578 462.697 178.01 462.553 178.386C462.409 178.762 462.209 179.078 461.953 179.334C461.705 179.59 461.413 179.786 461.077 179.922C460.741 180.05 460.385 180.114 460.009 180.114C459.817 180.114 459.621 180.09 459.421 180.042C459.221 180.002 459.029 179.938 458.845 179.85C458.669 179.754 458.505 179.642 458.353 179.514C458.201 179.378 458.073 179.218 457.969 179.034H457.825V182.346ZM459.817 179.226C460.105 179.226 460.369 179.178 460.609 179.082C460.849 178.978 461.057 178.834 461.233 178.65C461.417 178.466 461.557 178.242 461.653 177.978C461.757 177.714 461.809 177.418 461.809 177.09V176.85C461.809 176.53 461.757 176.242 461.653 175.986C461.557 175.722 461.417 175.498 461.233 175.314C461.057 175.122 460.845 174.974 460.597 174.87C460.357 174.766 460.097 174.714 459.817 174.714C459.537 174.714 459.277 174.77 459.037 174.882C458.797 174.986 458.585 175.134 458.401 175.326C458.225 175.518 458.085 175.75 457.981 176.022C457.877 176.286 457.825 176.578 457.825 176.898V177.042C457.825 177.37 457.877 177.67 457.981 177.942C458.085 178.206 458.225 178.434 458.401 178.626C458.585 178.818 458.797 178.966 459.037 179.07C459.277 179.174 459.537 179.226 459.817 179.226ZM469.06 179.034H468.916C468.82 179.218 468.696 179.378 468.544 179.514C468.4 179.65 468.24 179.762 468.064 179.85C467.896 179.938 467.716 180.002 467.524 180.042C467.332 180.09 467.148 180.114 466.972 180.114C466.572 180.114 466.2 180.046 465.856 179.91C465.512 179.774 465.208 179.578 464.944 179.322C464.688 179.066 464.484 178.75 464.332 178.374C464.188 177.99 464.116 177.554 464.116 177.066V176.874C464.116 176.394 464.192 175.966 464.344 175.59C464.496 175.206 464.7 174.886 464.956 174.63C465.212 174.366 465.512 174.166 465.856 174.03C466.2 173.894 466.564 173.826 466.948 173.826C467.356 173.826 467.736 173.918 468.088 174.102C468.448 174.278 468.724 174.554 468.916 174.93H469.06V171.546H469.996V179.946H469.06V179.034ZM467.068 179.226C467.348 179.226 467.608 179.174 467.848 179.07C468.088 178.966 468.296 178.818 468.472 178.626C468.656 178.434 468.8 178.206 468.904 177.942C469.008 177.67 469.06 177.37 469.06 177.042V176.898C469.06 176.578 469.008 176.286 468.904 176.022C468.8 175.75 468.656 175.518 468.472 175.326C468.296 175.134 468.084 174.986 467.836 174.882C467.596 174.77 467.34 174.714 467.068 174.714C466.788 174.714 466.524 174.766 466.276 174.87C466.036 174.974 465.824 175.122 465.64 175.314C465.464 175.506 465.324 175.734 465.22 175.998C465.124 176.262 465.076 176.554 465.076 176.874V177.066C465.076 177.402 465.124 177.702 465.22 177.966C465.324 178.23 465.464 178.458 465.64 178.65C465.824 178.834 466.036 178.978 466.276 179.082C466.516 179.178 466.78 179.226 467.068 179.226ZM476.12 178.938H475.976C475.784 179.338 475.516 179.634 475.172 179.826C474.836 180.018 474.48 180.114 474.104 180.114C473.712 180.114 473.348 180.05 473.012 179.922C472.676 179.786 472.38 179.59 472.124 179.334C471.876 179.07 471.68 178.75 471.536 178.374C471.392 177.998 471.32 177.562 471.32 177.066V176.874C471.32 176.386 471.392 175.954 471.536 175.578C471.68 175.202 471.876 174.886 472.124 174.63C472.38 174.366 472.676 174.166 473.012 174.03C473.348 173.894 473.704 173.826 474.08 173.826C474.488 173.826 474.856 173.918 475.184 174.102C475.52 174.278 475.784 174.554 475.976 174.93H476.12V173.994H477.056V178.722C477.056 178.962 477.164 179.082 477.38 179.082H477.68V179.946H477.044C476.772 179.946 476.548 179.858 476.372 179.682C476.204 179.506 476.12 179.282 476.12 179.01V178.938ZM474.2 179.226C474.48 179.226 474.736 179.174 474.968 179.07C475.208 178.966 475.412 178.818 475.58 178.626C475.748 178.434 475.88 178.206 475.976 177.942C476.072 177.67 476.12 177.37 476.12 177.042V176.898C476.12 176.578 476.072 176.286 475.976 176.022C475.88 175.75 475.744 175.518 475.568 175.326C475.4 175.134 475.196 174.986 474.956 174.882C474.724 174.77 474.472 174.714 474.2 174.714C473.92 174.714 473.664 174.766 473.432 174.87C473.2 174.974 472.996 175.122 472.82 175.314C472.652 175.498 472.52 175.726 472.424 175.998C472.328 176.262 472.28 176.554 472.28 176.874V177.066C472.28 177.746 472.456 178.278 472.808 178.662C473.168 179.038 473.632 179.226 474.2 179.226ZM478.944 173.994H480.816V171.546H481.752V173.994H484.056V174.858H481.752V178.722C481.752 178.962 481.86 179.082 482.076 179.082H483.768V179.946H481.74C481.468 179.946 481.244 179.858 481.068 179.682C480.9 179.506 480.816 179.282 480.816 179.01V174.858H478.944V173.994ZM487.179 177.258C487.203 177.85 487.387 178.326 487.731 178.686C488.075 179.046 488.555 179.226 489.171 179.226C489.451 179.226 489.695 179.194 489.903 179.13C490.111 179.066 490.287 178.978 490.431 178.866C490.583 178.754 490.703 178.626 490.791 178.482C490.887 178.33 490.963 178.17 491.019 178.002L491.907 178.242C491.739 178.794 491.427 179.246 490.971 179.598C490.523 179.942 489.915 180.114 489.147 180.114C488.723 180.114 488.331 180.042 487.971 179.898C487.619 179.746 487.315 179.534 487.059 179.262C486.803 178.99 486.603 178.666 486.459 178.29C486.315 177.914 486.243 177.498 486.243 177.042V176.754C486.243 176.338 486.315 175.95 486.459 175.59C486.611 175.23 486.819 174.922 487.083 174.666C487.347 174.402 487.655 174.198 488.007 174.054C488.367 173.902 488.755 173.826 489.171 173.826C489.659 173.826 490.079 173.918 490.431 174.102C490.791 174.278 491.083 174.498 491.307 174.762C491.539 175.026 491.707 175.314 491.811 175.626C491.923 175.938 491.979 176.226 491.979 176.49V177.258H487.179ZM489.171 174.714C488.907 174.714 488.659 174.758 488.427 174.846C488.203 174.926 488.003 175.042 487.827 175.194C487.659 175.346 487.519 175.526 487.407 175.734C487.303 175.934 487.235 176.154 487.203 176.394H491.043C491.027 176.138 490.963 175.906 490.851 175.698C490.747 175.49 490.607 175.314 490.431 175.17C490.263 175.026 490.067 174.914 489.843 174.834C489.627 174.754 489.403 174.714 489.171 174.714ZM505.798 179.034H505.654C505.558 179.218 505.434 179.378 505.282 179.514C505.138 179.65 504.978 179.762 504.802 179.85C504.634 179.938 504.454 180.002 504.262 180.042C504.07 180.09 503.886 180.114 503.71 180.114C503.31 180.114 502.938 180.046 502.594 179.91C502.25 179.774 501.946 179.578 501.682 179.322C501.426 179.066 501.222 178.75 501.07 178.374C500.926 177.99 500.854 177.554 500.854 177.066V176.874C500.854 176.394 500.93 175.966 501.082 175.59C501.234 175.206 501.438 174.886 501.694 174.63C501.95 174.366 502.25 174.166 502.594 174.03C502.938 173.894 503.302 173.826 503.686 173.826C504.094 173.826 504.474 173.918 504.826 174.102C505.186 174.278 505.462 174.554 505.654 174.93H505.798V171.546H506.734V179.946H505.798V179.034ZM503.806 179.226C504.086 179.226 504.346 179.174 504.586 179.07C504.826 178.966 505.034 178.818 505.21 178.626C505.394 178.434 505.538 178.206 505.642 177.942C505.746 177.67 505.798 177.37 505.798 177.042V176.898C505.798 176.578 505.746 176.286 505.642 176.022C505.538 175.75 505.394 175.518 505.21 175.326C505.034 175.134 504.822 174.986 504.574 174.882C504.334 174.77 504.078 174.714 503.806 174.714C503.526 174.714 503.262 174.766 503.014 174.87C502.774 174.974 502.562 175.122 502.378 175.314C502.202 175.506 502.062 175.734 501.958 175.998C501.862 176.262 501.814 176.554 501.814 176.874V177.066C501.814 177.402 501.862 177.702 501.958 177.966C502.062 178.23 502.202 178.458 502.378 178.65C502.562 178.834 502.774 178.978 503.014 179.082C503.254 179.178 503.518 179.226 503.806 179.226ZM512.858 178.938H512.714C512.522 179.338 512.254 179.634 511.91 179.826C511.574 180.018 511.218 180.114 510.842 180.114C510.45 180.114 510.086 180.05 509.75 179.922C509.414 179.786 509.118 179.59 508.862 179.334C508.614 179.07 508.418 178.75 508.274 178.374C508.13 177.998 508.058 177.562 508.058 177.066V176.874C508.058 176.386 508.13 175.954 508.274 175.578C508.418 175.202 508.614 174.886 508.862 174.63C509.118 174.366 509.414 174.166 509.75 174.03C510.086 173.894 510.442 173.826 510.818 173.826C511.226 173.826 511.594 173.918 511.922 174.102C512.258 174.278 512.522 174.554 512.714 174.93H512.858V173.994H513.794V178.722C513.794 178.962 513.902 179.082 514.118 179.082H514.418V179.946H513.782C513.51 179.946 513.286 179.858 513.11 179.682C512.942 179.506 512.858 179.282 512.858 179.01V178.938ZM510.938 179.226C511.218 179.226 511.474 179.174 511.706 179.07C511.946 178.966 512.15 178.818 512.318 178.626C512.486 178.434 512.618 178.206 512.714 177.942C512.81 177.67 512.858 177.37 512.858 177.042V176.898C512.858 176.578 512.81 176.286 512.714 176.022C512.618 175.75 512.482 175.518 512.306 175.326C512.138 175.134 511.934 174.986 511.694 174.882C511.462 174.77 511.21 174.714 510.938 174.714C510.658 174.714 510.402 174.766 510.17 174.87C509.938 174.974 509.734 175.122 509.558 175.314C509.39 175.498 509.258 175.726 509.162 175.998C509.066 176.262 509.018 176.554 509.018 176.874V177.066C509.018 177.746 509.194 178.278 509.546 178.662C509.906 179.038 510.37 179.226 510.938 179.226ZM515.682 173.994H517.554V171.546H518.49V173.994H520.794V174.858H518.49V178.722C518.49 178.962 518.598 179.082 518.814 179.082H520.506V179.946H518.478C518.206 179.946 517.982 179.858 517.806 179.682C517.638 179.506 517.554 179.282 517.554 179.01V174.858H515.682V173.994ZM527.553 178.938H527.409C527.217 179.338 526.949 179.634 526.605 179.826C526.269 180.018 525.913 180.114 525.537 180.114C525.145 180.114 524.781 180.05 524.445 179.922C524.109 179.786 523.813 179.59 523.557 179.334C523.309 179.07 523.113 178.75 522.969 178.374C522.825 177.998 522.753 177.562 522.753 177.066V176.874C522.753 176.386 522.825 175.954 522.969 175.578C523.113 175.202 523.309 174.886 523.557 174.63C523.813 174.366 524.109 174.166 524.445 174.03C524.781 173.894 525.137 173.826 525.513 173.826C525.921 173.826 526.289 173.918 526.617 174.102C526.953 174.278 527.217 174.554 527.409 174.93H527.553V173.994H528.489V178.722C528.489 178.962 528.597 179.082 528.813 179.082H529.113V179.946H528.477C528.205 179.946 527.981 179.858 527.805 179.682C527.637 179.506 527.553 179.282 527.553 179.01V178.938ZM525.633 179.226C525.913 179.226 526.169 179.174 526.401 179.07C526.641 178.966 526.845 178.818 527.013 178.626C527.181 178.434 527.313 178.206 527.409 177.942C527.505 177.67 527.553 177.37 527.553 177.042V176.898C527.553 176.578 527.505 176.286 527.409 176.022C527.313 175.75 527.177 175.518 527.001 175.326C526.833 175.134 526.629 174.986 526.389 174.882C526.157 174.77 525.905 174.714 525.633 174.714C525.353 174.714 525.097 174.766 524.865 174.87C524.633 174.974 524.429 175.122 524.253 175.314C524.085 175.498 523.953 175.726 523.857 175.998C523.761 176.262 523.713 176.554 523.713 176.874V177.066C523.713 177.746 523.889 178.278 524.241 178.662C524.601 179.038 525.065 179.226 525.633 179.226Z" fill="black"/>
<path d="M328.354 191.057C328.549 190.862 328.549 190.546 328.354 190.35L325.172 187.168C324.976 186.973 324.66 186.973 324.464 187.168C324.269 187.364 324.269 187.68 324.464 187.875L327.293 190.704L324.464 193.532C324.269 193.728 324.269 194.044 324.464 194.239C324.66 194.435 324.976 194.435 325.172 194.239L328.354 191.057ZM328 190.204L134.75 190.204V191.204L328 191.204V190.204Z" fill="#8A99A0"/>
<path d="M587.729 191.057C587.924 190.862 587.924 190.546 587.729 190.35L584.547 187.168C584.351 186.973 584.035 186.973 583.839 187.168C583.644 187.364 583.644 187.68 583.839 187.875L586.668 190.704L583.839 193.532C583.644 193.728 583.644 194.044 583.839 194.239C584.035 194.435 584.351 194.435 584.547 194.239L587.729 191.057ZM587.375 190.204L393.875 190.204V191.204L587.375 191.204V190.204Z" fill="#8A99A0"/>
<path d="M93.2409 103.087H91.4049L90.6249 95.1194H90.4809L89.7009 103.087H87.8649L87.0129 94.6874H87.9249L88.7289 102.655H88.8729L89.6289 94.6874H91.4769L92.2329 102.655H92.3769L93.1809 94.6874H94.0929L93.2409 103.087ZM94.9365 97.1354H97.0965V97.9274H97.2405C97.3925 97.5994 97.6085 97.3594 97.8885 97.2074C98.1685 97.0474 98.4885 96.9674 98.8485 96.9674C99.4485 96.9674 99.9325 97.1634 100.301 97.5554C100.669 97.9474 100.865 98.5194 100.889 99.2714L99.9045 99.4154C99.9045 98.8634 99.7725 98.4674 99.5085 98.2274C99.2445 97.9794 98.9205 97.8554 98.5365 97.8554C98.2885 97.8554 98.0725 97.9034 97.8885 97.9994C97.7125 98.0954 97.5645 98.2274 97.4445 98.3954C97.3245 98.5634 97.2365 98.7594 97.1805 98.9834C97.1245 99.2074 97.0965 99.4474 97.0965 99.7034V102.223H98.6085V103.087H94.7925V102.223H96.1605V97.9994H94.9365V97.1354ZM104.468 95.3594C104.468 95.1274 104.548 94.9314 104.708 94.7714C104.876 94.6034 105.076 94.5194 105.308 94.5194C105.54 94.5194 105.736 94.6034 105.896 94.7714C106.064 94.9314 106.148 95.1274 106.148 95.3594C106.148 95.5914 106.064 95.7914 105.896 95.9594C105.736 96.1194 105.54 96.1994 105.308 96.1994C105.076 96.1994 104.876 96.1194 104.708 95.9594C104.548 95.7914 104.468 95.5914 104.468 95.3594ZM102.764 102.223H104.852V97.9994H102.98V97.1354H105.788V102.223H107.732V103.087H102.764V102.223ZM109.764 97.1354H111.636V94.6874H112.572V97.1354H114.876V97.9994H112.572V101.863C112.572 102.103 112.68 102.223 112.896 102.223H114.588V103.087H112.56C112.288 103.087 112.064 102.999 111.888 102.823C111.72 102.647 111.636 102.423 111.636 102.151V97.9994H109.764V97.1354ZM117.999 100.399C118.023 100.991 118.207 101.467 118.551 101.827C118.895 102.187 119.375 102.367 119.991 102.367C120.271 102.367 120.515 102.335 120.723 102.271C120.931 102.207 121.107 102.119 121.251 102.007C121.403 101.895 121.523 101.767 121.611 101.623C121.707 101.471 121.783 101.311 121.839 101.143L122.727 101.383C122.559 101.935 122.247 102.387 121.791 102.739C121.343 103.083 120.735 103.255 119.967 103.255C119.543 103.255 119.151 103.183 118.791 103.039C118.439 102.887 118.135 102.675 117.879 102.403C117.623 102.131 117.423 101.807 117.279 101.431C117.135 101.055 117.063 100.639 117.063 100.183V99.8954C117.063 99.4794 117.135 99.0914 117.279 98.7314C117.431 98.3714 117.639 98.0634 117.903 97.8074C118.167 97.5434 118.475 97.3394 118.827 97.1954C119.187 97.0434 119.575 96.9674 119.991 96.9674C120.479 96.9674 120.899 97.0594 121.251 97.2434C121.611 97.4194 121.903 97.6394 122.127 97.9034C122.359 98.1674 122.527 98.4554 122.631 98.7674C122.743 99.0794 122.799 99.3674 122.799 99.6314V100.399H117.999ZM119.991 97.8554C119.727 97.8554 119.479 97.8994 119.247 97.9874C119.023 98.0674 118.823 98.1834 118.647 98.3354C118.479 98.4874 118.339 98.6674 118.227 98.8754C118.123 99.0754 118.055 99.2954 118.023 99.5354H121.863C121.847 99.2794 121.783 99.0474 121.671 98.8394C121.567 98.6314 121.427 98.4554 121.251 98.3114C121.083 98.1674 120.887 98.0554 120.663 97.9754C120.447 97.8954 120.223 97.8554 119.991 97.8554Z" fill="black"/>
<path d="M610.605 103.087H609.597V100.279C609.597 100.071 609.549 99.9114 609.453 99.7994C609.357 99.6874 609.189 99.6314 608.949 99.6314H606.333V103.087H605.325V94.6874H608.325C608.757 94.6874 609.133 94.7514 609.453 94.8794C609.773 94.9994 610.037 95.1634 610.245 95.3714C610.461 95.5794 610.621 95.8234 610.725 96.1034C610.837 96.3754 610.893 96.6634 610.893 96.9674V97.3274C610.893 97.6394 610.805 97.9514 610.629 98.2634C610.461 98.5754 610.197 98.8154 609.837 98.9834V99.1274C610.077 99.1674 610.265 99.2634 610.401 99.4154C610.537 99.5674 610.605 99.7834 610.605 100.063V103.087ZM606.333 98.6954H608.205C608.773 98.6954 609.193 98.5754 609.465 98.3354C609.745 98.0874 609.885 97.7274 609.885 97.2554V97.0394C609.885 96.6154 609.745 96.2754 609.465 96.0194C609.193 95.7554 608.773 95.6234 608.205 95.6234H606.333V98.6954ZM613.38 100.399C613.404 100.991 613.588 101.467 613.932 101.827C614.276 102.187 614.756 102.367 615.372 102.367C615.652 102.367 615.896 102.335 616.104 102.271C616.312 102.207 616.488 102.119 616.632 102.007C616.784 101.895 616.904 101.767 616.992 101.623C617.088 101.471 617.164 101.311 617.22 101.143L618.108 101.383C617.94 101.935 617.628 102.387 617.172 102.739C616.724 103.083 616.116 103.255 615.348 103.255C614.924 103.255 614.532 103.183 614.172 103.039C613.82 102.887 613.516 102.675 613.26 102.403C613.004 102.131 612.804 101.807 612.66 101.431C612.516 101.055 612.444 100.639 612.444 100.183V99.8954C612.444 99.4794 612.516 99.0914 612.66 98.7314C612.812 98.3714 613.02 98.0634 613.284 97.8074C613.548 97.5434 613.856 97.3394 614.208 97.1954C614.568 97.0434 614.956 96.9674 615.372 96.9674C615.86 96.9674 616.28 97.0594 616.632 97.2434C616.992 97.4194 617.284 97.6394 617.508 97.9034C617.74 98.1674 617.908 98.4554 618.012 98.7674C618.124 99.0794 618.18 99.3674 618.18 99.6314V100.399H613.38ZM615.372 97.8554C615.108 97.8554 614.86 97.8994 614.628 97.9874C614.404 98.0674 614.204 98.1834 614.028 98.3354C613.86 98.4874 613.72 98.6674 613.608 98.8754C613.504 99.0754 613.436 99.2954 613.404 99.5354H617.244C617.228 99.2794 617.164 99.0474 617.052 98.8394C616.948 98.6314 616.808 98.4554 616.632 98.3114C616.464 98.1674 616.268 98.0554 616.044 97.9754C615.828 97.8954 615.604 97.8554 615.372 97.8554ZM624.364 102.079H624.22C624.028 102.479 623.76 102.775 623.416 102.967C623.08 103.159 622.724 103.255 622.348 103.255C621.956 103.255 621.592 103.191 621.256 103.063C620.92 102.927 620.624 102.731 620.368 102.475C620.12 102.211 619.924 101.891 619.78 101.515C619.636 101.139 619.564 100.703 619.564 100.207V100.015C619.564 99.5274 619.636 99.0954 619.78 98.7194C619.924 98.3434 620.12 98.0274 620.368 97.7714C620.624 97.5074 620.92 97.3074 621.256 97.1714C621.592 97.0354 621.948 96.9674 622.324 96.9674C622.732 96.9674 623.1 97.0594 623.428 97.2434C623.764 97.4194 624.028 97.6954 624.22 98.0714H624.364V97.1354H625.3V101.863C625.3 102.103 625.408 102.223 625.624 102.223H625.924V103.087H625.288C625.016 103.087 624.792 102.999 624.616 102.823C624.448 102.647 624.364 102.423 624.364 102.151V102.079ZM622.444 102.367C622.724 102.367 622.98 102.315 623.212 102.211C623.452 102.107 623.656 101.959 623.824 101.767C623.992 101.575 624.124 101.347 624.22 101.083C624.316 100.811 624.364 100.511 624.364 100.183V100.039C624.364 99.7194 624.316 99.4274 624.22 99.1634C624.124 98.8914 623.988 98.6594 623.812 98.4674C623.644 98.2754 623.44 98.1274 623.2 98.0234C622.968 97.9114 622.716 97.8554 622.444 97.8554C622.164 97.8554 621.908 97.9074 621.676 98.0114C621.444 98.1154 621.24 98.2634 621.064 98.4554C620.896 98.6394 620.764 98.8674 620.668 99.1394C620.572 99.4034 620.524 99.6954 620.524 100.015V100.207C620.524 100.887 620.7 101.419 621.052 101.803C621.412 102.179 621.876 102.367 622.444 102.367ZM632 102.175H631.856C631.76 102.359 631.636 102.519 631.484 102.655C631.34 102.791 631.18 102.903 631.004 102.991C630.836 103.079 630.656 103.143 630.464 103.183C630.272 103.231 630.088 103.255 629.912 103.255C629.512 103.255 629.14 103.187 628.796 103.051C628.452 102.915 628.148 102.719 627.884 102.463C627.628 102.207 627.424 101.891 627.272 101.515C627.128 101.131 627.056 100.695 627.056 100.207V100.015C627.056 99.5354 627.132 99.1074 627.284 98.7314C627.436 98.3474 627.64 98.0274 627.896 97.7714C628.152 97.5074 628.452 97.3074 628.796 97.1714C629.14 97.0354 629.504 96.9674 629.888 96.9674C630.296 96.9674 630.676 97.0594 631.028 97.2434C631.388 97.4194 631.664 97.6954 631.856 98.0714H632V94.6874H632.936V103.087H632V102.175ZM630.008 102.367C630.288 102.367 630.548 102.315 630.788 102.211C631.028 102.107 631.236 101.959 631.412 101.767C631.596 101.575 631.74 101.347 631.844 101.083C631.948 100.811 632 100.511 632 100.183V100.039C632 99.7194 631.948 99.4274 631.844 99.1634C631.74 98.8914 631.596 98.6594 631.412 98.4674C631.236 98.2754 631.024 98.1274 630.776 98.0234C630.536 97.9114 630.28 97.8554 630.008 97.8554C629.728 97.8554 629.464 97.9074 629.216 98.0114C628.976 98.1154 628.764 98.2634 628.58 98.4554C628.404 98.6474 628.264 98.8754 628.16 99.1394C628.064 99.4034 628.016 99.6954 628.016 100.015V100.207C628.016 100.543 628.064 100.843 628.16 101.107C628.264 101.371 628.404 101.599 628.58 101.791C628.764 101.975 628.976 102.119 629.216 102.223C629.456 102.319 629.72 102.367 630.008 102.367Z" fill="black"/>
<defs>
<clipPath id="clip0_12170_1112">
<rect width="31.6623" height="29.0238" fill="white" transform="translate(630.919 164.434)"/>
</clipPath>
</defs>
</svg>
